<?xml version="1.0" encoding="UTF-8" standalone="no"?>
<!-- Created with Inkscape (http://www.inkscape.org/) -->

<svg
   width="210mm"
   height="297mm"
   viewBox="0 0 210 297"
   version="1.1"
   id="svg5"
   inkscape:version="1.1.2 (b8e25be833, 2022-02-05)"
   sodipodi:docname="ExampleEnsembleDecomposition.svg"
   xmlns:inkscape="http://www.inkscape.org/namespaces/inkscape"
   xmlns:sodipodi="http://sodipodi.sourceforge.net/DTD/sodipodi-0.dtd"
   xmlns:xlink="http://www.w3.org/1999/xlink"
   xmlns="http://www.w3.org/2000/svg"
   xmlns:svg="http://www.w3.org/2000/svg">
  <sodipodi:namedview
     id="namedview7"
     pagecolor="#ffffff"
     bordercolor="#111111"
     borderopacity="1"
     inkscape:pageshadow="0"
     inkscape:pageopacity="0"
     inkscape:pagecheckerboard="1"
     inkscape:document-units="mm"
     showgrid="false"
     inkscape:snap-perpendicular="true"
     inkscape:snap-tangential="true"
     inkscape:snap-bbox="true"
     inkscape:bbox-paths="true"
     inkscape:bbox-nodes="true"
     inkscape:snap-bbox-edge-midpoints="true"
     inkscape:snap-bbox-midpoints="true"
     inkscape:object-paths="true"
     inkscape:snap-intersection-paths="true"
     inkscape:snap-object-midpoints="true"
     inkscape:snap-center="true"
     showguides="true"
     inkscape:guide-bbox="true"
     inkscape:snap-global="false"
     inkscape:zoom="6.0069951"
     inkscape:cx="309.63901"
     inkscape:cy="223.07326"
     inkscape:window-width="2483"
     inkscape:window-height="1417"
     inkscape:window-x="69"
     inkscape:window-y="-8"
     inkscape:window-maximized="1"
     inkscape:current-layer="layer1">
    <sodipodi:guide
       position="66.642665,235.95554"
       orientation="0,1"
       id="guide1088" />
  </sodipodi:namedview>
  <defs
     id="defs2">
    <marker
       style="overflow:visible;"
       id="Arrow2Lend"
       refX="0.0"
       refY="0.0"
       orient="auto"
       inkscape:stockid="Arrow2Lend"
       inkscape:isstock="true">
      <path
         transform="scale(1.1) rotate(180) translate(1,0)"
         d="M 8.7185878,4.0337352 L -2.2072895,0.016013256 L 8.7185884,-4.0017078 C 6.9730900,-1.6296469 6.9831476,1.6157441 8.7185878,4.0337352 z "
         style="stroke:context-stroke;fill-rule:evenodd;fill:context-stroke;stroke-width:0.62500000;stroke-linejoin:round;"
         id="path880" />
    </marker>
    <marker
       style="overflow:visible"
       id="Arrow2Lstart"
       refX="0.0"
       refY="0.0"
       orient="auto"
       inkscape:stockid="Arrow2Lstart"
       inkscape:isstock="true">
      <path
         transform="scale(1.1) translate(1,0)"
         d="M 8.7185878,4.0337352 L -2.2072895,0.016013256 L 8.7185884,-4.0017078 C 6.9730900,-1.6296469 6.9831476,1.6157441 8.7185878,4.0337352 z "
         style="stroke:context-stroke;fill-rule:evenodd;fill:context-stroke;stroke-width:0.62500000;stroke-linejoin:round"
         id="path877" />
    </marker>
    <g
       id="g16">
      <symbol
         overflow="visible"
         id="symbol3907">
        <path
           style="stroke:none;"
           d=""
           id="path5605" />
      </symbol>
      <symbol
         overflow="visible"
         id="symbol5460">
        <path
           style="stroke:none;"
           d="M 2.15625 1.171875 C 2.15625 1.5625 1.890625 2.203125 0.8125 2.265625 C 0.75 2.28125 0.71875 2.328125 0.71875 2.375 C 0.71875 2.5 0.828125 2.5 0.921875 2.5 C 1.890625 2.5 2.8125 2 2.828125 1.25 L 2.828125 -1.03125 C 2.828125 -1.421875 2.828125 -1.734375 3.21875 -2.0625 C 3.5625 -2.359375 3.953125 -2.375 4.171875 -2.375 C 4.21875 -2.390625 4.25 -2.4375 4.25 -2.5 C 4.25 -2.59375 4.203125 -2.59375 4.09375 -2.609375 C 3.4375 -2.640625 2.953125 -3 2.84375 -3.484375 C 2.828125 -3.59375 2.828125 -3.625 2.828125 -3.984375 L 2.828125 -5.953125 C 2.828125 -6.375 2.828125 -6.6875 2.34375 -7.0625 C 1.9375 -7.375 1.25 -7.484375 0.921875 -7.484375 C 0.828125 -7.484375 0.71875 -7.484375 0.71875 -7.359375 C 0.71875 -7.265625 0.78125 -7.265625 0.875 -7.25 C 1.5 -7.21875 2 -6.890625 2.125 -6.390625 C 2.15625 -6.296875 2.15625 -6.28125 2.15625 -5.921875 L 2.15625 -3.828125 C 2.15625 -3.375 2.234375 -3.203125 2.546875 -2.875 C 2.765625 -2.671875 3.046875 -2.578125 3.328125 -2.5 C 2.515625 -2.265625 2.15625 -1.796875 2.15625 -1.21875 Z M 2.15625 1.171875 "
           id="path8072" />
      </symbol>
    </g>
  </defs>
  <g
     inkscape:label="Layer 1"
     inkscape:groupmode="layer"
     id="layer1">
    <path
       id="path1334"
       style="fill:none;stroke:#999999;stroke-width:1.00157;stroke-linecap:round;stroke-linejoin:round;stroke-miterlimit:4;stroke-dasharray:1.00157, 3.00471;stroke-opacity:1;stroke-dashoffset:0"
       d="M 252.37858 230.71923 A 58.951119 18.645882 0 0 1 252.37858 230.71923 A 58.951119 18.645882 0 0 1 311.3297 212.07335 A 58.951119 18.645882 0 0 1 370.28082 230.71923 "
       transform="scale(0.26458333)" />
    <path
       style="fill:none;stroke:#000000;stroke-width:0.264583px;stroke-linecap:butt;stroke-linejoin:miter;stroke-opacity:1"
       d="M 69.11809,69.266275 96.867751,55.284819"
       id="path1370" />
    <circle
       style="fill:none;stroke:#999999;stroke-width:0.265;stroke-linecap:round;stroke-linejoin:round;stroke-opacity:1;stroke-miterlimit:4;stroke-dasharray:none"
       id="path881"
       cx="82.37265"
       cy="61.044464"
       r="15.597484" />
    <path
       id="circle1051"
       style="fill:none;stroke:#999999;stroke-width:1.00157;stroke-linecap:round;stroke-linejoin:round;stroke-miterlimit:4;stroke-dasharray:none;stroke-opacity:1"
       d="M 370.28082 230.71923 A 58.951119 18.645882 0 0 1 370.28082 230.71923 L 370.28082 230.71923 A 58.951119 18.645882 0 0 1 311.3297 249.36512 A 58.951119 18.645882 0 0 1 252.37858 230.71923 "
       transform="scale(0.26458333)" />
    <circle
       style="fill:#000000;stroke:none;stroke-width:0.264999;stroke-linecap:round;stroke-linejoin:round;stroke-miterlimit:4;stroke-dasharray:none;stroke-dashoffset:0;stroke-opacity:1"
       id="path1510"
       cx="96.867592"
       cy="55.284897"
       r="0.70388001" />
    <circle
       style="fill:#000000;stroke:none;stroke-width:0.264999;stroke-linecap:round;stroke-linejoin:round;stroke-miterlimit:4;stroke-dasharray:none;stroke-dashoffset:0;stroke-opacity:1"
       id="circle1636"
       cx="69.058563"
       cy="69.384415"
       r="0.70388001" />
    <text
       xml:space="preserve"
       style="font-size:2.82223px;line-height:1.25;font-family:sans-serif;text-align:start;text-anchor:start;stroke-width:0.264583"
       x="99.861656"
       y="50.13121"
       id="text2784"><tspan
         sodipodi:role="line"
         id="tspan2782"
         style="text-align:start;text-anchor:start;stroke-width:0.264583"
         x="99.861656"
         y="50.13121" /><tspan
         sodipodi:role="line"
         style="text-align:start;text-anchor:start;stroke-width:0.264583"
         id="tspan2786"
         x="99.861656"
         y="53.658997">$\sigma_a$</tspan></text>
    <text
       xml:space="preserve"
       style="font-size:2.82223px;line-height:1.25;font-family:sans-serif;text-align:end;text-anchor:end;stroke-width:0.264583"
       x="87.629204"
       y="55.52515"
       id="text2784-0"><tspan
         sodipodi:role="line"
         id="tspan2782-9"
         style="text-align:end;text-anchor:end;stroke-width:0.264583"
         x="87.629204"
         y="55.52515" /><tspan
         sodipodi:role="line"
         style="text-align:end;text-anchor:end;stroke-width:0.264583"
         id="tspan2786-1"
         x="87.629204"
         y="59.052937">$\rho$</tspan></text>
    <circle
       style="fill:#000000;stroke:none;stroke-width:0.264999;stroke-linecap:round;stroke-linejoin:round;stroke-miterlimit:4;stroke-dasharray:none;stroke-dashoffset:0;stroke-opacity:1"
       id="circle3462"
       cx="89.483788"
       cy="59.005173"
       r="0.70388001" />
    <text
       xml:space="preserve"
       style="font-size:2.82223px;line-height:1.25;font-family:sans-serif;text-align:end;text-anchor:end;stroke-width:0.264583"
       x="67.275208"
       y="69.665436"
       id="text4912"><tspan
         sodipodi:role="line"
         id="tspan4908"
         style="text-align:end;text-anchor:end;stroke-width:0.264583"
         x="51.474575"
         y="69.665436" /><tspan
         sodipodi:role="line"
         style="text-align:end;text-anchor:end;stroke-width:0.264583"
         id="tspan4910"
         x="51.474575"
         y="73.193222">$\sigma_b$</tspan></text>
    <g
       id="g9526"
       style="stroke-width:1.45033;fill:#000000"
       transform="matrix(0.26796559,0.48128635,-0.75403859,0.41982574,128.77944,-19.85867)">
      <g
         style="fill:#000000;fill-opacity:1;stroke-width:1.45033"
         id="g4461">
        <use
           xlink:href="#symbol5460"
           x="91.925003"
           y="81.962997"
           id="use9596"
           width="100%"
           height="100%"
           style="stroke-width:1.45033;fill:#000000" />
      </g>
    </g>
    <text
       xml:space="preserve"
       style="font-size:2.82223px;line-height:1.25;font-family:sans-serif;text-align:center;text-anchor:middle;fill:#000000;stroke-width:0.331174"
       x="95.491455"
       y="62.148113"
       id="text7530"><tspan
         sodipodi:role="line"
         id="tspan7528"
         style="fill:#000000;stroke-width:0.331174"
         x="95.491455"
         y="62.148113">$p$</tspan></text>
  </g>
  <inkscape:templateinfo>
    <inkscape:name>Default Template</inkscape:name>
    <inkscape:author>Joachim Favre</inkscape:author>
    <inkscape:shortdesc>Arrow definitions, snapping (including perpendicular and tangential)</inkscape:shortdesc>
    <inkscape:date>2022-02-19</inkscape:date>
  </inkscape:templateinfo>
</svg>
