<?xml version="1.0" encoding="UTF-8" standalone="no"?>
<!-- Created with Inkscape (http://www.inkscape.org/) -->

<svg
   width="210mm"
   height="297mm"
   viewBox="0 0 210 297"
   version="1.1"
   id="svg5"
   inkscape:version="1.1.2 (b8e25be833, 2022-02-05)"
   sodipodi:docname="CourbeOrienteePositivement.svg"
   xmlns:inkscape="http://www.inkscape.org/namespaces/inkscape"
   xmlns:sodipodi="http://sodipodi.sourceforge.net/DTD/sodipodi-0.dtd"
   xmlns="http://www.w3.org/2000/svg"
   xmlns:svg="http://www.w3.org/2000/svg">
  <sodipodi:namedview
     id="namedview7"
     pagecolor="#ffffff"
     bordercolor="#111111"
     borderopacity="1"
     inkscape:pageshadow="0"
     inkscape:pageopacity="0"
     inkscape:pagecheckerboard="1"
     inkscape:document-units="mm"
     showgrid="false"
     inkscape:snap-perpendicular="true"
     inkscape:snap-tangential="true"
     inkscape:snap-bbox="true"
     inkscape:bbox-paths="true"
     inkscape:bbox-nodes="true"
     inkscape:snap-bbox-edge-midpoints="true"
     inkscape:snap-bbox-midpoints="true"
     inkscape:object-paths="true"
     inkscape:snap-intersection-paths="true"
     inkscape:snap-object-midpoints="true"
     inkscape:snap-center="true"
     inkscape:zoom="1.8116734"
     inkscape:cx="155.10522"
     inkscape:cy="319.31803"
     inkscape:window-width="1423"
     inkscape:window-height="978"
     inkscape:window-x="70"
     inkscape:window-y="-6"
     inkscape:window-maximized="1"
     inkscape:current-layer="layer1" />
  <defs
     id="defs2">
    <inkscape:path-effect
       effect="spiro"
       id="path-effect872"
       is_visible="true"
       lpeversion="1" />
    <marker
       style="overflow:visible;"
       id="Arrow2Lend"
       refX="0.0"
       refY="0.0"
       orient="auto"
       inkscape:stockid="Arrow2Lend"
       inkscape:isstock="true">
      <path
         transform="scale(1.1) rotate(180) translate(1,0)"
         d="M 8.7185878,4.0337352 L -2.2072895,0.016013256 L 8.7185884,-4.0017078 C 6.9730900,-1.6296469 6.9831476,1.6157441 8.7185878,4.0337352 z "
         style="stroke:context-stroke;fill-rule:evenodd;fill:context-stroke;stroke-width:0.62500000;stroke-linejoin:round;"
         id="path880" />
    </marker>
    <marker
       style="overflow:visible"
       id="Arrow2Lstart"
       refX="0.0"
       refY="0.0"
       orient="auto"
       inkscape:stockid="Arrow2Lstart"
       inkscape:isstock="true">
      <path
         transform="scale(1.1) translate(1,0)"
         d="M 8.7185878,4.0337352 L -2.2072895,0.016013256 L 8.7185884,-4.0017078 C 6.9730900,-1.6296469 6.9831476,1.6157441 8.7185878,4.0337352 z "
         style="stroke:context-stroke;fill-rule:evenodd;fill:context-stroke;stroke-width:0.62500000;stroke-linejoin:round"
         id="path877" />
    </marker>
  </defs>
  <g
     inkscape:label="Layer 1"
     inkscape:groupmode="layer"
     id="layer1">
    <path
       style="fill:none;stroke:#000000;stroke-width:0.264583px;stroke-linecap:butt;stroke-linejoin:miter;stroke-opacity:1;marker-start:url(#Arrow2Lend)"
       d="m 80.549373,42.133519 c -4.891174,-0.666717 -9.94762,-0.247305 -14.606157,1.385522 -4.658537,1.632827 -8.904759,4.493761 -12.03318,8.312278 -3.12842,3.818518 -5.109642,8.596972 -5.427342,13.523143 -0.317699,4.926171 1.060358,9.973554 3.977666,13.95569 3.517503,4.801406 9.086896,7.856841 14.911111,9.083561 5.824216,1.226721 11.899672,0.747285 17.71445,-0.523417 11.629556,-2.541402 22.498339,-8.185081 34.292379,-9.799365 7.01851,-0.960643 14.30338,-0.484582 21.02499,-2.721163 3.3608,-1.11829 6.5503,-2.946624 8.85279,-5.638109 2.3025,-2.691485 3.6406,-6.305651 3.16812,-9.81597 -0.26164,-1.943845 -1.06316,-3.801268 -2.22768,-5.379516 -1.16453,-1.578249 -2.68527,-2.880725 -4.38031,-3.86756 -3.39007,-1.973671 -7.40206,-2.6636 -11.32472,-2.63793 -7.84533,0.05134 -15.54059,2.807513 -23.37466,2.384311 -5.28625,-0.285567 -10.37892,-2.008157 -15.35466,-3.81592 -4.975743,-1.807763 -9.967343,-3.730546 -15.212797,-4.445555 z"
       id="path870"
       inkscape:path-effect="#path-effect872"
       inkscape:original-d="M 80.549373,42.133519 C 70.359957,39.379429 61.823628,66.918204 52.46036,79.310152 43.097092,91.702098 97.072586,78.484269 119.3783,78.070931 141.68402,77.657594 141.40916,65.954367 152.4242,59.895689 163.43923,53.837009 124.88622,53.562157 111.11683,50.394994 97.347438,47.227831 90.73879,44.887607 80.549373,42.133519 Z" />
    <text
       xml:space="preserve"
       style="font-size:2.82223px;line-height:1.25;font-family:sans-serif;text-align:end;text-anchor:end;stroke-width:0.264583"
       x="56.265869"
       y="41.200356"
       id="text1638"><tspan
         sodipodi:role="line"
         id="tspan1636"
         style="text-align:end;text-anchor:end;stroke-width:0.264583"
         x="56.265869"
         y="41.200356">$\Gamma$</tspan></text>
  </g>
  <inkscape:templateinfo>
    <inkscape:name>Default Template</inkscape:name>
    <inkscape:author>Joachim Favre</inkscape:author>
    <inkscape:shortdesc>Arrow definitions, snapping (including perpendicular and tangential)</inkscape:shortdesc>
    <inkscape:date>2022-02-19</inkscape:date>
  </inkscape:templateinfo>
</svg>
