<?xml version="1.0" encoding="UTF-8" standalone="no"?>
<!-- Created with Inkscape (http://www.inkscape.org/) -->

<svg
   sodipodi:docname="SummaryTwoPartyComputation.svg"
   inkscape:version="1.2.2 (732a01da63, 2022-12-09)"
   id="svg5"
   version="1.1"
   viewBox="0 0 122.67004 25.647219"
   height="25.647219mm"
   width="122.67004mm"
   xmlns:inkscape="http://www.inkscape.org/namespaces/inkscape"
   xmlns:sodipodi="http://sodipodi.sourceforge.net/DTD/sodipodi-0.dtd"
   xmlns="http://www.w3.org/2000/svg"
   xmlns:svg="http://www.w3.org/2000/svg">
  <sodipodi:namedview
     id="namedview7"
     pagecolor="#ffffff"
     bordercolor="#111111"
     borderopacity="1"
     inkscape:pageshadow="0"
     inkscape:pageopacity="0"
     inkscape:pagecheckerboard="1"
     inkscape:document-units="mm"
     showgrid="true"
     inkscape:snap-perpendicular="true"
     inkscape:snap-tangential="true"
     inkscape:snap-bbox="true"
     inkscape:bbox-paths="true"
     inkscape:bbox-nodes="true"
     inkscape:snap-bbox-edge-midpoints="true"
     inkscape:snap-bbox-midpoints="true"
     inkscape:object-paths="true"
     inkscape:snap-intersection-paths="true"
     inkscape:snap-object-midpoints="true"
     inkscape:snap-center="true"
     inkscape:showpageshadow="0"
     inkscape:deskcolor="#d1d1d1"
     inkscape:zoom="5.306515"
     inkscape:cx="32.789882"
     inkscape:cy="77.169291"
     inkscape:window-width="2291"
     inkscape:window-height="1360"
     inkscape:window-x="0"
     inkscape:window-y="338"
     inkscape:window-maximized="0"
     inkscape:current-layer="layer1"
     showguides="true">
    <inkscape:grid
       type="xygrid"
       id="grid1139"
       spacingx="13.229167"
       spacingy="6.6145834"
       enabled="false"
       originx="-51.490744"
       originy="-145.3186" />
    <sodipodi:guide
       position="54.71326,18.924635"
       orientation="1,0"
       id="guide1233"
       inkscape:locked="false" />
    <sodipodi:guide
       position="66.952571,19.045955"
       orientation="1,0"
       id="guide1235"
       inkscape:locked="false" />
    <sodipodi:guide
       position="69.887521,12.215816"
       orientation="0,-1"
       id="guide1237"
       inkscape:locked="false" />
    <sodipodi:guide
       position="60.143661,21.192595"
       orientation="0,-1"
       id="guide1350"
       inkscape:locked="false" />
    <sodipodi:guide
       position="61.522161,2.0816757"
       orientation="0,-1"
       id="guide1352"
       inkscape:locked="false" />
    <sodipodi:guide
       position="26.996313,9.2646461"
       orientation="1,0"
       id="guide1354"
       inkscape:locked="false" />
    <sodipodi:guide
       position="20.616487,20.475245"
       orientation="1,0"
       id="guide1463"
       inkscape:locked="false" />
    <sodipodi:guide
       position="1.4259257,2.0816681"
       orientation="1,0"
       id="guide505"
       inkscape:locked="false" />
  </sodipodi:namedview>
  <defs
     id="defs2">
    <marker
       style="overflow:visible"
       id="Arrow2Lend"
       refX="0"
       refY="0"
       orient="auto"
       inkscape:stockid="Arrow2Lend"
       inkscape:isstock="true">
      <path
         transform="matrix(-1.1,0,0,-1.1,-1.1,0)"
         d="M 8.7185878,4.0337352 -2.2072895,0.01601326 8.7185884,-4.0017078 c -1.7454984,2.3720609 -1.7354408,5.6174519 -6e-7,8.035443 z"
         style="fill:context-stroke;fill-rule:evenodd;stroke:context-stroke;stroke-width:0.625;stroke-linejoin:round"
         id="path880" />
    </marker>
    <marker
       style="overflow:visible"
       id="Arrow2Lstart"
       refX="0"
       refY="0"
       orient="auto"
       inkscape:stockid="Arrow2Lstart"
       inkscape:isstock="true">
      <path
         transform="matrix(1.1,0,0,1.1,1.1,0)"
         d="M 8.7185878,4.0337352 -2.2072895,0.01601326 8.7185884,-4.0017078 c -1.7454984,2.3720609 -1.7354408,5.6174519 -6e-7,8.035443 z"
         style="fill:context-stroke;fill-rule:evenodd;stroke:context-stroke;stroke-width:0.625;stroke-linejoin:round"
         id="path877" />
    </marker>
    <clipPath
       id="clipPath726">
      <path
         clip-rule="nonzero"
         d="M 21,0 H 44 V 9.09375 H 21 Z m 0,0"
         id="path4571" />
    </clipPath>
  </defs>
  <g
     inkscape:label="Layer 1"
     inkscape:groupmode="layer"
     id="layer1"
     transform="translate(-51.49074,-145.31859)">
    <g
       inkscape:label=""
       transform="translate(65.159686,160.10882)"
       id="g226">
      <g
         fill="#000000"
         fill-opacity="1"
         id="g19"
         transform="matrix(0.352778,0,0,0.352778,-2.83126,1.38346)">
        <g
           id="use17"
           transform="translate(6.8850002,9.0939999)" />
      </g>
      <g
         clip-path="url(#clipPath726)"
         id="g25"
         transform="matrix(0.352778,0,0,0.352778,-2.83126,1.38346)">
        <g
           fill="#000000"
           fill-opacity="1"
           id="g23">
          <g
             id="use21"
             transform="translate(20.597,9.0939999)" />
        </g>
      </g>
    </g>
    <g
       id="g11341"
       transform="matrix(0.81968326,0,0,0.75912551,28.124663,89.444915)"
       inkscape:transform-center-x="-2.052137e-06"
       inkscape:transform-center-y="2.6591162"
       style="fill:#0088aa;stroke-width:1.26771">
      <g
         style="fill:#0088aa;fill-opacity:1;stroke-width:1.26771"
         id="g11335">
        <g
           id="use11333"
           style="fill:#0088aa;stroke-width:1.26771"
           transform="translate(94.693001,81.962997)">
          <path
             style="stroke:none;stroke-width:1.26771"
             d="m 6.84375,-3.265625 c 0.15625,0 0.34375,0 0.34375,-0.1875 C 7.1875,-3.65625 7,-3.65625 6.859375,-3.65625 h -5.96875 c -0.140625,0 -0.328125,0 -0.328125,0.203125 0,0.1875 0.1875,0.1875 0.328125,0.1875 z m 0.015625,1.9375 c 0.140625,0 0.328125,0 0.328125,-0.203125 0,-0.1875 -0.1875,-0.1875 -0.34375,-0.1875 H 0.890625 c -0.140625,0 -0.328125,0 -0.328125,0.1875 0,0.203125 0.1875,0.203125 0.328125,0.203125 z m 0,0"
             id="path996" />
        </g>
      </g>
      <g
         style="fill:#0088aa;fill-opacity:1;stroke-width:1.26771"
         id="g11339">
        <g
           id="use11337"
           style="fill:#0088aa;stroke-width:1.26771"
           transform="translate(100.781,81.962997)">
          <path
             style="stroke:none;stroke-width:1.26771"
             d="M 7.234375,-3.265625 C 7.65625,-2.90625 8.171875,-2.640625 8.5,-2.5 8.140625,-2.328125 7.640625,-2.078125 7.234375,-1.71875 H 0.90625 c -0.171875,0 -0.359375,0 -0.359375,0.1875 0,0.203125 0.1875,0.203125 0.34375,0.203125 H 6.78125 C 6.3125,-0.875 5.796875,0.015625 5.796875,0.140625 5.796875,0.25 5.921875,0.25 5.984375,0.25 6.0625,0.25 6.125,0.25 6.171875,0.171875 6.375,-0.203125 6.65625,-0.734375 7.3125,-1.3125 8,-1.921875 8.65625,-2.1875 9.1875,-2.34375 c 0.15625,-0.0625 0.171875,-0.0625 0.1875,-0.09375 0.03125,0 0.03125,-0.03125 0.03125,-0.0625 0,-0.015625 0,-0.03125 -0.015625,-0.046875 l -0.03125,-0.03125 c -0.015625,0 -0.03125,-0.015625 -0.21875,-0.078125 -1.34375,-0.390625 -2.34375,-1.296875 -2.90625,-2.375 -0.109375,-0.1875 -0.109375,-0.203125 -0.25,-0.203125 -0.0625,0 -0.1875,0 -0.1875,0.109375 0,0.125 0.5,1 0.984375,1.46875 H 0.890625 c -0.15625,0 -0.34375,0 -0.34375,0.203125 0,0.1875 0.1875,0.1875 0.359375,0.1875 z m 0,0"
             id="path1000" />
        </g>
      </g>
    </g>
    <text
       xml:space="preserve"
       style="font-size:0.705556px;font-family:Roboto;-inkscape-font-specification:Roboto;text-align:center;text-anchor:middle;stroke-width:0.265112;stroke-linejoin:round;stroke-miterlimit:4.1"
       x="132.23103"
       y="158.03067"
       id="text1065"><tspan
         sodipodi:role="line"
         id="tspan1063"
         style="font-size:0.705556px;text-align:center;text-anchor:middle;stroke-width:0.265112"
         x="132.23103"
         y="158.03067">Oblivious</tspan><tspan
         sodipodi:role="line"
         style="font-size:0.705556px;text-align:center;text-anchor:middle;stroke-width:0.265112"
         x="132.23103"
         y="158.91261"
         id="tspan577">transfer</tspan></text>
    <text
       xml:space="preserve"
       style="font-size:0.705556px;font-family:Roboto;-inkscape-font-specification:Roboto;text-align:center;text-anchor:middle;stroke-width:0.265112;stroke-linejoin:round;stroke-miterlimit:4.1"
       x="172.01155"
       y="155.93881"
       id="text1119"><tspan
         sodipodi:role="line"
         id="tspan1117"
         style="font-size:0.705556px;text-align:center;text-anchor:middle;stroke-width:0.265112"
         x="172.01155"
         y="155.93881">Any two-party</tspan><tspan
         sodipodi:role="line"
         style="font-size:0.705556px;text-align:center;text-anchor:middle;stroke-width:0.265112"
         x="172.01155"
         y="156.82076"
         id="tspan1121">computation</tspan><tspan
         sodipodi:role="line"
         style="font-size:0.705556px;text-align:center;text-anchor:middle;stroke-width:0.265112"
         x="172.01155"
         y="157.7027"
         id="tspan579">problem</tspan></text>
    <text
       xml:space="preserve"
       style="font-size:0.705556px;font-family:Roboto;-inkscape-font-specification:Roboto;text-align:center;text-anchor:middle;stroke-width:0.265112;stroke-linejoin:round;stroke-miterlimit:4.1"
       x="92.536644"
       y="157.98932"
       id="text1125"><tspan
         sodipodi:role="line"
         id="tspan1123"
         style="font-size:0.705556px;text-align:center;text-anchor:middle;stroke-width:0.265112"
         x="92.536644"
         y="157.98932">Bit</tspan><tspan
         sodipodi:role="line"
         style="font-size:0.705556px;text-align:center;text-anchor:middle;stroke-width:0.265112"
         x="92.536644"
         y="158.87126"
         id="tspan506">commitment</tspan></text>
    <text
       xml:space="preserve"
       style="font-size:0.705556px;font-family:Roboto;-inkscape-font-specification:Roboto;text-align:center;text-anchor:middle;stroke-width:0.265112;stroke-linejoin:round;stroke-miterlimit:4.1"
       x="52.944916"
       y="168.12346"
       id="text1129"><tspan
         id="tspan1127"
         style="font-size:0.705556px;text-align:center;text-anchor:middle;stroke-width:0.265112"
         x="52.944916"
         y="168.12346"
         sodipodi:role="line">One-way</tspan><tspan
         style="font-size:0.705556px;text-align:center;text-anchor:middle;stroke-width:0.265112"
         x="52.944916"
         y="169.0054"
         id="tspan1137"
         sodipodi:role="line">functions</tspan></text>
    <text
       xml:space="preserve"
       style="font-size:0.705556px;font-family:Roboto;-inkscape-font-specification:Roboto;text-align:center;text-anchor:middle;stroke-width:0.265112;stroke-linejoin:round;stroke-miterlimit:4.1"
       x="52.851208"
       y="147.28999"
       id="text1133"><tspan
         id="tspan1131"
         style="font-size:0.705556px;text-align:center;text-anchor:middle;stroke-width:0.265112"
         x="52.851208"
         y="147.28999"
         sodipodi:role="line">Bounded</tspan><tspan
         style="font-size:0.705556px;text-align:center;text-anchor:middle;stroke-width:0.265112"
         x="52.851208"
         y="148.17194"
         id="tspan575"
         sodipodi:role="line">storage</tspan><tspan
         style="font-size:0.705556px;text-align:center;text-anchor:middle;stroke-width:0.265112"
         x="52.851208"
         y="149.05388"
         id="tspan1135"
         sodipodi:role="line">model</tspan></text>
    <text
       xml:space="preserve"
       style="font-size:2.82223px;font-family:Roboto;-inkscape-font-specification:Roboto;text-align:center;text-anchor:middle;fill:#0088aa;fill-opacity:1;stroke-width:0.265112;stroke-linejoin:round;stroke-miterlimit:4.1"
       x="112.00136"
       y="147.35258"
       id="text1143"><tspan
         sodipodi:role="line"
         id="tspan1141"
         style="fill:#0088aa;fill-opacity:1;stroke-width:0.265112"
         x="112.00136"
         y="147.35258">Q</tspan></text>
    <g
       id="g1231"
       transform="matrix(0.81968361,0,0,0.81968361,16.975111,27.558907)"
       style="stroke-width:1.21998">
      <g
         id="g25194"
         transform="translate(13.602219,80.583576)"
         style="fill:#c83737;stroke-width:1.21998">
        <g
           style="fill:#c83737;fill-opacity:1;stroke-width:1.21998"
           id="g25188">
          <g
             id="use25186"
             style="fill:#c83737;stroke-width:1.21998"
             transform="translate(94.693001,81.962997)">
            <path
               style="stroke:none;stroke-width:1.21998"
               d="m 6.84375,-3.265625 c 0.15625,0 0.34375,0 0.34375,-0.1875 C 7.1875,-3.65625 7,-3.65625 6.859375,-3.65625 h -5.96875 c -0.140625,0 -0.328125,0 -0.328125,0.203125 0,0.1875 0.1875,0.1875 0.328125,0.1875 z m 0.015625,1.9375 c 0.140625,0 0.328125,0 0.328125,-0.203125 0,-0.1875 -0.1875,-0.1875 -0.34375,-0.1875 H 0.890625 c -0.140625,0 -0.328125,0 -0.328125,0.1875 0,0.203125 0.1875,0.203125 0.328125,0.203125 z m 0,0"
               id="path1203" />
          </g>
        </g>
        <g
           style="fill:#c83737;fill-opacity:1;stroke-width:1.21998"
           id="g25192">
          <g
             id="use25190"
             style="fill:#c83737;stroke-width:1.21998"
             transform="translate(100.781,81.962997)">
            <path
               style="stroke:none;stroke-width:1.21998"
               d="M 7.234375,-3.265625 C 7.65625,-2.90625 8.171875,-2.640625 8.5,-2.5 8.140625,-2.328125 7.640625,-2.078125 7.234375,-1.71875 H 0.90625 c -0.171875,0 -0.359375,0 -0.359375,0.1875 0,0.203125 0.1875,0.203125 0.34375,0.203125 H 6.78125 C 6.3125,-0.875 5.796875,0.015625 5.796875,0.140625 5.796875,0.25 5.921875,0.25 5.984375,0.25 6.0625,0.25 6.125,0.25 6.171875,0.171875 6.375,-0.203125 6.65625,-0.734375 7.3125,-1.3125 8,-1.921875 8.65625,-2.1875 9.1875,-2.34375 c 0.15625,-0.0625 0.171875,-0.0625 0.1875,-0.09375 0.03125,0 0.03125,-0.03125 0.03125,-0.0625 0,-0.015625 0,-0.03125 -0.015625,-0.046875 l -0.03125,-0.03125 c -0.015625,0 -0.03125,-0.015625 -0.21875,-0.078125 -1.34375,-0.390625 -2.34375,-1.296875 -2.90625,-2.375 -0.109375,-0.1875 -0.109375,-0.203125 -0.25,-0.203125 -0.0625,0 -0.1875,0 -0.1875,0.109375 0,0.125 0.5,1 0.984375,1.46875 H 0.890625 c -0.15625,0 -0.34375,0 -0.34375,0.203125 0,0.1875 0.1875,0.1875 0.359375,0.1875 z m 0,0"
               id="path1207" />
          </g>
        </g>
      </g>
      <g
         id="g25210"
         transform="matrix(0.54316518,0,0,0.55395654,66.906859,107.30628)"
         style="stroke:#c83737;stroke-width:1.47114;stroke-miterlimit:4;stroke-dasharray:none;stroke-opacity:1">
        <path
           style="fill:none;stroke:#c83737;stroke-width:1.47114;stroke-linecap:round;stroke-linejoin:miter;stroke-miterlimit:4;stroke-dasharray:none;stroke-opacity:1"
           d="m 95.574518,90.617241 -9.194265,9.194266"
           id="path25206" />
        <path
           style="fill:none;stroke:#c83737;stroke-width:1.47114;stroke-linecap:round;stroke-linejoin:miter;stroke-miterlimit:4;stroke-dasharray:none;stroke-opacity:1"
           d="M 95.574518,99.811507 86.380253,90.617241"
           id="path25208" />
      </g>
    </g>
    <text
       xml:space="preserve"
       style="font-size:2.82223px;font-family:Roboto;-inkscape-font-specification:Roboto;text-align:center;text-anchor:middle;fill:#c83737;fill-opacity:1;stroke-width:0.265112;stroke-linejoin:round;stroke-miterlimit:4.1"
       x="112.00136"
       y="155.98959"
       id="text1241"><tspan
         sodipodi:role="line"
         id="tspan1239"
         style="fill:#c83737;fill-opacity:1;stroke-width:0.265112"
         x="112.00136"
         y="155.98959">C</tspan></text>
    <g
       id="g1255"
       transform="matrix(-0.81968326,0,0,0.75912551,196.52264,108.55583)"
       inkscape:transform-center-x="4.8309113e-06"
       inkscape:transform-center-y="2.6591162"
       style="fill:#0088aa;stroke-width:1.26771">
      <g
         style="fill:#0088aa;fill-opacity:1;stroke-width:1.26771"
         id="g1247">
        <g
           id="g1245"
           style="fill:#0088aa;stroke-width:1.26771"
           transform="translate(94.693001,81.962997)">
          <path
             style="stroke:none;stroke-width:1.26771"
             d="m 6.84375,-3.265625 c 0.15625,0 0.34375,0 0.34375,-0.1875 C 7.1875,-3.65625 7,-3.65625 6.859375,-3.65625 h -5.96875 c -0.140625,0 -0.328125,0 -0.328125,0.203125 0,0.1875 0.1875,0.1875 0.328125,0.1875 z m 0.015625,1.9375 c 0.140625,0 0.328125,0 0.328125,-0.203125 0,-0.1875 -0.1875,-0.1875 -0.34375,-0.1875 H 0.890625 c -0.140625,0 -0.328125,0 -0.328125,0.1875 0,0.203125 0.1875,0.203125 0.328125,0.203125 z m 0,0"
             id="path1243" />
        </g>
      </g>
      <g
         style="fill:#0088aa;fill-opacity:1;stroke-width:1.26771"
         id="g1253">
        <g
           id="g1251"
           style="fill:#0088aa;stroke-width:1.26771"
           transform="translate(100.781,81.962997)">
          <path
             style="stroke:none;stroke-width:1.26771"
             d="M 7.234375,-3.265625 C 7.65625,-2.90625 8.171875,-2.640625 8.5,-2.5 8.140625,-2.328125 7.640625,-2.078125 7.234375,-1.71875 H 0.90625 c -0.171875,0 -0.359375,0 -0.359375,0.1875 0,0.203125 0.1875,0.203125 0.34375,0.203125 H 6.78125 C 6.3125,-0.875 5.796875,0.015625 5.796875,0.140625 5.796875,0.25 5.921875,0.25 5.984375,0.25 6.0625,0.25 6.125,0.25 6.171875,0.171875 6.375,-0.203125 6.65625,-0.734375 7.3125,-1.3125 8,-1.921875 8.65625,-2.1875 9.1875,-2.34375 c 0.15625,-0.0625 0.171875,-0.0625 0.1875,-0.09375 0.03125,0 0.03125,-0.03125 0.03125,-0.0625 0,-0.015625 0,-0.03125 -0.015625,-0.046875 l -0.03125,-0.03125 c -0.015625,0 -0.03125,-0.015625 -0.21875,-0.078125 -1.34375,-0.390625 -2.34375,-1.296875 -2.90625,-2.375 -0.109375,-0.1875 -0.109375,-0.203125 -0.25,-0.203125 -0.0625,0 -0.1875,0 -0.1875,0.109375 0,0.125 0.5,1 0.984375,1.46875 H 0.890625 c -0.15625,0 -0.34375,0 -0.34375,0.203125 0,0.1875 0.1875,0.1875 0.359375,0.1875 z m 0,0"
             id="path1249" />
        </g>
      </g>
    </g>
    <text
       xml:space="preserve"
       style="font-size:2.82223px;font-family:Roboto;-inkscape-font-specification:Roboto;text-align:center;text-anchor:middle;fill:#0088aa;fill-opacity:1;stroke-width:0.265112;stroke-linejoin:round;stroke-miterlimit:4.1"
       x="112.00136"
       y="166.46344"
       id="text1259"><tspan
         sodipodi:role="line"
         id="tspan1257"
         style="fill:#0088aa;fill-opacity:1;stroke-width:0.265112"
         x="112.00136"
         y="166.46344">C</tspan></text>
    <g
       id="g1334"
       transform="matrix(0.79175323,0.21214964,-0.19647613,0.73325894,6.8616852,74.008155)"
       inkscape:transform-center-x="0.78365067"
       inkscape:transform-center-y="2.812432"
       style="fill:#0088aa;stroke-width:1.26771">
      <g
         style="fill:#0088aa;fill-opacity:1;stroke-width:1.26771"
         id="g1326">
        <g
           id="g1324"
           style="fill:#0088aa;stroke-width:1.26771"
           transform="translate(94.693001,81.962997)">
          <path
             style="stroke:none;stroke-width:1.26771"
             d="m 6.84375,-3.265625 c 0.15625,0 0.34375,0 0.34375,-0.1875 C 7.1875,-3.65625 7,-3.65625 6.859375,-3.65625 h -5.96875 c -0.140625,0 -0.328125,0 -0.328125,0.203125 0,0.1875 0.1875,0.1875 0.328125,0.1875 z m 0.015625,1.9375 c 0.140625,0 0.328125,0 0.328125,-0.203125 0,-0.1875 -0.1875,-0.1875 -0.34375,-0.1875 H 0.890625 c -0.140625,0 -0.328125,0 -0.328125,0.1875 0,0.203125 0.1875,0.203125 0.328125,0.203125 z m 0,0"
             id="path1322" />
        </g>
      </g>
      <g
         style="fill:#0088aa;fill-opacity:1;stroke-width:1.26771"
         id="g1332">
        <g
           id="g1330"
           style="fill:#0088aa;stroke-width:1.26771"
           transform="translate(100.781,81.962997)">
          <path
             style="stroke:none;stroke-width:1.26771"
             d="M 7.234375,-3.265625 C 7.65625,-2.90625 8.171875,-2.640625 8.5,-2.5 8.140625,-2.328125 7.640625,-2.078125 7.234375,-1.71875 H 0.90625 c -0.171875,0 -0.359375,0 -0.359375,0.1875 0,0.203125 0.1875,0.203125 0.34375,0.203125 H 6.78125 C 6.3125,-0.875 5.796875,0.015625 5.796875,0.140625 5.796875,0.25 5.921875,0.25 5.984375,0.25 6.0625,0.25 6.125,0.25 6.171875,0.171875 6.375,-0.203125 6.65625,-0.734375 7.3125,-1.3125 8,-1.921875 8.65625,-2.1875 9.1875,-2.34375 c 0.15625,-0.0625 0.171875,-0.0625 0.1875,-0.09375 0.03125,0 0.03125,-0.03125 0.03125,-0.0625 0,-0.015625 0,-0.03125 -0.015625,-0.046875 l -0.03125,-0.03125 c -0.015625,0 -0.03125,-0.015625 -0.21875,-0.078125 -1.34375,-0.390625 -2.34375,-1.296875 -2.90625,-2.375 -0.109375,-0.1875 -0.109375,-0.203125 -0.25,-0.203125 -0.0625,0 -0.1875,0 -0.1875,0.109375 0,0.125 0.5,1 0.984375,1.46875 H 0.890625 c -0.15625,0 -0.34375,0 -0.34375,0.203125 0,0.1875 0.1875,0.1875 0.359375,0.1875 z m 0,0"
             id="path1328" />
        </g>
      </g>
    </g>
    <g
       id="g1363">
      <g
         id="g1348"
         transform="matrix(0.79175323,-0.21214964,-0.19647614,-0.73325894,6.8554659,244.65007)"
         inkscape:transform-center-x="0.78364831"
         inkscape:transform-center-y="-2.8124391"
         style="fill:#0088aa;stroke-width:1.26771">
        <g
           style="fill:#0088aa;fill-opacity:1;stroke-width:1.26771"
           id="g1340">
          <g
             id="g1338"
             style="fill:#0088aa;stroke-width:1.26771"
             transform="translate(94.693001,81.962997)">
            <path
               style="stroke:none;stroke-width:1.26771"
               d="m 6.84375,-3.265625 c 0.15625,0 0.34375,0 0.34375,-0.1875 C 7.1875,-3.65625 7,-3.65625 6.859375,-3.65625 h -5.96875 c -0.140625,0 -0.328125,0 -0.328125,0.203125 0,0.1875 0.1875,0.1875 0.328125,0.1875 z m 0.015625,1.9375 c 0.140625,0 0.328125,0 0.328125,-0.203125 0,-0.1875 -0.1875,-0.1875 -0.34375,-0.1875 H 0.890625 c -0.140625,0 -0.328125,0 -0.328125,0.1875 0,0.203125 0.1875,0.203125 0.328125,0.203125 z m 0,0"
               id="path1336" />
          </g>
        </g>
        <g
           style="fill:#0088aa;fill-opacity:1;stroke-width:1.26771"
           id="g1346">
          <g
             id="g1344"
             style="fill:#0088aa;stroke-width:1.26771"
             transform="translate(100.781,81.962997)">
            <path
               style="stroke:none;stroke-width:1.26771"
               d="M 7.234375,-3.265625 C 7.65625,-2.90625 8.171875,-2.640625 8.5,-2.5 8.140625,-2.328125 7.640625,-2.078125 7.234375,-1.71875 H 0.90625 c -0.171875,0 -0.359375,0 -0.359375,0.1875 0,0.203125 0.1875,0.203125 0.34375,0.203125 H 6.78125 C 6.3125,-0.875 5.796875,0.015625 5.796875,0.140625 5.796875,0.25 5.921875,0.25 5.984375,0.25 6.0625,0.25 6.125,0.25 6.171875,0.171875 6.375,-0.203125 6.65625,-0.734375 7.3125,-1.3125 8,-1.921875 8.65625,-2.1875 9.1875,-2.34375 c 0.15625,-0.0625 0.171875,-0.0625 0.1875,-0.09375 0.03125,0 0.03125,-0.03125 0.03125,-0.0625 0,-0.015625 0,-0.03125 -0.015625,-0.046875 l -0.03125,-0.03125 c -0.015625,0 -0.03125,-0.015625 -0.21875,-0.078125 -1.34375,-0.390625 -2.34375,-1.296875 -2.90625,-2.375 -0.109375,-0.1875 -0.109375,-0.203125 -0.25,-0.203125 -0.0625,0 -0.1875,0 -0.1875,0.109375 0,0.125 0.5,1 0.984375,1.46875 H 0.890625 c -0.15625,0 -0.34375,0 -0.34375,0.203125 0,0.1875 0.1875,0.1875 0.359375,0.1875 z m 0,0"
               id="path1342" />
          </g>
        </g>
      </g>
    </g>
    <text
       xml:space="preserve"
       style="font-size:2.82223px;font-family:Roboto;-inkscape-font-specification:Roboto;text-align:center;text-anchor:middle;fill:#0088aa;fill-opacity:1;stroke-width:0.265112;stroke-linejoin:round;stroke-miterlimit:4.1"
       x="72.11618"
       y="151.33807"
       id="text1449"><tspan
         sodipodi:role="line"
         id="tspan1447"
         style="fill:#0088aa;fill-opacity:1;stroke-width:0.265112"
         x="72.11618"
         y="151.33807">Q</tspan></text>
    <text
       xml:space="preserve"
       style="font-size:2.82223px;font-family:Roboto;-inkscape-font-specification:Roboto;text-align:center;text-anchor:middle;fill:#0088aa;fill-opacity:1;stroke-width:0.265112;stroke-linejoin:round;stroke-miterlimit:4.1"
       x="72.08931"
       y="162.70439"
       id="text1453"><tspan
         sodipodi:role="line"
         style="fill:#0088aa;fill-opacity:1;stroke-width:0.265112"
         x="72.08931"
         y="162.70439"
         id="tspan1457">C</tspan></text>
    <g
       id="g1481"
       transform="matrix(0.81968326,0,0,0.75912551,66.571675,98.427622)"
       inkscape:transform-center-x="-2.052137e-06"
       inkscape:transform-center-y="2.6591162"
       style="fill:#0088aa;stroke-width:1.26771">
      <g
         style="fill:#0088aa;fill-opacity:1;stroke-width:1.26771"
         id="g1473">
        <g
           id="g1471"
           style="fill:#0088aa;stroke-width:1.26771"
           transform="translate(94.693001,81.962997)">
          <path
             style="stroke:none;stroke-width:1.26771"
             d="m 6.84375,-3.265625 c 0.15625,0 0.34375,0 0.34375,-0.1875 C 7.1875,-3.65625 7,-3.65625 6.859375,-3.65625 h -5.96875 c -0.140625,0 -0.328125,0 -0.328125,0.203125 0,0.1875 0.1875,0.1875 0.328125,0.1875 z m 0.015625,1.9375 c 0.140625,0 0.328125,0 0.328125,-0.203125 0,-0.1875 -0.1875,-0.1875 -0.34375,-0.1875 H 0.890625 c -0.140625,0 -0.328125,0 -0.328125,0.1875 0,0.203125 0.1875,0.203125 0.328125,0.203125 z m 0,0"
             id="path1469" />
        </g>
      </g>
      <g
         style="fill:#0088aa;fill-opacity:1;stroke-width:1.26771"
         id="g1479">
        <g
           id="g1477"
           style="fill:#0088aa;stroke-width:1.26771"
           transform="translate(100.781,81.962997)">
          <path
             style="stroke:none;stroke-width:1.26771"
             d="M 7.234375,-3.265625 C 7.65625,-2.90625 8.171875,-2.640625 8.5,-2.5 8.140625,-2.328125 7.640625,-2.078125 7.234375,-1.71875 H 0.90625 c -0.171875,0 -0.359375,0 -0.359375,0.1875 0,0.203125 0.1875,0.203125 0.34375,0.203125 H 6.78125 C 6.3125,-0.875 5.796875,0.015625 5.796875,0.140625 5.796875,0.25 5.921875,0.25 5.984375,0.25 6.0625,0.25 6.125,0.25 6.171875,0.171875 6.375,-0.203125 6.65625,-0.734375 7.3125,-1.3125 8,-1.921875 8.65625,-2.1875 9.1875,-2.34375 c 0.15625,-0.0625 0.171875,-0.0625 0.1875,-0.09375 0.03125,0 0.03125,-0.03125 0.03125,-0.0625 0,-0.015625 0,-0.03125 -0.015625,-0.046875 l -0.03125,-0.03125 c -0.015625,0 -0.03125,-0.015625 -0.21875,-0.078125 -1.34375,-0.390625 -2.34375,-1.296875 -2.90625,-2.375 -0.109375,-0.1875 -0.109375,-0.203125 -0.25,-0.203125 -0.0625,0 -0.1875,0 -0.1875,0.109375 0,0.125 0.5,1 0.984375,1.46875 H 0.890625 c -0.15625,0 -0.34375,0 -0.34375,0.203125 0,0.1875 0.1875,0.1875 0.359375,0.1875 z m 0,0"
             id="path1475" />
        </g>
      </g>
    </g>
    <text
       xml:space="preserve"
       style="font-size:2.82223px;font-family:Roboto;-inkscape-font-specification:Roboto;text-align:center;text-anchor:middle;fill:#0088aa;fill-opacity:1;stroke-width:0.265112;stroke-linejoin:round;stroke-miterlimit:4.1"
       x="150.44836"
       y="156.3353"
       id="text1485"><tspan
         sodipodi:role="line"
         id="tspan1483"
         style="fill:#0088aa;fill-opacity:1;stroke-width:0.265112"
         x="150.44836"
         y="156.3353">C</tspan></text>
  </g>
  <inkscape:templateinfo>
    <inkscape:name>Default Template</inkscape:name>
    <inkscape:author>Joachim Favre</inkscape:author>
    <inkscape:shortdesc>Arrow definitions, snapping (including perpendicular and tangential)</inkscape:shortdesc>
    <inkscape:date>2022-02-19</inkscape:date>
  </inkscape:templateinfo>
</svg>
