<?xml version="1.0" encoding="UTF-8" standalone="no"?>
<!-- Created with Inkscape (http://www.inkscape.org/) -->

<svg
   width="175.85541mm"
   height="48.117744mm"
   viewBox="0 0 175.85541 48.117744"
   version="1.1"
   id="svg5"
   inkscape:version="1.1.2 (b8e25be833, 2022-02-05)"
   sodipodi:docname="ExempleCourbes.svg"
   xmlns:inkscape="http://www.inkscape.org/namespaces/inkscape"
   xmlns:sodipodi="http://sodipodi.sourceforge.net/DTD/sodipodi-0.dtd"
   xmlns="http://www.w3.org/2000/svg"
   xmlns:svg="http://www.w3.org/2000/svg">
  <sodipodi:namedview
     id="namedview7"
     pagecolor="#ffffff"
     bordercolor="#111111"
     borderopacity="1"
     inkscape:pageshadow="0"
     inkscape:pageopacity="0"
     inkscape:pagecheckerboard="1"
     inkscape:document-units="mm"
     showgrid="false"
     inkscape:snap-perpendicular="true"
     inkscape:snap-tangential="true"
     inkscape:snap-bbox="false"
     inkscape:bbox-paths="true"
     inkscape:bbox-nodes="true"
     inkscape:snap-bbox-edge-midpoints="true"
     inkscape:snap-bbox-midpoints="true"
     inkscape:object-paths="false"
     inkscape:snap-intersection-paths="false"
     inkscape:snap-object-midpoints="true"
     inkscape:snap-center="true"
     inkscape:zoom="0.64052327"
     inkscape:cx="12.489788"
     inkscape:cy="416.84668"
     inkscape:window-width="2479"
     inkscape:window-height="1417"
     inkscape:window-x="73"
     inkscape:window-y="-8"
     inkscape:window-maximized="1"
     inkscape:current-layer="layer1"
     showguides="true"
     inkscape:guide-bbox="true" />
  <defs
     id="defs2">
    <inkscape:path-effect
       effect="spiro"
       id="path-effect1129"
       is_visible="true"
       lpeversion="1" />
    <inkscape:path-effect
       effect="spiro"
       id="path-effect1125"
       is_visible="true"
       lpeversion="1" />
    <inkscape:path-effect
       effect="bspline"
       id="path-effect876"
       is_visible="true"
       lpeversion="1"
       weight="33.333333"
       steps="2"
       helper_size="0"
       apply_no_weight="true"
       apply_with_weight="true"
       only_selected="false" />
    <inkscape:path-effect
       effect="bspline"
       id="path-effect872"
       is_visible="true"
       lpeversion="1"
       weight="33.333333"
       steps="2"
       helper_size="0"
       apply_no_weight="true"
       apply_with_weight="true"
       only_selected="false" />
    <marker
       style="overflow:visible"
       id="Arrow2Lend"
       refX="0"
       refY="0"
       orient="auto"
       inkscape:stockid="Arrow2Lend"
       inkscape:isstock="true">
      <path
         transform="matrix(-1.1,0,0,-1.1,-1.1,0)"
         d="M 8.7185878,4.0337352 -2.2072895,0.01601326 8.7185884,-4.0017078 c -1.7454984,2.3720609 -1.7354408,5.6174519 -6e-7,8.035443 z"
         style="fill:context-stroke;fill-rule:evenodd;stroke:context-stroke;stroke-width:0.625;stroke-linejoin:round"
         id="path880" />
    </marker>
    <marker
       style="overflow:visible"
       id="Arrow2Lstart"
       refX="0"
       refY="0"
       orient="auto"
       inkscape:stockid="Arrow2Lstart"
       inkscape:isstock="true">
      <path
         transform="matrix(1.1,0,0,1.1,1.1,0)"
         d="M 8.7185878,4.0337352 -2.2072895,0.01601326 8.7185884,-4.0017078 c -1.7454984,2.3720609 -1.7354408,5.6174519 -6e-7,8.035443 z"
         style="fill:context-stroke;fill-rule:evenodd;stroke:context-stroke;stroke-width:0.625;stroke-linejoin:round"
         id="path877" />
    </marker>
  </defs>
  <g
     inkscape:label="Layer 1"
     inkscape:groupmode="layer"
     id="layer1"
     transform="translate(-16.459549,-22.0457)">
    <path
       style="fill:none;stroke:#000000;stroke-width:0.264583px;stroke-linecap:butt;stroke-linejoin:miter;stroke-opacity:1"
       d="m 58.730146,48.815842 c 4.586824,-7.67371 9.173687,-15.347486 14.104714,-14.77463 4.931027,0.572855 10.205814,9.391793 14.391258,8.933498 4.185444,-0.458295 7.281514,-10.193486 10.37769,-19.92901"
       id="path870"
       inkscape:path-effect="#path-effect872"
       inkscape:original-d="m 58.730146,48.815842 c 4.587083,-7.673555 9.173947,-15.34733 13.760588,-23.021326 5.275219,8.819512 10.550006,17.63845 15.824677,26.457344 3.096415,-9.735361 6.192485,-19.470552 9.288397,-29.20616" />
    <circle
       style="fill:#000000;stroke:none;stroke-width:2.393;stroke-linecap:round;stroke-linejoin:round"
       id="circle886"
       cx="58.730145"
       cy="48.815842"
       r="1" />
    <circle
       style="fill:#000000;stroke:none;stroke-width:2.393;stroke-linecap:round;stroke-linejoin:round"
       id="circle883"
       cx="97.603806"
       cy="23.0457"
       r="1" />
    <text
       xml:space="preserve"
       style="font-style:normal;font-weight:normal;font-size:3.52778px;line-height:1.25;font-family:sans-serif;fill:#000000;fill-opacity:1;stroke:none;stroke-width:0.264583"
       x="68.205704"
       y="63.233139"
       id="text3230"><tspan
         sodipodi:role="line"
         id="tspan3228"
         style="font-size:3.52778px;stroke-width:0.264583"
         x="68.205704"
         y="63.233139">Simple,</tspan><tspan
         sodipodi:role="line"
         style="font-size:3.52778px;stroke-width:0.264583"
         x="68.205704"
         y="67.64286"
         id="tspan4274">pas fermée</tspan></text>
    <path
       style="fill:none;stroke:#000000;stroke-width:0.264583px;stroke-linecap:butt;stroke-linejoin:miter;stroke-opacity:1"
       d="m 162.54701,34.445467 c -1.73552,3.766416 -3.47102,7.532789 -1.50989,10.045578 1.96112,2.512788 7.73737,3.798413 14.94533,0.73166 7.20796,-3.066754 15.96591,-10.52276 16.19558,-15.02714 0.22966,-4.50438 -8.03931,-6.082154 -12.3784,-4.985065 -4.3391,1.09709 -4.74685,4.857918 -6.90482,4.565187 -2.15796,-0.292731 -6.11106,-4.695156 -8.12735,-4.593318 -2.01628,0.101838 -2.11837,4.682469 -2.22045,9.263098"
       id="path874"
       inkscape:path-effect="#path-effect876"
       inkscape:original-d="m 162.54701,34.445467 c -1.7354,3.766471 -3.4709,7.532844 -5.2065,11.299119 5.6661,1.221648 11.43396,2.544944 17.15079,3.81727 8.67774,-7.431003 17.45715,-14.861806 26.18558,-22.292856 -8.2692,-1.577739 -16.53817,-3.155512 -24.80739,-4.733414 -0.45931,3.766545 -0.81661,7.532843 -1.22505,11.299118 -3.87933,-4.377126 -7.86069,-8.754174 -11.79117,-13.131408 -0.102,4.580913 -0.20408,9.161544 -0.30626,13.742171"
       sodipodi:nodetypes="cccccccc" />
    <circle
       style="fill:#000000;stroke:none;stroke-width:2.393;stroke-linecap:round;stroke-linejoin:round"
       id="circle877"
       cx="162.54701"
       cy="34.445465"
       r="1" />
    <text
       xml:space="preserve"
       style="font-style:normal;font-weight:normal;font-size:3.52778px;line-height:1.25;font-family:sans-serif;fill:#000000;fill-opacity:1;stroke:none;stroke-width:0.264583"
       x="169.5258"
       y="64.156761"
       id="text3230-3"><tspan
         sodipodi:role="line"
         id="tspan3228-4"
         style="font-size:3.52778px;stroke-width:0.264583"
         x="169.5258"
         y="64.156761">Simple,</tspan><tspan
         sodipodi:role="line"
         style="font-size:3.52778px;stroke-width:0.264583"
         x="169.5258"
         y="68.566483"
         id="tspan4274-9">Fermée</tspan></text>
    <path
       style="fill:none;stroke:#000000;stroke-width:0.264583px;stroke-linecap:butt;stroke-linejoin:miter;stroke-opacity:1"
       d="m 17.459547,48.878036 c 1.838078,-6.797614 6.003249,-12.942958 11.63634,-17.168401 1.58408,-1.188236 3.292997,-2.234963 5.156411,-2.904965 1.863414,-0.670002 3.89291,-0.951388 5.842141,-0.602517 1.949232,0.348871 3.808887,1.361266 5.003446,2.940583 0.597279,0.789659 1.023186,1.711914 1.210722,2.684094 0.187536,0.97218 0.133917,1.993248 -0.1798,2.932335 -0.440186,1.317661 -1.393149,2.447798 -2.593651,3.146932 -1.200502,0.699135 -2.635806,0.970638 -4.015439,0.80752 -1.379634,-0.163118 -2.698929,-0.752798 -3.773258,-1.6336 -1.074329,-0.880802 -1.905038,-2.046369 -2.434502,-3.330761 -0.922292,-2.237328 -0.908375,-4.843872 0.03775,-7.071224 0.94613,-2.227352 2.812388,-4.047063 5.062922,-4.936645 2.250533,-0.889582 4.856598,-0.837673 7.069922,0.140822 2.213324,0.978496 4.005639,2.871081 4.862322,5.134342"
       id="path1123"
       inkscape:path-effect="#path-effect1125"
       inkscape:original-d="m 17.459547,48.878036 c 3.87889,-5.722695 7.75768,-11.445498 11.63634,-17.168401 3.87868,-5.722912 11.35539,3.366456 17.03292,5.04953 5.67753,1.683066 -8.54446,-0.673165 -12.81685,-1.009909 -4.27239,-0.336745 11.35538,-4.488362 17.03292,-6.732705" />
    <g
       id="g1096"
       transform="translate(-81.735445,-14.356191)"
       style="fill:#000000">
      <circle
         style="fill:#000000;stroke:none;stroke-width:2.393;stroke-linecap:round;stroke-linejoin:round"
         id="circle889"
         cy="43.372742"
         cx="132.08032"
         r="1" />
    </g>
    <circle
       style="fill:#000000;stroke:none;stroke-width:2.393;stroke-linecap:round;stroke-linejoin:round"
       id="circle892"
       cx="17.459549"
       cy="48.878036"
       r="1" />
    <text
       xml:space="preserve"
       style="font-style:normal;font-weight:normal;font-size:3.52778px;line-height:1.25;font-family:sans-serif;fill:#000000;fill-opacity:1;stroke:none;stroke-width:0.264583"
       x="23.87413"
       y="64.011459"
       id="text3230-3-1"><tspan
         sodipodi:role="line"
         id="tspan3228-4-9"
         style="font-size:3.52778px;stroke-width:0.264583"
         x="23.87413"
         y="64.011459">Pas simple,</tspan><tspan
         sodipodi:role="line"
         style="font-size:3.52778px;stroke-width:0.264583"
         x="23.87413"
         y="68.421181"
         id="tspan4274-9-8">pas fermée</tspan></text>
    <path
       style="fill:none;stroke:#000000;stroke-width:0.264583px;stroke-linecap:butt;stroke-linejoin:miter;stroke-opacity:1"
       d="m 107.02243,32.375461 c -1.39916,2.034702 -1.75287,4.721109 -1.04847,7.087854 0.70439,2.366745 2.42156,4.388897 4.58306,5.582876 2.16149,1.193978 4.73697,1.574595 7.1758,1.187603 2.43883,-0.386993 4.73586,-1.520618 6.61718,-3.120079 2.74342,-2.332398 4.55313,-5.543852 6.48014,-8.585742 1.927,-3.04189 4.14461,-6.085551 7.33508,-7.755085 1.76356,-0.92285 3.77862,-1.378601 5.76407,-1.23795 1.98545,0.140652 3.93361,0.886442 5.46417,2.158911 1.53056,1.27247 2.62737,3.073094 2.99218,5.029802 0.36481,1.956709 -0.0192,4.054806 -1.10767,5.721256 -1.16241,1.779667 -3.07457,3.006149 -5.13468,3.529921 -2.06011,0.523771 -4.25549,0.378655 -6.30044,-0.201507 -4.08989,-1.160324 -7.48748,-3.943971 -10.80972,-6.596582 -3.26255,-2.604951 -6.70199,-5.212237 -10.75281,-6.2226 -2.02541,-0.505181 -4.17973,-0.585607 -6.19484,-0.04079 -2.01511,0.544814 -3.88027,1.742077 -5.06305,3.462115 z"
       id="path1127"
       inkscape:path-effect="#path-effect1129"
       inkscape:original-d="m 107.02243,32.375461 c -7.337051,-0.933915 11.55186,7.158986 17.32757,10.738254 5.7757,3.579268 9.21029,-10.893738 13.81522,-16.340827 4.60492,-5.447097 8.74198,7.781493 13.11275,11.672019 4.37076,3.890527 -14.82975,-2.178629 -22.24484,-3.268168 -7.41511,-1.08954 -14.67365,-1.867372 -22.0107,-2.801278 z" />
    <circle
       style="fill:#000000;stroke:none;stroke-width:2.393;stroke-linecap:round;stroke-linejoin:round"
       id="circle880"
       cx="107.02243"
       cy="32.375462"
       r="1" />
    <text
       xml:space="preserve"
       style="font-style:normal;font-weight:normal;font-size:3.52778px;line-height:1.25;font-family:sans-serif;fill:#000000;fill-opacity:1;stroke:none;stroke-width:0.264583"
       x="119.03154"
       y="65.703766"
       id="text3230-3-6"><tspan
         sodipodi:role="line"
         id="tspan3228-4-7"
         style="font-size:3.52778px;stroke-width:0.264583"
         x="119.03154"
         y="65.703766">Pas simple,</tspan><tspan
         sodipodi:role="line"
         style="font-size:3.52778px;stroke-width:0.264583"
         x="119.03154"
         y="70.113487"
         id="tspan4274-9-2">Fermée</tspan></text>
  </g>
  <inkscape:templateinfo>
    <inkscape:name>Default Template</inkscape:name>
    <inkscape:author>Joachim Favre</inkscape:author>
    <inkscape:shortdesc>Arrow definitions, snapping (including perpendicular and tangential)</inkscape:shortdesc>
    <inkscape:date>2022-02-19</inkscape:date>
  </inkscape:templateinfo>
</svg>
