<?xml version="1.0" encoding="UTF-8" standalone="no"?>
<!-- Created with Inkscape (http://www.inkscape.org/) -->

<svg
   width="166.16327mm"
   height="102.7998mm"
   viewBox="0 0 166.16327 102.79981"
   version="1.1"
   id="svg5"
   inkscape:version="1.2.2 (732a01da63, 2022-12-09)"
   sodipodi:docname="FanosInequality.svg"
   xmlns:inkscape="http://www.inkscape.org/namespaces/inkscape"
   xmlns:sodipodi="http://sodipodi.sourceforge.net/DTD/sodipodi-0.dtd"
   xmlns="http://www.w3.org/2000/svg"
   xmlns:svg="http://www.w3.org/2000/svg">
  <sodipodi:namedview
     id="namedview7"
     pagecolor="#ffffff"
     bordercolor="#111111"
     borderopacity="1"
     inkscape:pageshadow="0"
     inkscape:pageopacity="0"
     inkscape:pagecheckerboard="1"
     inkscape:document-units="mm"
     showgrid="false"
     inkscape:snap-perpendicular="true"
     inkscape:snap-tangential="true"
     inkscape:snap-bbox="true"
     inkscape:bbox-paths="true"
     inkscape:bbox-nodes="true"
     inkscape:snap-bbox-edge-midpoints="true"
     inkscape:snap-bbox-midpoints="true"
     inkscape:object-paths="true"
     inkscape:snap-intersection-paths="true"
     inkscape:snap-object-midpoints="true"
     inkscape:snap-center="true"
     inkscape:showpageshadow="0"
     inkscape:deskcolor="#d1d1d1"
     inkscape:zoom="1.3266287"
     inkscape:cx="363.32698"
     inkscape:cy="250.25842"
     inkscape:window-width="3440"
     inkscape:window-height="1369"
     inkscape:window-x="-8"
     inkscape:window-y="330"
     inkscape:window-maximized="1"
     inkscape:current-layer="layer1"
     showguides="true">
    <sodipodi:guide
       position="39.200897,6.3251719"
       orientation="1,0"
       id="guide2474"
       inkscape:locked="false" />
    <sodipodi:guide
       position="126.08292,6.4562219"
       orientation="1,0"
       id="guide2476"
       inkscape:locked="false" />
    <sodipodi:guide
       position="39.200895,77.058654"
       orientation="0,-1"
       id="guide2478"
       inkscape:locked="false" />
  </sodipodi:namedview>
  <defs
     id="defs2">
    <inkscape:path-effect
       effect="bspline"
       id="path-effect862"
       is_visible="true"
       lpeversion="1"
       weight="33.333333"
       steps="2"
       helper_size="0"
       apply_no_weight="true"
       apply_with_weight="true"
       only_selected="false" />
    <inkscape:path-effect
       effect="bspline"
       id="path-effect858"
       is_visible="true"
       lpeversion="1"
       weight="33.333333"
       steps="2"
       helper_size="0"
       apply_no_weight="true"
       apply_with_weight="true"
       only_selected="false" />
    <inkscape:path-effect
       effect="bspline"
       id="path-effect838"
       is_visible="true"
       lpeversion="1"
       weight="33.333333"
       steps="2"
       helper_size="0"
       apply_no_weight="true"
       apply_with_weight="true"
       only_selected="false" />
    <inkscape:path-effect
       effect="bspline"
       id="path-effect822"
       is_visible="true"
       lpeversion="1"
       weight="33.333333"
       steps="2"
       helper_size="0"
       apply_no_weight="true"
       apply_with_weight="true"
       only_selected="false" />
    <marker
       style="overflow:visible"
       id="Arrow2Lend"
       refX="0"
       refY="0"
       orient="auto"
       inkscape:stockid="Arrow2Lend"
       inkscape:isstock="true"
       viewBox="0 0 12.705841 9.5264135"
       markerWidth="12.705841"
       markerHeight="9.5264139"
       preserveAspectRatio="xMidYMid">
      <path
         transform="matrix(-1.1,0,0,-1.1,-1.1,0)"
         d="M 8.7185878,4.0337352 -2.2072895,0.01601326 8.7185884,-4.0017078 c -1.7454984,2.3720609 -1.7354408,5.6174519 -6e-7,8.035443 z"
         style="fill:context-stroke;fill-rule:evenodd;stroke:context-stroke;stroke-width:0.625;stroke-linejoin:round"
         id="path880" />
    </marker>
    <marker
       style="overflow:visible"
       id="Arrow2Lstart"
       refX="0"
       refY="0"
       orient="auto"
       inkscape:stockid="Arrow2Lstart"
       inkscape:isstock="true">
      <path
         transform="matrix(1.1,0,0,1.1,1.1,0)"
         d="M 8.7185878,4.0337352 -2.2072895,0.01601326 8.7185884,-4.0017078 c -1.7454984,2.3720609 -1.7354408,5.6174519 -6e-7,8.035443 z"
         style="fill:context-stroke;fill-rule:evenodd;stroke:context-stroke;stroke-width:0.625;stroke-linejoin:round"
         id="path877" />
    </marker>
  </defs>
  <g
     inkscape:label="Layer 1"
     inkscape:groupmode="layer"
     id="layer1"
     transform="translate(-26.658153,3.4038427)">
    <path
       style="fill:none;stroke:#000000;stroke-width:0.264583;stroke-linecap:round;stroke-linejoin:round;stroke-miterlimit:4.1"
       d="m 27.9231,92.938504 c 0.2554,-3.4182 0.5109,-3.4214 0.7664,-4.7093 0.2554,-1.2879 0.5109,-2.4432 0.7663,-3.5334 0.2555,-1.0903 0.511,-2.1105 0.7664,-3.0839 0.2555,-0.9734 0.5109,-1.8991 0.7664,-2.7888 0.2555,-0.8897 0.5109,-1.743 0.7664,-2.567 0.2554,-0.8241 0.5109,-1.6186 0.7664,-2.3884 0.2554,-0.7699 0.5109,-1.5148 0.7663,-2.2383 0.2555,-0.7235 0.511,-1.4254 0.7664,-2.1083 0.2555,-0.6829 0.511,-1.3467 0.7664,-1.9935 0.2555,-0.6467 0.5109,-1.2762 0.7664,-1.8902 0.2555,-0.614 0.5109,-1.2124 0.7664,-1.7964 0.2554,-0.5841 0.5109,-1.1538 0.7664,-1.7102 0.2554,-0.5564 0.5109,-1.0994 0.7663,-1.6301 0.2555,-0.5307 0.511,-1.0489 0.7664,-1.5555 0.2555,-0.5066 0.5109,-1.0014 0.7664,-1.4853 0.2555,-0.4839 0.5109,-0.9567 0.7664,-1.4191 0.2554,-0.4624 0.5109,-0.9143 0.7664,-1.3562 0.2554,-0.442 0.5109,-0.8739 0.7663,-1.2964 0.2555,-0.4224 0.511,-0.8353 0.7664,-1.2391 0.2555,-0.4038 0.511,-0.7984 0.7664,-1.1842 0.2555,-0.3859 0.5109,-0.7629 0.7664,-1.1314 0.2555,-0.3686 0.5109,-0.7286 0.7664,-1.0805 0.2554,-0.3519 0.5109,-0.6955 0.7664,-1.0312 0.2554,-0.3357 0.5109,-0.6635 0.7663,-0.9835 0.2555,-0.32 0.511,-0.6323 0.7664,-0.9371 0.2555,-0.3048 0.5109,-0.6021 0.7664,-0.8921 0.2555,-0.2899 0.5109,-0.5725 0.7664,-0.848 0.2554,-0.2755 0.5109,-0.5438 0.7664,-0.8052 0.2554,-0.2613 0.5109,-0.5156 0.7663,-0.7632 0.2555,-0.2475 0.511,-0.4881 0.7664,-0.722 0.2555,-0.234 0.511,-0.4612 0.7664,-0.6818 0.2555,-0.2206 0.5109,-0.4347 0.7664,-0.6422 0.2555,-0.2076 0.5109,-0.4086 0.7664,-0.6033 0.2554,-0.1947 0.5109,-0.383 0.7664,-0.565 0.2554,-0.182 0.5109,-0.3577 0.7663,-0.5272 0.2555,-0.1696 0.511,-0.3329 0.7664,-0.49 0.2555,-0.1572 0.5109,-0.3083 0.7664,-0.4532 0.2555,-0.145 0.5109,-0.284 0.7664,-0.4169 0.2554,-0.1329 0.5109,-0.2598 0.7664,-0.3808 0.2554,-0.121 0.5109,-0.2361 0.7663,-0.3452 0.2555,-0.1092 0.511,-0.2125 0.7664,-0.3099 0.2555,-0.0974 0.511,-0.189 0.7664,-0.2748 0.2555,-0.0858 0.5109,-0.1657 0.7664,-0.2399 0.2555,-0.0742 0.5109,-0.1426 0.7664,-0.2053 0.2554,-0.0627 0.5109,-0.1196 0.7664,-0.1708 0.2554,-0.0512 0.5109,-0.0967 0.7663,-0.1365 0.2555,-0.0398 0.511,-0.0738 0.7664,-0.1022 0.2555,-0.0284 0.5109,-0.0511 0.7664,-0.0682 0.2555,-0.017 0.5109,-0.0283 0.7664,-0.034 0.2554,-0.0057 0.5109,-0.0057 0.7664,0 0.2554,0.0057 0.5109,0.017 0.7663,0.034 0.2555,0.0171 0.511,0.0398 0.7664,0.0682 0.2555,0.0284 0.511,0.0624 0.7664,0.1022 0.2555,0.0398 0.5109,0.0853 0.7664,0.1365 0.2555,0.0512 0.5109,0.1081 0.7664,0.1708 0.2554,0.0627 0.5109,0.1311 0.7664,0.2053 0.2554,0.0742 0.5109,0.1542 0.7663,0.2399 0.2555,0.0858 0.511,0.1774 0.7664,0.2748 0.2555,0.0974 0.5109,0.2007 0.7664,0.3099 0.2555,0.1091 0.5109,0.2242 0.7664,0.3452 0.2554,0.1209 0.5109,0.2479 0.7664,0.3808 0.2554,0.1329 0.5109,0.2719 0.7663,0.4169 0.2555,0.1449 0.511,0.296 0.7664,0.4532 0.2555,0.1571 0.511,0.3205 0.7664,0.49 0.2555,0.1695 0.5109,0.3452 0.7664,0.5272 0.2555,0.182 0.5109,0.3703 0.7664,0.565 0.2554,0.1947 0.5109,0.3957 0.7664,0.6033 0.2554,0.2075 0.5109,0.4216 0.7663,0.6422 0.2555,0.2206 0.511,0.4478 0.7664,0.6818 0.2555,0.2339 0.5109,0.4746 0.7664,0.722 0.2555,0.2475 0.5109,0.5019 0.7664,0.7632 0.2554,0.2614 0.5109,0.5297 0.7664,0.8052 0.2554,0.2755 0.5109,0.5581 0.7663,0.848 0.2555,0.29 0.511,0.5873 0.7664,0.8921 0.2555,0.3048 0.5109,0.6171 0.7664,0.9371 0.2555,0.32 0.5109,0.6478 0.7664,0.9835 0.2555,0.3357 0.5109,0.6793 0.7664,1.0312 0.2554,0.3518 0.5109,0.7119 0.7664,1.0805 0.2554,0.3685 0.5109,0.7455 0.7663,1.1314 0.2555,0.3858 0.511,0.7804 0.7664,1.1842 0.2555,0.4037 0.5109,0.8167 0.7664,1.2391 0.2555,0.4224 0.5109,0.8544 0.7664,1.2964 0.2554,0.4419 0.5109,0.8938 0.7664,1.3562 0.2554,0.4624 0.5109,0.9352 0.7663,1.4191 0.2555,0.4838 0.511,0.9787 0.7664,1.4853 0.2555,0.5066 0.5109,1.0248 0.7664,1.5555 0.2555,0.5306 0.5109,1.0737 0.7664,1.6301 0.2555,0.5564 0.5109,1.1261 0.7664,1.7102 0.2554,0.584 0.5109,1.1824 0.7664,1.7964 0.2554,0.6139 0.5109,1.2435 0.7663,1.8902 0.2555,0.6467 0.511,1.3106 0.7664,1.9935 0.2555,0.6829 0.5109,1.3849 0.7664,2.1083 0.2555,0.7235 0.5109,1.4685 0.7664,2.2383 0.2554,0.7698 0.5109,1.5644 0.7664,2.3884 0.255,0.824 0.511,1.6774 0.766,2.567 0.256,0.8896 0.511,1.8154 0.767,2.7888 0.255,0.9733 0.511,1.9938 0.766,3.0839 0.256,1.0901 0.511,2.2458 0.766,3.5334 0.256,1.2876 0.511,1.2911 0.767,4.7093"
       title="-x*log(x)/log(2) - (1-x)*log(1-x)/log(2) + x*log(1)/log(2)"
       id="path711" />
    <path
       style="fill:none;stroke:#000000;stroke-width:0.264583;stroke-linecap:round;stroke-linejoin:round;stroke-miterlimit:4.1"
       d="m 113.103,92.938504 c 0.255,-3.6129 0.51,-3.8109 0.766,-5.2934 0.255,-1.4826 0.511,-2.8325 0.766,-4.1175 0.256,-1.2849 0.511,-2.4998 0.767,-3.6679 0.255,-1.1681 0.511,-2.2885 0.766,-3.3728 0.256,-1.0844 0.511,-2.1324 0.766,-3.1511 0.256,-1.0187 0.511,-2.0079 0.767,-2.9725 0.255,-0.9645 0.511,-1.9041 0.766,-2.8223 0.256,-0.9181 0.511,-1.8147 0.767,-2.6923 0.255,-0.8776 0.511,-1.7361 0.766,-2.5775 0.255,-0.8414 0.511,-1.6657 0.766,-2.4743 0.256,-0.8087 0.511,-1.6018 0.767,-2.3805 0.255,-0.7787 0.511,-1.5431 0.766,-2.2942 0.256,-0.7511 0.511,-1.4888 0.767,-2.2142 0.255,-0.7253 0.51,-1.4382 0.766,-2.1395 0.255,-0.7012 0.511,-1.3908 0.766,-2.0693 0.256,-0.6786 0.511,-1.3461 0.767,-2.0032 0.255,-0.657 0.511,-1.3036 0.766,-1.9402 0.256,-0.6367 0.511,-1.2633 0.766,-1.8804 0.256,-0.6172 0.511,-1.2248 0.767,-1.8232 0.255,-0.5985 0.511,-1.1878 0.766,-1.7683 0.256,-0.5805 0.511,-1.1522 0.767,-1.7154 0.255,-0.5633 0.51,-1.118 0.766,-1.6645 0.255,-0.5466 0.511,-1.0849 0.766,-1.6153 0.256,-0.5304 0.511,-1.0528 0.767,-1.5675 0.255,-0.5147 0.511,-1.0217 0.766,-1.5212 0.256,-0.4995 0.511,-0.9914 0.766,-1.4761 0.256,-0.4846 0.511,-0.9619 0.767,-1.4321 0.255,-0.4701 0.511,-0.9331 0.766,-1.3892 0.256,-0.456 0.511,-0.905 0.767,-1.3472 0.255,-0.4422 0.511,-0.8775 0.766,-1.3061 0.255,-0.4287 0.511,-0.8505 0.766,-1.2659 0.256,-0.4153 0.511,-0.824 0.767,-1.2262 0.255,-0.4022 0.511,-0.798 0.766,-1.1873 0.256,-0.3894 0.511,-0.7724 0.767,-1.1491 0.255,-0.3767 0.51,-0.7471 0.766,-1.1113 0.255,-0.3642 0.511,-0.7221 0.766,-1.074 0.256,-0.3519 0.511,-0.6976 0.767,-1.03725 0.255,-0.33967 0.511,-0.673271 0.766,-1.000891 0.256,-0.32761 0.511,-0.64922 0.766,-0.964901 0.256,-0.31568 0.511,-0.6254 0.767,-0.92924 0.255,-0.30385 0.511,-0.60179 0.766,-0.8939 0.256,-0.29211 0.511,-0.578361 0.767,-0.858821 0.255,-0.28046 0.511,-0.55509 0.766,-0.82397 0.255,-0.268881 0.511,-0.531971 0.766,-0.7893306 0.256,-0.25736 0.511,-0.50896 0.767,-0.75485 0.255,-0.2459 0.511,-0.48605 0.766,-0.72053 0.256,-0.23447 0.511,-0.46322 0.767,-0.6863 0.255,-0.22308 0.51,-0.440461 0.766,-0.652175 0.255,-0.211715 0.511,-0.4177331 0.766,-0.6180951 0.256,-0.2003611 0.511,-0.395031 0.767,-0.584044 0.255,-0.189013 0.511,-0.372335 0.766,-0.549994 0.255,-0.1776621 0.511,-0.3496221 0.766,-0.5159121 0.256,-0.1663 0.511,-0.32689 0.767,-0.48179 0.255,-0.1548999 0.511,-0.30408 0.766,-0.44756 0.256,-0.14348 0.511,-0.28122 0.767,-0.41324 0.255,-0.13201 0.51,-0.25826 0.766,-0.3787599 0.255,-0.1205001 0.511,-0.2352001 0.766,-0.3441201 0.256,-0.1089099 0.511,-0.21201 0.767,-0.30927 0.255,-0.09726 0.511,-0.18866 0.766,-0.27419 0.256,-0.08553 0.511,-0.16514 0.766,-0.23884 0.256,-0.07369 0.511,-0.14143 0.767,-0.20319 0.255,-0.06176 0.511,-0.1175 0.766,-0.1671999 0.256,-0.0497 0.511,-0.09332 0.767,-0.1308301 0.255,-0.03751 0.511,-0.06887 0.766,-0.09405 0.255,-0.02518 0.511,-0.04413 0.766,-0.05681 0.256,-0.01268 0.511,-0.01905 0.767,-0.01905 0.255,-10e-6 0.511,0.00639 0.766,0.01924 0.256,0.01286 0.511,0.03223 0.767,0.05816 0.255,0.02594 0.51,0.05849 0.766,0.09774 0.255,0.03925 0.511,0.08523 0.766,0.1380401 0.256,0.05281 0.511,0.1124899 0.767,0.1791399 0.255,0.06665 0.511,0.14031 0.766,0.2211 0.256,0.0808 0.511,0.16876 0.766,0.26403 0.256,0.09526 0.511,0.19787 0.767,0.30798 0.255,0.1101001 0.511,0.22774 0.766,0.35308 0.256,0.12534 0.511,0.2584201 0.767,0.39943 0.255,0.14101 0.51,0.29 0.766,0.44717 0.255,0.15717 0.511,0.32256 0.766,0.4964201 0.256,0.1738599 0.511,0.3562299 0.767,0.5473699 0.255,0.19114 0.511,0.3911 0.766,0.6001751 0.256,0.209078 0.511,0.427326 0.766,0.655078 0.256,0.2277522 0.511,0.465064 0.767,0.712316 0.255,0.2472521 0.511,0.5045021 0.766,0.7721811 0.256,0.26769 0.511,0.54586 0.767,0.83504 0.255,0.28917 0.511,0.5894 0.766,0.90128 0.255,0.31187 0.511,0.63545 0.766,0.9714196 0.256,0.335981 0.511,0.684411 0.767,1.046111 0.255,0.3617 0.511,0.73674 0.766,1.126091 0.256,0.38934 0.511,0.79308 0.767,1.21236 0.255,0.41929 0.51,0.854221 0.766,1.306241 0.255,0.45201 0.511,0.921211 0.766,1.409411 0.256,0.4882 0.511,0.9955 0.767,1.5243 0.255,0.5287 0.511,1.0791 0.766,1.6542 0.256,0.5751 0.511,1.175 0.766,1.8043 0.256,0.6293 0.511,1.2881 0.767,1.983 0.255,0.695 0.511,1.4261 0.766,2.2048 0.256,0.7786 0.511,1.6044 0.767,2.4998 0.255,0.8954 0.56112,1.846006 0.766,2.9494 l 0.766,4.1253"
       title="-x*log(x)/log(2) - (1-x)*log(1-x)/log(2) + x*log(2)/log(2)"
       id="path749"
       sodipodi:nodetypes="cccccccccscccccccccccccccccccccccccccccccccscccccccsccccccccccccscsccccccccccccccccccsccccccccccccsc" />
    <path
       style="fill:none;stroke:#000000;stroke-width:0.264583;stroke-linecap:round;stroke-linejoin:round;stroke-miterlimit:4.1;marker-end:url(#Arrow2Lend)"
       d="m 27.923077,92.93975 c 26.425638,0 52.851012,0 79.276123,0"
       id="path820"
       inkscape:path-effect="#path-effect822"
       inkscape:original-d="m 27.923077,92.93975 c 26.425638,2.64e-4 52.851012,2.64e-4 79.276123,0" />
    <path
       style="fill:none;stroke:#000000;stroke-width:0.264583;stroke-linecap:round;stroke-linejoin:round;stroke-miterlimit:4.1;marker-end:url(#Arrow2Lend)"
       d="m 27.923077,92.93975 c 0,-31.966831 0,-63.933927 0,-95.9012884"
       id="path836"
       inkscape:path-effect="#path-effect838"
       inkscape:original-d="m 27.923077,92.93975 c 2.64e-4,-31.966831 2.64e-4,-63.933927 0,-95.9012884" />
    <path
       style="fill:none;stroke:#000000;stroke-width:0.264583;stroke-linecap:round;stroke-linejoin:round;stroke-miterlimit:4.1;marker-end:url(#Arrow2Lend)"
       d="m 113.103,92.93975 c 26.42564,0 52.85101,0 79.27612,0"
       id="path852"
       inkscape:path-effect="#path-effect858"
       inkscape:original-d="m 113.103,92.93975 c 26.42564,2.64e-4 52.85101,2.64e-4 79.27612,0" />
    <path
       style="fill:none;stroke:#000000;stroke-width:0.264583;stroke-linecap:round;stroke-linejoin:round;stroke-miterlimit:4.1;marker-end:url(#Arrow2Lend)"
       d="m 113.103,92.93975 c 0,-31.966831 0,-63.933927 0,-95.9012884"
       id="path854"
       inkscape:path-effect="#path-effect862"
       inkscape:original-d="m 113.103,92.93975 c 2.6e-4,-31.966831 2.6e-4,-63.933927 0,-95.9012884" />
    <text
       xml:space="preserve"
       style="font-size:2.82223px;font-family:Roboto;-inkscape-font-specification:Roboto;text-align:center;text-anchor:middle;fill:#000000;stroke:none;stroke-width:0.264583;stroke-linecap:round;stroke-linejoin:round;stroke-miterlimit:4.1"
       x="65.85836"
       y="55.530148"
       id="text1652"><tspan
         sodipodi:role="line"
         id="tspan1650"
         style="text-align:center;text-anchor:middle;fill:#000000;stroke:none;stroke-width:0.264583"
         x="65.85836"
         y="55.530148">$|\mathcal{U}| = 2$</tspan></text>
    <text
       xml:space="preserve"
       style="font-size:2.82223px;font-family:Roboto;-inkscape-font-specification:Roboto;text-align:center;text-anchor:middle;fill:#000000;stroke:none;stroke-width:0.264583;stroke-linecap:round;stroke-linejoin:round;stroke-miterlimit:4.1"
       x="152.74037"
       y="55.530148"
       id="text2482"><tspan
         sodipodi:role="line"
         id="tspan2480"
         style="text-align:center;text-anchor:middle;fill:#000000;stroke:none;stroke-width:0.264583"
         x="152.74037"
         y="55.530148">$|\mathcal{U}| = 3$</tspan></text>
    <text
       xml:space="preserve"
       style="font-size:2.82223px;font-family:Roboto;-inkscape-font-specification:Roboto;text-align:center;text-anchor:middle;fill:#000000;stroke:none;stroke-width:0.264583;stroke-linecap:round;stroke-linejoin:round;stroke-miterlimit:4.1"
       x="104.40704"
       y="98.822693"
       id="text2486"><tspan
         sodipodi:role="line"
         id="tspan2484"
         style="stroke-width:0.264583"
         x="104.40704"
         y="98.822693">$p$</tspan></text>
    <text
       xml:space="preserve"
       style="font-size:2.82223px;font-family:Roboto;-inkscape-font-specification:Roboto;text-align:center;text-anchor:middle;fill:#000000;stroke:none;stroke-width:0.264583;stroke-linecap:round;stroke-linejoin:round;stroke-miterlimit:4.1"
       x="190.26613"
       y="98.822693"
       id="text2490"><tspan
         sodipodi:role="line"
         id="tspan2488"
         style="stroke-width:0.264583"
         x="190.26613"
         y="98.822693">$p$</tspan></text>
  </g>
  <inkscape:templateinfo>
    <inkscape:name>Default Template</inkscape:name>
    <inkscape:author>Joachim Favre</inkscape:author>
    <inkscape:shortdesc>Arrow definitions, snapping (including perpendicular and tangential)</inkscape:shortdesc>
    <inkscape:date>2022-02-19</inkscape:date>
  </inkscape:templateinfo>
</svg>
