<?xml version="1.0" encoding="UTF-8" standalone="no"?>
<!-- Created with Inkscape (http://www.inkscape.org/) -->

<svg
   width="54.898445mm"
   height="49.090443mm"
   viewBox="0 0 54.898445 49.090443"
   version="1.1"
   id="svg5"
   inkscape:version="1.1.2 (b8e25be833, 2022-02-05)"
   sodipodi:docname="Exemple1TheoremDivergence.svg"
   xmlns:inkscape="http://www.inkscape.org/namespaces/inkscape"
   xmlns:sodipodi="http://sodipodi.sourceforge.net/DTD/sodipodi-0.dtd"
   xmlns="http://www.w3.org/2000/svg"
   xmlns:svg="http://www.w3.org/2000/svg">
  <sodipodi:namedview
     id="namedview7"
     pagecolor="#ffffff"
     bordercolor="#111111"
     borderopacity="1"
     inkscape:pageshadow="0"
     inkscape:pageopacity="0"
     inkscape:pagecheckerboard="1"
     inkscape:document-units="mm"
     showgrid="false"
     inkscape:snap-perpendicular="true"
     inkscape:snap-tangential="true"
     inkscape:snap-bbox="false"
     inkscape:bbox-paths="true"
     inkscape:bbox-nodes="true"
     inkscape:snap-bbox-edge-midpoints="true"
     inkscape:snap-bbox-midpoints="true"
     inkscape:object-paths="true"
     inkscape:snap-intersection-paths="true"
     inkscape:snap-object-midpoints="true"
     inkscape:snap-center="true"
     inkscape:zoom="3.623347"
     inkscape:cx="6.0717343"
     inkscape:cy="119.50277"
     inkscape:window-width="3365"
     inkscape:window-height="1417"
     inkscape:window-x="67"
     inkscape:window-y="-8"
     inkscape:window-maximized="1"
     inkscape:current-layer="layer1"
     inkscape:snap-global="false" />
  <defs
     id="defs2">
    <marker
       style="overflow:visible"
       id="Arrow2Lend"
       refX="0"
       refY="0"
       orient="auto"
       inkscape:stockid="Arrow2Lend"
       inkscape:isstock="true">
      <path
         transform="matrix(-1.1,0,0,-1.1,-1.1,0)"
         d="M 8.7185878,4.0337352 -2.2072895,0.01601326 8.7185884,-4.0017078 c -1.7454984,2.3720609 -1.7354408,5.6174519 -6e-7,8.035443 z"
         style="fill:context-stroke;fill-rule:evenodd;stroke:context-stroke;stroke-width:0.625;stroke-linejoin:round"
         id="path880" />
    </marker>
    <marker
       style="overflow:visible"
       id="Arrow2Lstart"
       refX="0"
       refY="0"
       orient="auto"
       inkscape:stockid="Arrow2Lstart"
       inkscape:isstock="true">
      <path
         transform="matrix(1.1,0,0,1.1,1.1,0)"
         d="M 8.7185878,4.0337352 -2.2072895,0.01601326 8.7185884,-4.0017078 c -1.7454984,2.3720609 -1.7354408,5.6174519 -6e-7,8.035443 z"
         style="fill:context-stroke;fill-rule:evenodd;stroke:context-stroke;stroke-width:0.625;stroke-linejoin:round"
         id="path877" />
    </marker>
  </defs>
  <g
     inkscape:label="Layer 1"
     inkscape:groupmode="layer"
     id="layer1"
     transform="translate(-63.308387,-18.545533)">
    <g
       id="path954"
       transform="translate(0.10192655,-0.10040498)">
      <path
         style="color:#000000;fill:#808080;stroke-linecap:round;stroke-linejoin:round;-inkscape-stroke:none"
         d="m 83.326172,18.855469 a 0.1322915,0.1322915 0 0 0 -0.132813,0.132812 V 47.617187 A 0.1322915,0.1322915 0 0 0 83.326172,47.75 0.1322915,0.1322915 0 0 0 83.457031,47.617187 V 18.988281 a 0.1322915,0.1322915 0 0 0 -0.130859,-0.132812 z"
         id="path23091" />
      <g
         id="g23081">
        <g
           id="path23083">
          <path
             style="color:#000000;fill:#808080;fill-rule:evenodd;stroke-width:0.181901;stroke-linejoin:round;-inkscape-stroke:none"
             d="m 82.151369,21.816347 1.169322,-3.179881 1.169323,3.179882 c -0.690367,-0.508013 -1.63491,-0.505085 -2.338645,-1e-6 z"
             id="path23087" />
          <path
             style="color:#000000;fill:#808080;fill-rule:evenodd;stroke-linejoin:round;-inkscape-stroke:none"
             d="m 83.320312,18.544922 a 0.09095959,0.09095959 0 0 0 -0.08594,0.06055 l -1.167969,3.179687 a 0.09095959,0.09095959 0 0 0 0.138672,0.105469 c 0.672551,-0.482702 1.572133,-0.486396 2.230469,-0.002 a 0.09095959,0.09095959 0 0 0 0.140625,-0.103516 L 83.40625,18.605469 a 0.09095959,0.09095959 0 0 0 -0.08594,-0.06055 z m 0,0.357422 1.021485,2.773437 c -0.637295,-0.370159 -1.397279,-0.367003 -2.042969,0.002 z"
             id="path23089" />
        </g>
      </g>
    </g>
    <g
       id="path956"
       transform="translate(0.10192655,-0.10040498)">
      <path
         style="color:#000000;fill:#808080;stroke-linecap:round;stroke-linejoin:round;-inkscape-stroke:none"
         d="M 83.326172,47.484375 A 0.1322915,0.1322915 0 0 0 83.193359,47.617187 0.1322915,0.1322915 0 0 0 83.326172,47.75 H 115.0293 a 0.1322915,0.1322915 0 0 0 0.13281,-0.132813 0.1322915,0.1322915 0 0 0 -0.13281,-0.132812 z"
         id="path23077" />
      <g
         id="g23067">
        <g
           id="path23069">
          <path
             style="color:#000000;fill:#808080;fill-rule:evenodd;stroke-width:0.181901;stroke-linejoin:round;-inkscape-stroke:none"
             d="m 112.20155,46.442902 3.17988,1.169322 -3.17988,1.169323 c 0.50801,-0.690367 0.50508,-1.63491 0,-2.338645 z"
             id="path23073" />
          <path
             style="color:#000000;fill:#808080;fill-rule:evenodd;stroke-linejoin:round;-inkscape-stroke:none"
             d="m 112.23242,46.357422 a 0.09095959,0.09095959 0 0 0 -0.10547,0.138672 c 0.4827,0.67255 0.4864,1.574086 0.002,2.232422 a 0.09095959,0.09095959 0 0 0 0.10351,0.138671 l 3.17969,-1.169921 a 0.09095959,0.09095959 0 0 0 0,-0.169922 z m 0.10742,0.232422 2.7793,1.021484 -2.77734,1.021484 c 0.36961,-0.637518 0.36753,-1.397492 -0.002,-2.042968 z"
             id="path23075" />
        </g>
      </g>
    </g>
    <g
       id="path1231">
      <path
         style="color:#000000;fill:#55d400;stroke-width:0.264583px;stroke-linecap:round;stroke-linejoin:round;-inkscape-stroke:none"
         d="M 83.440885,47.503474 100.76139,57.503475"
         id="path23105" />
      <path
         style="color:#000000;fill:#55d400;stroke-linecap:round;stroke-linejoin:round;-inkscape-stroke:none"
         d="m 83.40625,47.375 a 0.1322915,0.1322915 0 0 0 -0.08008,0.0625 0.1322915,0.1322915 0 0 0 0.04883,0.179687 l 17.32031,10 a 0.1322915,0.1322915 0 0 0 0.17969,-0.04687 0.1322915,0.1322915 0 0 0 -0.0469,-0.18164 l -17.320318,-10 A 0.1322915,0.1322915 0 0 0 83.40625,47.375 Z"
         id="path23107" />
      <g
         id="g23095">
        <g
           id="path23097">
          <path
             style="color:#000000;fill:#55d400;fill-rule:evenodd;stroke-width:0.181901;stroke-linejoin:round;-inkscape-stroke:none"
             d="m 98.89882,55.07252 2.1692,2.602604 -3.338523,-0.577278 c 0.785135,-0.343869 1.254872,-1.163331 1.169323,-2.025326 z"
             id="path23101" />
          <path
             style="color:#000000;fill:#55d400;fill-rule:evenodd;stroke-linejoin:round;-inkscape-stroke:none"
             d="m 98.863281,54.988281 a 0.09095959,0.09095959 0 0 0 -0.05469,0.09375 c 0.08176,0.823798 -0.366528,1.603727 -1.115235,1.931641 a 0.09095959,0.09095959 0 0 0 0.02148,0.173828 l 3.337886,0.578125 a 0.09095959,0.09095959 0 0 0 0.0859,-0.148438 l -2.16992,-2.603515 a 0.09095959,0.09095959 0 0 0 -0.105469,-0.02539 z m 0.08203,0.283203 1.894528,2.271485 -2.916012,-0.503907 c 0.638533,-0.366764 1.017817,-1.024559 1.021484,-1.767578 z"
             id="path23103" />
        </g>
      </g>
    </g>
    <g
       id="path1346">
      <path
         style="color:#000000;fill:#ff2a2a;stroke-width:0.264583px;-inkscape-stroke:none"
         d="m 100.76139,57.50348 6.4406,3.718481"
         id="path23121" />
      <path
         style="color:#000000;fill:#ff2a2a;-inkscape-stroke:none"
         d="m 100.82813,57.388672 -0.13282,0.228515 6.44141,3.71875 0.13086,-0.228515 z"
         id="path23123" />
      <g
         id="g23111">
        <g
           id="path23113">
          <path
             style="color:#000000;fill:#ff2a2a;fill-rule:evenodd;stroke-width:0.181901;stroke-linejoin:round;-inkscape-stroke:none"
             d="m 105.33942,58.791007 2.1692,2.602603 -3.33852,-0.577277 c 0.78513,-0.34387 1.25487,-1.163331 1.16932,-2.025326 z"
             id="path23117" />
          <path
             style="color:#000000;fill:#ff2a2a;fill-rule:evenodd;stroke-linejoin:round;-inkscape-stroke:none"
             d="m 105.30469,58.707031 a 0.09095959,0.09095959 0 0 0 -0.0566,0.09375 c 0.0818,0.823797 -0.36654,1.603726 -1.11524,1.931641 a 0.09095959,0.09095959 0 0 0 0.0215,0.173828 l 3.33789,0.576172 a 0.09095959,0.09095959 0 0 0 0.0859,-0.146485 l -2.16797,-2.603515 a 0.09095959,0.09095959 0 0 0 -0.10547,-0.02539 z m 0.0801,0.28125 1.89843,2.275391 -2.91797,-0.50586 c 0.63861,-0.366807 1.01596,-1.026414 1.01954,-1.769531 z"
             id="path23119" />
        </g>
      </g>
    </g>
    <circle
       style="fill:none;stroke:#000000;stroke-width:0.265;stroke-linecap:round;stroke-linejoin:round;stroke-miterlimit:4;stroke-dasharray:none"
       id="path859"
       cx="83.440887"
       cy="47.503475"
       r="20" />
    <text
       xml:space="preserve"
       style="font-size:2.82223px;line-height:1.25;font-family:sans-serif;text-align:center;text-anchor:middle;fill:#ff2a2a;fill-opacity:1;stroke-width:0.264583"
       x="107.53183"
       y="64.904213"
       id="text7657"><tspan
         sodipodi:role="line"
         id="tspan7655"
         style="text-align:center;text-anchor:middle;fill:#ff2a2a;fill-opacity:1;stroke-width:0.264583"
         x="107.53183"
         y="64.904213">$\nu_{(x, y)}$</tspan></text>
    <text
       xml:space="preserve"
       style="font-size:2.82223px;line-height:1.25;font-family:sans-serif;text-align:end;text-anchor:end;fill:#55d400;fill-opacity:1;stroke-width:0.264583"
       x="97.57093"
       y="59.937866"
       id="text9763"><tspan
         sodipodi:role="line"
         id="tspan9761"
         style="text-align:end;text-anchor:end;fill:#55d400;fill-opacity:1;stroke-width:0.264583"
         x="97.57093"
         y="59.937866">$(x, y)$</tspan></text>
  </g>
  <inkscape:templateinfo>
    <inkscape:name>Default Template</inkscape:name>
    <inkscape:author>Joachim Favre</inkscape:author>
    <inkscape:shortdesc>Arrow definitions, snapping (including perpendicular and tangential)</inkscape:shortdesc>
    <inkscape:date>2022-02-19</inkscape:date>
  </inkscape:templateinfo>
</svg>
