<?xml version="1.0" encoding="UTF-8" standalone="no"?>
<!-- Created with Inkscape (http://www.inkscape.org/) -->

<svg
   width="57.203568mm"
   height="44.066467mm"
   viewBox="0 0 57.203568 44.066467"
   version="1.1"
   id="svg5"
   inkscape:version="1.1.2 (b8e25be833, 2022-02-05)"
   sodipodi:docname="NormeExterieure.svg"
   xmlns:inkscape="http://www.inkscape.org/namespaces/inkscape"
   xmlns:sodipodi="http://sodipodi.sourceforge.net/DTD/sodipodi-0.dtd"
   xmlns="http://www.w3.org/2000/svg"
   xmlns:svg="http://www.w3.org/2000/svg">
  <sodipodi:namedview
     id="namedview7"
     pagecolor="#ffffff"
     bordercolor="#111111"
     borderopacity="1"
     inkscape:pageshadow="0"
     inkscape:pageopacity="0"
     inkscape:pagecheckerboard="1"
     inkscape:document-units="mm"
     showgrid="false"
     inkscape:snap-perpendicular="true"
     inkscape:snap-tangential="true"
     inkscape:snap-bbox="false"
     inkscape:bbox-paths="true"
     inkscape:bbox-nodes="true"
     inkscape:snap-bbox-edge-midpoints="true"
     inkscape:snap-bbox-midpoints="true"
     inkscape:object-paths="false"
     inkscape:snap-intersection-paths="true"
     inkscape:snap-object-midpoints="true"
     inkscape:snap-center="true"
     inkscape:snap-global="true"
     inkscape:zoom="2.5620932"
     inkscape:cx="-232.62229"
     inkscape:cy="58.54588"
     inkscape:window-width="3365"
     inkscape:window-height="1417"
     inkscape:window-x="67"
     inkscape:window-y="-8"
     inkscape:window-maximized="1"
     inkscape:current-layer="layer1"
     inkscape:object-nodes="false" />
  <defs
     id="defs2">
    <inkscape:path-effect
       effect="spiro"
       id="path-effect876"
       is_visible="true"
       lpeversion="1" />
    <marker
       style="overflow:visible"
       id="Arrow2Lend"
       refX="0"
       refY="0"
       orient="auto"
       inkscape:stockid="Arrow2Lend"
       inkscape:isstock="true">
      <path
         transform="matrix(-1.1,0,0,-1.1,-1.1,0)"
         d="M 8.7185878,4.0337352 -2.2072895,0.01601326 8.7185884,-4.0017078 c -1.7454984,2.3720609 -1.7354408,5.6174519 -6e-7,8.035443 z"
         style="fill:context-stroke;fill-rule:evenodd;stroke:context-stroke;stroke-width:0.625;stroke-linejoin:round"
         id="path880" />
    </marker>
    <marker
       style="overflow:visible"
       id="Arrow2Lstart"
       refX="0"
       refY="0"
       orient="auto"
       inkscape:stockid="Arrow2Lstart"
       inkscape:isstock="true">
      <path
         transform="matrix(1.1,0,0,1.1,1.1,0)"
         d="M 8.7185878,4.0337352 -2.2072895,0.01601326 8.7185884,-4.0017078 c -1.7454984,2.3720609 -1.7354408,5.6174519 -6e-7,8.035443 z"
         style="fill:context-stroke;fill-rule:evenodd;stroke:context-stroke;stroke-width:0.625;stroke-linejoin:round"
         id="path877" />
    </marker>
  </defs>
  <g
     inkscape:label="Layer 1"
     inkscape:groupmode="layer"
     id="layer1"
     transform="translate(-87.170129,-10.452771)">
    <g
       id="path991">
      <path
         style="color:#000000;fill:#ff2a2a;-inkscape-stroke:none"
         d="m 138.09766,16.208984 c -4.76243,3.354514 -9.52612,6.708516 -14.28907,10.0625 l 0.15235,0.216797 C 128.7239,23.13429 133.48756,19.778348 138.25,16.423828 Z"
         id="path6281" />
      <g
         id="g6271">
        <g
           id="path6273">
          <path
             style="color:#000000;fill:#ff2a2a;fill-rule:evenodd;stroke-width:0.181901;stroke-linejoin:round;-inkscape-stroke:none"
             d="m 135.18466,16.985441 3.27308,-0.875179 -1.92635,2.787139 c 0.0178,-0.856953 -0.52854,-1.627478 -1.34673,-1.91196 z"
             id="path6277" />
          <path
             style="color:#000000;fill:#ff2a2a;fill-rule:evenodd;stroke-linejoin:round;-inkscape-stroke:none"
             d="m 138.43359,16.021484 -3.27148,0.876953 a 0.09095959,0.09095959 0 0 0 -0.008,0.173829 c 0.78193,0.271876 1.30408,1.007029 1.28711,1.824218 a 0.09095959,0.09095959 0 0 0 0.16406,0.05273 l 1.92773,-2.78711 a 0.09095959,0.09095959 0 0 0 -0.0996,-0.140625 z m -0.1914,0.240235 -1.68164,2.433593 c -0.0645,-0.733605 -0.50304,-1.352425 -1.17578,-1.667968 z"
             id="path6279" />
        </g>
      </g>
    </g>
    <text
       xml:space="preserve"
       style="font-size:2.82223px;line-height:1.25;font-family:sans-serif;text-align:center;text-anchor:middle;fill:#ff2a2a;fill-opacity:1;stroke-width:0.264583"
       x="138.60039"
       y="14.733611"
       id="text2033"><tspan
         sodipodi:role="line"
         id="tspan2031"
         style="text-align:center;text-anchor:middle;fill:#ff2a2a;fill-opacity:1;stroke-width:0.264583"
         x="138.60039"
         y="14.733611">$\nu_P$</tspan></text>
    <text
       xml:space="preserve"
       style="font-size:2.82223px;line-height:1.25;font-family:sans-serif;text-align:end;text-anchor:end;stroke-width:0.264583"
       x="122.56261"
       y="30.104897"
       id="text3129"><tspan
         sodipodi:role="line"
         id="tspan3127"
         style="text-align:end;text-anchor:end;stroke-width:0.264583"
         x="122.56261"
         y="30.104897">$P$</tspan></text>
    <g
       id="path3244">
      <path
         style="color:#000000;fill:#0088aa;-inkscape-stroke:none"
         d="m 114.94141,14.787109 -0.20899,0.164063 9.05078,11.507812 0.20899,-0.164062 z"
         id="path6295" />
      <g
         id="g6285">
        <g
           id="path6287">
          <path
             style="color:#000000;fill:#0088aa;fill-rule:evenodd;stroke-width:0.181901;stroke-linejoin:round;-inkscape-stroke:none"
             d="m 115.66241,17.818138 -1.04655,-3.222373 2.88484,1.776702 c -0.8567,0.02744 -1.59734,0.613626 -1.83829,1.445671 z"
             id="path6291" />
          <path
             style="color:#000000;fill:#0088aa;fill-rule:evenodd;stroke-linejoin:round;-inkscape-stroke:none"
             d="m 114.66406,14.517578 a 0.09095959,0.09095959 0 0 0 -0.13476,0.105469 l 1.04687,3.222656 a 0.09095959,0.09095959 0 0 0 0.17383,-0.002 c 0.23027,-0.795176 0.93695,-1.354693 1.75391,-1.380859 a 0.09095959,0.09095959 0 0 0 0.0449,-0.167969 z m 0.11524,0.28711 2.51953,1.548828 c -0.72983,0.102916 -1.3279,0.574495 -1.60742,1.263671 z"
             id="path6293" />
        </g>
      </g>
    </g>
    <text
       xml:space="preserve"
       style="font-size:2.82223px;line-height:1.25;font-family:sans-serif;text-align:center;text-anchor:middle;fill:#0088aa;fill-opacity:1;stroke-width:0.264583"
       x="114.91925"
       y="12.624565"
       id="text3999"><tspan
         sodipodi:role="line"
         style="text-align:center;text-anchor:middle;fill:#0088aa;fill-opacity:1;stroke-width:0.264583"
         id="tspan4001"
         x="114.91925"
         y="12.624565">$\gamma'(t)$</tspan></text>
    <path
       style="fill:none;stroke:#000000;stroke-width:0.264583px;stroke-linecap:butt;stroke-linejoin:miter;stroke-opacity:1"
       d="m 87.582261,31.019736 c -0.671089,3.468539 -0.09963,7.121553 1.338773,10.348335 1.438403,3.226781 3.713635,6.040596 6.382378,8.355533 2.893431,2.509838 6.435578,4.513094 10.263238,4.655487 1.91383,0.0712 3.86159,-0.340406 5.51907,-1.299871 1.65748,-0.959464 3.00736,-2.48231 3.63755,-4.290809 0.62166,-1.784013 0.53671,-3.754137 1.15648,-5.538808 0.30988,-0.892335 0.81028,-1.742268 1.55826,-2.319162 0.374,-0.288447 0.80657,-0.504415 1.26726,-0.608478 0.4607,-0.104063 0.94952,-0.09408 1.39941,0.04971 0.46714,0.149304 0.88117,0.437593 1.2298,0.782502 0.34864,0.344908 0.63615,0.746247 0.90611,1.15567 0.53994,0.818847 1.04053,1.704296 1.84165,2.270198 0.54454,0.384653 1.20546,0.596699 1.87163,0.622875 0.66618,0.02618 1.3359,-0.130943 1.93137,-0.430753 1.19096,-0.599619 2.0508,-1.754791 2.44873,-3.027412 0.39792,-1.27262 0.36371,-2.652316 0.0751,-3.954094 -0.28859,-1.301779 -0.82234,-2.53632 -1.4134,-3.731541 -2.0216,-4.08798 -4.7779,-7.845105 -8.27584,-10.771339 -3.49794,-2.926234 -7.75546,-4.998678 -12.26935,-5.649223 -4.5139,-0.650546 -9.275008,0.169644 -13.165425,2.549373 -3.890416,2.379729 -6.836524,6.354314 -7.702824,10.83181 z"
       id="path874"
       inkscape:path-effect="#path-effect876"
       inkscape:original-d="m 87.582261,31.019736 c -13.804557,-1.013201 5.147509,12.46932 7.721151,18.703868 2.57364,6.234549 12.946648,-0.623387 19.419858,-0.935193 6.47321,-0.311806 3.58769,-5.611086 5.38141,-8.416741 1.79373,-2.805655 2.65178,2.805655 3.97756,4.20837 1.32579,1.402716 3.27572,-7.013876 4.91346,-10.520925 1.63775,-3.50705 -27.60888,-2.026178 -41.413439,-3.039379 z" />
    <circle
       style="fill:#000000;stroke-width:3.78;stroke-linecap:round;stroke-linejoin:round"
       id="path961"
       cx="123.8871"
       cy="26.37742"
       r="0.5" />
  </g>
  <inkscape:templateinfo>
    <inkscape:name>Default Template</inkscape:name>
    <inkscape:author>Joachim Favre</inkscape:author>
    <inkscape:shortdesc>Arrow definitions, snapping (including perpendicular and tangential)</inkscape:shortdesc>
    <inkscape:date>2022-02-19</inkscape:date>
  </inkscape:templateinfo>
</svg>
