<?xml version="1.0" encoding="UTF-8" standalone="no"?>
<!-- Created with Inkscape (http://www.inkscape.org/) -->

<svg
   width="55.570995mm"
   height="40.059059mm"
   viewBox="0 0 55.570996 40.059059"
   version="1.1"
   id="svg5"
   inkscape:version="1.1.2 (b8e25be833, 2022-02-05)"
   sodipodi:docname="PreuvePropositionNormaleExterieure.svg"
   xmlns:inkscape="http://www.inkscape.org/namespaces/inkscape"
   xmlns:sodipodi="http://sodipodi.sourceforge.net/DTD/sodipodi-0.dtd"
   xmlns="http://www.w3.org/2000/svg"
   xmlns:svg="http://www.w3.org/2000/svg">
  <sodipodi:namedview
     id="namedview7"
     pagecolor="#ffffff"
     bordercolor="#111111"
     borderopacity="1"
     inkscape:pageshadow="0"
     inkscape:pageopacity="0"
     inkscape:pagecheckerboard="1"
     inkscape:document-units="mm"
     showgrid="false"
     inkscape:snap-perpendicular="true"
     inkscape:snap-tangential="true"
     inkscape:snap-bbox="false"
     inkscape:bbox-paths="true"
     inkscape:bbox-nodes="true"
     inkscape:snap-bbox-edge-midpoints="true"
     inkscape:snap-bbox-midpoints="true"
     inkscape:object-paths="true"
     inkscape:snap-intersection-paths="true"
     inkscape:snap-object-midpoints="true"
     inkscape:snap-center="true"
     inkscape:snap-global="false"
     inkscape:zoom="7.246694"
     inkscape:cx="148.4815"
     inkscape:cy="62.097282"
     inkscape:window-width="3365"
     inkscape:window-height="1417"
     inkscape:window-x="67"
     inkscape:window-y="-8"
     inkscape:window-maximized="1"
     inkscape:current-layer="layer1"
     inkscape:object-nodes="true" />
  <defs
     id="defs2">
    <inkscape:path-effect
       effect="spiro"
       id="path-effect876"
       is_visible="true"
       lpeversion="1" />
    <marker
       style="overflow:visible"
       id="Arrow2Lend"
       refX="0"
       refY="0"
       orient="auto"
       inkscape:stockid="Arrow2Lend"
       inkscape:isstock="true">
      <path
         transform="matrix(-1.1,0,0,-1.1,-1.1,0)"
         d="M 8.7185878,4.0337352 -2.2072895,0.01601326 8.7185884,-4.0017078 c -1.7454984,2.3720609 -1.7354408,5.6174519 -6e-7,8.035443 z"
         style="fill:context-stroke;fill-rule:evenodd;stroke:context-stroke;stroke-width:0.625;stroke-linejoin:round"
         id="path880" />
    </marker>
    <marker
       style="overflow:visible"
       id="Arrow2Lstart"
       refX="0"
       refY="0"
       orient="auto"
       inkscape:stockid="Arrow2Lstart"
       inkscape:isstock="true">
      <path
         transform="matrix(1.1,0,0,1.1,1.1,0)"
         d="M 8.7185878,4.0337352 -2.2072895,0.01601326 8.7185884,-4.0017078 c -1.7454984,2.3720609 -1.7354408,5.6174519 -6e-7,8.035443 z"
         style="fill:context-stroke;fill-rule:evenodd;stroke:context-stroke;stroke-width:0.625;stroke-linejoin:round"
         id="path877" />
    </marker>
  </defs>
  <g
     inkscape:label="Layer 1"
     inkscape:groupmode="layer"
     id="layer1"
     transform="translate(-89.058268,-12.077783)">
    <g
       id="path991"
       transform="rotate(34.68259,111.3417,34.984732)">
      <path
         style="color:#000000;fill:#ff2a2a;-inkscape-stroke:none"
         d="m 138.09766,16.208984 c -4.76243,3.354514 -9.52612,6.708516 -14.28907,10.0625 l 0.15235,0.216797 C 128.7239,23.13429 133.48756,19.778348 138.25,16.423828 Z"
         id="path6281" />
      <g
         id="g6271">
        <g
           id="path6273">
          <path
             style="color:#000000;fill:#ff2a2a;fill-rule:evenodd;stroke-width:0.181901;stroke-linejoin:round;-inkscape-stroke:none"
             d="m 135.18466,16.985441 3.27308,-0.875179 -1.92635,2.787139 c 0.0178,-0.856953 -0.52854,-1.627478 -1.34673,-1.91196 z"
             id="path6277" />
          <path
             style="color:#000000;fill:#ff2a2a;fill-rule:evenodd;stroke-linejoin:round;-inkscape-stroke:none"
             d="m 138.43359,16.021484 -3.27148,0.876953 a 0.09095959,0.09095959 0 0 0 -0.008,0.173829 c 0.78193,0.271876 1.30408,1.007029 1.28711,1.824218 a 0.09095959,0.09095959 0 0 0 0.16406,0.05273 l 1.92773,-2.78711 a 0.09095959,0.09095959 0 0 0 -0.0996,-0.140625 z m -0.1914,0.240235 -1.68164,2.433593 c -0.0645,-0.733605 -0.50304,-1.352425 -1.17578,-1.667968 z"
             id="path6279" />
        </g>
      </g>
    </g>
    <text
       xml:space="preserve"
       style="font-size:2.82223px;line-height:1.25;font-family:sans-serif;text-align:center;text-anchor:middle;fill:#ff2a2a;fill-opacity:1;stroke-width:0.264583"
       x="138.85596"
       y="32.03978"
       id="text2033"><tspan
         sodipodi:role="line"
         id="tspan2031"
         style="text-align:center;text-anchor:middle;fill:#ff2a2a;fill-opacity:1;stroke-width:0.264583"
         x="138.85596"
         y="32.03978">$\nu_{\gamma'(t)}$</tspan></text>
    <text
       xml:space="preserve"
       style="font-size:2.82223px;line-height:1.25;font-family:sans-serif;text-align:end;text-anchor:end;stroke-width:0.264583"
       x="125.48348"
       y="35.98315"
       id="text3129"><tspan
         sodipodi:role="line"
         id="tspan3127"
         style="text-align:end;text-anchor:end;stroke-width:0.264583"
         x="125.48348"
         y="35.98315">$\gamma(t)$</tspan></text>
    <g
       id="path3244"
       transform="rotate(38.685186,112.86026,34.511449)">
      <path
         style="color:#000000;fill:#0088aa;-inkscape-stroke:none"
         d="m 114.94141,14.787109 -0.20899,0.164063 9.05078,11.507812 0.20899,-0.164062 z"
         id="path6295" />
      <g
         id="g6285">
        <g
           id="path6287">
          <path
             style="color:#000000;fill:#0088aa;fill-rule:evenodd;stroke-width:0.181901;stroke-linejoin:round;-inkscape-stroke:none"
             d="m 115.66241,17.818138 -1.04655,-3.222373 2.88484,1.776702 c -0.8567,0.02744 -1.59734,0.613626 -1.83829,1.445671 z"
             id="path6291" />
          <path
             style="color:#000000;fill:#0088aa;fill-rule:evenodd;stroke-linejoin:round;-inkscape-stroke:none"
             d="m 114.66406,14.517578 a 0.09095959,0.09095959 0 0 0 -0.13476,0.105469 l 1.04687,3.222656 a 0.09095959,0.09095959 0 0 0 0.17383,-0.002 c 0.23027,-0.795176 0.93695,-1.354693 1.75391,-1.380859 a 0.09095959,0.09095959 0 0 0 0.0449,-0.167969 z m 0.11524,0.28711 2.51953,1.548828 c -0.72983,0.102916 -1.3279,0.574495 -1.60742,1.263671 z"
             id="path6293" />
        </g>
      </g>
    </g>
    <text
       xml:space="preserve"
       style="font-size:2.82223px;line-height:1.25;font-family:sans-serif;text-align:center;text-anchor:middle;fill:#0088aa;fill-opacity:1;stroke-width:0.264583"
       x="126.96785"
       y="18.685375"
       id="text3999"><tspan
         sodipodi:role="line"
         style="text-align:center;text-anchor:middle;fill:#0088aa;fill-opacity:1;stroke-width:0.264583"
         id="tspan4001"
         x="126.96785"
         y="18.685375">$\gamma'(t)$</tspan></text>
    <path
       style="fill:none;stroke:#000000;stroke-width:0.264583px;stroke-linecap:butt;stroke-linejoin:miter;stroke-opacity:1"
       d="m 95.310917,15.986066 c -2.691825,2.288056 -4.529032,5.496755 -5.423096,8.914616 -0.894065,3.417861 -0.876785,7.036415 -0.240516,10.51151 0.689838,3.767671 2.202694,7.545382 5.101529,10.048975 1.449417,1.251796 3.227092,2.147932 5.120611,2.434974 1.893515,0.287043 3.899065,-0.05794 5.521375,-1.075749 1.60034,-1.004025 2.76544,-2.594984 4.36472,-3.600705 0.79964,-0.50286 1.72149,-0.853542 2.66595,-0.836339 0.47222,0.0086 0.94487,0.110391 1.36953,0.317116 0.42466,0.206726 0.8,0.52005 1.0613,0.913488 0.27132,0.408527 0.41432,0.892347 0.47088,1.379493 0.0566,0.487146 0.0301,0.980128 -0.015,1.468463 -0.0903,0.976668 -0.25303,1.980729 0.0186,2.923202 0.18464,0.640614 0.56801,1.219237 1.07166,1.656057 0.50365,0.43682 1.12463,0.732775 1.77685,0.870942 1.30443,0.276334 2.69765,-0.08795 3.80371,-0.832623 1.10605,-0.744677 1.94171,-1.84304 2.53011,-3.039574 0.5884,-1.196535 0.9434,-2.493821 1.22908,-3.796239 0.97711,-4.454627 1.17392,-9.110207 0.27247,-13.580759 -0.90145,-4.470553 -2.92947,-8.749408 -6.04636,-12.078587 -3.11689,-3.329179 -7.34603,-5.664834 -11.87029,-6.238906 -4.52425,-0.574072 -9.308238,0.68702 -12.783083,3.640645 z"
       id="path874"
       inkscape:path-effect="#path-effect876"
       inkscape:original-d="m 95.310917,15.986066 c -10.142435,-9.4193084 -3.77573,12.950856 -5.663612,19.426126 -1.887885,6.475269 10.495695,7.605573 15.743515,11.4082 5.24783,3.802628 6.30769,-2.137516 9.4615,-3.20644 3.15382,-1.068917 0.31631,3.847543 0.47445,5.771158 0.15814,1.923622 6.94096,-3.427517 10.41141,-5.141437 3.47047,-1.713915 -20.28483,-18.838297 -30.427263,-28.257607 z" />
    <circle
       style="fill:#000000;stroke-width:3.78;stroke-linecap:round;stroke-linejoin:round"
       id="path961"
       cx="120.69572"
       cy="-51.736938"
       r="0.5"
       transform="rotate(38.685186)" />
  </g>
  <inkscape:templateinfo>
    <inkscape:name>Default Template</inkscape:name>
    <inkscape:author>Joachim Favre</inkscape:author>
    <inkscape:shortdesc>Arrow definitions, snapping (including perpendicular and tangential)</inkscape:shortdesc>
    <inkscape:date>2022-02-19</inkscape:date>
  </inkscape:templateinfo>
</svg>
