<?xml version="1.0" encoding="UTF-8" standalone="no"?>
<!-- Created with Inkscape (http://www.inkscape.org/) -->

<svg
   width="18.292166mm"
   height="18.252647mm"
   viewBox="0 0 18.292166 18.252648"
   version="1.1"
   id="svg5"
   inkscape:version="1.1.2 (b8e25be833, 2022-02-05)"
   sodipodi:docname="TheoremGreenParametrisationExemple.svg"
   xmlns:inkscape="http://www.inkscape.org/namespaces/inkscape"
   xmlns:sodipodi="http://sodipodi.sourceforge.net/DTD/sodipodi-0.dtd"
   xmlns="http://www.w3.org/2000/svg"
   xmlns:svg="http://www.w3.org/2000/svg">
  <sodipodi:namedview
     id="namedview7"
     pagecolor="#ffffff"
     bordercolor="#111111"
     borderopacity="1"
     inkscape:pageshadow="0"
     inkscape:pageopacity="0"
     inkscape:pagecheckerboard="1"
     inkscape:document-units="mm"
     showgrid="false"
     inkscape:snap-perpendicular="true"
     inkscape:snap-tangential="true"
     inkscape:snap-bbox="true"
     inkscape:bbox-paths="true"
     inkscape:bbox-nodes="true"
     inkscape:snap-bbox-edge-midpoints="true"
     inkscape:snap-bbox-midpoints="true"
     inkscape:object-paths="true"
     inkscape:snap-intersection-paths="true"
     inkscape:snap-object-midpoints="true"
     inkscape:snap-center="true"
     inkscape:zoom="5.1241865"
     inkscape:cx="14.246164"
     inkscape:cy="37.079056"
     inkscape:window-width="3365"
     inkscape:window-height="1417"
     inkscape:window-x="67"
     inkscape:window-y="-8"
     inkscape:window-maximized="1"
     inkscape:current-layer="layer1"
     inkscape:snap-global="false" />
  <defs
     id="defs2">
    <marker
       style="overflow:visible"
       id="Arrow2Lend"
       refX="0"
       refY="0"
       orient="auto"
       inkscape:stockid="Arrow2Lend"
       inkscape:isstock="true">
      <path
         transform="matrix(-1.1,0,0,-1.1,-1.1,0)"
         d="M 8.7185878,4.0337352 -2.2072895,0.01601326 8.7185884,-4.0017078 c -1.7454984,2.3720609 -1.7354408,5.6174519 -6e-7,8.035443 z"
         style="fill:context-stroke;fill-rule:evenodd;stroke:context-stroke;stroke-width:0.625;stroke-linejoin:round"
         id="path880" />
    </marker>
    <marker
       style="overflow:visible"
       id="Arrow2Lstart"
       refX="0"
       refY="0"
       orient="auto"
       inkscape:stockid="Arrow2Lstart"
       inkscape:isstock="true">
      <path
         transform="matrix(1.1,0,0,1.1,1.1,0)"
         d="M 8.7185878,4.0337352 -2.2072895,0.01601326 8.7185884,-4.0017078 c -1.7454984,2.3720609 -1.7354408,5.6174519 -6e-7,8.035443 z"
         style="fill:context-stroke;fill-rule:evenodd;stroke:context-stroke;stroke-width:0.625;stroke-linejoin:round"
         id="path877" />
    </marker>
  </defs>
  <g
     inkscape:label="Layer 1"
     inkscape:groupmode="layer"
     id="layer1"
     transform="translate(-93.071688,-66.776871)">
    <path
       style="fill:none;stroke:#000000;stroke-width:0.265;stroke-linecap:round;stroke-linejoin:round;stroke-miterlimit:4;stroke-dasharray:none"
       id="path859"
       sodipodi:type="arc"
       sodipodi:cx="93.86937"
       sodipodi:cy="84.271912"
       sodipodi:rx="16.995001"
       sodipodi:ry="16.995092"
       sodipodi:start="4.712389"
       sodipodi:end="0"
       sodipodi:arc-type="arc"
       d="m 93.86937,67.276819 a 16.995001,16.995092 0 0 1 16.995,16.995093"
       sodipodi:open="true" />
    <path
       style="fill:none;stroke:#000000;stroke-width:0.265;stroke-linecap:round;stroke-linejoin:round;stroke-miterlimit:4;stroke-dasharray:none"
       id="path1096"
       sodipodi:type="arc"
       sodipodi:cx="93.86937"
       sodipodi:cy="84.271912"
       sodipodi:rx="11.330061"
       sodipodi:ry="11.330061"
       sodipodi:start="4.712389"
       sodipodi:end="0"
       sodipodi:arc-type="arc"
       d="m 93.86937,72.941851 a 11.330061,11.330061 0 0 1 11.33006,11.330061"
       sodipodi:open="true" />
    <path
       style="color:#000000;fill:#000000;stroke-linecap:round;stroke-linejoin:round;-inkscape-stroke:none"
       d="m 105.19922,84.138672 a 0.13249999,0.13249999 0 0 0 -0.13281,0.132812 0.13249999,0.13249999 0 0 0 0.13281,0.132813 h 4.25976 1.40625 a 0.13249999,0.13249999 0 0 0 0.13086,-0.132813 0.13249999,0.13249999 0 0 0 -0.13086,-0.132812 h -1.40625 z"
       id="path1488" />
    <g
       id="g1478"
       transform="matrix(0.60152553,0,0,0.60152553,42.08987,33.582155)"
       style="stroke-width:1.66244">
      <g
         id="path1480"
         style="stroke-width:1.66244">
        <path
           style="color:#000000;fill:#000000;fill-rule:evenodd;stroke-width:0.302875;stroke-linejoin:round;-inkscape-stroke:none"
           d="m 108.03147,83.096071 3.18489,1.171166 -3.18489,1.171166 c 0.50881,-0.691456 0.50588,-1.637487 0,-2.342332 z"
           id="path1484" />
        <path
           style="color:#000000;fill:#000000;fill-rule:evenodd;stroke-width:1.66244;stroke-linejoin:round;-inkscape-stroke:none"
           d="m 108.0625,83.009766 a 0.09110261,0.09110261 0 0 0 -0.10547,0.138671 c 0.48346,0.673612 0.48716,1.576954 0.002,2.236329 a 0.09110261,0.09110261 0 0 0 0.10352,0.138671 l 3.18555,-1.169921 a 0.09110261,0.09110261 0 0 0 0,-0.171875 z m 0.10742,0.234375 2.78125,1.023437 -2.77929,1.023438 c 0.37106,-0.638394 0.36769,-1.399982 -0.002,-2.046875 z"
           id="path1486" />
      </g>
    </g>
    <path
       style="color:#000000;fill:#000000;stroke-linejoin:round;-inkscape-stroke:none"
       d="m 93.736328,67.277344 v 5.664062 h 0.265625 v -5.664062 z"
       id="path1502" />
    <g
       id="g1492"
       transform="matrix(0.63181577,0,0,0.63181577,34.558079,28.387052)"
       style="stroke-width:1.58274">
      <g
         id="path1494"
         style="stroke-width:1.58274">
        <path
           style="color:#000000;fill:#000000;fill-rule:evenodd;stroke-width:0.288355;stroke-linejoin:round;-inkscape-stroke:none"
           d="m 95.045201,64.443851 -1.171166,3.184893 -1.171166,-3.184893 c 0.691456,0.508812 1.637487,0.505881 2.342332,0 z"
           id="path1498" />
        <path
           style="color:#000000;fill:#000000;fill-rule:evenodd;stroke-width:1.58274;stroke-linejoin:round;-inkscape-stroke:none"
           d="m 95.066406,64.355469 a 0.09110261,0.09110261 0 0 0 -0.07422,0.01367 c -0.673611,0.483464 -1.575,0.487157 -2.234375,0.002 a 0.09110261,0.09110261 0 0 0 -0.140625,0.103515 l 1.171875,3.185547 a 0.09110261,0.09110261 0 0 0 0.169922,0 l 1.171875,-3.185547 a 0.09110261,0.09110261 0 0 0 -0.06445,-0.11914 z M 94.896484,64.582031 93.875,67.367187 92.851562,64.583984 c 0.638155,0.370164 1.398543,0.36744 2.044922,-0.002 z"
           id="path1500" />
      </g>
    </g>
    <text
       xml:space="preserve"
       style="font-size:1.41111px;line-height:1.25;font-family:sans-serif;text-align:center;text-anchor:middle;stroke-width:0.264583;stroke-linejoin:round"
       x="107.99664"
       y="86.925316"
       id="text3280"><tspan
         sodipodi:role="line"
         id="tspan3278"
         style="font-size:1.41111px;text-align:center;text-anchor:middle;stroke-width:0.264583;stroke-linejoin:round"
         x="107.99664"
         y="86.925316">$\Gamma_4$</tspan></text>
    <text
       xml:space="preserve"
       style="font-size:1.41111px;line-height:1.25;font-family:sans-serif;stroke-width:0.264583;stroke-linejoin:round"
       x="108.22037"
       y="72.693573"
       id="text6078"><tspan
         sodipodi:role="line"
         id="tspan6076"
         style="font-size:1.41111px;stroke-width:0.264583;stroke-linejoin:round"
         x="108.22037"
         y="72.693573">$\Gamma_1$</tspan></text>
    <text
       xml:space="preserve"
       style="font-size:1.41111px;line-height:1.25;font-family:sans-serif;text-align:end;text-anchor:end;stroke-width:0.264583;stroke-linejoin:round"
       x="92.024231"
       y="70.603661"
       id="text7402"><tspan
         sodipodi:role="line"
         id="tspan7400"
         style="font-size:1.41111px;text-align:end;text-anchor:end;stroke-width:0.264583;stroke-linejoin:round"
         x="92.024231"
         y="70.603661">$-\Gamma_2$</tspan></text>
    <text
       xml:space="preserve"
       style="font-size:1.41111px;line-height:1.25;font-family:sans-serif;text-align:end;text-anchor:end;stroke-width:0.264583;stroke-linejoin:round"
       x="101.64655"
       y="78.952972"
       id="text8410"><tspan
         sodipodi:role="line"
         id="tspan8408"
         style="font-size:1.41111px;text-align:end;text-anchor:end;stroke-width:0.264583;stroke-linejoin:round"
         x="101.64655"
         y="78.952972">$-\Gamma_3$</tspan></text>
    <circle
       style="fill:#000000;stroke:none;stroke-width:3.78;stroke-linecap:round;stroke-linejoin:round;stroke-miterlimit:4;stroke-dasharray:none"
       id="path8526"
       cx="110.86385"
       cy="84.138657"
       r="0.5" />
    <circle
       style="fill:#000000;stroke:none;stroke-width:3.78;stroke-linecap:round;stroke-linejoin:round;stroke-miterlimit:4;stroke-dasharray:none"
       id="path8526-9"
       cx="93.912132"
       cy="67.276871"
       r="0.5" />
    <circle
       style="fill:#000000;stroke:none;stroke-width:3.78;stroke-linecap:round;stroke-linejoin:round;stroke-miterlimit:4;stroke-dasharray:none"
       id="path8526-0"
       cx="93.869141"
       cy="72.941406"
       r="0.5" />
    <circle
       style="fill:#000000;stroke:none;stroke-width:3.78;stroke-linecap:round;stroke-linejoin:round;stroke-miterlimit:4;stroke-dasharray:none"
       id="path8526-97"
       cx="105.19865"
       cy="84.138664"
       r="0.5" />
  </g>
  <inkscape:templateinfo>
    <inkscape:name>Default Template</inkscape:name>
    <inkscape:author>Joachim Favre</inkscape:author>
    <inkscape:shortdesc>Arrow definitions, snapping (including perpendicular and tangential)</inkscape:shortdesc>
    <inkscape:date>2022-02-19</inkscape:date>
  </inkscape:templateinfo>
</svg>
