<?xml version="1.0" encoding="UTF-8" standalone="no"?>
<!-- Created with Inkscape (http://www.inkscape.org/) -->

<svg
   sodipodi:docname="BinaryEntropyFunction.svg"
   inkscape:version="1.1.2 (b8e25be833, 2022-02-05)"
   id="svg5"
   version="1.1"
   viewBox="0 0 165.95796 128.49425"
   height="128.49425mm"
   width="165.95796mm"
   xmlns:inkscape="http://www.inkscape.org/namespaces/inkscape"
   xmlns:sodipodi="http://sodipodi.sourceforge.net/DTD/sodipodi-0.dtd"
   xmlns="http://www.w3.org/2000/svg"
   xmlns:svg="http://www.w3.org/2000/svg">
  <sodipodi:namedview
     id="namedview7"
     pagecolor="#ffffff"
     bordercolor="#111111"
     borderopacity="1"
     inkscape:pageshadow="0"
     inkscape:pageopacity="0"
     inkscape:pagecheckerboard="1"
     inkscape:document-units="mm"
     showgrid="false"
     inkscape:snap-perpendicular="true"
     inkscape:snap-tangential="true"
     inkscape:snap-bbox="true"
     inkscape:bbox-paths="true"
     inkscape:bbox-nodes="true"
     inkscape:snap-bbox-edge-midpoints="true"
     inkscape:snap-bbox-midpoints="true"
     inkscape:object-paths="true"
     inkscape:snap-intersection-paths="true"
     inkscape:snap-object-midpoints="true"
     inkscape:snap-center="true"
     inkscape:zoom="1.8116734"
     inkscape:cx="388.31502"
     inkscape:cy="434.95698"
     inkscape:window-width="2479"
     inkscape:window-height="1417"
     inkscape:window-x="73"
     inkscape:window-y="-8"
     inkscape:window-maximized="1"
     inkscape:current-layer="layer1"
     showguides="true"
     inkscape:guide-bbox="true"
     inkscape:snap-global="true">
    <sodipodi:guide
       position="89.295541,118.00712"
       orientation="0,-1"
       id="guide1854" />
    <sodipodi:guide
       position="80.22054,117.87463"
       orientation="1,0"
       id="guide21551" />
  </sodipodi:namedview>
  <defs
     id="defs2">
    <marker
       style="overflow:visible"
       id="Arrow2Lend"
       refX="0"
       refY="0"
       orient="auto"
       inkscape:stockid="Arrow2Lend"
       inkscape:isstock="true">
      <path
         transform="matrix(-1.1,0,0,-1.1,-1.1,0)"
         d="M 8.7185878,4.0337352 -2.2072895,0.01601326 8.7185884,-4.0017078 c -1.7454984,2.3720609 -1.7354408,5.6174519 -6e-7,8.035443 z"
         style="fill:context-stroke;fill-rule:evenodd;stroke:context-stroke;stroke-width:0.625;stroke-linejoin:round"
         id="path880" />
    </marker>
    <marker
       style="overflow:visible"
       id="Arrow2Lstart"
       refX="0"
       refY="0"
       orient="auto"
       inkscape:stockid="Arrow2Lstart"
       inkscape:isstock="true">
      <path
         transform="matrix(1.1,0,0,1.1,1.1,0)"
         d="M 8.7185878,4.0337352 -2.2072895,0.01601326 8.7185884,-4.0017078 c -1.7454984,2.3720609 -1.7354408,5.6174519 -6e-7,8.035443 z"
         style="fill:context-stroke;fill-rule:evenodd;stroke:context-stroke;stroke-width:0.625;stroke-linejoin:round"
         id="path877" />
    </marker>
  </defs>
  <g
     inkscape:label="Layer 1"
     inkscape:groupmode="layer"
     id="layer1"
     transform="translate(-15.62541,-1.1531737)">
    <path
       style="fill:none;stroke:#0088aa;stroke-width:0.264583;stroke-linecap:round;stroke-dasharray:none"
       d="m 19.2079,121.65 c 0.102645,-1.498 0.205201,-1.636 0.307847,-2.295 0.102556,-0.659 0.205112,-1.268 0.307757,-1.853 0.102556,-0.585 0.205201,-1.144 0.307757,-1.685 0.102646,-0.542 0.205202,-1.066 0.307758,-1.577 0.102645,-0.512 0.205201,-1.009 0.307846,-1.496 0.102556,-0.488 0.205202,-0.964 0.307758,-1.432 0.102556,-0.467 0.205201,-0.926 0.307757,-1.377 0.102645,-0.451 0.205201,-0.894 0.307847,-1.331 0.102556,-0.436 0.205112,-0.866 0.307757,-1.29 0.102556,-0.424 0.205201,-0.842 0.307757,-1.254 0.102646,-0.413 0.205202,-0.82 0.307758,-1.222 0.102645,-0.402 0.205201,-0.8 0.307846,-1.192 0.102556,-0.393 0.205202,-0.781 0.307758,-1.165 0.102556,-0.384 0.205201,-0.764 0.307757,-1.14 0.102645,-0.376 0.205201,-0.748 0.307757,-1.116 0.102646,-0.3688 0.205202,-0.7336 0.307847,-1.0949 0.102556,-0.3613 0.205201,-0.7192 0.307757,-1.0739 0.102556,-0.3547 0.205202,-0.7061 0.307758,-1.0545 0.102645,-0.3484 0.205201,-0.6937 0.307846,-1.0361 0.102556,-0.3425 0.205112,-0.682 0.307758,-1.0188 0.102556,-0.3367 0.205201,-0.6707 0.307757,-1.0021 0.102645,-0.3313 0.205201,-0.6601 0.307757,-0.9863 0.102646,-0.3262 0.205202,-0.6499 0.307847,-0.9711 0.102556,-0.3213 0.205201,-0.6401 0.307757,-0.9567 0.102556,-0.3165 0.205202,-0.6307 0.307758,-0.9427 0.102645,-0.3119 0.205201,-0.6217 0.307846,-0.9293 0.102556,-0.3075 0.205112,-0.613 0.307758,-0.9163 0.102556,-0.3034 0.205201,-0.6047 0.307757,-0.9039 0.102645,-0.2993 0.205201,-0.5966 0.307757,-0.8919 0.102646,-0.2953 0.205202,-0.5887 0.307847,-0.8802 0.102556,-0.2915 0.205201,-0.5811 0.307757,-0.8689 0.102556,-0.2878 0.205202,-0.5737 0.307758,-0.8579 0.102645,-0.2842 0.205201,-0.5667 0.307846,-0.8474 0.102556,-0.2807 0.205112,-0.5596 0.307758,-0.8369 0.102556,-0.2774 0.205201,-0.553 0.307757,-0.827 0.102645,-0.274 0.205201,-0.5464 0.307757,-0.8171 0.102646,-0.2708 0.205202,-0.54 0.307847,-0.8077 0.102556,-0.2676 0.205201,-0.5337 0.307757,-0.7983 0.102556,-0.2646 0.205202,-0.5277 0.307758,-0.7893 0.102645,-0.2616 0.205201,-0.5217 0.307846,-0.7804 0.102556,-0.2586 0.205112,-0.5159 0.307758,-0.7717 0.102556,-0.2558 0.205201,-0.5103 0.307757,-0.7633 0.102645,-0.253 0.205201,-0.5047 0.307757,-0.755 0.102646,-0.2503 0.205201,-0.4993 0.307847,-0.7469 0.102556,-0.2477 0.205201,-0.494 0.307757,-0.739 0.102556,-0.245 0.205202,-0.4887 0.307757,-0.7312 0.102646,-0.2424 0.205202,-0.4836 0.307758,-0.7236 0.102645,-0.2399 0.205201,-0.4786 0.307847,-0.716 0.102555,-0.2375 0.205201,-0.4738 0.307757,-0.7088 0.102556,-0.235 0.205201,-0.4689 0.307757,-0.7015 0.102645,-0.2327 0.205201,-0.4642 0.307847,-0.6945 0.102556,-0.2303 0.205112,-0.4595 0.307757,-0.6875 0.102556,-0.2281 0.205201,-0.4549 0.307757,-0.6807 0.102646,-0.2258 0.205202,-0.4504 0.307758,-0.674 0.102645,-0.2235 0.205201,-0.446 0.307846,-0.6673 0.102556,-0.2214 0.205202,-0.4416 0.307758,-0.6609 0.102556,-0.2192 0.205201,-0.4373 0.307757,-0.6544 0.102645,-0.2171 0.205201,-0.4331 0.307847,-0.6481 0.102556,-0.215 0.205112,-0.429 0.307757,-0.6419 0.102556,-0.213 0.205201,-0.4249 0.307757,-0.6358 0.102646,-0.211 0.205202,-0.4209 0.307758,-0.6298 0.102645,-0.2089 0.205201,-0.4169 0.307846,-0.6238 0.102556,-0.207 0.205202,-0.413 0.307758,-0.618 0.102556,-0.205 0.205201,-0.409 0.307757,-0.6121 0.102645,-0.2031 0.205201,-0.4053 0.307847,-0.6065 0.102556,-0.2012 0.205112,-0.4015 0.307757,-0.6008 0.102556,-0.1994 0.205201,-0.3978 0.307757,-0.5953 0.102646,-0.1975 0.205202,-0.3941 0.307758,-0.5898 0.102645,-0.1957 0.205201,-0.3904 0.307846,-0.5843 0.102556,-0.1939 0.205202,-0.3869 0.307758,-0.579 0.102556,-0.1922 0.205201,-0.3834 0.307757,-0.5738 0.102645,-0.1903 0.205201,-0.3798 0.307847,-0.5684 0.102556,-0.1887 0.205112,-0.3764 0.307757,-0.5633 0.102556,-0.187 0.205201,-0.373 0.307757,-0.5583 0.102646,-0.1852 0.205202,-0.3696 0.307758,-0.5531 0.102645,-0.1836 0.205201,-0.3663 0.307846,-0.5482 0.102556,-0.1819 0.205112,-0.3629 0.307758,-0.5432 0.102556,-0.1802 0.205201,-0.3597 0.307757,-0.5383 0.102645,-0.1786 0.205201,-0.3564 0.307757,-0.5335 0.102646,-0.177 0.205202,-0.3532 0.307847,-0.5287 0.102556,-0.1754 0.205201,-0.3501 0.307757,-0.5239 0.102556,-0.1739 0.205202,-0.347 0.307758,-0.5193 0.102645,-0.1723 0.205201,-0.3438 0.307846,-0.5146 0.102556,-0.1708 0.205112,-0.3408 0.307758,-0.51 0.102556,-0.1693 0.205201,-0.3377 0.307757,-0.5055 0.102645,-0.1677 0.205201,-0.3347 0.307757,-0.5009 0.102646,-0.1662 0.205202,-0.3317 0.307847,-0.4965 0.102556,-0.1647 0.205201,-0.3287 0.307757,-0.492 0.102556,-0.1633 0.205202,-0.3258 0.307758,-0.4876 0.102645,-0.1618 0.205201,-0.3229 0.307846,-0.4833 0.102556,-0.1604 0.205112,-0.32 0.307758,-0.479 0.102556,-0.1589 0.205201,-0.3171 0.307757,-0.4747 0.102645,-0.1575 0.205201,-0.3143 0.307757,-0.4704 0.102646,-0.1561 0.205202,-0.3115 0.307847,-0.4662 0.102556,-0.1547 0.205201,-0.3088 0.307757,-0.4621 0.102556,-0.1533 0.205202,-0.306 0.307758,-0.4579 0.102645,-0.152 0.205201,-0.3032 0.307846,-0.4538 0.102556,-0.1506 0.205112,-0.3005 0.307758,-0.4497 0.102556,-0.1493 0.205201,-0.2978 0.307757,-0.4457 0.102645,-0.1479 0.205201,-0.2952 0.307757,-0.4417 0.102646,-0.1466 0.205201,-0.2925 0.307847,-0.4377 0.102556,-0.1452 0.205201,-0.2898 0.307757,-0.4337 0.102556,-0.144 0.205202,-0.2872 0.307757,-0.4299 0.102646,-0.1426 0.205202,-0.2846 0.307847,-0.4259 0.102556,-0.1413 0.205112,-0.282 0.307758,-0.422 0.102555,-0.1401 0.205201,-0.2795 0.307757,-0.4182 0.102645,-0.1388 0.205201,-0.2769 0.307757,-0.4144 0.102645,-0.1375 0.205201,-0.2744 0.307847,-0.4106 0.102556,-0.1363 0.205112,-0.2719 0.307757,-0.4069 0.102556,-0.135 0.205201,-0.2693 0.307757,-0.4031 0.102646,-0.1337 0.205202,-0.2669 0.307758,-0.3994 0.102645,-0.1325 0.205201,-0.2644 0.307846,-0.3957 0.102556,-0.1313 0.205202,-0.2619 0.307758,-0.392 0.102556,-0.1301 0.205201,-0.2595 0.307757,-0.3884 0.102645,-0.1288 0.205201,-0.2571 0.307847,-0.3848 0.102556,-0.1276 0.205112,-0.2547 0.307757,-0.3811 0.102556,-0.1265 0.205201,-0.2523 0.307757,-0.3776 0.102646,-0.1253 0.205202,-0.25 0.307758,-0.374 0.102645,-0.1241 0.205201,-0.2476 0.307846,-0.3705 0.102556,-0.123 0.205202,-0.2453 0.307758,-0.367 0.102556,-0.1218 0.205201,-0.2429 0.307757,-0.3635 0.102645,-0.1206 0.205201,-0.2406 0.307847,-0.36 0.102556,-0.1195 0.205112,-0.2383 0.307757,-0.3566 0.102556,-0.1183 0.205201,-0.236 0.307757,-0.3531 0.102646,-0.1172 0.205202,-0.2337 0.307758,-0.3497 0.102645,-0.116 0.205201,-0.2314 0.307846,-0.3463 0.102556,-0.1149 0.205202,-0.2292 0.307758,-0.3429 0.102556,-0.1138 0.205201,-0.227 0.307757,-0.3396 0.102645,-0.1126 0.205201,-0.2247 0.307847,-0.3362 0.102556,-0.1115 0.205112,-0.2225 0.307757,-0.3329 0.102556,-0.1104 0.205201,-0.2202 0.307757,-0.3296 0.102646,-0.1093 0.205202,-0.218 0.307758,-0.3262 0.102645,-0.1082 0.205201,-0.2159 0.307846,-0.323 0.102556,-0.1071 0.205202,-0.2137 0.307758,-0.3197 0.102556,-0.1061 0.205201,-0.2116 0.307757,-0.3165 0.102645,-0.105 0.205201,-0.2094 0.307847,-0.3132 0.102556,-0.1039 0.205112,-0.2073 0.307757,-0.3101 0.102556,-0.1028 0.205201,-0.205 0.307757,-0.3068 0.102646,-0.1017 0.205202,-0.2029 0.307758,-0.3036 0.102645,-0.1007 0.205201,-0.2008 0.307846,-0.3004 0.102556,-0.0997 0.205112,-0.1988 0.307758,-0.2973 0.102556,-0.0986 0.205201,-0.1966 0.307757,-0.2942 0.102645,-0.0975 0.205201,-0.1945 0.307757,-0.291 0.102646,-0.0964 0.205202,-0.1924 0.307847,-0.2878 0.102556,-0.0955 0.205201,-0.1904 0.307757,-0.2848 0.102556,-0.0944 0.205202,-0.1883 0.307758,-0.2817 0.102645,-0.0933 0.205201,-0.1862 0.307846,-0.2785 0.102556,-0.0924 0.205112,-0.1842 0.307758,-0.2756 0.102556,-0.0913 0.205201,-0.1821 0.307757,-0.2724 0.102645,-0.0903 0.205201,-0.1801 0.307757,-0.2694 0.102646,-0.0893 0.205202,-0.1781 0.307847,-0.2664 0.102556,-0.0883 0.205201,-0.176 0.307757,-0.2633 0.102556,-0.0873 0.205202,-0.1741 0.307758,-0.2603 0.102645,-0.0863 0.205201,-0.1721 0.307846,-0.2574 0.102556,-0.0852 0.205112,-0.17 0.307758,-0.2543 0.102556,-0.0843 0.205201,-0.168 0.307757,-0.2513 0.102645,-0.0833 0.205201,-0.1661 0.307757,-0.2484 0.102646,-0.0823 0.205201,-0.1641 0.307847,-0.2454 0.102556,-0.0813 0.205201,-0.1622 0.307757,-0.2425 0.102556,-0.0803 0.205202,-0.1602 0.307757,-0.2395 0.102646,-0.0794 0.205202,-0.1582 0.307847,-0.2366 0.102556,-0.0784 0.205112,-0.1563 0.307758,-0.2337 0.102555,-0.0774 0.205201,-0.1543 0.307757,-0.2307 0.102645,-0.0765 0.205201,-0.1524 0.307757,-0.2279 0.102645,-0.0755 0.205201,-0.1505 0.307847,-0.225 0.102556,-0.0745 0.205201,-0.1485 0.307757,-0.222 0.102556,-0.0736 0.205201,-0.1467 0.307757,-0.2192 0.102646,-0.0726 0.205202,-0.1447 0.307847,-0.2164 0.102556,-0.0716 0.205112,-0.1428 0.307757,-0.2134 0.102556,-0.0707 0.205202,-0.1409 0.307758,-0.2107 0.102556,-0.0697 0.205201,-0.139 0.307757,-0.2078 0.102645,-0.0687 0.205201,-0.1371 0.307847,-0.2049 0.102556,-0.0678 0.205112,-0.1352 0.307757,-0.2021 0.102556,-0.0669 0.205201,-0.1334 0.307757,-0.1993 0.102646,-0.066 0.205202,-0.1315 0.307758,-0.1965 0.102645,-0.065 0.205201,-0.1296 0.307846,-0.1937 0.102556,-0.0641 0.205202,-0.1277 0.307758,-0.1909 0.102556,-0.0631 0.205201,-0.1258 0.307757,-0.1881 0.102645,-0.0622 0.205201,-0.124 0.307847,-0.1853 0.102556,-0.0613 0.205112,-0.1221 0.307757,-0.1825 0.102556,-0.0604 0.205201,-0.1203 0.307757,-0.1798 0.102646,-0.0594 0.205202,-0.1184 0.307758,-0.177 0.102645,-0.0585 0.205201,-0.1166 0.307846,-0.1742 0.102556,-0.0577 0.205202,-0.1148 0.307758,-0.1715 0.102556,-0.0567 0.205201,-0.113 0.307757,-0.1688 0.102645,-0.0558 0.205201,-0.1111 0.307847,-0.166 0.102556,-0.0549 0.205112,-0.1093 0.307757,-0.1633 0.102556,-0.054 0.205201,-0.1075 0.307757,-0.1605 0.102646,-0.0531 0.205202,-0.1057 0.307758,-0.1579 0.102645,-0.0521 0.205201,-0.1038 0.307846,-0.1551 0.102556,-0.0513 0.205202,-0.1021 0.307758,-0.1524 0.102556,-0.0504 0.205201,-0.1003 0.307757,-0.1497 0.102645,-0.0495 0.205201,-0.0985 0.307847,-0.147 0.102556,-0.0486 0.205112,-0.0967 0.307757,-0.1444 0.102556,-0.0476 0.205201,-0.0948 0.307757,-0.1416 0.102646,-0.0468 0.205202,-0.0931 0.307758,-0.139 0.102645,-0.0458 0.205201,-0.0912 0.307846,-0.1362 0.102556,-0.045 0.205202,-0.0895 0.307758,-0.1336 0.102556,-0.0441 0.205201,-0.0878 0.307757,-0.131 0.102645,-0.0432 0.205201,-0.0859 0.307847,-0.1282 0.102556,-0.0423 0.205112,-0.0842 0.307757,-0.1256 0.102556,-0.0415 0.205201,-0.0824 0.307757,-0.123 0.102556,-0.0405 0.205202,-0.0806 0.307758,-0.1203 0.102645,-0.0396 0.205201,-0.0789 0.307846,-0.1176 0.102556,-0.0388 0.205112,-0.0771 0.307758,-0.115 0.102556,-0.0379 0.205201,-0.0754 0.307757,-0.1124 0.102645,-0.037 0.205201,-0.0736 0.307757,-0.1097 0.102646,-0.0362 0.205202,-0.0719 0.307847,-0.1072 0.102556,-0.0352 0.205201,-0.07 0.307757,-0.1044 0.102556,-0.0344 0.205202,-0.0684 0.307758,-0.1019 0.102645,-0.0335 0.205201,-0.0666 0.307846,-0.0992 0.102556,-0.0326 0.205112,-0.0649 0.307758,-0.0966 0.102556,-0.0318 0.205201,-0.0631 0.307757,-0.094 0.102645,-0.0309 0.205201,-0.0614 0.307757,-0.0914 0.102646,-0.03 0.205201,-0.0596 0.307847,-0.0888 0.102556,-0.0291 0.205201,-0.0579 0.307757,-0.0862 0.102556,-0.0282 0.205202,-0.0561 0.307757,-0.0835 0.102646,-0.0275 0.205202,-0.0544 0.307847,-0.081 0.102556,-0.0266 0.205112,-0.0527 0.307758,-0.0784 0.102555,-0.0257 0.205201,-0.0509 0.307757,-0.0758 0.102645,-0.0248 0.205201,-0.0492 0.307757,-0.0731 0.102645,-0.024 0.205201,-0.0475 0.307847,-0.0706 0.102556,-0.0231 0.205201,-0.0458 0.307757,-0.068 0.102556,-0.0223 0.205201,-0.0441 0.307757,-0.0655 0.102646,-0.0214 0.205202,-0.0423 0.307847,-0.0628 0.102556,-0.0205 0.205112,-0.0406 0.307757,-0.0603 0.102556,-0.0196 0.205202,-0.0389 0.307758,-0.0577 0.102645,-0.0188 0.205201,-0.0371 0.307757,-0.0551 0.102645,-0.0179 0.205201,-0.0354 0.307847,-0.0525 0.102556,-0.0171 0.205201,-0.0337 0.307757,-0.05 0.102556,-0.0162 0.205201,-0.032 0.307757,-0.0473 0.102646,-0.0154 0.205202,-0.0304 0.307847,-0.0449 0.102556,-0.0145 0.205112,-0.0286 0.307757,-0.0422 0.102556,-0.0137 0.205202,-0.0269 0.307758,-0.0397 0.102556,-0.0128 0.205201,-0.0252 0.308204,-0.0371 0.10193,-0.012 0.204754,-0.0235 0.307579,-0.0346 0.102824,-0.011 0.204754,-0.0217 0.307578,-0.0319 0.102824,-0.0103 0.204754,-0.0201 0.307579,-0.0295 0.102824,-0.0093 0.205648,-0.0183 0.307578,-0.0268 0.102824,-0.0086 0.205648,-0.0167 0.308473,-0.0243 0.10193,-0.0077 0.204754,-0.0149 0.307578,-0.0218 0.102824,-0.0068 0.204754,-0.0132 0.307579,-0.0192 0.102824,-0.0059 0.205648,-0.0115 0.307578,-0.0166 0.102824,-0.0051 0.205648,-0.0098 0.308473,-0.014 0.10193,-0.0043 0.204754,-0.0081 0.307578,-0.0115 0.102824,-0.0035 0.204754,-0.0064 0.307579,-0.009 0.102824,-0.0026 0.205648,-0.0047 0.307578,-0.0064 0.102824,-0.0017 0.205649,-0.003 0.307579,-0.0038 0.102824,-9e-4 0.205648,-0.0013 0.308472,-0.0013 0.10193,0 0.204754,4e-4 0.307579,0.0013 0.102824,8e-4 0.204754,0.0021 0.307578,0.0038 0.102824,0.0017 0.205649,0.0038 0.307579,0.0064 0.102824,0.0026 0.205648,0.0055 0.308472,0.009 0.10193,0.0034 0.204755,0.0072 0.307579,0.0115 0.102824,0.0042 0.204754,0.0089 0.307578,0.014 0.102824,0.0051 0.205649,0.0107 0.307579,0.0166 0.102824,0.006 0.205648,0.0124 0.308472,0.0192 0.10193,0.0068 0.204755,0.0141 0.307579,0.0218 0.102824,0.0076 0.204754,0.0157 0.307578,0.0243 0.102824,0.0085 0.204755,0.0175 0.307579,0.0268 0.102824,0.0094 0.205648,0.0192 0.307578,0.0295 0.102824,0.0102 0.205649,0.0209 0.308473,0.0319 0.10193,0.0111 0.204751,0.0226 0.307581,0.0346 0.10282,0.0119 0.20475,0.0243 0.30758,0.0371 0.10282,0.0128 0.20564,0.026 0.30757,0.0397 0.10283,0.0136 0.20565,0.0277 0.30848,0.0422 0.10193,0.0145 0.20475,0.0295 0.30758,0.0449 0.10282,0.0153 0.20475,0.0311 0.30757,0.0473 0.10283,0.0163 0.20565,0.0329 0.30758,0.05 0.10283,0.0171 0.20565,0.0346 0.30847,0.0525 0.10193,0.018 0.20476,0.0363 0.30758,0.0551 0.10193,0.0188 0.20476,0.0381 0.30758,0.0577 0.10283,0.0197 0.20476,0.0398 0.30758,0.0603 0.10282,0.0205 0.20565,0.0414 0.30758,0.0628 0.10282,0.0214 0.20565,0.0432 0.30847,0.0655 0.10193,0.0222 0.20476,0.0449 0.30758,0.068 0.10282,0.0231 0.20475,0.0466 0.30758,0.0706 0.10282,0.0239 0.20565,0.0483 0.30758,0.0731 0.10282,0.0249 0.20565,0.0501 0.30847,0.0758 0.10193,0.0257 0.20475,0.0518 0.30758,0.0784 0.10282,0.0266 0.20475,0.0536 0.30758,0.081 0.10282,0.0274 0.20564,0.0553 0.30757,0.0835 0.10283,0.0283 0.20565,0.0571 0.30758,0.0862 0.10283,0.0292 0.20565,0.0588 0.30848,0.0888 0.10193,0.03 0.20475,0.0605 0.30757,0.0914 0.10283,0.0309 0.20476,0.0622 0.30758,0.094 0.10283,0.0317 0.20565,0.064 0.30758,0.0966 0.10283,0.0326 0.20565,0.0657 0.30847,0.0992 0.10193,0.0335 0.20476,0.0675 0.30758,0.1019 0.10283,0.0344 0.20476,0.0692 0.30758,0.1044 0.10283,0.0353 0.20565,0.071 0.30758,0.1072 0.10282,0.0361 0.20565,0.0727 0.30847,0.1097 0.10193,0.037 0.20476,0.0745 0.30758,0.1124 0.10282,0.0379 0.20475,0.0762 0.30758,0.115 0.10282,0.0387 0.20475,0.078 0.30758,0.1176 0.10282,0.0397 0.20565,0.0798 0.30758,0.1203 0.10282,0.0406 0.20564,0.0815 0.30847,0.123 0.10193,0.0414 0.20475,0.0833 0.30758,0.1256 0.10282,0.0423 0.20475,0.085 0.30758,0.1282 0.10282,0.0432 0.20564,0.0869 0.30757,0.131 0.10283,0.0441 0.20565,0.0886 0.30848,0.1336 0.10193,0.045 0.20475,0.0904 0.30758,0.1362 0.10282,0.0459 0.20475,0.0922 0.30757,0.139 0.10283,0.0468 0.20565,0.094 0.30758,0.1416 0.10283,0.0477 0.20565,0.0958 0.30847,0.1444 0.10193,0.0485 0.20476,0.0975 0.30758,0.147 0.10193,0.0494 0.20476,0.0993 0.30758,0.1497 0.10283,0.0503 0.20476,0.1011 0.30758,0.1524 0.10282,0.0513 0.20565,0.103 0.30758,0.1551 0.10282,0.0522 0.20565,0.1048 0.30847,0.1579 0.10193,0.053 0.20476,0.1065 0.30758,0.1605 0.10282,0.054 0.20475,0.1084 0.30758,0.1633 0.10282,0.0549 0.20565,0.1102 0.30758,0.166 0.10282,0.0558 0.20565,0.1121 0.30847,0.1688 0.10193,0.0567 0.20475,0.1138 0.30758,0.1715 0.10282,0.0576 0.20475,0.1157 0.30758,0.1742 0.10282,0.0586 0.20475,0.1176 0.30757,0.177 0.10283,0.0595 0.20565,0.1194 0.30758,0.1798 0.10283,0.0604 0.20565,0.1212 0.30848,0.1825 0.10193,0.0613 0.20475,0.1231 0.30757,0.1853 0.10283,0.0623 0.20476,0.125 0.30758,0.1881 0.10283,0.0632 0.20565,0.1268 0.30758,0.1909 0.10283,0.0641 0.20565,0.1287 0.30847,0.1937 0.10193,0.065 0.20476,0.1305 0.30758,0.1965 0.10283,0.0659 0.20476,0.1324 0.30758,0.1993 0.10283,0.0669 0.20565,0.1343 0.30758,0.2021 0.10282,0.0678 0.20565,0.1362 0.30847,0.2049 0.10193,0.0688 0.20476,0.1381 0.30758,0.2078 0.10193,0.0698 0.20475,0.14 0.30758,0.2107 0.10282,0.0706 0.20475,0.1418 0.30758,0.2134 0.10282,0.0717 0.20565,0.1438 0.30758,0.2164 0.10282,0.0725 0.20564,0.1456 0.30847,0.2192 0.10193,0.0735 0.20475,0.1475 0.30758,0.222 0.10282,0.0745 0.20475,0.1495 0.30758,0.225 0.10282,0.0755 0.20564,0.1514 0.30757,0.2279 0.10283,0.0764 0.20565,0.1533 0.30848,0.2307 0.10193,0.0774 0.20475,0.1553 0.30757,0.2337 0.10283,0.0784 0.20476,0.1572 0.30758,0.2366 0.10283,0.0793 0.20565,0.1592 0.30758,0.2395 0.10283,0.0803 0.20565,0.1612 0.30758,0.2425 0.10282,0.0813 0.20565,0.1631 0.30847,0.2454 0.10193,0.0823 0.20476,0.1651 0.30758,0.2484 0.10283,0.0833 0.20476,0.167 0.30758,0.2513 0.10282,0.0843 0.20565,0.1691 0.30758,0.2543 0.10282,0.0853 0.20565,0.1711 0.30847,0.2574 0.10193,0.0862 0.20476,0.173 0.30758,0.2603 0.10282,0.0873 0.20475,0.175 0.30758,0.2633 0.10282,0.0883 0.20565,0.1771 0.30758,0.2664 0.10282,0.0893 0.20564,0.1791 0.30847,0.2694 0.10193,0.0903 0.20475,0.1811 0.30758,0.2724 0.10282,0.0914 0.20475,0.1832 0.30758,0.2756 0.10282,0.0923 0.20475,0.1852 0.30757,0.2785 0.10283,0.0934 0.20565,0.1873 0.30758,0.2817 0.10283,0.0944 0.20565,0.1893 0.30848,0.2848 0.10193,0.0954 0.20475,0.1914 0.30757,0.2878 0.10283,0.0965 0.20476,0.1935 0.30758,0.291 0.10283,0.0976 0.20565,0.1956 0.30758,0.2942 0.10283,0.0985 0.20565,0.1976 0.30847,0.2973 0.10193,0.0996 0.20476,0.1997 0.30758,0.3004 0.10283,0.1007 0.20476,0.2019 0.30758,0.3036 0.10282,0.1018 0.20565,0.204 0.30758,0.3068 0.10282,0.1028 0.20565,0.2062 0.30847,0.3101 0.10193,0.1038 0.20476,0.2082 0.30758,0.3132 0.10193,0.1049 0.20475,0.2104 0.30758,0.3165 0.10282,0.106 0.20475,0.2126 0.30758,0.3197 0.10282,0.1071 0.20565,0.2148 0.30758,0.323 0.10282,0.1082 0.20564,0.2169 0.30847,0.3262 0.10193,0.1093 0.20475,0.2192 0.30758,0.3296 0.10282,0.1104 0.20475,0.2214 0.30758,0.3329 0.10282,0.1115 0.20564,0.2236 0.30757,0.3362 0.10283,0.1126 0.20565,0.2258 0.30848,0.3396 0.10193,0.1137 0.20475,0.228 0.30757,0.3429 0.10283,0.1148 0.20476,0.2303 0.30758,0.3463 0.10283,0.116 0.20476,0.2326 0.30758,0.3497 0.10283,0.1171 0.20565,0.2348 0.30758,0.3531 0.10282,0.1183 0.20565,0.2371 0.30847,0.3566 0.10193,0.1194 0.20476,0.2394 0.30758,0.36 0.10283,0.1206 0.20476,0.2417 0.30758,0.3635 0.10282,0.1217 0.20565,0.244 0.30758,0.367 0.10282,0.1229 0.20565,0.2464 0.30847,0.3705 0.10193,0.124 0.20476,0.2487 0.30758,0.374 0.10282,0.1253 0.20475,0.2511 0.30758,0.3776 0.10282,0.1264 0.20565,0.2535 0.30758,0.3811 0.10282,0.1277 0.20564,0.256 0.30847,0.3848 0.10193,0.1289 0.20475,0.2583 0.30758,0.3884 0.10193,0.1301 0.20475,0.2607 0.30758,0.392 0.10282,0.1313 0.20475,0.2632 0.30757,0.3957 0.10283,0.1325 0.20565,0.2657 0.30758,0.3994 0.10283,0.1338 0.20565,0.2681 0.30848,0.4031 0.10193,0.135 0.20475,0.2706 0.30757,0.4069 0.10283,0.1362 0.20476,0.2731 0.30758,0.4106 0.10283,0.1375 0.20565,0.2756 0.30758,0.4144 0.10283,0.1387 0.20565,0.2781 0.30847,0.4182 0.10193,0.14 0.20476,0.2807 0.30758,0.422 0.10283,0.1413 0.20476,0.2833 0.30758,0.4259 0.10282,0.1427 0.20565,0.2859 0.30758,0.4299 0.10282,0.1439 0.20565,0.2885 0.30758,0.4337 0.10282,0.1452 0.20565,0.2911 0.30847,0.4377 0.10193,0.1465 0.20475,0.2938 0.30758,0.4417 0.10282,0.1479 0.20475,0.2964 0.30758,0.4457 0.10282,0.1492 0.20565,0.2991 0.30758,0.4497 0.10282,0.1506 0.20564,0.3018 0.30847,0.4538 0.10193,0.1519 0.20475,0.3046 0.30758,0.4579 0.10282,0.1533 0.20475,0.3074 0.30758,0.4621 0.10282,0.1547 0.20564,0.3101 0.30757,0.4662 0.10283,0.1561 0.20565,0.3129 0.30848,0.4704 0.10193,0.1576 0.20475,0.3158 0.30757,0.4747 0.10283,0.159 0.20476,0.3186 0.30758,0.479 0.10283,0.1604 0.20476,0.3215 0.30758,0.4833 0.10283,0.1618 0.20565,0.3243 0.30758,0.4876 0.10282,0.1633 0.20565,0.3273 0.30847,0.492 0.10193,0.1648 0.20476,0.3303 0.30758,0.4965 0.10283,0.1662 0.20476,0.3332 0.30758,0.5009 0.10282,0.1678 0.20565,0.3362 0.30758,0.5055 0.10282,0.1692 0.20565,0.3392 0.30847,0.51 0.10193,0.1708 0.20475,0.3423 0.30758,0.5146 0.10282,0.1723 0.20475,0.3454 0.30758,0.5193 0.10282,0.1738 0.20565,0.3485 0.30758,0.5239 0.10282,0.1755 0.20564,0.3517 0.30847,0.5287 0.10193,0.177 0.20475,0.3549 0.30758,0.5335 0.10193,0.1786 0.20475,0.3581 0.30758,0.5383 0.10282,0.1803 0.20475,0.3614 0.30757,0.5432 0.10283,0.1819 0.20565,0.3646 0.30758,0.5482 0.10283,0.1835 0.20565,0.3679 0.30848,0.5531 0.10193,0.1853 0.20475,0.3713 0.30757,0.5583 0.10283,0.1869 0.20476,0.3746 0.30758,0.5633 0.10283,0.1886 0.20565,0.3781 0.30758,0.5684 0.10282,0.1904 0.20565,0.3816 0.30847,0.5738 0.10193,0.1921 0.20476,0.3851 0.30758,0.579 0.10283,0.1939 0.20476,0.3886 0.30758,0.5843 0.10282,0.1957 0.20565,0.3923 0.30758,0.5898 0.10282,0.1975 0.20565,0.3959 0.30758,0.5953 0.10282,0.1993 0.20565,0.3996 0.30847,0.6008 0.10193,0.2012 0.20475,0.4034 0.30758,0.6065 0.10282,0.2031 0.20475,0.4071 0.30758,0.6121 0.10282,0.205 0.20565,0.411 0.30758,0.618 0.10282,0.2069 0.20564,0.4149 0.30847,0.6238 0.10193,0.2089 0.20475,0.4188 0.30758,0.6298 0.10282,0.2109 0.20475,0.4228 0.30757,0.6358 0.10283,0.2129 0.20565,0.4269 0.30758,0.6419 0.10283,0.215 0.20565,0.431 0.30848,0.6481 0.10193,0.2171 0.20475,0.4352 0.30757,0.6544 0.10193,0.2193 0.20476,0.4395 0.30758,0.6609 0.10283,0.2213 0.20476,0.4438 0.30758,0.6673 0.10283,0.2236 0.20565,0.4482 0.30758,0.674 0.10282,0.2258 0.20565,0.4526 0.30847,0.6807 0.10193,0.228 0.20476,0.4572 0.30758,0.6875 0.10283,0.2303 0.20476,0.4618 0.30758,0.6945 0.10282,0.2326 0.20565,0.4665 0.30758,0.7015 0.10282,0.235 0.20565,0.4713 0.30847,0.7088 0.10193,0.2374 0.20475,0.4761 0.30758,0.716 0.10282,0.24 0.20475,0.4812 0.30758,0.7236 0.10282,0.2425 0.20565,0.4862 0.30758,0.7312 0.10282,0.245 0.20564,0.4913 0.30757,0.739 0.10283,0.2476 0.20565,0.4966 0.30848,0.7469 0.10193,0.2503 0.20475,0.502 0.30758,0.755 0.10282,0.253 0.20475,0.5075 0.30757,0.7633 0.10283,0.2558 0.20565,0.5131 0.30758,0.7717 0.10283,0.2587 0.20565,0.5188 0.30848,0.7804 0.10193,0.2616 0.20475,0.5247 0.30757,0.7893 0.10283,0.2646 0.20476,0.5307 0.30758,0.7983 0.10283,0.2677 0.20565,0.5369 0.30758,0.8077 0.10282,0.2707 0.20565,0.5431 0.30847,0.8171 0.10193,0.274 0.20476,0.5497 0.30758,0.827 0.10283,0.2773 0.20476,0.5562 0.30758,0.8369 0.10282,0.2807 0.20475,0.5632 0.30758,0.8474 0.10282,0.2842 0.20565,0.5701 0.30758,0.8579 0.10282,0.2878 0.20565,0.5774 0.30847,0.8689 0.10193,0.2915 0.20475,0.5849 0.30758,0.8802 0.10282,0.2953 0.20475,0.5926 0.30758,0.8919 0.10282,0.2992 0.20564,0.6005 0.30758,0.9039 0.10282,0.3033 0.20564,0.6088 0.30847,0.9163 0.10193,0.3076 0.20475,0.6174 0.30758,0.9293 0.10282,0.312 0.20475,0.6262 0.30757,0.9427 0.10283,0.3166 0.20565,0.6354 0.30758,0.9567 0.10283,0.3212 0.20565,0.6449 0.30848,0.9711 0.10193,0.3262 0.20475,0.655 0.30757,0.9863 0.10193,0.3314 0.20476,0.6654 0.30758,1.0021 0.10283,0.3368 0.20476,0.6763 0.30758,1.0188 0.10283,0.3424 0.20565,0.6877 0.30758,1.0361 0.10282,0.3484 0.20565,0.6998 0.30847,1.0545 0.10193,0.3547 0.20476,0.7126 0.30758,1.0739 0.10282,0.3613 0.20475,0.7261 0.30758,1.0949 0.10282,0.368 0.20565,0.74 0.30758,1.116 0.10282,0.376 0.20565,0.756 0.30847,1.14 0.10193,0.384 0.20475,0.772 0.30758,1.165 0.10282,0.392 0.20475,0.79 0.30758,1.192 0.10282,0.402 0.20565,0.809 0.30758,1.222 0.10282,0.412 0.20564,0.83 0.30757,1.254 0.10283,0.424 0.20565,0.854 0.30848,1.29 0.10193,0.437 0.20475,0.88 0.30758,1.331 0.10282,0.451 0.20475,0.91 0.30757,1.377 0.10283,0.468 0.20565,0.944 0.30758,1.432 0.10283,0.487 0.20565,0.985 0.30847,1.496 0.10193,0.511 0.20476,1.035 0.30758,1.577 0.10283,0.541 0.20476,1.1 0.30758,1.685 0.10283,0.585 0.20565,1.195 0.30758,1.853 0.10282,0.659 0.20565,0.797 0.30847,2.295"
       title="-x* log(x)/log(2) - (1-x)*log(1-x)/log(2)"
       id="path1683" />
    <path
       style="fill:none;stroke:#000000;stroke-width:0.264583;stroke-linecap:round;stroke-dasharray:none;marker-end:url(#Arrow2Lend)"
       d="M 19.214576,121.65026 H 181.14106"
       title="x-axis"
       id="path1685" />
    <path
       style="fill:none;stroke:#000000;stroke-width:0.264583;stroke-linecap:round;stroke-dasharray:none;marker-end:url(#Arrow2Lend)"
       d="M 19.20836,121.63695 V 1.595478"
       title="y-axis"
       id="path1687" />
    <path
       style="fill:none;stroke:#000000;stroke-width:0.265;stroke-linecap:butt;stroke-linejoin:miter;stroke-miterlimit:4;stroke-dasharray:1.59, 1.59;stroke-dashoffset:0;stroke-opacity:1"
       d="M 95.845951,11.6403 H 19.208493"
       id="path1856" />
    <text
       xml:space="preserve"
       style="font-size:2.82222px;line-height:1.25;font-family:sans-serif;text-align:center;text-anchor:middle;stroke-width:0.264583"
       x="16.213142"
       y="12.669006"
       id="text7998"><tspan
         sodipodi:role="line"
         id="tspan7996"
         style="font-size:2.82222px;stroke-width:0.264583"
         x="16.213142"
         y="12.669006">1</tspan></text>
    <text
       xml:space="preserve"
       style="font-size:10.5833px;line-height:1.25;font-family:sans-serif;text-align:center;text-anchor:middle;stroke-width:0.264583"
       x="172.52327"
       y="129.49756"
       id="text11348"><tspan
         sodipodi:role="line"
         id="tspan11346"
         style="stroke-width:0.264583"
         x="172.52327"
         y="129.49756">1</tspan></text>
    <text
       xml:space="preserve"
       style="font-size:10.5833px;line-height:1.25;font-family:sans-serif;text-align:center;text-anchor:middle;stroke-width:0.264583"
       x="95.75293"
       y="129.49756"
       id="text11348-9"><tspan
         sodipodi:role="line"
         id="tspan11346-4"
         style="stroke-width:0.264583"
         x="95.75293"
         y="129.49756">0.5</tspan></text>
    <path
       style="fill:none;stroke:#000000;stroke-width:0.265;stroke-linecap:butt;stroke-linejoin:miter;stroke-miterlimit:4;stroke-dasharray:1.59, 1.59;stroke-dashoffset:0;stroke-opacity:1"
       d="m 95.845951,11.6403 -2e-6,110.00996"
       id="path1014"
       sodipodi:nodetypes="cc" />
  </g>
  <inkscape:templateinfo>
    <inkscape:name>Default Template</inkscape:name>
    <inkscape:author>Joachim Favre</inkscape:author>
    <inkscape:shortdesc>Arrow definitions, snapping (including perpendicular and tangential)</inkscape:shortdesc>
    <inkscape:date>2022-02-19</inkscape:date>
  </inkscape:templateinfo>
</svg>
