<?xml version="1.0" encoding="UTF-8" standalone="no"?>
<!-- Created with Inkscape (http://www.inkscape.org/) -->

<svg
   width="168.76826mm"
   height="86.493896mm"
   viewBox="0 0 168.76826 86.493896"
   version="1.1"
   id="svg5"
   inkscape:version="1.1.2 (b8e25be833, 2022-02-05)"
   sodipodi:docname="EntropyGraph.svg"
   xmlns:inkscape="http://www.inkscape.org/namespaces/inkscape"
   xmlns:sodipodi="http://sodipodi.sourceforge.net/DTD/sodipodi-0.dtd"
   xmlns="http://www.w3.org/2000/svg"
   xmlns:svg="http://www.w3.org/2000/svg">
  <sodipodi:namedview
     id="namedview7"
     pagecolor="#ffffff"
     bordercolor="#111111"
     borderopacity="1"
     inkscape:pageshadow="0"
     inkscape:pageopacity="0"
     inkscape:pagecheckerboard="1"
     inkscape:document-units="mm"
     showgrid="false"
     inkscape:snap-perpendicular="true"
     inkscape:snap-tangential="true"
     inkscape:snap-bbox="true"
     inkscape:bbox-paths="true"
     inkscape:bbox-nodes="true"
     inkscape:snap-bbox-edge-midpoints="true"
     inkscape:snap-bbox-midpoints="true"
     inkscape:object-paths="true"
     inkscape:snap-intersection-paths="true"
     inkscape:snap-object-midpoints="true"
     inkscape:snap-center="true"
     inkscape:zoom="5.1241862"
     inkscape:cx="91.526729"
     inkscape:cy="245.5024"
     inkscape:window-width="2479"
     inkscape:window-height="1417"
     inkscape:window-x="73"
     inkscape:window-y="-8"
     inkscape:window-maximized="1"
     inkscape:current-layer="layer1"
     showguides="true"
     inkscape:guide-bbox="true"
     inkscape:object-nodes="true"
     inkscape:snap-global="true">
    <sodipodi:guide
       position="60.603731,14.18957"
       orientation="-1,0"
       id="guide850" />
    <sodipodi:guide
       position="60.603731,14.346801"
       orientation="0,1"
       id="guide852" />
  </sodipodi:namedview>
  <defs
     id="defs2">
    <marker
       style="overflow:visible"
       id="Arrow2Lend"
       refX="0"
       refY="0"
       orient="auto"
       inkscape:stockid="Arrow2Lend"
       inkscape:isstock="true">
      <path
         transform="matrix(-1.1,0,0,-1.1,-1.1,0)"
         d="M 8.7185878,4.0337352 -2.2072895,0.01601326 8.7185884,-4.0017078 c -1.7454984,2.3720609 -1.7354408,5.6174519 -6e-7,8.035443 z"
         style="fill:context-stroke;fill-rule:evenodd;stroke:context-stroke;stroke-width:0.625;stroke-linejoin:round"
         id="path880" />
    </marker>
    <marker
       style="overflow:visible"
       id="Arrow2Lstart"
       refX="0"
       refY="0"
       orient="auto"
       inkscape:stockid="Arrow2Lstart"
       inkscape:isstock="true">
      <path
         transform="matrix(1.1,0,0,1.1,1.1,0)"
         d="M 8.7185878,4.0337352 -2.2072895,0.01601326 8.7185884,-4.0017078 c -1.7454984,2.3720609 -1.7354408,5.6174519 -6e-7,8.035443 z"
         style="fill:context-stroke;fill-rule:evenodd;stroke:context-stroke;stroke-width:0.625;stroke-linejoin:round"
         id="path877" />
    </marker>
  </defs>
  <g
     inkscape:label="Layer 1"
     inkscape:groupmode="layer"
     id="layer1"
     transform="translate(-15.904544,-31.777396)">
    <path
       style="fill:none;stroke:#006680;stroke-width:0.264583;stroke-linecap:round"
       d="m 25.1975,64.4395 c 0.900313,3.497127 1.0709,3.9774 1.6064,5.3697 0.5355,1.3924 1.0709,2.5989 1.6064,3.7155 0.5355,1.1165 1.0709,2.1358 1.6064,3.091 0.5355,0.9552 1.0709,1.8448 1.6064,2.6855 0.5355,0.8408 1.0709,1.6321 1.6064,2.3841 0.5355,0.7519 1.0709,1.4642 1.6064,2.1437 0.5354,0.6794 1.0709,1.3258 1.6064,1.9439 0.5354,0.6181 1.0709,1.2079 1.6064,1.7729 0.5354,0.565 1.0709,1.1051 1.6064,1.6233 0.5354,0.5181 1.0709,1.0142 1.6064,1.4904 0.5354,0.4763 1.0709,0.9326 1.6064,1.3709 0.5354,0.4383 1.0709,0.8586 1.6064,1.2623 0.5354,0.4037 1.0709,0.7908 1.6064,1.1627 0.5354,0.3719 1.0709,0.7284 1.6064,1.0708 0.5354,0.3424 1.0709,0.6706 1.6064,0.9855 0.5354,0.315 1.0709,0.6167 1.6064,0.9059 0.5354,0.2893 1.0709,0.5662 1.6064,0.8313 0.5354,0.2652 1.0709,0.5186 1.6064,0.7611 0.5354,0.2424 1.0709,0.4737 1.6064,0.6947 0.5354,0.2209 1.0709,0.4313 1.6064,0.6323 0.5354,0.2 1.0709,0.391 1.6064,0.572 0.5354,0.181 1.0709,0.352 1.6063,0.515 0.5355,0.163 1.071,0.316 1.6064,0.461 0.5355,0.145 1.071,0.281 1.6064,0.409 0.5355,0.128 1.071,0.248 1.6064,0.36 0.5355,0.111 1.071,0.215 1.6064,0.311 0.5355,0.097 1.071,0.185 1.6064,0.266 0.5355,0.081 1.071,0.155 1.6064,0.222 0.5355,0.066 1.071,0.126 1.6064,0.179 0.5355,0.052 1.071,0.098 1.6064,0.138 0.5355,0.039 1.071,0.071 1.6064,0.098 0.5355,0.026 1.071,0.045 1.6064,0.059 0.5355,0.014 1.071,0.021 1.6064,0.022 0.5355,0.002 1.071,-0.003 1.6064,-0.014 0.5355,-0.01 1.071,-0.027 1.6064,-0.049 0.5355,-0.022 1.071,-0.05 1.6064,-0.083 0.5355,-0.033 1.071,-0.072 1.6064,-0.116 0.5355,-0.044 1.0709,-0.094 1.6064,-0.149 0.5355,-0.055 1.0709,-0.115 1.6064,-0.18 0.5355,-0.065 1.0709,-0.135 1.6064,-0.21 0.5355,-0.076 1.0709,-0.156 1.6064,-0.241 0.5355,-0.085 1.0709,-0.175 1.6064,-0.269 0.5355,-0.095 1.0709,-0.194 1.6064,-0.298 0.5355,-0.104 1.0709,-0.213 1.6064,-0.326 0.5355,-0.113 1.0709,-0.231 1.6064,-0.353 0.5355,-0.122 1.0709,-0.248 1.6064,-0.379 0.5355,-0.131 1.0712,-0.266 1.6062,-0.405 0.536,-0.14 1.071,-0.283 1.607,-0.431 0.535,-0.148 1.071,-0.3 1.606,-0.4556 0.535,-0.1559 1.071,-0.3159 1.606,-0.4799 0.536,-0.164 1.071,-0.3319 1.607,-0.5038 0.535,-0.1718 1.071,-0.3476 1.606,-0.5271 0.536,-0.1796 1.071,-0.363 1.607,-0.5501 0.535,-0.1872 1.071,-0.3781 1.606,-0.5727 0.535,-0.1945 1.071,-0.3928 1.606,-0.5947 0.536,-0.2019 1.071,-0.4074 1.607,-0.6164 0.535,-0.209 1.071,-0.4217 1.606,-0.6377 0.536,-0.2161 1.071,-0.4357 1.607,-0.6587 0.535,-0.223 1.071,-0.4494 1.606,-0.6793 0.535,-0.2298 1.071,-0.4629 1.606,-0.6994 0.536,-0.2365 1.071,-0.4763 1.607,-0.7194 0.535,-0.243 1.071,-0.4894 1.606,-0.7389 0.536,-0.2495 1.071,-0.5023 1.607,-0.7582 0.535,-0.2559 1.07,-0.5149 1.606,-0.7771 0.535,-0.2622 1.071,-0.5274 1.606,-0.7958 0.536,-0.2683 1.071,-0.5397 1.607,-0.8141 0.535,-0.2744 1.071,-0.5518 1.606,-0.8322 0.536,-0.2804 1.071,-0.5637 1.607,-0.85 0.535,-0.2863 1.07,-0.5755 1.606,-0.8676 0.535,-0.2921 1.071,-0.587 1.606,-0.8848 0.536,-0.2978 1.071,-0.5985 1.607,-0.9019 0.535,-0.3035 1.071,-0.6097 1.606,-0.9188 0.536,-0.309 1.071,-0.6207 1.607,-0.9352 0.535,-0.3145 1.07,-0.6318 1.606,-0.9517 0.535,-0.3199 1.071,-0.6425 1.606,-0.9677 0.536,-0.3253 1.071,-0.6532 1.607,-0.9837 0.535,-0.3305 1.071,-0.6637 1.606,-0.9994 0.536,-0.3357 1.071,-0.674 1.607,-1.0149 0.535,-0.3408 1.07,-0.6842 1.606,-1.0302 0.535,-0.3459 1.071,-0.6943 1.606,-1.0452 0.536,-0.351 1.071,-0.7044 1.607,-1.0602 0.535,-0.3559 1.071,-0.7142 1.606,-1.075 0.536,-0.3607 1.071,-0.7239 1.607,-1.0894 0.535,-0.3656 1.07,-0.7336 1.606,-1.1039 0.535,-0.3703 1.071,-0.743 1.606,-1.1181 0.536,-0.375 1.071,-0.7524 1.607,-1.1321 0.535,-0.3797 1.071,-0.7617 1.606,-1.146 0.536,-0.3843 1.071,-0.7708 1.607,-1.1597 0.535,-0.3888 1.07,-0.7799 1.606,-1.1732 0.535,-0.3934 1.071,-0.7889 1.606,-1.1867 0.536,-0.3978 1.071,-0.7978 1.607,-1.1999 0.535,-0.4022 1.071,-0.8066 1.606,-1.2131 0.536,-0.4065 1.071,-0.8152 1.606,-1.226 0.536,-0.4108 1.071,-0.8238 1.607,-1.2388 0.535,-0.4151 1.071,-0.8323 1.606,-1.2516 0.536,-0.4193 1.071,-0.8406 1.607,-1.2641 0.535,-0.4234 1.071,-0.8489 1.606,-1.2765 0.536,-0.4276 1.071,-0.8572 1.606,-1.2888 0.536,-0.4317 1.071,-0.8654 1.607,-1.3011"
       title="x*log(x)"
       id="path1905"
       sodipodi:nodetypes="cccscccccscccccccccccccccccsccccsccssssscscssssccccccccccccccccccccccccccccccccccccccccccccccccccccc" />
    <path
       style="fill:none;stroke:#000000;stroke-width:0.264583;stroke-linecap:round;marker-end:url(#Arrow2Lend)"
       d="m 25.1975,64.4395 h 159.033"
       title="x-axis"
       id="path1907" />
    <path
       style="fill:none;stroke:#000000;stroke-width:0.264583;stroke-linecap:round;marker-end:url(#Arrow2Lend)"
       d="M 25.1975,118.139 V 32.2197"
       title="y-axis"
       id="path1909" />
    <path
       style="fill:none;stroke:#000000;stroke-width:0.264583;stroke-linecap:butt;stroke-linejoin:miter;stroke-opacity:1"
       d="m 169.75569,61.821804 v 5.261132"
       id="path1993" />
    <text
       xml:space="preserve"
       style="font-size:2.82222px;line-height:1.25;font-family:sans-serif;text-align:center;text-anchor:middle;stroke-width:0.264583"
       x="169.73088"
       y="59.147663"
       id="text3080"><tspan
         sodipodi:role="line"
         id="tspan3078"
         style="font-size:2.82222px;stroke-width:0.264583"
         x="169.73088"
         y="59.147663">1</tspan></text>
    <path
       style="fill:none;stroke:#000000;stroke-width:0.26458299;stroke-linecap:butt;stroke-linejoin:miter;stroke-dasharray:1.05833194,1.05833194;stroke-opacity:1;stroke-miterlimit:4;stroke-dashoffset:0"
       d="M 76.508276,103.92449 H 25.1975"
       id="path916" />
    <text
       xml:space="preserve"
       style="font-size:2.46944px;line-height:1.25;font-family:sans-serif;text-align:end;text-anchor:end;stroke-width:0.264583"
       x="23.318121"
       y="104.66122"
       id="text4807"><tspan
         sodipodi:role="line"
         id="tspan4805"
         style="font-size:2.46944px;text-align:end;text-anchor:end;stroke-width:0.264583"
         x="23.318121"
         y="104.66122">$-\frac{1}{e}$</tspan></text>
  </g>
  <inkscape:templateinfo>
    <inkscape:name>Default Template</inkscape:name>
    <inkscape:author>Joachim Favre</inkscape:author>
    <inkscape:shortdesc>Arrow definitions, snapping (including perpendicular and tangential)</inkscape:shortdesc>
    <inkscape:date>2022-02-19</inkscape:date>
  </inkscape:templateinfo>
</svg>
