<?xml version="1.0" encoding="UTF-8" standalone="no"?>
<!-- Created with Inkscape (http://www.inkscape.org/) -->

<svg
   width="187.35258mm"
   height="96.84964mm"
   viewBox="0 0 187.35258 96.849641"
   version="1.1"
   id="svg5"
   inkscape:version="1.1.2 (b8e25be833, 2022-02-05)"
   sodipodi:docname="ITInequalityGraph.svg"
   xmlns:inkscape="http://www.inkscape.org/namespaces/inkscape"
   xmlns:sodipodi="http://sodipodi.sourceforge.net/DTD/sodipodi-0.dtd"
   xmlns="http://www.w3.org/2000/svg"
   xmlns:svg="http://www.w3.org/2000/svg">
  <sodipodi:namedview
     id="namedview7"
     pagecolor="#ffffff"
     bordercolor="#111111"
     borderopacity="1"
     inkscape:pageshadow="0"
     inkscape:pageopacity="0"
     inkscape:pagecheckerboard="1"
     inkscape:document-units="mm"
     showgrid="false"
     inkscape:snap-perpendicular="true"
     inkscape:snap-tangential="true"
     inkscape:snap-bbox="true"
     inkscape:bbox-paths="true"
     inkscape:bbox-nodes="true"
     inkscape:snap-bbox-edge-midpoints="true"
     inkscape:snap-bbox-midpoints="true"
     inkscape:object-paths="true"
     inkscape:snap-intersection-paths="true"
     inkscape:snap-object-midpoints="true"
     inkscape:snap-center="true"
     inkscape:zoom="1.8116734"
     inkscape:cx="301.10283"
     inkscape:cy="196.5034"
     inkscape:window-width="2483"
     inkscape:window-height="1417"
     inkscape:window-x="2552"
     inkscape:window-y="-8"
     inkscape:window-maximized="1"
     inkscape:current-layer="layer1" />
  <defs
     id="defs2">
    <marker
       style="overflow:visible"
       id="Arrow2Lend"
       refX="0"
       refY="0"
       orient="auto"
       inkscape:stockid="Arrow2Lend"
       inkscape:isstock="true">
      <path
         transform="matrix(-1.1,0,0,-1.1,-1.1,0)"
         d="M 8.7185878,4.0337352 -2.2072895,0.01601326 8.7185884,-4.0017078 c -1.7454984,2.3720609 -1.7354408,5.6174519 -6e-7,8.035443 z"
         style="fill:context-stroke;fill-rule:evenodd;stroke:context-stroke;stroke-width:0.625;stroke-linejoin:round"
         id="path880" />
    </marker>
    <marker
       style="overflow:visible"
       id="Arrow2Lstart"
       refX="0"
       refY="0"
       orient="auto"
       inkscape:stockid="Arrow2Lstart"
       inkscape:isstock="true">
      <path
         transform="matrix(1.1,0,0,1.1,1.1,0)"
         d="M 8.7185878,4.0337352 -2.2072895,0.01601326 8.7185884,-4.0017078 c -1.7454984,2.3720609 -1.7354408,5.6174519 -6e-7,8.035443 z"
         style="fill:context-stroke;fill-rule:evenodd;stroke:context-stroke;stroke-width:0.625;stroke-linejoin:round"
         id="path877" />
    </marker>
  </defs>
  <g
     inkscape:label="Layer 1"
     inkscape:groupmode="layer"
     id="layer1"
     transform="translate(-6.3851783,-28.048983)">
    <path
       id="path1501"
       style="fill:none;stroke:#0088aa;stroke-width:1.00157;stroke-linecap:round;stroke-dasharray:none"
       d="m 76.409648,471.48503 c 0.356006,-0.78989 0.712014,-1.57093 1.068021,-2.34361 2.244662,-4.87181 4.489323,-9.40725 6.733607,-13.68567 2.244661,-4.27843 4.489322,-8.29606 6.733984,-12.11339 2.244661,-3.81354 4.488945,-7.41921 6.733606,-10.86236 2.244662,-3.43937 4.489324,-6.71244 6.733984,-9.84567 2.24428,-3.13323 4.48895,-6.12661 6.73361,-9.00283 2.24466,-2.87622 4.48932,-5.63528 6.73398,-8.29607 2.24428,-2.657 4.48895,-5.21574 6.73361,-7.68756 2.24466,-2.47559 4.48932,-4.86047 6.7336,-7.16976 2.24466,-2.30929 4.48933,-4.54299 6.73399,-6.70866 2.24466,-2.16567 4.48894,-4.26709 6.7336,-6.30803 2.24467,-2.04133 4.48933,-4.02293 6.73399,-5.952 2.24428,-1.92907 4.48894,-3.80485 6.7336,-5.63339 2.24467,-1.82891 4.48933,-3.60983 6.73361,-5.34765 2.24466,-1.73821 4.48932,-3.43332 6.73399,-5.08951 2.24466,-1.65619 4.48894,-3.27307 6.7336,-4.85481 2.24466,-1.58173 4.48932,-3.12756 6.73399,-4.64088 2.24428,-1.5137 4.48894,-2.99452 6.7336,-4.44548 2.24466,-1.45096 4.48932,-2.87168 6.73361,-4.2652 2.24466,-1.39351 4.48932,-2.75905 6.73398,-4.09927 2.24466,-1.34022 4.48895,-2.65474 6.73361,-3.94583 2.24466,-1.29109 4.48932,-2.55836 6.73398,-3.80334 2.24466,-1.24535 4.48895,-2.46841 6.73361,-3.67105 2.24466,-1.20265 4.48932,-2.38451 6.73398,-3.54709 2.24429,-1.16296 4.48895,-2.30627 6.73361,-3.43181 2.24466,-1.12554 4.48932,-2.23294 6.73361,-3.32372 2.24466,-1.09039 4.48932,-2.16415 6.73398,-3.22167 2.24466,-1.05789 4.48895,-2.09952 6.73361,-3.12642 2.24466,-1.0269 4.48932,-2.03868 6.73398,-3.03647 2.24428,-0.99742 4.48895,-1.98085 6.73361,-2.95106 2.24466,-0.9702 4.48932,-1.9268 6.7336,-2.87093 2.24467,-0.94412 4.48933,-1.8754 6.73399,-2.79458 2.24466,-0.91918 4.48894,-1.82665 6.7336,-2.72239 2.24467,-0.89613 4.48933,-1.78054 6.73399,-2.65399 2.24428,-0.87345 4.48894,-1.73631 6.7336,-2.5886 2.24467,-0.85266 4.48933,-1.69474 6.73361,-2.52661 2.24466,-0.83225 4.48932,-1.65468 6.73399,-2.46765 2.24466,-0.81298 4.48894,-1.61651 6.7336,-2.41096 2.24466,-0.79446 4.48932,-1.58023 6.73399,-2.3573 2.24466,-0.77669 4.48894,-1.54507 6.7336,-2.30551 2.24466,-0.76006 4.48933,-1.51181 6.73399,-2.256 2.24428,-0.74419 4.48894,-1.48044 6.7336,-2.20875 2.24466,-0.7287 4.48933,-1.44983 6.73361,-2.16378 2.24466,-0.71358 4.48932,-1.42035 6.73398,-2.11994 2.24466,-0.69959 4.48895,-1.39238 6.73361,-2.07798 2.24466,-0.68599 4.48819,-1.36517 6.73323,-2.0383 2.24504,-0.67276 4.49008,-1.33909 6.73512,-1.99937 2.24504,-0.65991 4.49007,-1.31377 6.73133,-1.96196 2.24504,-0.64781 4.49008,-1.28995 6.73512,-1.92604 2.24504,-0.63648 4.49008,-1.2669 6.73512,-1.89166 2.24504,-0.62513 4.4863,-1.2446 6.73134,-1.85839 2.24504,-0.61417 4.49008,-1.22268 6.73512,-1.82627 2.24504,-0.60321 4.49008,-1.20151 6.73512,-1.7949 2.24504,-0.59338 4.48629,-1.18148 6.73133,-1.76504 2.24504,-0.58318 4.49008,-1.16182 6.73512,-1.73593 2.24504,-0.57374 4.49008,-1.14293 6.73512,-1.70759 2.24126,-0.56466 4.4863,-1.12479 6.73134,-1.68038 2.24504,-0.55597 4.49008,-1.10703 6.73512,-1.6543 2.24504,-0.5469 4.49008,-1.08964 6.73134,-1.6286 2.24504,-0.53858 4.49007,-1.07301 6.73511,-1.60365 2.24504,-0.53065 4.49008,-1.05714 6.73512,-1.57985 2.24504,-0.52233 4.49008,-1.04126 6.73134,-1.5564 2.24504,-0.51478 4.49008,-1.02615 6.73512,-1.53374 2.24504,-0.50759 4.49008,-1.0114 6.73512,-1.51143 2.24504,-0.50041 4.4863,-0.99742 6.73134,-1.49065 2.24503,-0.49322 4.49007,-0.98305 6.73511,-1.46948 2.24504,-0.48642 4.49008,-0.96944 6.73512,-1.44944 2.24504,-0.47963 4.4863,-0.95623 6.73134,-1.4298 2.24504,-0.4732 4.49008,-0.94337 6.73512,-1.41052 2.24504,-0.46677 4.49008,-0.9309 6.73512,-1.39162 2.24126,-0.4611 4.4863,-0.91918 6.73133,-1.37386 2.24504,-0.45506 4.49008,-0.90709 6.73512,-1.35609 2.24504,-0.44939 4.49008,-0.89537 6.73134,-1.33909 2.24504,-0.44334 4.49008,-0.88403 6.73512,-1.32208 2.24504,-0.43805 4.49008,-0.87307 6.73512,-1.30545 2.24504,-0.43275 4.49008,-0.86249 6.73134,-1.28995 2.24504,-0.42709 4.49008,-0.85191 6.73511,-1.27408 2.24504,-0.42217 4.49008,-0.8417 6.73512,-1.25896 2.24504,-0.41726 4.4863,-0.83187 6.73134,-1.24384 2.24504,-0.41235 4.49008,-0.82205 6.73512,-1.22986 2.24504,-0.40743 4.49008,-0.81222 6.73512,-1.21512 2.24126,-0.4029 4.4863,-0.80315 6.73134,-1.20151 2.24504,-0.39836 4.49007,-0.79408 6.73511,-1.18791 2.24504,-0.39382 4.49008,-0.78538 6.73512,-1.17467 2.24126,-0.38967 4.4863,-0.7767 6.73134,-1.16183 2.24504,-0.38513 4.49008,-0.768 6.73512,-1.14898 2.24504,-0.38097 4.49008,-0.76006 6.73134,-1.13688 2.24504,-0.37682 4.49008,-0.75175 6.73512,-1.12441 2.24504,-0.37304 4.49007,-0.74381 6.73511,-1.11269 2.24504,-0.36888 4.4863,-0.73625 6.73134,-1.10136 2.24504,-0.3651 4.49008,-0.72831 6.73512,-1.08963 2.24504,-0.36133 4.49008,-0.72076 6.73512,-1.0783 2.24504,-0.35792 4.4863,-0.71358 6.73134,-1.06772 2.24504,-0.35414 4.49008,-0.70639 6.73512,-1.05676 2.24503,-0.35074 4.49007,-0.69959 6.73511,-1.04655 2.24126,-0.34696 4.4863,-0.69241 6.73134,-1.03597 2.24504,-0.34393 4.49008,-0.6856 6.73512,-1.02614 2.24504,-0.34015 4.49008,-0.67918 6.73512,-1.01593"
       transform="scale(0.26458333)" />
    <path
       style="fill:none;stroke:#ff0000;stroke-width:0.264999;stroke-linecap:round;stroke-dasharray:none"
       d="m 7.6527296,96.874078 c 0.6251577,-0.187713 1.2503157,-0.37553 1.8754732,-0.563347 0.6250532,-0.187818 1.2502102,-0.375531 1.8753682,-0.563348 0.625157,-0.187817 1.250315,-0.375529 1.875367,-0.563347 0.625158,-0.187818 1.250316,-0.375635 1.875474,-0.563347 0.625157,-0.187817 1.25021,-0.375636 1.875368,-0.563453 0.625157,-0.187712 1.250315,-0.375529 1.875473,-0.563348 0.625052,-0.187712 1.250209,-0.375529 1.875368,-0.563346 0.625157,-0.187818 1.250315,-0.37553 1.875472,-0.563348 0.625053,-0.187817 1.250211,-0.375635 1.875368,-0.563347 0.625159,-0.187818 1.250316,-0.375635 1.875369,-0.563348 0.625157,-0.187817 1.250315,-0.375635 1.875472,-0.563452 0.625158,-0.187712 1.250211,-0.37553 1.875368,-0.563348 0.625158,-0.187817 1.250316,-0.375529 1.875474,-0.563347 0.625052,-0.187818 1.25021,-0.375529 1.875367,-0.563347 0.625158,-0.187817 1.250315,-0.375635 1.875368,-0.563347 0.625158,-0.187818 1.250316,-0.375635 1.875474,-0.563453 0.625157,-0.187712 1.25021,-0.37553 1.875367,-0.563347 0.625158,-0.187713 1.250315,-0.37553 1.875474,-0.563348 0.625052,-0.187817 1.250209,-0.37553 1.875368,-0.563347 0.625157,-0.187817 1.250315,-0.375635 1.875367,-0.563347 0.625158,-0.187818 1.250315,-0.375635 1.875473,-0.563347 0.625158,-0.187818 1.25021,-0.375636 1.875369,-0.563453 0.625157,-0.187712 1.250315,-0.37553 1.875472,-0.563347 0.625158,-0.187818 1.25021,-0.37553 1.875368,-0.563347 0.625157,-0.187818 1.250316,-0.375531 1.875473,-0.563348 0.625053,-0.187817 1.250211,-0.375635 1.875368,-0.563348 0.625158,-0.187817 1.250315,-0.375634 1.875368,-0.563452 0.625157,-0.187713 1.250316,-0.37553 1.875473,-0.563347 0.625158,-0.187712 1.250211,-0.375531 1.875368,-0.563348 0.625158,-0.187817 1.250315,-0.375529 1.875473,-0.563346 0.625052,-0.187819 1.25021,-0.375636 1.875368,-0.563348 0.625158,-0.187817 1.250315,-0.375636 1.875368,-0.563348 0.625158,-0.187817 1.250315,-0.375634 1.875473,-0.563452 0.625158,-0.187713 1.25021,-0.37553 1.875368,-0.563347 0.625158,-0.187818 1.250315,-0.37553 1.875473,-0.563348 0.625053,-0.187817 1.25021,-0.375529 1.875368,-0.563347 0.625157,-0.187818 1.250316,-0.375635 1.875367,-0.563347 0.625159,-0.187818 1.250316,-0.375636 1.875474,-0.563453 0.625157,-0.187712 1.25021,-0.375529 1.875368,-0.563348 0.625157,-0.187711 1.250316,-0.375529 1.875473,-0.563346 0.625158,-0.187819 1.25021,-0.37553 1.875368,-0.563348 0.625157,-0.187817 1.250315,-0.375634 1.875472,-0.563347 0.625053,-0.187818 1.250211,-0.375635 1.875369,-0.563348 0.625158,-0.187817 1.250315,-0.375635 1.875368,-0.563452 0.625157,-0.187713 1.250315,-0.37553 1.875472,-0.563348 0.625159,-0.187817 1.250211,-0.375529 1.875368,-0.563347 0.625159,-0.187817 1.25,-0.375529 1.875263,-0.563347 0.625263,-0.187818 1.250527,-0.375635 1.875789,-0.563347 0.625263,-0.187818 1.250527,-0.375635 1.874739,-0.563453 0.625258,-0.187712 1.250518,-0.37553 1.875788,-0.563347 0.62526,-0.187713 1.25053,-0.37553 1.87579,-0.563347 0.62526,-0.187818 1.24947,-0.375531 1.87474,-0.563348 0.62526,-0.187817 1.25052,-0.375635 1.87578,-0.563348 0.62526,-0.187817 1.25053,-0.375634 1.87579,-0.563346 0.62526,-0.187818 1.24948,-0.375636 1.87474,-0.563453 0.62526,-0.187712 1.25052,-0.375529 1.87578,-0.563348 0.62526,-0.187817 1.25054,-0.375529 1.8758,-0.563346 0.62421,-0.187818 1.24947,-0.375531 1.87473,-0.563348 0.62526,-0.187817 1.25053,-0.375635 1.87579,-0.563348 0.62527,-0.187817 1.25053,-0.375634 1.87473,-0.563452 0.62527,-0.187713 1.25054,-0.37553 1.8758,-0.563347 0.62526,-0.187712 1.25052,-0.37553 1.87578,-0.563348 0.62527,-0.187817 1.25053,-0.375529 1.87474,-0.563347 0.62527,-0.187818 1.25053,-0.375635 1.87579,-0.563347 0.62526,-0.187817 1.25052,-0.375636 1.87578,-0.563348 0.62528,-0.187817 1.24948,-0.375634 1.87474,-0.563453 0.62527,-0.187711 1.25053,-0.375529 1.87579,-0.563346 0.62527,-0.187818 1.25053,-0.37553 1.87579,-0.563348 0.62527,-0.187817 1.24947,-0.37553 1.87473,-0.563347 0.62528,-0.187818 1.25054,-0.375635 1.8758,-0.563347 0.62526,-0.187818 1.25052,-0.375636 1.87578,-0.563453 0.62422,-0.187712 1.24948,-0.37553 1.87475,-0.563348 0.62526,-0.187711 1.25052,-0.375529 1.87578,-0.563346 0.62526,-0.187818 1.25052,-0.37553 1.87474,-0.563348 0.62526,-0.187817 1.25052,-0.375635 1.87579,-0.563347 0.62526,-0.187818 1.25052,-0.375635 1.87579,-0.563348 0.62526,-0.187817 1.25052,-0.375635 1.87473,-0.563452 0.62526,-0.187713 1.25052,-0.37553 1.8758,-0.563347 0.62526,-0.187818 1.25052,-0.375531 1.87578,-0.563348 0.62526,-0.187817 1.24947,-0.375529 1.87474,-0.563347 0.62526,-0.187818 1.25052,-0.375635 1.87579,-0.563347 0.62526,-0.187818 1.25052,-0.375636 1.87578,-0.563453 0.62422,-0.187712 1.24948,-0.375529 1.87474,-0.563347 0.62526,-0.187713 1.25053,-0.37553 1.87579,-0.563347 0.62526,-0.187818 1.25053,-0.375531 1.87579,-0.563348 0.62421,-0.187817 1.24947,-0.375635 1.87473,-0.563348 0.62526,-0.187817 1.25054,-0.375634 1.8758,-0.563346 0.62526,-0.187818 1.25052,-0.375636 1.87473,-0.563453 0.62526,-0.187712 1.25053,-0.375529 1.87579,-0.563348 0.62526,-0.187817 1.25053,-0.375529 1.87579,-0.563346 0.62526,-0.187819 1.24948,-0.375531 1.87474,-0.563348 0.62526,-0.187817 1.25052,-0.375635 1.87578,-0.563347 0.62526,-0.187818 1.25053,-0.375635 1.87579,-0.563453 0.62527,-0.187712 1.24948,-0.37553 1.87474,-0.563347 0.62526,-0.187713 1.25052,-0.37553 1.87578,-0.563348 0.62527,-0.187817 1.25054,-0.375529 1.8758,-0.563347 0.62421,-0.187818 1.24947,-0.375635 1.87473,-0.563347 0.62527,-0.187818 1.25053,-0.375636 1.87579,-0.563347 0.62527,-0.187818 1.25053,-0.375635 1.87579,-0.563454"
       title="(x - 1)"
       id="path1865" />
    <path
       style="fill:none;stroke:#000000;stroke-width:0.264999;stroke-linecap:round;stroke-dasharray:none;marker-end:url(#Arrow2Lend)"
       d="M 7.6526791,68.983549 H 193.29476"
       title="x-axis"
       id="path1867" />
    <path
       style="fill:none;stroke:#000000;stroke-width:0.264999;stroke-linecap:round;stroke-dasharray:none;marker-end:url(#Arrow2Lend)"
       d="M 7.6520914,124.76612 V 28.491983"
       title="y-axis"
       id="path1869" />
  </g>
  <inkscape:templateinfo>
    <inkscape:name>Default Template</inkscape:name>
    <inkscape:author>Joachim Favre</inkscape:author>
    <inkscape:shortdesc>Arrow definitions, snapping (including perpendicular and tangential)</inkscape:shortdesc>
    <inkscape:date>2022-02-19</inkscape:date>
  </inkscape:templateinfo>
</svg>
