<?xml version="1.0" encoding="UTF-8" standalone="no"?>
<!-- Created with Inkscape (http://www.inkscape.org/) -->

<svg
   width="50.035309mm"
   height="33.138214mm"
   viewBox="0 0 50.035309 33.138214"
   version="1.1"
   id="svg5"
   inkscape:version="1.1.2 (b8e25be833, 2022-02-05)"
   sodipodi:docname="Exemple2TheoremDivergence.svg"
   xmlns:inkscape="http://www.inkscape.org/namespaces/inkscape"
   xmlns:sodipodi="http://sodipodi.sourceforge.net/DTD/sodipodi-0.dtd"
   xmlns="http://www.w3.org/2000/svg"
   xmlns:svg="http://www.w3.org/2000/svg">
  <sodipodi:namedview
     id="namedview7"
     pagecolor="#ffffff"
     bordercolor="#111111"
     borderopacity="1"
     inkscape:pageshadow="0"
     inkscape:pageopacity="0"
     inkscape:pagecheckerboard="1"
     inkscape:document-units="mm"
     showgrid="false"
     inkscape:snap-perpendicular="true"
     inkscape:snap-tangential="true"
     inkscape:snap-bbox="false"
     inkscape:bbox-paths="true"
     inkscape:bbox-nodes="true"
     inkscape:snap-bbox-edge-midpoints="true"
     inkscape:snap-bbox-midpoints="true"
     inkscape:object-paths="true"
     inkscape:snap-intersection-paths="true"
     inkscape:snap-object-midpoints="false"
     inkscape:snap-center="true"
     inkscape:zoom="3.6233469"
     inkscape:cx="92.455956"
     inkscape:cy="137.99396"
     inkscape:window-width="2479"
     inkscape:window-height="1417"
     inkscape:window-x="73"
     inkscape:window-y="-8"
     inkscape:window-maximized="1"
     inkscape:current-layer="layer1"
     inkscape:snap-global="true"
     inkscape:snap-nodes="true"
     inkscape:object-nodes="true"
     showguides="false" />
  <defs
     id="defs2">
    <marker
       style="overflow:visible"
       id="Arrow2Lend"
       refX="0"
       refY="0"
       orient="auto"
       inkscape:stockid="Arrow2Lend"
       inkscape:isstock="true">
      <path
         transform="matrix(-1.1,0,0,-1.1,-1.1,0)"
         d="M 8.7185878,4.0337352 -2.2072895,0.01601326 8.7185884,-4.0017078 c -1.7454984,2.3720609 -1.7354408,5.6174519 -6e-7,8.035443 z"
         style="fill:context-stroke;fill-rule:evenodd;stroke:context-stroke;stroke-width:0.625;stroke-linejoin:round"
         id="path880" />
    </marker>
    <marker
       style="overflow:visible"
       id="Arrow2Lstart"
       refX="0"
       refY="0"
       orient="auto"
       inkscape:stockid="Arrow2Lstart"
       inkscape:isstock="true">
      <path
         transform="matrix(1.1,0,0,1.1,1.1,0)"
         d="M 8.7185878,4.0337352 -2.2072895,0.01601326 8.7185884,-4.0017078 c -1.7454984,2.3720609 -1.7354408,5.6174519 -6e-7,8.035443 z"
         style="fill:context-stroke;fill-rule:evenodd;stroke:context-stroke;stroke-width:0.625;stroke-linejoin:round"
         id="path877" />
    </marker>
  </defs>
  <g
     inkscape:label="Layer 1"
     inkscape:groupmode="layer"
     id="layer1"
     transform="translate(-89.421875,-59.78671)">
    <path
       style="fill:none;stroke:#000000;stroke-width:0.265;stroke-linecap:round;stroke-linejoin:round;stroke-miterlimit:4;stroke-dasharray:none"
       d="m 90.420933,87.080585 c 0,-0.28744 0,-0.574567 6.4e-5,-0.861694 3.2e-5,-0.28744 1.27e-4,-0.574253 3.18e-4,-0.861067 2.23e-4,-0.286814 5.09e-4,-0.573001 9.55e-4,-0.859188 4.45e-4,-0.285875 0.0011,-0.571436 0.0018,-0.856684 7.64e-4,-0.284935 0.0018,-0.569244 0.003,-0.852926 0.0012,-0.283683 0.0027,-0.566739 0.0045,-0.848856 0.0018,-0.282086 0.0039,-0.563326 0.0063,-0.843595 0.0024,-0.280239 0.0052,-0.559475 0.0084,-0.837584 0.0031,-0.278078 0.0067,-0.555028 0.01072,-0.830695 0.004,-0.275698 0.0085,-0.55005 0.01343,-0.823023 0.0049,-0.272974 0.01037,-0.544508 0.01639,-0.814476 0.006,-0.269999 0.01251,-0.538402 0.01963,-0.805145 0.0071,-0.266712 0.01486,-0.531732 0.02323,-0.794937 0.0084,-0.263205 0.01738,-0.524594 0.02708,-0.78401 0.0097,-0.259416 0.02011,-0.516859 0.03125,-0.772236 0.01114,-0.255377 0.02301,-0.508656 0.03567,-0.759712 0.01266,-0.251056 0.02616,-0.499888 0.04045,-0.746404 0.01432,-0.246516 0.02947,-0.490652 0.04551,-0.732377 0.01604,-0.241694 0.03297,-0.480914 0.05085,-0.717566 0.01785,-0.236653 0.03666,-0.470707 0.05648,-0.702067 0.01979,-0.231361 0.04057,-0.459998 0.0624,-0.685848 0.02183,-0.22585 0.04471,-0.448851 0.06867,-0.66894 0.02396,-0.220089 0.04901,-0.437266 0.0752,-0.651374 0.02619,-0.214139 0.05353,-0.42521 0.08204,-0.63315 0.02851,-0.207909 0.05824,-0.412686 0.08917,-0.614239 0.03093,-0.201552 0.06314,-0.399817 0.09658,-0.594762 0.03348,-0.194946 0.06823,-0.386541 0.104315,-0.574692 0.03609,-0.188151 0.07351,-0.372827 0.112334,-0.553995 0.03882,-0.181169 0.07901,-0.358799 0.120639,-0.532797 0.04162,-0.173998 0.08471,-0.344333 0.129264,-0.511004 0.04455,-0.166672 0.0906,-0.329586 0.138174,-0.488742 0.04757,-0.159157 0.09668,-0.314493 0.147371,-0.465978 0.05069,-0.151454 0.102978,-0.299057 0.156885,-0.442714 0.05394,-0.143658 0.10947,-0.28337 0.166719,-0.419042 0.05722,-0.135705 0.116121,-0.267338 0.176775,-0.394933 0.06065,-0.127594 0.123026,-0.251087 0.187181,-0.370447 0.06415,-0.119359 0.130123,-0.234554 0.197873,-0.345554 0.06778,-0.110999 0.137379,-0.217771 0.208884,-0.320317 0.07147,-0.102545 0.144857,-0.200801 0.220149,-0.294798 0.07529,-0.09397 0.152526,-0.183611 0.231733,-0.268935 0.07921,-0.08529 0.160418,-0.166232 0.243634,-0.24282 0.08322,-0.07656 0.168469,-0.148699 0.255791,-0.216457 0.08732,-0.06773 0.176743,-0.131039 0.268297,-0.189873 0.09152,-0.05884 0.185207,-0.113223 0.281025,-0.163102 0.09585,-0.04991 0.193896,-0.09531 0.294137,-0.136205 0.100242,-0.04086 0.202711,-0.07725 0.307471,-0.10909 0.10476,-0.03184 0.211811,-0.05915 0.321154,-0.08194 0.109374,-0.02276 0.22104,-0.04099 0.335124,-0.05464 0.114053,-0.01368 0.230492,-0.02279 0.34935,-0.02737 0.118857,-0.0045 0.240165,-0.0045 0.363923,0 0.123759,0.0046 0.250031,0.01368 0.378785,0.02737 0.128755,0.01365 0.260055,0.03188 0.393933,0.05464 0.133846,0.02276 0.270302,0.0501 0.409367,0.08194 0.139065,0.03184 0.280739,0.06823 0.425119,0.10909 0.144347,0.04089 0.2914,0.08629 0.441157,0.136205 0.149758,0.04988 0.30222,0.104267 0.457483,0.163102 0.155231,0.05883 0.313262,0.122146 0.474125,0.189873 0.160832,0.06773 0.324528,0.1399 0.491059,0.216457 0.16652,0.07656 0.33595,0.157528 0.50827,0.24282 0.17235,0.08532 0.3476,0.174969 0.52584,0.268935 0.1782,0.09397 0.3594,0.192253 0.54362,0.294798 0.18419,0.102514 0.37144,0.209318 0.56174,0.320317 0.1903,0.111 0.38368,0.226226 0.58019,0.345554 0.19647,0.11936 0.39609,0.242853 0.59887,0.370447 0.20277,0.127563 0.40873,0.25926 0.6179,0.394933 0.20917,0.135672 0.42155,0.275384 0.63718,0.419042 0.21566,0.143657 0.43457,0.29126 0.65682,0.442714 0.22222,0.151485 0.44778,0.306853 0.67671,0.465978 0.2289,0.159156 0.46121,0.322102 0.69689,0.488742 0.23571,0.16664 0.47482,0.337037 0.71741,0.511004 0.24258,0.173998 0.48863,0.351628 0.73819,0.532797 0.24955,0.181168 0.50263,0.365875 0.75928,0.553995 0.25665,0.188151 0.51687,0.379746 0.78068,0.574692 0.26393,0.194914 0.53125,0.39321 0.80237,0.594762 0.27113,0.201521 0.54576,0.40633 0.82421,0.614239 0.27845,0.20794 0.56072,0.419042 0.8468,0.63315 0.28577,0.214108 0.57567,0.431285 0.86908,0.651374 0.2934,0.220089 0.59095,0.44309 0.89199,0.66894 0.30136,0.225818 0.60622,0.454487 0.91522,0.685848 0.309,0.23136 0.62213,0.465414 0.93877,0.702067 0.31695,0.236652 0.63772,0.475872 0.96263,0.717566 0.32459,0.241694 0.65364,0.485861 0.9865,0.732377 0.33287,0.246484 0.66987,0.495348 1.01069,0.746404 0.34114,0.251056 0.68642,0.504335 1.03551,0.759712 0.34941,0.255377 0.70296,0.51282 1.06065,0.772236 0.35769,0.259416 0.71951,0.520805 1.08579,0.78401 0.36596,0.263205 0.73637,0.528225 1.11125,0.794937 0.37455,0.266743 0.75356,0.535177 1.13702,0.805145 0.38346,0.269968 0.77106,0.541502 1.16312,0.814476 0.39237,0.272942 0.78888,0.547356 1.18985,0.823023 0.40096,0.275667 0.80638,0.552617 1.21626,0.830695 0.41019,0.278109 0.82452,0.557345 1.24363,0.837584 0.4191,0.280269 0.84266,0.561509 1.27068,0.843595 0.42833,0.282117 0.86112,0.565173 1.29836,0.848856 0.43756,0.283682 0.87958,0.567991 1.32637,0.852926 0.44679,0.285248 0.89835,0.570809 1.35469,0.856684 0.45634,0.286187 0.91713,0.572374 1.38301,0.859188 0.46589,0.286814 0.93654,0.573627 1.41197,0.861067 0.47543,0.287127 0.95564,0.574254 1.44093,0.861694"
       title="t**3 sin(t)"
       id="path944" />
    <g
       id="path1035">
      <path
         style="color:#000000;fill:#000000;-inkscape-stroke:none"
         d="m 90.421875,86.949219 v 0.263672 h 48.035155 v -0.263672 z"
         id="path861" />
      <g
         id="path853"
         transform="translate(-20.938241,-2.1127485)">
        <path
           style="color:#000000;fill:#000000;fill-rule:evenodd;stroke-width:0.181901;stroke-linejoin:round;-inkscape-stroke:none"
           d="m 132.10542,88.024234 3.17988,1.169322 -3.17988,1.169323 c 0.50801,-0.690367 0.50508,-1.63491 0,-2.338645 z"
           id="path857" />
        <path
           style="color:#000000;fill:#000000;fill-rule:evenodd;stroke-linejoin:round;-inkscape-stroke:none"
           d="m 132.13686,87.937944 a 0.09095959,0.09095959 0 0 0 -0.10547,0.138672 c 0.4827,0.672551 0.48444,1.574087 0,2.232422 a 0.09095959,0.09095959 0 0 0 0.10547,0.138672 l 3.17968,-1.167969 a 0.09095959,0.09095959 0 0 0 0,-0.171875 z m 0.10742,0.234375 2.77539,1.021485 -2.77539,1.021484 c 0.37021,-0.63731 0.36897,-1.397249 0,-2.042969 z"
           id="path859" />
      </g>
      <g
         id="path853-6"
         transform="rotate(-143.46468,118.84957,82.389775)"
         inkscape:transform-center-x="-1.4115611"
         inkscape:transform-center-y="1.2584092">
        <path
           style="color:#000000;fill:#000000;fill-rule:evenodd;stroke-width:0.181901;stroke-linejoin:round;-inkscape-stroke:none"
           d="m 132.10542,88.024234 3.17988,1.169322 -3.17988,1.169323 c 0.50801,-0.690367 0.50508,-1.63491 0,-2.338645 z"
           id="path857-7" />
        <path
           style="color:#000000;fill:#000000;fill-rule:evenodd;stroke-linejoin:round;-inkscape-stroke:none"
           d="m 132.13686,87.937944 a 0.09095959,0.09095959 0 0 0 -0.10547,0.138672 c 0.4827,0.672551 0.48444,1.574087 0,2.232422 a 0.09095959,0.09095959 0 0 0 0.10547,0.138672 l 3.17968,-1.167969 a 0.09095959,0.09095959 0 0 0 0,-0.171875 z m 0.10742,0.234375 2.77539,1.021485 -2.77539,1.021484 c 0.37021,-0.63731 0.36897,-1.397249 0,-2.042969 z"
           id="path859-7" />
      </g>
    </g>
    <text
       xml:space="preserve"
       style="font-size:2.82223px;line-height:1.25;font-family:sans-serif;stroke-width:0.264583"
       x="139.48323"
       y="88.639748"
       id="text2739"><tspan
         sodipodi:role="line"
         id="tspan2737"
         style="stroke-width:0.264583"
         x="139.48323"
         y="88.639748">$(\pi^3, 0)$</tspan></text>
    <text
       xml:space="preserve"
       style="font-size:2.82223px;line-height:1.25;font-family:sans-serif;text-align:end;text-anchor:end;stroke-width:0.264583"
       x="89.547348"
       y="89.829788"
       id="text2739-9"><tspan
         sodipodi:role="line"
         id="tspan2737-5"
         style="text-align:end;text-anchor:end;stroke-width:0.264583"
         x="89.547348"
         y="89.829788">$(0, 0)$</tspan></text>
    <text
       xml:space="preserve"
       style="font-size:2.82223px;line-height:1.25;font-family:sans-serif;text-align:center;text-anchor:middle;stroke-width:0.264583"
       x="107.20284"
       y="78.229507"
       id="text4330"><tspan
         sodipodi:role="line"
         id="tspan4328"
         style="text-align:center;text-anchor:middle;stroke-width:0.264583"
         x="107.20284"
         y="78.229507">$\Omega$</tspan></text>
    <text
       xml:space="preserve"
       style="font-size:2.82223px;line-height:1.25;font-family:sans-serif;text-align:start;text-anchor:start;stroke-width:0.264583"
       x="113.3023"
       y="67.525024"
       id="text7106"><tspan
         sodipodi:role="line"
         id="tspan7104"
         style="text-align:start;text-anchor:start;stroke-width:0.264583"
         x="113.3023"
         y="67.525024">$\Gamma_1$</tspan></text>
    <text
       xml:space="preserve"
       style="font-size:2.82223px;line-height:1.25;font-family:sans-serif;text-align:center;text-anchor:middle;stroke-width:0.264583"
       x="112.72913"
       y="92.259331"
       id="text7806"><tspan
         sodipodi:role="line"
         id="tspan7804"
         style="text-align:center;text-anchor:middle;stroke-width:0.264583"
         x="112.72913"
         y="92.259331">$\Gamma_2$</tspan></text>
    <circle
       style="fill:#000000;stroke:none;stroke-width:0.264999;stroke-linecap:round;stroke-linejoin:round;stroke-miterlimit:4;stroke-dasharray:none"
       id="path1383"
       cx="138.45718"
       cy="87.080582"
       r="1" />
    <circle
       style="fill:#000000;stroke:none;stroke-width:0.264999;stroke-linecap:round;stroke-linejoin:round;stroke-miterlimit:4;stroke-dasharray:none"
       id="path1383-8"
       cx="90.421875"
       cy="86.949219"
       r="1" />
  </g>
  <inkscape:templateinfo>
    <inkscape:name>Default Template</inkscape:name>
    <inkscape:author>Joachim Favre</inkscape:author>
    <inkscape:shortdesc>Arrow definitions, snapping (including perpendicular and tangential)</inkscape:shortdesc>
    <inkscape:date>2022-02-19</inkscape:date>
  </inkscape:templateinfo>
</svg>
