<?xml version="1.0" encoding="UTF-8" standalone="no"?>
<!-- Created with Inkscape (http://www.inkscape.org/) -->

<svg
   width="46.631519mm"
   height="45.20776mm"
   viewBox="0 0 46.63152 45.20776"
   version="1.1"
   id="svg5"
   inkscape:version="1.1.2 (b8e25be833, 2022-02-05)"
   sodipodi:docname="Paraboloide.svg"
   xmlns:inkscape="http://www.inkscape.org/namespaces/inkscape"
   xmlns:sodipodi="http://sodipodi.sourceforge.net/DTD/sodipodi-0.dtd"
   xmlns="http://www.w3.org/2000/svg"
   xmlns:svg="http://www.w3.org/2000/svg">
  <sodipodi:namedview
     id="namedview7"
     pagecolor="#ffffff"
     bordercolor="#111111"
     borderopacity="1"
     inkscape:pageshadow="0"
     inkscape:pageopacity="0"
     inkscape:pagecheckerboard="1"
     inkscape:document-units="mm"
     showgrid="false"
     inkscape:snap-perpendicular="true"
     inkscape:snap-tangential="true"
     inkscape:snap-bbox="true"
     inkscape:bbox-paths="true"
     inkscape:bbox-nodes="true"
     inkscape:snap-bbox-edge-midpoints="true"
     inkscape:snap-bbox-midpoints="true"
     inkscape:object-paths="true"
     inkscape:snap-intersection-paths="true"
     inkscape:snap-object-midpoints="true"
     inkscape:snap-center="true"
     inkscape:snap-global="false"
     inkscape:zoom="2.6547419"
     inkscape:cx="-4.143529"
     inkscape:cy="66.296464"
     inkscape:window-width="2479"
     inkscape:window-height="1417"
     inkscape:window-x="73"
     inkscape:window-y="-8"
     inkscape:window-maximized="1"
     inkscape:current-layer="layer1" />
  <defs
     id="defs2">
    <marker
       style="overflow:visible"
       id="Arrow2Lend"
       refX="0"
       refY="0"
       orient="auto"
       inkscape:stockid="Arrow2Lend"
       inkscape:isstock="true">
      <path
         transform="matrix(-1.1,0,0,-1.1,-1.1,0)"
         d="M 8.7185878,4.0337352 -2.2072895,0.01601326 8.7185884,-4.0017078 c -1.7454984,2.3720609 -1.7354408,5.6174519 -6e-7,8.035443 z"
         style="fill:context-stroke;fill-rule:evenodd;stroke:context-stroke;stroke-width:0.625;stroke-linejoin:round"
         id="path880" />
    </marker>
    <marker
       style="overflow:visible"
       id="Arrow2Lstart"
       refX="0"
       refY="0"
       orient="auto"
       inkscape:stockid="Arrow2Lstart"
       inkscape:isstock="true">
      <path
         transform="matrix(1.1,0,0,1.1,1.1,0)"
         d="M 8.7185878,4.0337352 -2.2072895,0.01601326 8.7185884,-4.0017078 c -1.7454984,2.3720609 -1.7354408,5.6174519 -6e-7,8.035443 z"
         style="fill:context-stroke;fill-rule:evenodd;stroke:context-stroke;stroke-width:0.625;stroke-linejoin:round"
         id="path877" />
    </marker>
  </defs>
  <g
     inkscape:label="Layer 1"
     inkscape:groupmode="layer"
     id="layer1"
     transform="translate(-87.870107,-41.067931)">
    <path
       style="fill:#808080;fill-opacity:0.882353;stroke:#808080;stroke-width:0.264583px;stroke-linecap:butt;stroke-linejoin:miter;stroke-opacity:0.882353;marker-end:url(#Arrow2Lend)"
       d="M 87.911837,82.569864 133.19785,67.516174"
       id="path2581" />
    <path
       style="fill:#808080;fill-opacity:0.882353;stroke:#808080;stroke-width:0.264583px;stroke-linecap:butt;stroke-linejoin:miter;stroke-opacity:0.882353;marker-start:url(#Arrow2Lstart)"
       d="M 132.5037,82.824265 88.852346,67.013832"
       id="path2583" />
    <path
       style="fill:#808080;fill-opacity:0.882353;stroke:#808080;stroke-width:0.264583px;stroke-linecap:butt;stroke-linejoin:miter;stroke-opacity:0.882353;marker-end:url(#Arrow2Lend)"
       d="M 110.87668,81.077013 V 41.510235"
       id="path2585" />
    <ellipse
       style="fill:none;stroke:#000000;stroke-width:0.264999;stroke-linecap:round;stroke-linejoin:round"
       id="path1165"
       cx="110.81942"
       cy="48.817547"
       rx="9.372961"
       ry="2.0287983" />
    <ellipse
       style="fill:#000000;stroke-width:0.264999;stroke-linecap:round;stroke-linejoin:round"
       id="path1167"
       cx="116.3868"
       cy="51.30463"
       rx="0.035236698"
       ry="0.17618348" />
    <path
       id="ellipse1409"
       style="fill:none;stroke:#000000;stroke-width:0.264999;stroke-linecap:round;stroke-linejoin:round"
       d="m 116.96269,63.634214 v 0 a 6.1432765,1.0774075 0 0 1 -6.14327,1.07741 6.1432765,1.0774075 0 0 1 -6.14328,-1.07741 6.1432765,1.0774075 0 0 1 0.007,-0.04987" />
    <path
       id="path1528"
       style="fill:none;stroke:#000000;stroke-width:0.264999;stroke-linecap:round;stroke-linejoin:round;stroke-miterlimit:4;stroke-dasharray:0.264999, 0.794997;stroke-dashoffset:0"
       d="m 104.68273,63.584343 a 6.1432765,1.0774075 0 0 1 6.13669,-1.027536 6.1432765,1.0774075 0 0 1 6.14327,1.077407" />
    <path
       id="path1541"
       style="fill:none;stroke:#000000;stroke-width:0.264998;stroke-linecap:round;stroke-linejoin:round"
       d="m 118.69998,56.767504 v 0 a 7.8307326,1.3671105 0 0 1 -7.83072,1.367112 7.8307326,1.3671105 0 0 1 -7.83074,-1.367112 7.8307326,1.3671105 0 0 1 0.009,-0.06328" />
    <path
       id="path1543"
       style="fill:none;stroke:#000000;stroke-width:0.264998;stroke-linecap:round;stroke-linejoin:round;stroke-miterlimit:4;stroke-dasharray:0.264998, 0.794997;stroke-dashoffset:0"
       d="m 103.04691,56.704222 a 7.8307326,1.3671105 0 0 1 7.82235,-1.303828 7.8307326,1.3671105 0 0 1 7.83072,1.36711" />
    <path
       id="path1545"
       style="fill:none;stroke:#000000;stroke-width:0.264998;stroke-linecap:round;stroke-linejoin:round"
       d="m 115.26676,68.901115 v 0 a 4.3975086,0.87372324 0 0 1 -4.3975,0.873724 4.3975086,0.87372324 0 0 1 -4.39752,-0.873724 4.3975086,0.87372324 0 0 1 0.005,-0.04044" />
    <path
       id="path1547"
       style="fill:none;stroke:#000000;stroke-width:0.264998;stroke-linecap:round;stroke-linejoin:round;stroke-miterlimit:4;stroke-dasharray:0.264998, 0.794993;stroke-dashoffset:0"
       d="m 106.47645,68.860672 a 4.3975086,0.87372324 0 0 1 4.39281,-0.83328 4.3975086,0.87372324 0 0 1 4.3975,0.873723" />
    <path
       style="fill:none;stroke:#000000;stroke-width:0.264999;stroke-linecap:round;stroke-linejoin:round;stroke-miterlimit:4;stroke-dasharray:none;stroke-dashoffset:0"
       d="m 101.45141,48.883474 c 0.21653,1.198223 0.43313,2.355218 0.64967,3.470888 0.21652,1.115669 0.43313,2.189919 0.64965,3.222939 0.21661,1.033021 0.43314,2.024621 0.64967,2.974993 0.21661,0.95037 0.43313,1.859322 0.64973,2.727044 0.21653,0.867816 0.43307,1.694118 0.64966,2.479191 0.21654,0.785073 0.43314,1.528821 0.64967,2.231244 0.21653,0.702519 0.43312,1.363523 0.64966,1.983296 0.21659,0.61987 0.43313,1.198224 0.64966,1.735444 0.2166,0.53722 0.43314,1.032925 0.64973,1.487496 0.21654,0.454571 0.43306,0.867722 0.64967,1.239644 0.21652,0.371922 0.43313,0.702328 0.64967,0.9916 0.21652,0.289273 0.43313,0.537125 0.64965,0.743748 0.21661,0.206623 0.43313,0.371827 0.64967,0.495895 0.2166,0.123975 0.43313,0.206529 0.64974,0.247853 0.21652,0.04142 0.43306,0.04132 0.64965,0 0.21654,-0.04123 0.43313,-0.123974 0.64967,-0.247853 0.21652,-0.123973 0.43313,-0.289272 0.64966,-0.495895 0.21659,-0.206528 0.43313,-0.454571 0.64966,-0.743748 0.2166,-0.289177 0.43313,-0.619774 0.64973,-0.9916 0.21653,-0.371922 0.43306,-0.785168 0.64967,-1.239644 0.21652,-0.454476 0.43313,-0.950371 0.64966,-1.487496 0.21653,-0.537125 0.43313,-1.11567 0.64966,-1.735444 0.2166,-0.619678 0.43313,-1.280873 0.64967,-1.983296 0.2166,-0.702423 0.43313,-1.446267 0.64973,-2.231244 0.21653,-0.785073 0.43306,-1.61147 0.64966,-2.479191 0.21653,-0.867627 0.43313,-1.776769 0.64967,-2.727044 0.21652,-0.950372 0.43313,-1.942068 0.64966,-2.974993 0.2166,-1.03302 0.43312,-2.107365 0.64966,-3.222939 0.21659,-1.115575 0.43313,-2.272665 0.64973,-3.470888"
       title="x**2"
       id="path2323" />
    <circle
       id="path2544"
       style="fill:#000000;stroke:#000000;stroke-width:0.264583"
       cx="99.066437"
       cy="78.834564"
       r="0.0066480306" />
    <text
       xml:space="preserve"
       style="font-size:2.82223px;line-height:1.25;font-family:sans-serif;text-align:center;text-anchor:middle;fill:#808080;stroke-width:0.264583"
       x="131.10855"
       y="85.860901"
       id="text4083"><tspan
         sodipodi:role="line"
         id="tspan4081"
         style="fill:#808080;stroke-width:0.264583"
         x="131.10855"
         y="85.860901">$x$</tspan></text>
    <text
       xml:space="preserve"
       style="font-size:2.82223px;line-height:1.25;font-family:sans-serif;text-align:center;text-anchor:middle;fill:#808080;stroke-width:0.264583"
       x="132.10521"
       y="71.90789"
       id="text4761"><tspan
         sodipodi:role="line"
         id="tspan4759"
         style="fill:#808080;stroke-width:0.264583"
         x="132.10521"
         y="71.90789">$y$</tspan></text>
    <text
       xml:space="preserve"
       style="font-size:2.82223px;line-height:1.25;font-family:sans-serif;text-align:center;text-anchor:middle;fill:#808080;stroke-width:0.264583"
       x="114.56427"
       y="44.001846"
       id="text5747"><tspan
         sodipodi:role="line"
         id="tspan5745"
         style="fill:#808080;stroke-width:0.264583"
         x="114.56427"
         y="44.001846">$z$</tspan></text>
  </g>
  <inkscape:templateinfo>
    <inkscape:name>Default Template</inkscape:name>
    <inkscape:author>Joachim Favre</inkscape:author>
    <inkscape:shortdesc>Arrow definitions, snapping (including perpendicular and tangential)</inkscape:shortdesc>
    <inkscape:date>2022-02-19</inkscape:date>
  </inkscape:templateinfo>
</svg>
