<?xml version="1.0" encoding="UTF-8" standalone="no"?>
<!-- Created with Inkscape (http://www.inkscape.org/) -->

<svg
   sodipodi:docname="AverageErrorProbability_AnalysisOfError.svg"
   inkscape:version="1.1.2 (b8e25be833, 2022-02-05)"
   id="svg5"
   version="1.1"
   viewBox="0 0 91.66166 33.952309"
   height="33.952309mm"
   width="91.661659mm"
   xmlns:inkscape="http://www.inkscape.org/namespaces/inkscape"
   xmlns:sodipodi="http://sodipodi.sourceforge.net/DTD/sodipodi-0.dtd"
   xmlns="http://www.w3.org/2000/svg"
   xmlns:svg="http://www.w3.org/2000/svg">
  <sodipodi:namedview
     id="namedview7"
     pagecolor="#ffffff"
     bordercolor="#111111"
     borderopacity="1"
     inkscape:pageshadow="0"
     inkscape:pageopacity="0"
     inkscape:pagecheckerboard="1"
     inkscape:document-units="mm"
     showgrid="false"
     inkscape:snap-perpendicular="false"
     inkscape:snap-tangential="false"
     inkscape:snap-bbox="true"
     inkscape:bbox-paths="true"
     inkscape:bbox-nodes="true"
     inkscape:snap-bbox-edge-midpoints="true"
     inkscape:snap-bbox-midpoints="true"
     inkscape:object-paths="true"
     inkscape:snap-intersection-paths="true"
     inkscape:snap-object-midpoints="true"
     inkscape:snap-center="true"
     inkscape:zoom="4"
     inkscape:cx="115"
     inkscape:cy="32.75"
     inkscape:window-width="2479"
     inkscape:window-height="1417"
     inkscape:window-x="73"
     inkscape:window-y="-8"
     inkscape:window-maximized="1"
     inkscape:current-layer="layer1"
     showguides="true"
     inkscape:guide-bbox="true"
     inkscape:snap-global="true">
    <sodipodi:guide
       position="45.802826,7.2175368"
       orientation="1,0"
       id="guide9403" />
    <sodipodi:guide
       position="34.216808,33.819838"
       orientation="1,0"
       id="guide13235" />
    <sodipodi:guide
       position="57.35611,33.820308"
       orientation="1,0"
       id="guide13239" />
    <sodipodi:guide
       position="58.138312,16.886684"
       orientation="-1,0"
       id="guide13241" />
    <sodipodi:guide
       position="57.356114,16.682726"
       orientation="0,-1"
       id="guide13243" />
    <sodipodi:guide
       position="42.627102,2.5244977"
       orientation="0,-1"
       id="guide15195" />
  </sodipodi:namedview>
  <defs
     id="defs2">
    <marker
       style="overflow:visible"
       id="Arrow2Lend"
       refX="0"
       refY="0"
       orient="auto"
       inkscape:stockid="Arrow2Lend"
       inkscape:isstock="true">
      <path
         transform="matrix(-1.1,0,0,-1.1,-1.1,0)"
         d="M 8.7185878,4.0337352 -2.2072895,0.01601326 8.7185884,-4.0017078 c -1.7454984,2.3720609 -1.7354408,5.6174519 -6e-7,8.035443 z"
         style="fill:context-stroke;fill-rule:evenodd;stroke:context-stroke;stroke-width:0.625;stroke-linejoin:round"
         id="path880" />
    </marker>
    <marker
       style="overflow:visible"
       id="Arrow2Lstart"
       refX="0"
       refY="0"
       orient="auto"
       inkscape:stockid="Arrow2Lstart"
       inkscape:isstock="true">
      <path
         transform="matrix(1.1,0,0,1.1,1.1,0)"
         d="M 8.7185878,4.0337352 -2.2072895,0.01601326 8.7185884,-4.0017078 c -1.7454984,2.3720609 -1.7354408,5.6174519 -6e-7,8.035443 z"
         style="fill:context-stroke;fill-rule:evenodd;stroke:context-stroke;stroke-width:0.625;stroke-linejoin:round"
         id="path877" />
    </marker>
  </defs>
  <g
     inkscape:label="Layer 1"
     inkscape:groupmode="layer"
     id="layer1"
     style="display:inline"
     transform="translate(-83.578013,-49.927058)">
    <text
       xml:space="preserve"
       style="font-size:2.82223px;line-height:1.25;font-family:sans-serif;text-align:end;text-anchor:end;stroke-width:0.264583"
       x="110.6839"
       y="54.93401"
       id="text3451"><tspan
         sodipodi:role="line"
         style="text-align:end;text-anchor:end;stroke-width:0.264583"
         x="110.6839"
         y="54.93401"
         id="tspan3449">$f_0(y)$</tspan></text>
    <path
       style="display:inline;fill:#ff7f2a;stroke:#000000;stroke-width:0.0999999;stroke-linecap:round;stroke-linejoin:round;stroke-miterlimit:4;stroke-dasharray:none"
       d="m 341.74698,311.96236 c 10.61764,-0.66791 16.27962,-1.55651 22.09428,-3.46754 14.681,-4.82501 25.05418,-15.98601 36.66341,-39.44794 4.09527,-8.27643 6.358,-13.3937 13.28321,-30.04059 10.15133,-24.40186 13.90543,-32.32149 18.83781,-39.74021 3.97088,-5.97254 7.35484,-8.94922 11.04942,-9.71956 5.33315,-1.112 10.69346,3.44945 16.95495,14.42812 3.67308,6.44025 7.52805,14.89046 15.12214,33.14823 6.09702,14.65849 7.81436,18.64432 11.0563,25.66094 l 1.89239,4.09576 -0.41765,0.98949 c -0.65045,1.54099 -4.56976,8.92825 -6.35781,11.98342 -7.59243,12.97291 -15.45066,21.26349 -24.42728,25.77123 -6.37266,3.20013 -13.36363,4.91385 -23.27514,5.70553 -7.19495,0.5747 -9.99055,0.61037 -51.22908,0.65378 -23.25556,0.0245 -41.81669,0.0152 -41.24695,-0.0207 z"
       id="path5435"
       transform="scale(0.26458333)" />
    <path
       style="display:inline;fill:#2a7fff;stroke:#000000;stroke-width:0.0999998;stroke-linecap:round;stroke-linejoin:round;stroke-miterlimit:4;stroke-dasharray:none"
       d="m 421.65117,312.14564 c 0.23307,-0.007 1.26072,-0.035 2.28365,-0.0627 1.75728,-0.0477 4.61967,-0.15587 5.60318,-0.21174 7.13208,-0.40516 11.62802,-0.92814 16.03263,-1.86498 4.40698,-0.93734 8.14841,-2.21229 11.74785,-4.00326 3.47501,-1.72904 6.47047,-3.7519 9.58191,-6.47073 0.96236,-0.84092 3.61163,-3.47379 4.53592,-4.50784 5.69823,-6.37488 10.69985,-14.1997 16.37749,-25.6219 l 1.05201,-2.1164 v 22.44559 22.4456 l -33.81921,-0.01 c -18.60056,-0.005 -33.6285,-0.0152 -33.39543,-0.0219 z"
       id="path5474"
       transform="scale(0.26458333)" />
    <path
       style="display:inline;fill:#c83737;stroke:#000000;stroke-width:0.1;stroke-linecap:round;stroke-linejoin:round;stroke-miterlimit:4;stroke-dasharray:none"
       d="m 488.99846,289.74554 0.002,-22.42386 1.71667,3.39604 c 3.20701,6.34436 5.64515,10.61926 8.48814,14.88265 9.22368,13.83199 18.48139,20.91125 31.43779,24.04009 6.05659,1.46261 13.11371,2.18479 24.27677,2.48432 0.34793,0.009 -14.34245,0.0232 -32.64527,0.0308 l -33.27787,0.0138 z"
       id="path5513"
       transform="scale(0.26458333)" />
    <path
       style="display:inline;fill:#55ff55;stroke:#000000;stroke-width:0.0264583;stroke-linecap:round;stroke-linejoin:round;stroke-miterlimit:4;stroke-dasharray:none"
       d="m 149.04988,82.657629 c -2.06453,-0.01577 -4.13245,-0.09431 -5.42645,-0.206142 -3.59407,-0.310603 -5.8721,-1.112663 -8.01635,-2.822438 -0.50776,-0.40487 -1.59481,-1.496517 -2.0655,-2.074222 -1.32884,-1.63096 -2.41146,-3.363613 -3.71779,-5.950024 l -0.44242,-0.875943 0.41349,-0.885894 c 0.83762,-1.794578 1.44108,-3.190197 2.91226,-6.735182 1.09841,-2.646755 1.82838,-4.355984 2.39275,-5.602637 1.85907,-4.106606 3.39008,-6.368767 4.77085,-7.049207 0.17442,-0.08595 0.41163,-0.18016 0.52714,-0.209343 0.27156,-0.06862 0.7797,-0.06789 1.04745,0.0016 1.39307,0.360979 2.77475,2.068328 4.50407,5.565699 0.82155,1.661506 1.43381,3.059617 3.28675,7.505414 1.70456,4.089789 2.27466,5.394528 3.19787,7.318602 3.03179,6.318615 5.82817,9.52214 9.51251,10.897505 1.73655,0.648256 3.7799,0.976138 6.90639,1.10822 0.55741,0.02355 -16.93319,0.036 -19.80302,0.0141 z"
       id="path5552" />
    <path
       id="path2666"
       style="fill:none;stroke:#000000;stroke-width:0.264999;stroke-linecap:round;stroke-linejoin:round"
       d="m 83.710513,82.621777 3.722721,1e-5 h 3.993402 3.993499 c 1.3311,0 2.662301,0 3.993398,-9e-5 1.331197,-5e-5 2.662297,-1.4e-4 3.993497,-7.8e-4 1.3311,-6.8e-4 2.6623,-0.002 3.9934,-0.007 1.3312,-0.005 2.6623,-0.0126 3.9935,-0.041 1.3311,-0.0284 2.6623,-0.0747 3.9934,-0.20146 1.3312,-0.12675 2.6623,-0.33144 3.9939,-0.76651 1.331,-0.43507 2.662,-1.10615 3.993,-2.243 1.331,-1.13679 2.662,-2.75974 3.993,-4.98058 1.332,-2.22085 2.663,-5.05817 3.994,-8.18252 1.331,-3.1244 2.662,-6.51705 3.993,-9.38065 1.332,-2.8636 2.663,-5.14473 3.994,-6.15819 1.331,-1.01341 2.662,-0.73332 3.993,0.75111 1.331,1.48444 2.663,4.1365 3.994,7.18386 1.331,3.04732 2.662,6.4397 3.993,9.44498 1.331,3.00524 2.662,5.61413 3.994,7.605 1.331,1.99087 2.662,3.38551 3.993,4.345 1.331,0.95952 2.662,1.50159 3.994,1.84892 1.331,0.34736 2.662,0.50307 3.993,0.59904 1.331,0.096 2.662,0.1291 3.993,0.14953 1.24168,0.019 2.4825,0.0248 3.72325,0.0282" />
    <path
       id="path2668"
       style="fill:none;stroke:#000000;stroke-width:0.264999;stroke-linecap:round;stroke-linejoin:round"
       d="m 83.710521,82.616117 c 1.240925,-0.003 2.481775,-0.009 3.722713,-0.0282 1.331101,-0.0204 2.662301,-0.0536 3.993402,-0.14953 1.331198,-0.096 2.662298,-0.25167 3.993499,-0.59904 1.3311,-0.34732 2.662301,-0.88939 3.993398,-1.84892 1.331197,-0.95948 2.662297,-2.35413 3.993497,-4.345 1.3311,-1.99087 2.6623,-4.59976 3.9934,-7.605 1.3312,-3.00528 2.6623,-6.39765 3.9935,-9.44497 1.3311,-3.04737 2.6623,-5.69943 3.9934,-7.18387 1.3312,-1.48443 2.6623,-1.76452 3.9939,-0.75111 1.331,1.01346 2.662,3.29459 3.993,6.15819 1.331,2.8636 2.662,6.25625 3.993,9.38065 1.332,3.12435 2.663,5.96167 3.994,8.18252 1.331,2.22085 2.662,3.84379 3.993,4.98058 1.332,1.13685 2.663,1.80793 3.994,2.243 1.331,0.43507 2.662,0.63976 3.993,0.76651 1.331,0.12679 2.663,0.17305 3.994,0.20146 1.331,0.0284 2.662,0.0361 3.993,0.041 1.331,0.005 2.662,0.006 3.994,0.006 1.331,6.4e-4 2.662,7.3e-4 3.993,7.8e-4 1.331,9e-5 2.662,9e-5 3.994,9e-5 h 3.993 3.993 3.72322" />
    <path
       id="path2670"
       style="fill:none;stroke:#000000;stroke-width:0.265;stroke-linecap:round;stroke-linejoin:round;stroke-miterlimit:4;stroke-dasharray:none;marker-end:url(#Arrow2Lend)"
       d="m 83.960709,82.621777 90.835961,1e-5" />
    <path
       style="fill:none;stroke:#000000;stroke-width:0.264583px;stroke-linecap:butt;stroke-linejoin:miter;stroke-opacity:1"
       d="M 129.36449,82.621777 V 70.629157"
       id="path3539" />
    <text
       xml:space="preserve"
       style="font-size:2.82223px;line-height:1.25;font-family:sans-serif;text-align:start;text-anchor:start;stroke-width:0.264583"
       x="147.85822"
       y="54.934013"
       id="text7297"><tspan
         sodipodi:role="line"
         id="tspan7295"
         style="text-align:start;text-anchor:start;stroke-width:0.264583"
         x="147.85822"
         y="54.934013">$f_1(y)$</tspan></text>
    <text
       xml:space="preserve"
       style="font-size:2.82223px;line-height:1.25;font-family:sans-serif;text-align:center;text-anchor:middle;stroke-width:0.264583"
       x="140.93413"
       y="67.975235"
       id="text13153"><tspan
         sodipodi:role="line"
         id="tspan13151"
         style="stroke-width:0.264583"
         x="140.93413"
         y="67.975235">$g$</tspan></text>
    <text
       xml:space="preserve"
       style="font-size:2.82223px;line-height:1.25;font-family:sans-serif;text-align:center;text-anchor:middle;display:inline;stroke-width:0.264583"
       x="132.55603"
       y="80.853951"
       id="text13153-9"><tspan
         sodipodi:role="line"
         id="tspan13151-1"
         style="stroke-width:0.264583"
         x="132.55603"
         y="80.853951">$r$</tspan></text>
    <text
       xml:space="preserve"
       style="font-size:2.82223px;line-height:1.25;font-family:sans-serif;text-align:center;text-anchor:middle;stroke-width:0.264583"
       x="117.79482"
       y="68.061363"
       id="text14171"><tspan
         sodipodi:role="line"
         id="tspan14169"
         style="stroke-width:0.264583"
         x="117.79482"
         y="68.061363">$o$</tspan></text>
    <text
       xml:space="preserve"
       style="font-size:2.82223px;line-height:1.25;font-family:sans-serif;text-align:center;text-anchor:middle;stroke-width:0.264583"
       x="126.20512"
       y="80.940079"
       id="text15113"
       inkscape:transform-center-x="3.1754553"><tspan
         sodipodi:role="line"
         id="tspan15111"
         style="stroke-width:0.264583"
         x="126.20512"
         y="80.940079">$b$</tspan></text>
    <text
       xml:space="preserve"
       style="font-size:2.82223px;line-height:1.25;font-family:sans-serif;text-align:center;text-anchor:middle;stroke-width:0.264583"
       x="126.20512"
       y="80.940079"
       id="text15226"
       inkscape:transform-center-x="3.1754553"><tspan
         sodipodi:role="line"
         id="tspan15224"
         style="stroke-width:0.264583"
         x="126.20512"
         y="80.940079">$b$</tspan></text>
  </g>
  <inkscape:templateinfo>
    <inkscape:name>Default Template</inkscape:name>
    <inkscape:author>Joachim Favre</inkscape:author>
    <inkscape:shortdesc>Arrow definitions, snapping (including perpendicular and tangential)</inkscape:shortdesc>
    <inkscape:date>2022-02-19</inkscape:date>
  </inkscape:templateinfo>
</svg>
