<?xml version="1.0" encoding="UTF-8" standalone="no"?>
<!-- Created with Inkscape (http://www.inkscape.org/) -->

<svg
   width="61.571293mm"
   height="47.588173mm"
   viewBox="0 0 61.571293 47.588173"
   version="1.1"
   id="svg5"
   inkscape:version="1.1.2 (b8e25be833, 2022-02-05)"
   sodipodi:docname="ExempleIntegraleDemiCercle.svg"
   xmlns:inkscape="http://www.inkscape.org/namespaces/inkscape"
   xmlns:sodipodi="http://sodipodi.sourceforge.net/DTD/sodipodi-0.dtd"
   xmlns:xlink="http://www.w3.org/1999/xlink"
   xmlns="http://www.w3.org/2000/svg"
   xmlns:svg="http://www.w3.org/2000/svg">
  <sodipodi:namedview
     id="namedview7"
     pagecolor="#ffffff"
     bordercolor="#111111"
     borderopacity="1"
     inkscape:pageshadow="0"
     inkscape:pageopacity="0"
     inkscape:pagecheckerboard="1"
     inkscape:document-units="mm"
     showgrid="false"
     inkscape:snap-perpendicular="false"
     inkscape:snap-tangential="false"
     inkscape:snap-bbox="true"
     inkscape:bbox-paths="true"
     inkscape:bbox-nodes="true"
     inkscape:snap-bbox-edge-midpoints="true"
     inkscape:snap-bbox-midpoints="true"
     inkscape:object-paths="true"
     inkscape:snap-intersection-paths="true"
     inkscape:snap-object-midpoints="true"
     inkscape:snap-center="true"
     showguides="true"
     inkscape:guide-bbox="true"
     inkscape:snap-smooth-nodes="true"
     inkscape:snap-midpoints="true"
     inkscape:snap-global="true"
     inkscape:zoom="7.508744"
     inkscape:cx="15.315478"
     inkscape:cy="90.294728"
     inkscape:window-width="2479"
     inkscape:window-height="1417"
     inkscape:window-x="73"
     inkscape:window-y="-8"
     inkscape:window-maximized="1"
     inkscape:current-layer="layer1">
    <sodipodi:guide
       position="-5.3795552,16.549145"
       orientation="0,-1"
       id="guide927" />
    <sodipodi:guide
       position="-46.109682,56.913235"
       orientation="0,-1"
       id="guide929" />
    <sodipodi:guide
       position="30.532242,27.917952"
       orientation="-1,0"
       id="guide931" />
    <sodipodi:guide
       position="53.944693,16.553815"
       orientation="1,0"
       id="guide3615" />
    <sodipodi:guide
       position="7.1609555,16.549145"
       orientation="1,0"
       id="guide3617" />
    <sodipodi:guide
       position="33.113893,13.811165"
       orientation="1,0"
       id="guide14451" />
    <sodipodi:guide
       position="30.532263,28.255376"
       orientation="0,-1"
       id="guide21384" />
    <sodipodi:guide
       position="30.532263,4.8429253"
       orientation="0,-1"
       id="guide22024" />
    <sodipodi:guide
       position="31.997373,4.8429353"
       orientation="1,0"
       id="guide27557" />
  </sodipodi:namedview>
  <defs
     id="defs2">
    <marker
       style="overflow:visible"
       id="Arrow2Lend"
       refX="0"
       refY="0"
       orient="auto"
       inkscape:stockid="Arrow2Lend"
       inkscape:isstock="true">
      <path
         transform="matrix(-1.1,0,0,-1.1,-1.1,0)"
         d="M 8.7185878,4.0337352 -2.2072895,0.01601326 8.7185884,-4.0017078 c -1.7454984,2.3720609 -1.7354408,5.6174519 -6e-7,8.035443 z"
         style="fill:context-stroke;fill-rule:evenodd;stroke:context-stroke;stroke-width:0.625;stroke-linejoin:round"
         id="path880" />
    </marker>
    <marker
       style="overflow:visible"
       id="Arrow2Lstart"
       refX="0"
       refY="0"
       orient="auto"
       inkscape:stockid="Arrow2Lstart"
       inkscape:isstock="true">
      <path
         transform="matrix(1.1,0,0,1.1,1.1,0)"
         d="M 8.7185878,4.0337352 -2.2072895,0.01601326 8.7185884,-4.0017078 c -1.7454984,2.3720609 -1.7354408,5.6174519 -6e-7,8.035443 z"
         style="fill:context-stroke;fill-rule:evenodd;stroke:context-stroke;stroke-width:0.625;stroke-linejoin:round"
         id="path877" />
    </marker>
  </defs>
  <g
     inkscape:label="Layer 1"
     inkscape:groupmode="layer"
     id="layer1"
     transform="translate(-80.194921,-26.865994)">
    <path
       style="fill:#000000;stroke:#000000;stroke-width:0.264583px;stroke-linecap:butt;stroke-linejoin:miter;stroke-opacity:1;marker-end:url(#Arrow2Lend)"
       d="M 80.194921,57.872788 H 141.32391"
       id="path933" />
    <path
       style="fill:#000000;stroke:#000000;stroke-width:0.264583px;stroke-linecap:butt;stroke-linejoin:miter;stroke-opacity:1;marker-end:url(#Arrow2Lend)"
       d="M 110.75942,74.454166 V 27.308298"
       id="path937" />
    <g
       id="path1121">
      <path
         style="color:#000000;fill:#2c89a0;stroke-linecap:round;stroke-linejoin:round;-inkscape-stroke:none"
         d="m 110.72656,34.359375 c -13.001809,0 -23.544919,10.54311 -23.544919,23.544922 a 0.1322915,0.1322915 0 0 0 0.132812,0.132812 0.1322915,0.1322915 0 0 0 0.132813,-0.132812 c 0,-12.858821 10.420476,-23.279297 23.279294,-23.279297 12.85882,0 23.28125,10.420476 23.28125,23.279297 a 0.1322915,0.1322915 0 0 0 0.13086,0.132812 0.1322915,0.1322915 0 0 0 0.13281,-0.132812 c 0,-13.001812 -10.54311,-23.544922 -23.54492,-23.544922 z"
         id="path1236" />
      <g
         id="g1226">
        <g
           id="path1228">
          <path
             style="color:#000000;fill:#2c89a0;fill-rule:evenodd;stroke-width:0.181901;stroke-linejoin:round;-inkscape-stroke:none"
             d="m 113.55569,35.66657 -3.17988,-1.169323 3.17988,-1.169323 c -0.50801,0.690368 -0.50508,1.63491 0,2.338646 z"
             id="path1232" />
          <path
             style="color:#000000;fill:#2c89a0;fill-rule:evenodd;stroke-linejoin:round;-inkscape-stroke:none"
             d="m 113.52344,33.242187 -3.17969,1.169922 a 0.09095959,0.09095959 0 0 0 0,0.169922 l 3.17969,1.169922 a 0.09095959,0.09095959 0 0 0 0.10547,-0.138672 c -0.4827,-0.672551 -0.48444,-1.574085 0,-2.232422 a 0.09095959,0.09095959 0 0 0 -0.10547,-0.138672 z m -0.10742,0.234375 c -0.36962,0.637519 -0.36753,1.397493 0.002,2.042969 l -2.78125,-1.021484 z"
             id="path1234" />
        </g>
      </g>
    </g>
    <g
       id="path1732">
      <path
         style="color:#000000;fill:#2a7fff;stroke-linecap:round;-inkscape-stroke:none"
         d="m 87.355469,57.773437 a 0.1322915,0.1322915 0 0 0 -0.132813,0.13086 0.1322915,0.1322915 0 0 0 0.132813,0.132812 h 24.835941 21.94726 a 0.1322915,0.1322915 0 0 0 0.13281,-0.132812 0.1322915,0.1322915 0 0 0 -0.13281,-0.13086 h -21.94726 z"
         id="path1222" />
      <g
         id="g1212">
        <g
           id="path1214">
          <path
             style="color:#000000;fill:#2a7fff;fill-rule:evenodd;stroke-width:0.181901;stroke-linejoin:round;-inkscape-stroke:none"
             d="m 109.36378,56.731039 3.17988,1.169322 -3.17988,1.169323 c 0.50801,-0.690367 0.50508,-1.63491 0,-2.338645 z"
             id="path1218" />
          <path
             style="color:#000000;fill:#2a7fff;fill-rule:evenodd;stroke-linejoin:round;-inkscape-stroke:none"
             d="m 109.39453,56.646484 a 0.09095959,0.09095959 0 0 0 -0.10547,0.136719 c 0.4827,0.672551 0.4864,1.574086 0.002,2.232422 a 0.09095959,0.09095959 0 0 0 0.10351,0.138672 l 3.17969,-1.167969 a 0.09095959,0.09095959 0 0 0 0,-0.171875 z m 0.10742,0.232422 2.77539,1.021485 -2.77343,1.021484 c 0.37015,-0.637295 0.367,-1.397279 -0.002,-2.042969 z"
             id="path1220" />
        </g>
      </g>
    </g>
    <text
       xml:space="preserve"
       style="font-size:2.82223px;line-height:1.25;font-family:sans-serif;text-align:center;text-anchor:middle;stroke-width:0.264583"
       x="134.1396"
       y="61.304855"
       id="text5556"><tspan
         sodipodi:role="line"
         id="tspan5554"
         style="stroke-width:0.264583"
         x="134.1396"
         y="61.304855">$R$</tspan></text>
    <text
       xml:space="preserve"
       style="font-size:2.82223px;line-height:1.25;font-family:sans-serif;text-align:center;text-anchor:middle;stroke-width:0.264583"
       x="87.355873"
       y="61.304855"
       id="text5556-4"><tspan
         sodipodi:role="line"
         id="tspan5554-0"
         style="stroke-width:0.264583"
         x="87.355873"
         y="61.304855">$-R$</tspan></text>
    <text
       xml:space="preserve"
       style="font-size:2.82223px;line-height:1.25;font-family:sans-serif;fill:#2a7fff;stroke-width:0.264583"
       x="113.07455"
       y="61.382324"
       id="text11281"><tspan
         sodipodi:role="line"
         id="tspan11279"
         style="fill:#2a7fff;stroke-width:0.264583"
         x="113.07455"
         y="61.382324">$I_R$</tspan></text>
    <text
       xml:space="preserve"
       style="font-size:2.82223px;line-height:1.25;font-family:sans-serif;fill:#2c89a0;stroke-width:0.264583"
       x="113.07454"
       y="32.100632"
       id="text16885"><tspan
         sodipodi:role="line"
         id="tspan16883"
         style="fill:#2c89a0;stroke-width:0.264583"
         x="113.07454"
         y="32.100632">$C_R$</tspan></text>
    <ellipse
       style="fill:#aa0044;fill-opacity:1;stroke:none;stroke-width:0.999998;stroke-linecap:round;stroke-linejoin:round"
       id="path18375"
       cx="110.7272"
       cy="46.198814"
       inkscape:transform-center-x="-4.0231477e-05"
       inkscape:transform-center-y="2.3606891e-05"
       rx="0.69826496"
       ry="0.69911778" />
    <text
       xml:space="preserve"
       style="font-size:2.82223px;line-height:1.25;font-family:sans-serif;fill:#aa0044;stroke-width:0.264583"
       x="111.95802"
       y="46.977383"
       id="text26794"><tspan
         sodipodi:role="line"
         id="tspan26792"
         style="fill:#aa0044;stroke-width:0.264583"
         x="111.95802"
         y="46.977383">$i\omega$</tspan></text>
    <text
       xml:space="preserve"
       style="font-size:2.82223px;line-height:1.25;font-family:sans-serif;fill:#aa0044;stroke-width:0.264583"
       x="111.95802"
       y="70.389832"
       id="text26794-0"><tspan
         sodipodi:role="line"
         id="tspan26792-4"
         style="fill:#aa0044;stroke-width:0.264583"
         x="111.95802"
         y="70.389832">$-i\omega$</tspan></text>
    <use
       x="0"
       y="0"
       xlink:href="#path18375"
       inkscape:transform-center-x="-1.7344074e-05"
       inkscape:transform-center-y="11.706219"
       id="use946"
       transform="translate(0,23.412438)"
       width="100%"
       height="100%" />
  </g>
  <inkscape:templateinfo>
    <inkscape:name>Default Template</inkscape:name>
    <inkscape:author>Joachim Favre</inkscape:author>
    <inkscape:shortdesc>Arrow definitions, snapping (including perpendicular and tangential)</inkscape:shortdesc>
    <inkscape:date>2022-02-19</inkscape:date>
  </inkscape:templateinfo>
</svg>
