<?xml version="1.0" encoding="UTF-8" standalone="no"?>
<!-- Created with Inkscape (http://www.inkscape.org/) -->

<svg
   width="96.312042mm"
   height="89.204018mm"
   viewBox="0 0 96.312042 89.204018"
   version="1.1"
   id="svg5"
   inkscape:version="1.2.2 (732a01da63, 2022-12-09)"
   sodipodi:docname="RateDistortionExample1.svg"
   xmlns:inkscape="http://www.inkscape.org/namespaces/inkscape"
   xmlns:sodipodi="http://sodipodi.sourceforge.net/DTD/sodipodi-0.dtd"
   xmlns="http://www.w3.org/2000/svg"
   xmlns:svg="http://www.w3.org/2000/svg">
  <sodipodi:namedview
     id="namedview7"
     pagecolor="#ffffff"
     bordercolor="#111111"
     borderopacity="1"
     inkscape:pageshadow="0"
     inkscape:pageopacity="0"
     inkscape:pagecheckerboard="1"
     inkscape:document-units="mm"
     showgrid="false"
     inkscape:snap-perpendicular="true"
     inkscape:snap-tangential="true"
     inkscape:snap-bbox="true"
     inkscape:bbox-paths="true"
     inkscape:bbox-nodes="true"
     inkscape:snap-bbox-edge-midpoints="true"
     inkscape:snap-bbox-midpoints="true"
     inkscape:object-paths="true"
     inkscape:snap-intersection-paths="true"
     inkscape:snap-object-midpoints="true"
     inkscape:snap-center="true"
     inkscape:showpageshadow="0"
     inkscape:deskcolor="#d1d1d1"
     inkscape:zoom="1.8761364"
     inkscape:cx="164.70018"
     inkscape:cy="235.59055"
     inkscape:window-width="3440"
     inkscape:window-height="1369"
     inkscape:window-x="-8"
     inkscape:window-y="330"
     inkscape:window-maximized="1"
     inkscape:current-layer="layer1"
     showguides="true">
    <sodipodi:guide
       position="10.051732,42.772004"
       orientation="0,-1"
       id="guide2357"
       inkscape:locked="false" />
    <sodipodi:guide
       position="7.2002685,80.437104"
       orientation="1,0"
       id="guide2409"
       inkscape:locked="false" />
    <sodipodi:guide
       position="10.055987,83.353544"
       orientation="1,0"
       id="guide2411"
       inkscape:locked="false" />
    <sodipodi:guide
       position="85.640588,15.643534"
       orientation="1,0"
       id="guide2421"
       inkscape:locked="false" />
    <sodipodi:guide
       position="89.932228,4.980994"
       orientation="0,-1"
       id="guide2423"
       inkscape:locked="false" />
  </sodipodi:namedview>
  <defs
     id="defs2">
    <marker
       style="overflow:visible"
       id="Arrow2Lend"
       refX="0"
       refY="0"
       orient="auto"
       inkscape:stockid="Arrow2Lend"
       inkscape:isstock="true">
      <path
         transform="matrix(-1.1,0,0,-1.1,-1.1,0)"
         d="M 8.7185878,4.0337352 -2.2072895,0.01601326 8.7185884,-4.0017078 c -1.7454984,2.3720609 -1.7354408,5.6174519 -6e-7,8.035443 z"
         style="fill:context-stroke;fill-rule:evenodd;stroke:context-stroke;stroke-width:0.625;stroke-linejoin:round"
         id="path880" />
    </marker>
    <marker
       style="overflow:visible"
       id="Arrow2Lstart"
       refX="0"
       refY="0"
       orient="auto"
       inkscape:stockid="Arrow2Lstart"
       inkscape:isstock="true">
      <path
         transform="matrix(1.1,0,0,1.1,1.1,0)"
         d="M 8.7185878,4.0337352 -2.2072895,0.01601326 8.7185884,-4.0017078 c -1.7454984,2.3720609 -1.7354408,5.6174519 -6e-7,8.035443 z"
         style="fill:context-stroke;fill-rule:evenodd;stroke:context-stroke;stroke-width:0.625;stroke-linejoin:round"
         id="path877" />
    </marker>
    <marker
       style="overflow:visible"
       id="Arrow2Lend-7"
       refX="0"
       refY="0"
       orient="auto"
       inkscape:stockid="Arrow2Lend"
       inkscape:isstock="true"
       viewBox="0 0 12.705841 9.5264135"
       markerWidth="12.705841"
       markerHeight="9.5264139"
       preserveAspectRatio="xMidYMid">
      <path
         transform="matrix(-1.1,0,0,-1.1,-1.1,0)"
         d="M 8.7185878,4.0337352 -2.2072895,0.01601326 8.7185884,-4.0017078 c -1.7454984,2.3720609 -1.7354408,5.6174519 -6e-7,8.035443 z"
         style="fill:context-stroke;fill-rule:evenodd;stroke:context-stroke;stroke-width:0.625;stroke-linejoin:round"
         id="path880-4" />
    </marker>
    <marker
       style="overflow:visible"
       id="marker2107"
       refX="0"
       refY="0"
       orient="auto"
       inkscape:stockid="Arrow2Lend"
       inkscape:isstock="true"
       viewBox="0 0 12.705841 9.5264135"
       markerWidth="12.705841"
       markerHeight="9.5264139"
       preserveAspectRatio="xMidYMid">
      <path
         transform="matrix(-1.1,0,0,-1.1,-1.1,0)"
         d="M 8.7185878,4.0337352 -2.2072895,0.01601326 8.7185884,-4.0017078 c -1.7454984,2.3720609 -1.7354408,5.6174519 -6e-7,8.035443 z"
         style="fill:context-stroke;fill-rule:evenodd;stroke:context-stroke;stroke-width:0.625;stroke-linejoin:round"
         id="path2105" />
    </marker>
  </defs>
  <g
     inkscape:label="Layer 1"
     inkscape:groupmode="layer"
     id="layer1"
     transform="translate(-60.708552,-107.68096)">
    <path
       id="path592-1"
       style="fill:#37abc8;stroke:none;stroke-width:0.265112;stroke-linejoin:round;stroke-miterlimit:4.1"
       d="m 140.19164,191.14415 c -1.6835,-0.2545 -3.1938,-0.509 -4.6191,-0.7635 -1.4253,-0.2545 -2.759,-0.509 -4.0316,-0.7635 -1.2726,-0.2546 -2.4827,-0.5091 -3.6458,-0.7636 -1.1632,-0.2545 -2.2787,-0.509 -3.356,-0.7635 -1.0772,-0.2545 -2.1159,-0.509 -3.1224,-0.7635 -1.0064,-0.2546 -1.9802,-0.5091 -2.9261,-0.7636 -0.9458,-0.2545 -1.8634,-0.509 -2.7562,-0.7635 -0.8928,-0.2545 -1.7606,-0.509 -2.6061,-0.7635 -0.8455,-0.2546 -1.6685,-0.5091 -2.4712,-0.7636 -0.8027,-0.2545 -1.5849,-0.509 -2.3485,-0.7635 -0.7635,-0.2545 -1.5082,-0.509 -2.2356,-0.7635 -0.7274,-0.2545 -1.4374,-0.5091 -2.1312,-0.7636 -0.6937,-0.2545 -1.3712,-0.509 -2.0335,-0.7635 -0.6622,-0.2545 -1.3092,-0.509 -1.941804,-0.7635 -0.6325,-0.2545 -1.2507,-0.5091 -1.8551,-0.7636 -0.6045,-0.2545 -1.1953,-0.509 -1.7731,-0.7635 -0.5777,-0.2545 -1.1424,-0.509 -1.6947,-0.7635 -0.5523,-0.2545 -1.0921,-0.5091 -1.6199,-0.7636 -0.5279,-0.2545 -1.0438,-0.509 -1.5482,-0.7635 -0.5044,-0.2545 -0.9973,-0.509 -1.4791,-0.7635 -0.4818,-0.2545 -0.9525,-0.5091 -1.4125,-0.7636 -0.46,-0.2545 -0.9093,-0.509 -1.3481,-0.7635 -0.4389,-0.2545 -0.8674,-0.509 -1.2858,-0.7635 -0.4183,-0.2545 -0.8266,-0.5091 -1.2251,-0.7636 -0.3984,-0.2545 -0.7871,-0.509 -1.1661,-0.7635 -0.3791,-0.2545 -0.7486,-0.509 -1.1087,-0.7635 -0.3602,-0.2545 -0.711,-0.5091 -1.0526,-0.7636 -0.3417,-0.2545 -0.6742,-0.509 -0.9977,-0.7635 -0.3236,-0.2545 -0.6382,-0.509 -0.944,-0.7635 -0.3059,-0.2545 -0.6029,-0.5091 -0.8913,-0.7636 -0.2885,-0.2545 -0.5683,-0.509 -0.8396,-0.7635 -0.2713,-0.2545 -0.5342,-0.509 -0.7887,-0.7635 -0.2545,-0.2545 -0.5007,-0.509 -0.7386,-0.7636 -0.238,-0.2545 -0.4677,-0.509 -0.6893,-0.7635 -0.2216,-0.2545 -0.4351,-0.509 -0.6406,-0.7635 -0.2054,-0.2545 -0.4029,-0.509 -0.5924,-0.7636 -0.1896,-0.2545 -0.3712,-0.509 -0.545,-0.7635 -0.1738,-0.2545 -0.3397,-0.509 -0.4979,-0.7635 -0.1582,-0.2545 -0.3086,-0.509 -0.4513,-0.7636 -0.1427,-0.2545 -0.2777,-0.509 -0.4051,-0.7635 -0.1273,-0.2545 -0.247,-0.509 -0.3592,-0.7635 -0.1121,-0.2545 -0.2166,-0.509 -0.3136,-0.7636 -0.097,-0.2545 -0.1865,-0.509 -0.2684,-0.7635 -0.0819,-0.2545 -0.1564,-0.509 -0.2233,-0.7635 -0.067,-0.2545 -0.1264,-0.509 -0.1784,-0.7636 -0.052,-0.2545 -0.0966,-0.5087 -0.1337,-0.7637 -0.0371,-0.254 -0.0668,-0.509 -0.0891,-0.763 -0.0222,-0.255 -0.0371,-0.509 -0.0445,-0.764 -0.0074,-0.254 -0.0074,-0.509 0,-0.763 0.0074,-0.255 0.0223,-0.509 0.0445,-0.764 0.0223,-0.254 0.052,-0.509 0.0891,-0.763 0.0371,-0.255 0.0817,-0.509 0.1337,-0.764 0.052,-0.254 0.1115,-0.509 0.1784,-0.764 0.0669,-0.254 0.1414,-0.509 0.2233,-0.763 0.0819,-0.255 0.1714,-0.509 0.2684,-0.764 0.0969,-0.254 0.2015,-0.509 0.3136,-0.763 0.1121,-0.255 0.2319,-0.509 0.3592,-0.764 0.1274,-0.254 0.2624,-0.509 0.4051,-0.763 0.1427,-0.255 0.2931,-0.509 0.4513,-0.764 0.1582,-0.254 0.3241,-0.509 0.4979,-0.763 0.1738,-0.255 0.3554,-0.509 0.545,-0.764 0.1895,-0.254 0.387,-0.509 0.5924,-0.763 0.2055,-0.255 0.419,-0.509 0.6406,-0.764 0.2216,-0.254 0.4514,-0.509 0.6893,-0.763 0.2379,-0.255 0.4841,-0.509 0.7386,-0.764 0.2545,-0.254 0.5174,-0.509 0.7887,-0.763 0.2713,-0.255 0.5512,-0.509 0.8396,-0.764 0.2884,-0.254 0.5855,-0.509 0.8913,-0.764 0.3058,-0.254 0.6204,-0.509 0.944,-0.763 0.3235,-0.255 0.656,-0.509 0.9977,-0.764 0.3416,-0.254 0.6924,-0.509 1.0526,-0.763 0.3601,-0.255 0.7296,-0.509 1.1087,-0.764 0.379,-0.254 0.7677,-0.509 1.1661,-0.763 0.3985,-0.255 0.8068,-0.509 1.2251,-0.764 0.4184,-0.254 0.8469,-0.509 1.2858,-0.763 0.4388,-0.255 0.8881,-0.509 1.3481,-0.764 0.46,-0.254 0.9307,-0.509 1.4125,-0.763 0.4818,-0.255 0.9747,-0.509 1.4791,-0.764 0.5044,-0.254 1.0203,-0.509 1.5482,-0.763 0.5278,-0.255 1.0676,-0.509 1.6199,-0.764 0.5522,-0.254 1.117,-0.509 1.6947,-0.763 0.5778,-0.255 1.1686,-0.509 1.7731,-0.764 0.6044,-0.254 1.2226,-0.509 1.8551,-0.763 0.632604,-0.255 1.279604,-0.51 1.941804,-0.764 0.6623,-0.255 1.3398,-0.509 2.0335,-0.764 0.6938,-0.254 1.4038,-0.509 2.1312,-0.763 0.7273,-0.255 1.4721,-0.509 2.2356,-0.764 0.7635,-0.254 1.5459,-0.509 2.3485,-0.763 0.8027,-0.255 1.6258,-0.509 2.4712,-0.764 0.8455,-0.254 1.7134,-0.509 2.6061,-0.763 0.8927,-0.255 1.8105,-0.509 2.7562,-0.764 0.9458,-0.254 1.9198,-0.509 2.9261,-0.763 1.0064,-0.255 2.0452,-0.509 3.1224,-0.764 1.0773,-0.254 2.1929,-0.509 3.356,-0.763 1.163,-0.255 2.3733,-0.509 3.6458,-0.764 1.2725,-0.254 2.6065,-0.509 4.0316,-0.763 1.4251,-0.255 2.936,-0.509 4.6191,-0.764 1.683,-0.254 1.688,-0.509 6.1575,-0.76324 v 75.58952 c -4.4695,-0.25458 -4.4735,-0.50908 -6.1575,-0.76358 z"
       sodipodi:nodetypes="cscsscsscssssssccscssscccccccccsscsccssccccscsccssccccccccccccccccccccccccccccccccccccccccccccccccccc" />
    <path
       style="fill:#37abc8;stroke:#000000;stroke-width:0.265112;stroke-linejoin:round;stroke-miterlimit:4.1;marker-end:url(#Arrow2Lend-7)"
       d="m 70.764541,191.9037 79.876239,2.8e-4"
       id="path745" />
    <path
       style="fill:#37abc8;stroke:#000000;stroke-width:0.265112;stroke-linejoin:round;stroke-miterlimit:4.1;marker-end:url(#Arrow2Lend-7)"
       d="M 70.764541,191.9037 V 112.026"
       id="path747" />
    <path
       style="fill:none;stroke:#000000;stroke-width:0.265112;stroke-linejoin:round;stroke-miterlimit:4.1"
       d="m 146.47416,191.90794 c -4.469,-0.2546 -4.473,-0.5091 -6.157,-0.7636 -1.6835,-0.2545 -3.1938,-0.509 -4.6191,-0.7635 -1.4253,-0.2545 -2.759,-0.509 -4.0316,-0.7635 -1.2726,-0.2546 -2.4827,-0.5091 -3.6458,-0.7636 -1.1632,-0.2545 -2.2787,-0.509 -3.356,-0.7635 -1.0772,-0.2545 -2.1159,-0.509 -3.1224,-0.7635 -1.0064,-0.2546 -1.9802,-0.5091 -2.9261,-0.7636 -0.9458,-0.2545 -1.8634,-0.509 -2.7562,-0.7635 -0.8928,-0.2545 -1.7606,-0.509 -2.6061,-0.7635 -0.8455,-0.2546 -1.6685,-0.5091 -2.4712,-0.7636 -0.8027,-0.2545 -1.5849,-0.509 -2.3485,-0.7635 -0.7635,-0.2545 -1.5082,-0.509 -2.2356,-0.7635 -0.7274,-0.2545 -1.4374,-0.5091 -2.1312,-0.7636 -0.6937,-0.2545 -1.3712,-0.509 -2.0335,-0.7635 -0.6622,-0.2545 -1.3092,-0.509 -1.9418,-0.7635 -0.6325,-0.2545 -1.2507,-0.5091 -1.8551,-0.7636 -0.6045,-0.2545 -1.1953,-0.509 -1.7731,-0.7635 -0.5777,-0.2545 -1.1424,-0.509 -1.6947,-0.7635 -0.5523,-0.2545 -1.0921,-0.5091 -1.6199,-0.7636 -0.5279,-0.2545 -1.0438,-0.509 -1.5482,-0.7635 -0.5044,-0.2545 -0.9973,-0.509 -1.4791,-0.7635 -0.4818,-0.2545 -0.952497,-0.5091 -1.412497,-0.7636 -0.46,-0.2545 -0.9093,-0.509 -1.3481,-0.7635 -0.4389,-0.2545 -0.8674,-0.509 -1.2858,-0.7635 -0.4183,-0.2545 -0.8266,-0.5091 -1.2251,-0.7636 -0.3984,-0.2545 -0.7871,-0.509 -1.1661,-0.7635 -0.3791,-0.2545 -0.7486,-0.509 -1.1087,-0.7635 -0.3602,-0.2545 -0.711,-0.5091 -1.0526,-0.7636 -0.3417,-0.2545 -0.6742,-0.509 -0.9977,-0.7635 -0.3236,-0.2545 -0.6382,-0.509 -0.944,-0.7635 -0.3059,-0.2545 -0.6029,-0.5091 -0.8913,-0.7636 -0.2885,-0.2545 -0.5683,-0.509 -0.8396,-0.7635 -0.2713,-0.2545 -0.5342,-0.509 -0.7887,-0.7635 -0.2545,-0.2545 -0.5007,-0.509 -0.7386,-0.7636 -0.238,-0.2545 -0.4677,-0.509 -0.6893,-0.7635 -0.2216,-0.2545 -0.4351,-0.509 -0.6406,-0.7635 -0.2054,-0.2545 -0.4029,-0.509 -0.5924,-0.7636 -0.1896,-0.2545 -0.3712,-0.509 -0.545,-0.7635 -0.1738,-0.2545 -0.3397,-0.509 -0.4979,-0.7635 -0.1582,-0.2545 -0.3086,-0.509 -0.4513,-0.7636 -0.1427,-0.2545 -0.2777,-0.509 -0.4051,-0.7635 -0.1273,-0.2545 -0.247,-0.509 -0.3592,-0.7635 -0.1121,-0.2545 -0.2166,-0.509 -0.3136,-0.7636 -0.097,-0.2545 -0.1865,-0.509 -0.2684,-0.7635 -0.0819,-0.2545 -0.1564,-0.509 -0.2233,-0.7635 -0.067,-0.2545 -0.1264,-0.509 -0.1784,-0.7636 -0.052,-0.2545 -0.0966,-0.5087 -0.1337,-0.7637 -0.0371,-0.254 -0.0668,-0.509 -0.0891,-0.763 -0.0222,-0.255 -0.0371,-0.509 -0.0445,-0.764 -0.0074,-0.254 -0.0074,-0.509 0,-0.763 0.0074,-0.255 0.0223,-0.509 0.0445,-0.764 0.0223,-0.254 0.052,-0.509 0.0891,-0.763 0.0371,-0.255 0.0817,-0.509 0.1337,-0.764 0.052,-0.254 0.1115,-0.509 0.1784,-0.764 0.0669,-0.254 0.1414,-0.509 0.2233,-0.763 0.0819,-0.255 0.1714,-0.509 0.2684,-0.764 0.0969,-0.254 0.2015,-0.509 0.3136,-0.763 0.1121,-0.255 0.2319,-0.509 0.3592,-0.764 0.1274,-0.254 0.2624,-0.509 0.4051,-0.763 0.1427,-0.255 0.2931,-0.509 0.4513,-0.764 0.1582,-0.254 0.3241,-0.509 0.4979,-0.763 0.1738,-0.255 0.3554,-0.509 0.545,-0.764 0.1895,-0.254 0.387,-0.509 0.5924,-0.763 0.2055,-0.255 0.419,-0.509 0.6406,-0.764 0.2216,-0.254 0.4514,-0.509 0.6893,-0.763 0.2379,-0.255 0.4841,-0.509 0.7386,-0.764 0.2545,-0.254 0.5174,-0.509 0.7887,-0.763 0.2713,-0.255 0.5512,-0.509 0.8396,-0.764 0.2884,-0.254 0.5855,-0.509 0.8913,-0.764 0.3058,-0.254 0.6204,-0.509 0.944,-0.763 0.3235,-0.255 0.656,-0.509 0.9977,-0.764 0.3416,-0.254 0.6924,-0.509 1.0526,-0.763 0.3601,-0.255 0.7296,-0.509 1.1087,-0.764 0.379,-0.254 0.7677,-0.509 1.1661,-0.763 0.3985,-0.255 0.8068,-0.509 1.2251,-0.764 0.4184,-0.254 0.8469,-0.509 1.2858,-0.763 0.4388,-0.255 0.8881,-0.509 1.3481,-0.764 0.46,-0.254 0.930697,-0.509 1.412497,-0.763 0.4818,-0.255 0.9747,-0.509 1.4791,-0.764 0.5044,-0.254 1.0203,-0.509 1.5482,-0.763 0.5278,-0.255 1.0676,-0.509 1.6199,-0.764 0.5522,-0.254 1.117,-0.509 1.6947,-0.763 0.5778,-0.255 1.1686,-0.509 1.7731,-0.764 0.6044,-0.254 1.2226,-0.509 1.8551,-0.763 0.6326,-0.255 1.2796,-0.51 1.9418,-0.764 0.6623,-0.255 1.3398,-0.509 2.0335,-0.764 0.6938,-0.254 1.4038,-0.509 2.1312,-0.763 0.7273,-0.255 1.4721,-0.509 2.2356,-0.764 0.7635,-0.254 1.5459,-0.509 2.3485,-0.763 0.8027,-0.255 1.6258,-0.509 2.4712,-0.764 0.8455,-0.254 1.7134,-0.509 2.6061,-0.763 0.8927,-0.255 1.8105,-0.509 2.7562,-0.764 0.9458,-0.254 1.9198,-0.509 2.9261,-0.763 1.0064,-0.255 2.0452,-0.509 3.1224,-0.764 1.0773,-0.254 2.1929,-0.509 3.356,-0.763 1.163,-0.255 2.3733,-0.509 3.6458,-0.764 1.2725,-0.254 2.6065,-0.509 4.0316,-0.763 1.4251,-0.255 2.936,-0.509 4.6191,-0.764 1.683,-0.254 1.688,-0.509 6.157,-0.763"
       title="-x*log(x)/log(2) - (1-x)*log(1-x)/log(2)"
       id="path517" />
    <text
       xml:space="preserve"
       style="font-size:2.82223px;font-family:Roboto;-inkscape-font-specification:Roboto;text-align:end;text-anchor:end;fill:#000000;stroke:none;stroke-width:0.265112;stroke-linejoin:round;stroke-miterlimit:4.1"
       x="95.058769"
       y="127.941"
       id="text2289"><tspan
         sodipodi:role="line"
         id="tspan2287"
         style="text-align:end;text-anchor:end;fill:#000000;stroke-width:0.265112"
         x="95.058769"
         y="127.941">$R(D)$</tspan></text>
    <text
       xml:space="preserve"
       style="font-size:2.82223px;font-family:Roboto;-inkscape-font-specification:Roboto;text-align:center;text-anchor:middle;fill:#000000;stroke:none;stroke-width:0.265112;stroke-linejoin:round;stroke-miterlimit:4.1"
       x="70.763847"
       y="110.0126"
       id="text2345"><tspan
         sodipodi:role="line"
         id="tspan2343"
         style="text-align:center;text-anchor:middle;stroke-width:0.265112"
         x="70.763847"
         y="110.0126">$D$</tspan></text>
    <path
       style="fill:#000000;stroke:#000000;stroke-width:0.265112;stroke-linejoin:round;stroke-miterlimit:4.1;stroke-dasharray:0.265112, 0.530224;stroke-dashoffset:0"
       d="M 146.34914,116.31821 H 70.764539"
       id="path2347" />
    <text
       xml:space="preserve"
       style="font-size:2.82223px;font-family:Roboto;-inkscape-font-specification:Roboto;text-align:end;text-anchor:end;fill:#000000;stroke:none;stroke-width:0.265112;stroke-linejoin:round;stroke-miterlimit:4.1"
       x="68.059029"
       y="117.47038"
       id="text2351"><tspan
         sodipodi:role="line"
         id="tspan2349"
         style="stroke:none;stroke-width:0.265112"
         x="68.059029"
         y="117.47038">$1$</tspan></text>
    <text
       xml:space="preserve"
       style="font-size:2.82223px;font-family:Roboto;-inkscape-font-specification:Roboto;text-align:end;text-anchor:end;fill:#000000;stroke:none;stroke-width:0.265112;stroke-linejoin:round;stroke-miterlimit:4.1"
       x="68.059029"
       y="155.13548"
       id="text2355"><tspan
         sodipodi:role="line"
         id="tspan2353"
         style="stroke:none;stroke-width:0.265112"
         x="68.059029"
         y="155.13548">$1/2$</tspan></text>
    <text
       xml:space="preserve"
       style="font-size:2.82223px;font-family:Roboto;-inkscape-font-specification:Roboto;text-align:start;text-anchor:start;fill:#000000;stroke:none;stroke-width:0.265112;stroke-linejoin:round;stroke-miterlimit:4.1"
       x="152.2636"
       y="192.92648"
       id="text2415"><tspan
         sodipodi:role="line"
         id="tspan2413"
         style="text-align:start;text-anchor:start;stroke-width:0.265112"
         x="152.2636"
         y="192.92648">$R$</tspan></text>
    <text
       xml:space="preserve"
       style="font-size:2.82223px;font-family:Roboto;-inkscape-font-specification:Roboto;text-align:center;text-anchor:middle;fill:#000000;stroke:none;stroke-width:0.265112;stroke-linejoin:round;stroke-miterlimit:4.1"
       x="146.34845"
       y="196.59834"
       id="text2419"><tspan
         sodipodi:role="line"
         id="tspan2417"
         style="text-align:center;text-anchor:middle;stroke-width:0.265112"
         x="146.34845"
         y="196.59834">$1$</tspan></text>
    <text
       xml:space="preserve"
       style="font-size:2.82223px;font-family:Roboto;-inkscape-font-specification:Roboto;text-align:center;text-anchor:middle;fill:#000000;stroke:none;stroke-width:0.265112;stroke-linejoin:round;stroke-miterlimit:4.1;stroke-dasharray:0.265112, 0.530225;stroke-dashoffset:0"
       x="108.61679"
       y="154.95528"
       id="text2427"><tspan
         sodipodi:role="line"
         id="tspan2425"
         style="stroke-width:0.265112"
         x="108.61679"
         y="154.95528">$\left\{(R, D) \suchthat R \geq R(D)\right\}$</tspan></text>
  </g>
  <inkscape:templateinfo>
    <inkscape:name>Default Template</inkscape:name>
    <inkscape:author>Joachim Favre</inkscape:author>
    <inkscape:shortdesc>Arrow definitions, snapping (including perpendicular and tangential)</inkscape:shortdesc>
    <inkscape:date>2022-02-19</inkscape:date>
  </inkscape:templateinfo>
</svg>
