<?xml version="1.0" encoding="UTF-8" standalone="no"?>
<!-- Created with Inkscape (http://www.inkscape.org/) -->

<svg
   width="85.381401mm"
   height="64.889511mm"
   viewBox="0 0 85.381401 64.889511"
   version="1.1"
   id="svg5"
   inkscape:version="1.2.2 (732a01da63, 2022-12-09)"
   sodipodi:docname="RateDistortionExample2.svg"
   xml:space="preserve"
   xmlns:inkscape="http://www.inkscape.org/namespaces/inkscape"
   xmlns:sodipodi="http://sodipodi.sourceforge.net/DTD/sodipodi-0.dtd"
   xmlns="http://www.w3.org/2000/svg"
   xmlns:svg="http://www.w3.org/2000/svg"><sodipodi:namedview
     id="namedview7"
     pagecolor="#ffffff"
     bordercolor="#111111"
     borderopacity="1"
     inkscape:pageshadow="0"
     inkscape:pageopacity="0"
     inkscape:pagecheckerboard="1"
     inkscape:document-units="mm"
     showgrid="false"
     inkscape:snap-perpendicular="true"
     inkscape:snap-tangential="true"
     inkscape:snap-bbox="true"
     inkscape:bbox-paths="true"
     inkscape:bbox-nodes="true"
     inkscape:snap-bbox-edge-midpoints="true"
     inkscape:snap-bbox-midpoints="true"
     inkscape:object-paths="true"
     inkscape:snap-intersection-paths="true"
     inkscape:snap-object-midpoints="true"
     inkscape:snap-center="true"
     inkscape:showpageshadow="0"
     inkscape:deskcolor="#d1d1d1"
     inkscape:zoom="1.8761364"
     inkscape:cx="206.00848"
     inkscape:cy="280.09691"
     inkscape:window-width="2291"
     inkscape:window-height="1360"
     inkscape:window-x="0"
     inkscape:window-y="338"
     inkscape:window-maximized="0"
     inkscape:current-layer="layer1"
     showguides="true"><sodipodi:guide
       position="16.47094,60.151833"
       orientation="1,0"
       id="guide7668"
       inkscape:locked="false" /><sodipodi:guide
       position="53.646008,1.309143"
       orientation="0,-1"
       id="guide7670"
       inkscape:locked="false" /><sodipodi:guide
       position="16.47094,40.079873"
       orientation="0,-1"
       id="guide7740"
       inkscape:locked="false" /><sodipodi:guide
       position="78.056928,60.741863"
       orientation="0.70710678,-0.70710678"
       id="guide7750"
       inkscape:locked="false"
       inkscape:label=""
       inkscape:color="rgb(0,134,229)" /></sodipodi:namedview><defs
     id="defs2"><marker
       style="overflow:visible"
       id="Arrow2Lend"
       refX="0"
       refY="0"
       orient="auto"
       inkscape:stockid="Arrow2Lend"
       inkscape:isstock="true"
       viewBox="0 0 12.705841 9.5264135"
       markerWidth="12.705841"
       markerHeight="9.5264139"
       preserveAspectRatio="xMidYMid"><path
         transform="matrix(-1.1,0,0,-1.1,-1.1,0)"
         d="M 8.7185878,4.0337352 -2.2072895,0.01601326 8.7185884,-4.0017078 c -1.7454984,2.3720609 -1.7354408,5.6174519 -6e-7,8.035443 z"
         style="fill:context-stroke;fill-rule:evenodd;stroke:context-stroke;stroke-width:0.625;stroke-linejoin:round"
         id="path880" /></marker><marker
       style="overflow:visible"
       id="Arrow2Lstart"
       refX="0"
       refY="0"
       orient="auto"
       inkscape:stockid="Arrow2Lstart"
       inkscape:isstock="true"><path
         transform="matrix(1.1,0,0,1.1,1.1,0)"
         d="M 8.7185878,4.0337352 -2.2072895,0.01601326 8.7185884,-4.0017078 c -1.7454984,2.3720609 -1.7354408,5.6174519 -6e-7,8.035443 z"
         style="fill:context-stroke;fill-rule:evenodd;stroke:context-stroke;stroke-width:0.625;stroke-linejoin:round"
         id="path877" /></marker></defs><g
     inkscape:label="Layer 1"
     inkscape:groupmode="layer"
     id="layer1"
     transform="translate(-61.829962,-29.279652)"><path
       style="fill:#37abc8;stroke:none;stroke-width:0.265112;stroke-linejoin:round;stroke-miterlimit:4.1;stroke-dasharray:none"
       d="m 139.9987,91.872793 c -1.263,-0.196776 -2.4375,-0.393552 -3.5441,-0.590329 -1.1067,-0.196776 -2.145,-0.393552 -3.1297,-0.590328 -0.9846,-0.196777 -1.9151,-0.393651 -2.802,-0.590427 -0.8869,-0.196777 -1.7298,-0.393553 -2.5366,-0.590329 -0.8067,-0.196776 -1.5771,-0.393553 -2.317,-0.590329 -0.74,-0.196874 -1.4493,-0.393651 -2.1326,-0.590427 -0.6833,-0.196776 -1.3405,-0.393552 -1.9752,-0.590329 -0.6348,-0.196776 -1.247,-0.393552 -1.8396,-0.590427 -0.5927,-0.196776 -1.1656,-0.393552 -1.7214,-0.590328 -0.5558,-0.196777 -1.0942,-0.393553 -1.6174,-0.590329 -0.5232,-0.196776 -1.0311,-0.393553 -1.5254,-0.590427 -0.4942,-0.196776 -0.9748,-0.393553 -1.4431,-0.590329 -0.4684,-0.196776 -0.9244,-0.393552 -1.3694,-0.590329 -0.445,-0.196776 -0.8789,-0.39365 -1.3028,-0.590427 -0.4239,-0.196776 -0.8377,-0.393552 -1.2424,-0.590328 -0.4047,-0.196777 -0.8002,-0.393553 -1.1873,-0.590329 -0.3871,-0.196776 -0.7659,-0.393651 -1.1369,-0.590427 -0.3711,-0.196776 -0.7344,-0.393553 -1.0907,-0.590329 -0.3562,-0.196776 -0.7054,-0.393552 -1.0479,-0.590329 -0.3426,-0.196874 -0.6786,-0.39365 -1.0086,-0.590427 -0.3299,-0.196776 -0.6537,-0.393552 -0.9719,-0.590328 -0.3182,-0.196777 -0.6307,-0.393553 -0.9379,-0.590427 -0.3073,-0.196777 -0.6092,-0.393553 -0.9062,-0.590329 -0.2971,-0.196776 -0.5891,-0.393553 -0.8766,-0.590329 -0.2875,-0.196776 -0.570296,-0.393552 -0.848796,-0.590427 -0.2785,-0.196776 -0.5526,-0.393552 -0.8227,-0.590329 -0.2701,-0.196776 -0.5361,-0.393552 -0.7982,-0.590328 -0.2622,-0.196777 -0.5204,-0.393651 -0.7751,-0.590427 -0.2547,-0.196777 -0.5057,-0.393553 -0.7533,-0.590329 -0.2477,-0.196776 -0.4918,-0.393553 -0.7328,-0.590329 -0.2409,-0.196776 -0.4786,-0.393651 -0.7132,-0.590427 -0.2346,-0.196776 -0.4661,-0.393552 -0.6947,-0.590329 -0.2286,-0.196776 -0.4543,-0.393552 -0.6772,-0.590328 -0.2229,-0.196875 -0.443,-0.393651 -0.6604,-0.590427 -0.2175,-0.196777 -0.4323,-0.39365 -0.6446,-0.590328 -0.2123,-0.196678 -0.4221,-0.393356 -0.6295,-0.590034 -0.2073,-0.196678 -0.4123,-0.394339 -0.615,-0.591017 -0.2026,-0.196678 -0.403,-0.393356 -0.6012,-0.590034 -0.1981,-0.196678 -0.3941,-0.393355 -0.588,-0.590033 -0.1938,-0.196678 -0.3856,-0.394339 -0.5753,-0.591017 -0.1898,-0.196678 -0.3775,-0.393356 -0.5633,-0.590034 -0.1858,-0.196678 -0.3697,-0.393356 -0.5517,-0.590034 -0.182,-0.196678 -0.3622,-0.394339 -0.5406,-0.591017 -0.1783,-0.196678 -0.3549,-0.393356 -0.5298,-0.590034 -0.1749,-0.196677 -0.3481,-0.393355 -0.5196,-0.590033 -0.1715,-0.196678 -0.3414,-0.394339 -0.5097,-0.591017 -0.1683,-0.196678 -0.335,-0.393356 -0.5002,-0.590034 -0.1652,-0.196678 -0.3288,-0.393356 -0.491,-0.590034 -0.1622,-0.196678 -0.3229,-0.394339 -0.4822,-0.591017 -0.1593,-0.196678 -0.3172,-0.393356 -0.4737,-0.590034 -0.1565,-0.196677 -0.3116,-0.393355 -0.4654,-0.590033 -0.1538,-0.196678 -0.3063,-0.394339 -0.4575,-0.591017 -0.1512,-0.196678 -0.3011,-0.393356 -0.4498,-0.590034 -0.1487,-0.196678 -0.2961,-0.393356 -0.4424,-0.590034 -0.1462,-0.197661 -0.2913,-0.394339 -0.4352,-0.591017 -0.1439,-0.196678 -0.2866,-0.393356 -0.4282,-0.590034 -0.1416,-0.196677 -0.2821,-0.393355 -0.4215,-0.590033 -0.1394,-0.197662 -0.2777,-0.394339 -0.415,-0.591017 -0.1372,-0.196678 -0.2734,-0.393356 -0.4086,-0.590034 -0.1352,-0.196678 -0.2694,-0.393356 -0.4025,-0.590034 -0.1332,-0.197661 -0.2654,-0.394339 -0.3966,-0.591017 -0.1312,-0.196678 -0.2614,-0.393356 -0.3908,-0.590034 -0.1293,-0.196677 -0.2576,-0.393355 -0.3851,-0.590033 -0.1275,-0.197662 -0.2447,-0.394339 -0.2447,-0.591017 0,-0.196678 0,-0.393356 0,-0.590034 0,-0.196678 0,-0.393356 0,-0.590034 0,-0.197661 0,-0.394339 0,-0.591017 0,-0.196678 0,-0.393356 0,-0.590033 0,-0.196678 0,-0.393356 0,-0.590034 0,-0.197661 0,-0.394339 0,-0.591017 0,-0.196678 0,-0.393356 0,-0.590034 0,-0.196678 0,-0.393356 0,-0.590034 0,-0.197661 0,-0.394339 0,-0.591017 0,-0.196678 0,-0.393356 0,-0.590033 0,-0.196678 0,-0.393356 0,-0.590034 0,-0.197661 0,-0.394339 0,-0.591017 0,-0.196678 0,-0.393356 0,-0.590034 0,-0.196678 0,-0.393356 0,-0.590034 0,-0.197661 0,-0.394339 0,-0.591017 0,-0.196678 0,-0.393356 0,-0.590033 0,-0.196678 0,-0.393356 0,-0.590034 0,-0.197661 0,-0.394339 0,-0.591017 0,-0.196678 0,-0.393356 0,-0.590034 0,-0.196678 0,-0.393356 0,-0.590034 0,-0.197661 0,-0.394339 0,-0.591017 0,-0.196678 0,-0.393356 0,-0.590033 0,-0.196678 0,-0.393356 0,-0.590034 0,-0.197661 0,-0.394339 0,-0.591017 0,-0.196678 0,-0.393356 0,-0.590034 0,-0.196678 0,-0.393356 0,-0.590034 0,-0.197661 0,-0.394339 0,-0.591017 0,-0.196678 0,-0.393356 0,-0.590033 0,-0.196678 0,-0.393356 0,-0.590034 0,-0.197661 0,-0.394339 0,-0.591017 0,-0.196678 0,-0.393356 0,-0.590034 0,-0.196678 0,-0.393356 0,-0.590034 0,-0.197661 0,-0.394339 0,-0.591017 0,-0.196678 0,-0.393355 0,-0.590033 0,-0.196678 0,-0.393356 0,-0.590034 h 61.585986 z"
       title="max(0.5 * log(1/x)/log(2), 0)"
       id="path4583" /><path
       style="fill:none;stroke:#000000;stroke-width:0.265112;stroke-linejoin:round;stroke-miterlimit:4.1;stroke-dasharray:none"
       d="m 139.9987,91.872793 c -1.263,-0.196776 -2.4375,-0.393552 -3.5441,-0.590329 -1.1067,-0.196776 -2.145,-0.393552 -3.1297,-0.590328 -0.9846,-0.196777 -1.9151,-0.393651 -2.802,-0.590427 -0.8869,-0.196777 -1.7298,-0.393553 -2.5366,-0.590329 -0.8067,-0.196776 -1.5771,-0.393553 -2.317,-0.590329 -0.74,-0.196874 -1.4493,-0.393651 -2.1326,-0.590427 -0.6833,-0.196776 -1.3405,-0.393552 -1.9752,-0.590329 -0.6348,-0.196776 -1.247,-0.393552 -1.8396,-0.590427 -0.5927,-0.196776 -1.1656,-0.393552 -1.7214,-0.590328 -0.5558,-0.196777 -1.0942,-0.393553 -1.6174,-0.590329 -0.5232,-0.196776 -1.0311,-0.393553 -1.5254,-0.590427 -0.4942,-0.196776 -0.9748,-0.393553 -1.4431,-0.590329 -0.4684,-0.196776 -0.9244,-0.393552 -1.3694,-0.590329 -0.445,-0.196776 -0.8789,-0.39365 -1.3028,-0.590427 -0.4239,-0.196776 -0.8377,-0.393552 -1.2424,-0.590328 -0.4047,-0.196777 -0.8002,-0.393553 -1.1873,-0.590329 -0.3871,-0.196776 -0.7659,-0.393651 -1.1369,-0.590427 -0.3711,-0.196776 -0.7344,-0.393553 -1.0907,-0.590329 -0.3562,-0.196776 -0.7054,-0.393552 -1.0479,-0.590329 -0.3426,-0.196874 -0.6786,-0.39365 -1.0086,-0.590427 -0.3299,-0.196776 -0.6537,-0.393552 -0.9719,-0.590328 -0.3182,-0.196777 -0.6307,-0.393553 -0.9379,-0.590427 -0.3073,-0.196777 -0.6092,-0.393553 -0.9062,-0.590329 -0.2971,-0.196776 -0.5891,-0.393553 -0.8766,-0.590329 -0.2875,-0.196776 -0.570296,-0.393552 -0.848796,-0.590427 -0.2785,-0.196776 -0.5526,-0.393552 -0.8227,-0.590329 -0.2701,-0.196776 -0.5361,-0.393552 -0.7982,-0.590328 -0.2622,-0.196777 -0.5204,-0.393651 -0.7751,-0.590427 -0.2547,-0.196777 -0.5057,-0.393553 -0.7533,-0.590329 -0.2477,-0.196776 -0.4918,-0.393553 -0.7328,-0.590329 -0.2409,-0.196776 -0.4786,-0.393651 -0.7132,-0.590427 -0.2346,-0.196776 -0.4661,-0.393552 -0.6947,-0.590329 -0.2286,-0.196776 -0.4543,-0.393552 -0.6772,-0.590328 -0.2229,-0.196875 -0.443,-0.393651 -0.6604,-0.590427 -0.2175,-0.196777 -0.4323,-0.39365 -0.6446,-0.590328 -0.2123,-0.196678 -0.4221,-0.393356 -0.6295,-0.590034 -0.2073,-0.196678 -0.4123,-0.394339 -0.615,-0.591017 -0.2026,-0.196678 -0.403,-0.393356 -0.6012,-0.590034 -0.1981,-0.196678 -0.3941,-0.393355 -0.588,-0.590033 -0.1938,-0.196678 -0.3856,-0.394339 -0.5753,-0.591017 -0.1898,-0.196678 -0.3775,-0.393356 -0.5633,-0.590034 -0.1858,-0.196678 -0.3697,-0.393356 -0.5517,-0.590034 -0.182,-0.196678 -0.3622,-0.394339 -0.5406,-0.591017 -0.1783,-0.196678 -0.3549,-0.393356 -0.5298,-0.590034 -0.1749,-0.196677 -0.3481,-0.393355 -0.5196,-0.590033 -0.1715,-0.196678 -0.3414,-0.394339 -0.5097,-0.591017 -0.1683,-0.196678 -0.335,-0.393356 -0.5002,-0.590034 -0.1652,-0.196678 -0.3288,-0.393356 -0.491,-0.590034 -0.1622,-0.196678 -0.3229,-0.394339 -0.4822,-0.591017 -0.1593,-0.196678 -0.3172,-0.393356 -0.4737,-0.590034 -0.1565,-0.196677 -0.3116,-0.393355 -0.4654,-0.590033 -0.1538,-0.196678 -0.3063,-0.394339 -0.4575,-0.591017 -0.1512,-0.196678 -0.3011,-0.393356 -0.4498,-0.590034 -0.1487,-0.196678 -0.2961,-0.393356 -0.4424,-0.590034 -0.1462,-0.197661 -0.2913,-0.394339 -0.4352,-0.591017 -0.1439,-0.196678 -0.2866,-0.393356 -0.4282,-0.590034 -0.1416,-0.196677 -0.2821,-0.393355 -0.4215,-0.590033 -0.1394,-0.197662 -0.2777,-0.394339 -0.415,-0.591017 -0.1372,-0.196678 -0.2734,-0.393356 -0.4086,-0.590034 -0.1352,-0.196678 -0.2694,-0.393356 -0.4025,-0.590034 -0.1332,-0.197661 -0.2654,-0.394339 -0.3966,-0.591017 -0.1312,-0.196678 -0.2614,-0.393356 -0.3908,-0.590034 -0.1293,-0.196677 -0.2576,-0.393355 -0.3851,-0.590033 -0.1275,-0.197662 -0.2447,-0.394339 -0.2447,-0.591017 0,-0.196678 0,-0.393356 0,-0.590034 0,-0.196678 0,-0.393356 0,-0.590034 0,-0.197661 0,-0.394339 0,-0.591017 0,-0.196678 0,-0.393356 0,-0.590033 0,-0.196678 0,-0.393356 0,-0.590034 0,-0.197661 0,-0.394339 0,-0.591017 0,-0.196678 0,-0.393356 0,-0.590034 0,-0.196678 0,-0.393356 0,-0.590034 0,-0.197661 0,-0.394339 0,-0.591017 0,-0.196678 0,-0.393356 0,-0.590033 0,-0.196678 0,-0.393356 0,-0.590034 0,-0.197661 0,-0.394339 0,-0.591017 0,-0.196678 0,-0.393356 0,-0.590034 0,-0.196678 0,-0.393356 0,-0.590034 0,-0.197661 0,-0.394339 0,-0.591017 0,-0.196678 0,-0.393356 0,-0.590033 0,-0.196678 0,-0.393356 0,-0.590034 0,-0.197661 0,-0.394339 0,-0.591017 0,-0.196678 0,-0.393356 0,-0.590034 0,-0.196678 0,-0.393356 0,-0.590034 0,-0.197661 0,-0.394339 0,-0.591017 0,-0.196678 0,-0.393356 0,-0.590033 0,-0.196678 0,-0.393356 0,-0.590034 0,-0.197661 0,-0.394339 0,-0.591017 0,-0.196678 0,-0.393356 0,-0.590034 0,-0.196678 0,-0.393356 0,-0.590034 0,-0.197661 0,-0.394339 0,-0.591017 0,-0.196678 0,-0.393356 0,-0.590033 0,-0.196678 0,-0.393356 0,-0.590034 0,-0.197661 0,-0.394339 0,-0.591017 0,-0.196678 0,-0.393356 0,-0.590034 0,-0.196678 0,-0.393356 0,-0.590034 0,-0.197661 0,-0.394339 0,-0.591017 0,-0.196678 0,-0.393355 0,-0.590033 0,-0.196678 0,-0.393356 0,-0.590034"
       title="max(0.5 * log(1/x)/log(2), 0)"
       id="path3383" /><path
       style="fill:none;stroke:#000000;stroke-width:0.265112;stroke-linejoin:round;stroke-miterlimit:4.1;stroke-dasharray:none;marker-end:url(#Arrow2Lend)"
       d="M 78.300886,92.860023 H 139.88688"
       id="path4579" /><path
       style="fill:none;stroke:#000000;stroke-width:0.265112;stroke-linejoin:round;stroke-miterlimit:4.1;stroke-dasharray:none;marker-end:url(#Arrow2Lend)"
       d="M 78.300886,92.860023 V 33.426791"
       id="path4581" /><text
       xml:space="preserve"
       style="font-size:2.82223px;font-family:Roboto;-inkscape-font-specification:Roboto;text-align:center;text-anchor:middle;fill:#000000;stroke:none;stroke-width:0.265112;stroke-linejoin:round;stroke-miterlimit:4.1;stroke-dasharray:none"
       x="78.300209"
       y="31.6113"
       id="text4824"><tspan
         sodipodi:role="line"
         id="tspan4822"
         style="fill:#000000;stroke-width:0.265112"
         x="78.300209"
         y="31.6113">$D$</tspan></text><text
       xml:space="preserve"
       style="font-size:2.82223px;font-family:Roboto;-inkscape-font-specification:Roboto;text-align:start;text-anchor:start;fill:#000000;stroke:none;stroke-width:0.265112;stroke-linejoin:round;stroke-miterlimit:4.1;stroke-dasharray:none"
       x="142.45436"
       y="93.88253"
       id="text7730"><tspan
         sodipodi:role="line"
         id="tspan7728"
         style="text-align:start;text-anchor:start;fill:#000000;stroke-width:0.265112"
         x="142.45436"
         y="93.88253">$R$</tspan></text><text
       xml:space="preserve"
       style="font-size:2.82223px;font-family:Roboto;-inkscape-font-specification:Roboto;text-align:end;text-anchor:end;fill:#000000;stroke:none;stroke-width:0.265112;stroke-linejoin:round;stroke-miterlimit:4.1;stroke-dasharray:none"
       x="76.501976"
       y="54.96159"
       id="text7738"><tspan
         sodipodi:role="line"
         id="tspan7736"
         style="text-align:end;text-anchor:end;fill:#000000;stroke-width:0.265112"
         x="76.501976"
         y="54.96159">$\sigma^2$</tspan></text><text
       xml:space="preserve"
       style="font-size:2.82223px;font-family:Roboto;-inkscape-font-specification:Roboto;text-align:center;text-anchor:middle;fill:#000000;stroke:none;stroke-width:0.265112;stroke-linejoin:round;stroke-miterlimit:4.1;stroke-dasharray:none"
       x="112.62928"
       y="56.420937"
       id="text7748"><tspan
         sodipodi:role="line"
         id="tspan7746"
         style="text-align:center;text-anchor:middle;fill:#000000;stroke-width:0.265112"
         x="112.62928"
         y="56.420937">$\left\{(R, D) \suchthat R \geq R(D)\right\}$</tspan></text><text
       xml:space="preserve"
       style="font-size:2.82223px;font-family:Roboto;-inkscape-font-specification:Roboto;text-align:end;text-anchor:end;fill:#000000;stroke:none;stroke-width:0.265112;stroke-linejoin:round;stroke-miterlimit:4.1;stroke-dasharray:none"
       x="95.864586"
       y="79.777084"
       id="text9258"><tspan
         sodipodi:role="line"
         id="tspan9256"
         style="text-align:end;text-anchor:end;fill:#000000;stroke-width:0.265112"
         x="95.864586"
         y="79.777084">$R(D)$</tspan></text></g><inkscape:templateinfo><inkscape:name>Default Template</inkscape:name><inkscape:author>Joachim Favre</inkscape:author><inkscape:shortdesc>Arrow definitions, snapping (including perpendicular and tangential)</inkscape:shortdesc><inkscape:date>2022-02-19</inkscape:date></inkscape:templateinfo></svg>
