<?xml version="1.0" encoding="UTF-8" standalone="no"?>
<!-- Created with Inkscape (http://www.inkscape.org/) -->

<svg
   width="35.331326mm"
   height="28.273182mm"
   viewBox="0 0 35.331325 28.273182"
   version="1.1"
   id="svg5"
   inkscape:version="1.1.2 (b8e25be833, 2022-02-05)"
   sodipodi:docname="IntuitionDivRot.svg"
   xmlns:inkscape="http://www.inkscape.org/namespaces/inkscape"
   xmlns:sodipodi="http://sodipodi.sourceforge.net/DTD/sodipodi-0.dtd"
   xmlns="http://www.w3.org/2000/svg"
   xmlns:svg="http://www.w3.org/2000/svg">
  <sodipodi:namedview
     id="namedview7"
     pagecolor="#ffffff"
     bordercolor="#111111"
     borderopacity="1"
     inkscape:pageshadow="0"
     inkscape:pageopacity="0"
     inkscape:pagecheckerboard="1"
     inkscape:document-units="mm"
     showgrid="false"
     inkscape:snap-perpendicular="true"
     inkscape:snap-tangential="true"
     inkscape:snap-bbox="true"
     inkscape:bbox-paths="true"
     inkscape:bbox-nodes="true"
     inkscape:snap-bbox-edge-midpoints="true"
     inkscape:snap-bbox-midpoints="true"
     inkscape:object-paths="true"
     inkscape:snap-intersection-paths="true"
     inkscape:snap-object-midpoints="true"
     inkscape:snap-center="true"
     showguides="true"
     inkscape:guide-bbox="true"
     inkscape:snap-global="false"
     inkscape:zoom="5.3094838"
     inkscape:cx="40.116894"
     inkscape:cy="35.408339"
     inkscape:window-width="2479"
     inkscape:window-height="1417"
     inkscape:window-x="73"
     inkscape:window-y="-8"
     inkscape:window-maximized="1"
     inkscape:current-layer="layer1">
    <sodipodi:guide
       position="0.12938629,22.928028"
       orientation="1,0"
       id="guide1456" />
    <sodipodi:guide
       position="41.580465,28.131778"
       orientation="0,-1"
       id="guide2138" />
    <sodipodi:guide
       position="11.325317,23.192618"
       orientation="1,0"
       id="guide2501" />
  </sodipodi:namedview>
  <defs
     id="defs2">
    <marker
       style="overflow:visible"
       id="Arrow2Lend"
       refX="0"
       refY="0"
       orient="auto"
       inkscape:stockid="Arrow2Lend"
       inkscape:isstock="true">
      <path
         transform="matrix(-1.1,0,0,-1.1,-1.1,0)"
         d="M 8.7185878,4.0337352 -2.2072895,0.01601326 8.7185884,-4.0017078 c -1.7454984,2.3720609 -1.7354408,5.6174519 -6e-7,8.035443 z"
         style="fill:context-stroke;fill-rule:evenodd;stroke:context-stroke;stroke-width:0.625;stroke-linejoin:round"
         id="path880" />
    </marker>
    <marker
       style="overflow:visible"
       id="Arrow2Lstart"
       refX="0"
       refY="0"
       orient="auto"
       inkscape:stockid="Arrow2Lstart"
       inkscape:isstock="true">
      <path
         transform="matrix(1.1,0,0,1.1,1.1,0)"
         d="M 8.7185878,4.0337352 -2.2072895,0.01601326 8.7185884,-4.0017078 c -1.7454984,2.3720609 -1.7354408,5.6174519 -6e-7,8.035443 z"
         style="fill:context-stroke;fill-rule:evenodd;stroke:context-stroke;stroke-width:0.625;stroke-linejoin:round"
         id="path877" />
    </marker>
  </defs>
  <g
     inkscape:label="Layer 1"
     inkscape:groupmode="layer"
     id="layer1"
     transform="translate(-76.911218,-24.088478)">
    <path
       style="fill:none;stroke:#000000;stroke-width:0.264583px;stroke-linecap:round;stroke-linejoin:round;stroke-opacity:1"
       d="M 112.11025,24.232199 V 47.676122 L 99.567671,52.229368 V 28.785444 c 4.180859,-1.517748 8.361719,-3.035498 12.542579,-4.553245"
       id="path973"
       sodipodi:nodetypes="ccccc" />
    <path
       style="fill:none;stroke:#000000;stroke-width:0.264583px;stroke-linecap:round;stroke-linejoin:round;stroke-opacity:1"
       d="M 99.567671,28.778685 H 77.043509 l 10e-7,23.443924"
       id="path2021" />
    <path
       style="fill:none;stroke:#000000;stroke-width:0.264583px;stroke-linecap:round;stroke-linejoin:round;stroke-opacity:1"
       d="M 99.567671,52.229368 H 77.043509"
       id="path2023" />
    <path
       style="fill:none;stroke:#000000;stroke-width:0.264583px;stroke-linecap:round;stroke-linejoin:round;stroke-opacity:1"
       d="M 77.06747,28.690112 93.070736,24.220769 H 112.08127"
       id="path2140" />
    <g
       id="path2503"
       style="stroke-linecap:round;stroke-linejoin:round">
      <path
         style="color:#000000;fill:#000000;stroke-linecap:round;stroke-linejoin:round;-inkscape-stroke:none"
         d="m 88.240234,32.5625 c -4.346345,0 -7.873047,3.524749 -7.873047,7.871094 0,4.346345 3.526702,7.873047 7.873047,7.873047 4.346346,0 7.871094,-3.526702 7.871094,-7.873047 0,-4.346345 -3.524748,-7.871094 -7.871094,-7.871094 z m 0,0.263672 c 4.203129,0 7.607422,3.404293 7.607422,7.607422 0,4.203128 -3.404293,7.609375 -7.607422,7.609375 -4.203128,0 -7.607422,-3.406247 -7.607422,-7.609375 0,-4.203129 3.404294,-7.607422 7.607422,-7.607422 z"
         id="path924" />
      <g
         id="g885"
         style="stroke-linecap:round;stroke-linejoin:round">
        <g
           id="path887"
           style="stroke-linecap:round;stroke-linejoin:round">
          <path
             style="color:#000000;fill:#000000;fill-rule:evenodd;stroke-width:0.182187;stroke-linecap:round;stroke-linejoin:round;-inkscape-stroke:none"
             d="m 94.803711,43.26747 1.171166,-3.184893 1.171165,3.184893 c -0.691455,-0.508813 -1.637487,-0.505881 -2.342331,0 z"
             id="path921" />
          <path
             style="color:#000000;fill:#000000;fill-rule:evenodd;stroke-linecap:round;stroke-linejoin:round;-inkscape-stroke:none"
             d="m 95.974609,39.992187 a 0.09110261,0.09110261 0 0 0 -0.08594,0.05859 l -1.169922,3.185547 a 0.09110261,0.09110261 0 0 0 0.138672,0.105469 c 0.67361,-0.483464 1.575002,-0.485206 2.234375,0 a 0.09110261,0.09110261 0 0 0 0.140625,-0.105469 l -1.171875,-3.185547 a 0.09110261,0.09110261 0 0 0 -0.08594,-0.05859 z m 0,0.355469 1.023438,2.779297 c -0.638436,-0.370955 -1.400025,-0.367794 -2.046875,0.002 z"
             id="path918" />
        </g>
      </g>
    </g>
    <ellipse
       style="fill:none;stroke:#000000;stroke-width:0.265;stroke-linecap:round;stroke-linejoin:round;stroke-miterlimit:4;stroke-dasharray:none;marker-start:url(#Arrow2Lstart)"
       id="path2503-4"
       cx="106.02725"
       cy="37.983227"
       rx="3.2847204"
       ry="7.2096214" />
    <g
       id="path2860"
       transform="matrix(1,0,0,0.89196837,0,3.1877771)"
       style="stroke-width:1.05883;stroke-linecap:round;stroke-linejoin:round">
      <path
         style="color:#000000;fill:#ff0000;stroke-width:1.05883;stroke-linecap:round;stroke-linejoin:round;-inkscape-stroke:none"
         d="m 97.640625,29.507812 v 21.41211 h 0.265625 v -21.41211 z"
         id="path865" />
      <g
         id="g855"
         style="stroke-width:1.05883;stroke-linecap:round;stroke-linejoin:round">
        <g
           id="path857"
           style="stroke-width:1.05883;stroke-linecap:round;stroke-linejoin:round">
          <path
             style="color:#000000;fill:#ff0000;fill-rule:evenodd;stroke-width:0.192602;stroke-linecap:round;stroke-linejoin:round;-inkscape-stroke:none"
             d="m 98.947563,48.090755 -1.169322,3.179881 -1.169323,-3.179882 c 0.690367,0.508013 1.63491,0.505085 2.338645,1e-6 z"
             id="path861" />
          <path
             style="color:#000000;fill:#ff0000;fill-rule:evenodd;stroke-width:1.05883;stroke-linecap:round;stroke-linejoin:round;-inkscape-stroke:none"
             d="m 98.96875,48.001953 a 0.09095959,0.09095959 0 0 0 -0.07422,0.01563 c -0.67255,0.482702 -1.574086,0.484443 -2.232422,0 a 0.09095959,0.09095959 0 0 0 -0.138672,0.105469 l 1.169922,3.179687 a 0.09095959,0.09095959 0 0 0 0.169922,0 l 1.169922,-3.179687 a 0.09095959,0.09095959 0 0 0 -0.06445,-0.121094 z m -0.169922,0.226563 -1.021484,2.779296 -1.021485,-2.777343 c 0.637252,0.370267 1.397236,0.366901 2.042969,-0.002 z"
             id="path863" />
        </g>
      </g>
    </g>
    <g
       id="path2862"
       transform="matrix(1,0,0,0.90239632,0,2.8446136)"
       style="stroke-width:1.05269;stroke-linecap:round;stroke-linejoin:round">
      <path
         style="color:#000000;fill:#00ff00;stroke-width:1.05269;stroke-linecap:round;stroke-linejoin:round;-inkscape-stroke:none"
         d="m 101.21289,29.144531 v 21.578125 h 0.26367 V 29.144531 Z"
         id="path881" />
      <g
         id="g869"
         style="stroke-width:1.05269;stroke-linecap:round;stroke-linejoin:round">
        <g
           id="path871"
           style="stroke-width:1.05269;stroke-linecap:round;stroke-linejoin:round">
          <path
             style="color:#000000;fill:#00ff00;fill-rule:evenodd;stroke-width:0.191486;stroke-linecap:round;stroke-linejoin:round;-inkscape-stroke:none"
             d="m 102.51909,47.893554 -1.16932,3.179881 -1.16932,-3.179882 c 0.69037,0.508013 1.63491,0.505085 2.33864,1e-6 z"
             id="path875" />
          <path
             style="color:#000000;fill:#00ff00;fill-rule:evenodd;stroke-width:1.05269;stroke-linecap:round;stroke-linejoin:round;-inkscape-stroke:none"
             d="m 102.53906,47.804687 a 0.09095959,0.09095959 0 0 0 -0.0723,0.01563 c -0.67255,0.482703 -1.57409,0.484443 -2.23242,0 a 0.09095959,0.09095959 0 0 0 -0.13868,0.105469 l 1.16797,3.179688 a 0.09095959,0.09095959 0 0 0 0.17188,0 l 1.16797,-3.179688 a 0.09095959,0.09095959 0 0 0 -0.0645,-0.121094 z m -0.16797,0.226563 -1.02148,2.777344 -1.02148,-2.775391 c 0.63734,0.370228 1.39723,0.367072 2.04296,-0.002 z"
             id="path878" />
        </g>
      </g>
    </g>
    <text
       xml:space="preserve"
       style="font-size:7.05556px;line-height:1.25;font-family:sans-serif;text-align:center;text-anchor:middle;fill:#ff0000;stroke:none;stroke-width:0.264583"
       x="97.782036"
       y="51.741474"
       id="text5104"><tspan
         sodipodi:role="line"
         id="tspan5102"
         style="fill:#ff0000;stroke:none;stroke-width:0.264583"
         x="97.782036"
         y="51.741474">$-$</tspan></text>
    <text
       xml:space="preserve"
       style="font-size:3.52778px;line-height:1.25;font-family:sans-serif;text-align:center;text-anchor:middle;fill:#00ff00;stroke:none;stroke-width:0.264583"
       x="101.43861"
       y="51.178589"
       id="text5104-6"><tspan
         sodipodi:role="line"
         id="tspan5102-4"
         style="font-size:3.52778px;fill:#00ff00;stroke:none;stroke-width:0.264583"
         x="101.43861"
         y="51.178589">$+$</tspan></text>
  </g>
  <inkscape:templateinfo>
    <inkscape:name>Default Template</inkscape:name>
    <inkscape:author>Joachim Favre</inkscape:author>
    <inkscape:shortdesc>Arrow definitions, snapping (including perpendicular and tangential)</inkscape:shortdesc>
    <inkscape:date>2022-02-19</inkscape:date>
  </inkscape:templateinfo>
</svg>
