<?xml version="1.0" encoding="UTF-8" standalone="no"?>
<!-- Created with Inkscape (http://www.inkscape.org/) -->

<svg
   width="74.466965mm"
   height="14.396696mm"
   viewBox="0 0 74.466965 14.396696"
   version="1.1"
   id="svg5"
   inkscape:version="1.2.2 (732a01da63, 2022-12-09)"
   sodipodi:docname="ConvergenceModeImplications.svg"
   xml:space="preserve"
   xmlns:inkscape="http://www.inkscape.org/namespaces/inkscape"
   xmlns:sodipodi="http://sodipodi.sourceforge.net/DTD/sodipodi-0.dtd"
   xmlns="http://www.w3.org/2000/svg"
   xmlns:svg="http://www.w3.org/2000/svg"><sodipodi:namedview
     id="namedview7"
     pagecolor="#ffffff"
     bordercolor="#111111"
     borderopacity="1"
     inkscape:pageshadow="0"
     inkscape:pageopacity="0"
     inkscape:pagecheckerboard="1"
     inkscape:document-units="mm"
     showgrid="false"
     inkscape:snap-perpendicular="true"
     inkscape:snap-tangential="true"
     inkscape:snap-bbox="true"
     inkscape:bbox-paths="true"
     inkscape:bbox-nodes="true"
     inkscape:snap-bbox-edge-midpoints="true"
     inkscape:snap-bbox-midpoints="true"
     inkscape:object-paths="true"
     inkscape:snap-intersection-paths="true"
     inkscape:snap-object-midpoints="true"
     inkscape:snap-center="true"
     inkscape:showpageshadow="0"
     inkscape:deskcolor="#d1d1d1"
     showguides="true"
     inkscape:zoom="3.3638608"
     inkscape:cx="118.61371"
     inkscape:cy="70.008842"
     inkscape:window-width="1620"
     inkscape:window-height="1010"
     inkscape:window-x="-6"
     inkscape:window-y="-6"
     inkscape:window-maximized="1"
     inkscape:current-layer="layer1"><sodipodi:guide
       position="31.050019,7.1983457"
       orientation="0,-1"
       id="guide494"
       inkscape:locked="false" /><sodipodi:guide
       position="21.656475,10.016336"
       orientation="1,0"
       id="guide1586"
       inkscape:locked="false" /></sodipodi:namedview><defs
     id="defs2"><marker
   style="overflow:visible"
   id="Arrow2Lend"
   refX="0"
   refY="0"
   orient="auto"
   inkscape:stockid="Arrow2Lend"
   inkscape:isstock="true"><path
     transform="matrix(-1.1,0,0,-1.1,-1.1,0)"
     d="M 8.7185878,4.0337352 -2.2072895,0.01601326 8.7185884,-4.0017078 c -1.7454984,2.3720609 -1.7354408,5.6174519 -6e-7,8.035443 z"
     style="fill:context-stroke;fill-rule:evenodd;stroke:context-stroke;stroke-width:0.625;stroke-linejoin:round"
     id="path880" /></marker><marker
   style="overflow:visible"
   id="Arrow2Lstart"
   refX="0"
   refY="0"
   orient="auto"
   inkscape:stockid="Arrow2Lstart"
   inkscape:isstock="true"><path
     transform="matrix(1.1,0,0,1.1,1.1,0)"
     d="M 8.7185878,4.0337352 -2.2072895,0.01601326 8.7185884,-4.0017078 c -1.7454984,2.3720609 -1.7354408,5.6174519 -6e-7,8.035443 z"
     style="fill:context-stroke;fill-rule:evenodd;stroke:context-stroke;stroke-width:0.625;stroke-linejoin:round"
     id="path877" /></marker><clipPath
   id="clipPath9316">
      <path
   clip-rule="nonzero"
   d="M 9,0 H 19 V 3.65625 H 9 Z m 0,0"
   id="path1854" />
    </clipPath>
  </defs><g
     inkscape:label="Layer 1"
     inkscape:groupmode="layer"
     id="layer1"
     transform="translate(-66.968063,-31.899701)"><text
       xml:space="preserve"
       style="font-size:1.05833px;text-align:center;text-anchor:middle;fill:#000000;stroke:none;stroke-width:0.264999;stroke-dasharray:0.420002, 0.420002"
       x="73.828346"
       y="32.714119"
       id="text381"><tspan
         sodipodi:role="line"
         id="tspan379"
         style="font-size:1.05833px;text-align:center;text-anchor:middle;stroke:none;stroke-width:0.265"
         x="73.828346"
         y="32.714119">$X_n \over{\to}{a.s.} X$</tspan></text><text
       xml:space="preserve"
       style="font-size:1.05833px;text-align:center;text-anchor:middle;fill:#000000;stroke:none;stroke-width:0.264999;stroke-dasharray:0.420002, 0.420002"
       x="73.828346"
       y="46.093826"
       id="text381-7"><tspan
         sodipodi:role="line"
         id="tspan379-7"
         style="font-size:1.05833px;text-align:center;text-anchor:middle;stroke:none;stroke-width:0.265"
         x="73.828346"
         y="46.093826">$X_n \over{\to}{2} X$</tspan></text><text
       xml:space="preserve"
       style="font-size:1.05833px;text-align:center;text-anchor:middle;fill:#000000;stroke:none;stroke-width:0.264999;stroke-dasharray:0.420002, 0.420002"
       x="104.21898"
       y="39.403973"
       id="text381-3"><tspan
         sodipodi:role="line"
         id="tspan379-3"
         style="font-size:1.05833px;text-align:center;text-anchor:middle;stroke:none;stroke-width:0.265"
         x="104.21898"
         y="39.403973">$X_n \over{\to}{P} X$</tspan></text><text
       xml:space="preserve"
       style="font-size:1.05833px;text-align:center;text-anchor:middle;fill:#000000;stroke:none;stroke-width:0.264999;stroke-dasharray:0.420002, 0.420002"
       x="135.13879"
       y="39.403973"
       id="text381-1"><tspan
         sodipodi:role="line"
         id="tspan379-2"
         style="font-size:1.05833px;text-align:center;text-anchor:middle;stroke:none;stroke-width:0.265"
         x="135.13879"
         y="39.403973">$X_n \over{\to}{D} X$</tspan></text><g
       id="g11341"
       transform="matrix(0.65732179,0,0,0.65732179,51.77799,-13.422544)"
       inkscape:transform-center-x="-1.1255351e-06"
       inkscape:transform-center-y="2.3025092"
       style="fill:#000000"><g
         style="fill:#000000;fill-opacity:1"
         id="g11335"><g
           id="use11333"
           style="fill:#000000"
           transform="translate(94.693001,81.962997)"><path
             style="fill:#000000;stroke:none"
             d="m 6.84375,-3.265625 c 0.15625,0 0.34375,0 0.34375,-0.1875 C 7.1875,-3.65625 7,-3.65625 6.859375,-3.65625 h -5.96875 c -0.140625,0 -0.328125,0 -0.328125,0.203125 0,0.1875 0.1875,0.1875 0.328125,0.1875 z m 0.015625,1.9375 c 0.140625,0 0.328125,0 0.328125,-0.203125 0,-0.1875 -0.1875,-0.1875 -0.34375,-0.1875 H 0.890625 c -0.140625,0 -0.328125,0 -0.328125,0.1875 0,0.203125 0.1875,0.203125 0.328125,0.203125 z m 0,0"
             id="path1561" /></g></g><g
         style="fill:#000000;fill-opacity:1"
         id="g11339"><g
           id="use11337"
           style="fill:#000000"
           transform="translate(100.781,81.962997)"><path
             style="fill:#000000;stroke:none"
             d="M 7.234375,-3.265625 C 7.65625,-2.90625 8.171875,-2.640625 8.5,-2.5 8.140625,-2.328125 7.640625,-2.078125 7.234375,-1.71875 H 0.90625 c -0.171875,0 -0.359375,0 -0.359375,0.1875 0,0.203125 0.1875,0.203125 0.34375,0.203125 H 6.78125 C 6.3125,-0.875 5.796875,0.015625 5.796875,0.140625 5.796875,0.25 5.921875,0.25 5.984375,0.25 6.0625,0.25 6.125,0.25 6.171875,0.171875 6.375,-0.203125 6.65625,-0.734375 7.3125,-1.3125 8,-1.921875 8.65625,-2.1875 9.1875,-2.34375 c 0.15625,-0.0625 0.171875,-0.0625 0.1875,-0.09375 0.03125,0 0.03125,-0.03125 0.03125,-0.0625 0,-0.015625 0,-0.03125 -0.015625,-0.046875 l -0.03125,-0.03125 c -0.015625,0 -0.03125,-0.015625 -0.21875,-0.078125 -1.34375,-0.390625 -2.34375,-1.296875 -2.90625,-2.375 -0.109375,-0.1875 -0.109375,-0.203125 -0.25,-0.203125 -0.0625,0 -0.1875,0 -0.1875,0.109375 0,0.125 0.5,1 0.984375,1.46875 H 0.890625 c -0.15625,0 -0.34375,0 -0.34375,0.203125 0,0.1875 0.1875,0.1875 0.359375,0.1875 z m 0,0"
             id="path1557" /></g></g></g><g
       id="g1584"
       transform="matrix(0.62743966,0.19593725,-0.19593725,0.62743966,39.779456,-34.739676)"
       inkscape:transform-center-x="0.060562769"
       inkscape:transform-center-y="-3.6618696"
       style="fill:#000000"><g
         style="fill:#000000;fill-opacity:1"
         id="g1576"><g
           id="g1574"
           style="fill:#000000"
           transform="translate(94.693001,81.962997)"><path
             style="fill:#000000;stroke:none"
             d="m 6.84375,-3.265625 c 0.15625,0 0.34375,0 0.34375,-0.1875 C 7.1875,-3.65625 7,-3.65625 6.859375,-3.65625 h -5.96875 c -0.140625,0 -0.328125,0 -0.328125,0.203125 0,0.1875 0.1875,0.1875 0.328125,0.1875 z m 0.015625,1.9375 c 0.140625,0 0.328125,0 0.328125,-0.203125 0,-0.1875 -0.1875,-0.1875 -0.34375,-0.1875 H 0.890625 c -0.140625,0 -0.328125,0 -0.328125,0.1875 0,0.203125 0.1875,0.203125 0.328125,0.203125 z m 0,0"
             id="path1572" /></g></g><g
         style="fill:#000000;fill-opacity:1"
         id="g1582"><g
           id="g1580"
           style="fill:#000000"
           transform="translate(100.781,81.962997)"><path
             style="fill:#000000;stroke:none"
             d="M 7.234375,-3.265625 C 7.65625,-2.90625 8.171875,-2.640625 8.5,-2.5 8.140625,-2.328125 7.640625,-2.078125 7.234375,-1.71875 H 0.90625 c -0.171875,0 -0.359375,0 -0.359375,0.1875 0,0.203125 0.1875,0.203125 0.34375,0.203125 H 6.78125 C 6.3125,-0.875 5.796875,0.015625 5.796875,0.140625 5.796875,0.25 5.921875,0.25 5.984375,0.25 6.0625,0.25 6.125,0.25 6.171875,0.171875 6.375,-0.203125 6.65625,-0.734375 7.3125,-1.3125 8,-1.921875 8.65625,-2.1875 9.1875,-2.34375 c 0.15625,-0.0625 0.171875,-0.0625 0.1875,-0.09375 0.03125,0 0.03125,-0.03125 0.03125,-0.0625 0,-0.015625 0,-0.03125 -0.015625,-0.046875 l -0.03125,-0.03125 c -0.015625,0 -0.03125,-0.015625 -0.21875,-0.078125 -1.34375,-0.390625 -2.34375,-1.296875 -2.90625,-2.375 -0.109375,-0.1875 -0.109375,-0.203125 -0.25,-0.203125 -0.0625,0 -0.1875,0 -0.1875,0.109375 0,0.125 0.5,1 0.984375,1.46875 H 0.890625 c -0.15625,0 -0.34375,0 -0.34375,0.203125 0,0.1875 0.1875,0.1875 0.359375,0.1875 z m 0,0"
             id="path1578" /></g></g></g><g
       id="g1614"
       transform="matrix(0.62743966,-0.19593725,-0.19593725,-0.62743966,39.779456,112.93578)"
       inkscape:transform-center-x="0.060562769"
       inkscape:transform-center-y="3.6618722"
       style="fill:#000000"><g
         style="fill:#000000;fill-opacity:1"
         id="g1606"><g
           id="g1604"
           style="fill:#000000"
           transform="translate(94.693001,81.962997)"><path
             style="fill:#000000;stroke:none"
             d="m 6.84375,-3.265625 c 0.15625,0 0.34375,0 0.34375,-0.1875 C 7.1875,-3.65625 7,-3.65625 6.859375,-3.65625 h -5.96875 c -0.140625,0 -0.328125,0 -0.328125,0.203125 0,0.1875 0.1875,0.1875 0.328125,0.1875 z m 0.015625,1.9375 c 0.140625,0 0.328125,0 0.328125,-0.203125 0,-0.1875 -0.1875,-0.1875 -0.34375,-0.1875 H 0.890625 c -0.140625,0 -0.328125,0 -0.328125,0.1875 0,0.203125 0.1875,0.203125 0.328125,0.203125 z m 0,0"
             id="path1602" /></g></g><g
         style="fill:#000000;fill-opacity:1"
         id="g1612"><g
           id="g1610"
           style="fill:#000000"
           transform="translate(100.781,81.962997)"><path
             style="fill:#000000;stroke:none"
             d="M 7.234375,-3.265625 C 7.65625,-2.90625 8.171875,-2.640625 8.5,-2.5 8.140625,-2.328125 7.640625,-2.078125 7.234375,-1.71875 H 0.90625 c -0.171875,0 -0.359375,0 -0.359375,0.1875 0,0.203125 0.1875,0.203125 0.34375,0.203125 H 6.78125 C 6.3125,-0.875 5.796875,0.015625 5.796875,0.140625 5.796875,0.25 5.921875,0.25 5.984375,0.25 6.0625,0.25 6.125,0.25 6.171875,0.171875 6.375,-0.203125 6.65625,-0.734375 7.3125,-1.3125 8,-1.921875 8.65625,-2.1875 9.1875,-2.34375 c 0.15625,-0.0625 0.171875,-0.0625 0.1875,-0.09375 0.03125,0 0.03125,-0.03125 0.03125,-0.0625 0,-0.015625 0,-0.03125 -0.015625,-0.046875 l -0.03125,-0.03125 c -0.015625,0 -0.03125,-0.015625 -0.21875,-0.078125 -1.34375,-0.390625 -2.34375,-1.296875 -2.90625,-2.375 -0.109375,-0.1875 -0.109375,-0.203125 -0.25,-0.203125 -0.0625,0 -0.1875,0 -0.1875,0.109375 0,0.125 0.5,1 0.984375,1.46875 H 0.890625 c -0.15625,0 -0.34375,0 -0.34375,0.203125 0,0.1875 0.1875,0.1875 0.359375,0.1875 z m 0,0"
             id="path1608" /></g></g></g></g><inkscape:templateinfo><inkscape:name>Default Template</inkscape:name><inkscape:author>Joachim Favre</inkscape:author><inkscape:shortdesc>Arrow definitions, snapping (including perpendicular and tangential)</inkscape:shortdesc><inkscape:date>2022-02-19</inkscape:date></inkscape:templateinfo></svg>
