<?xml version="1.0" encoding="UTF-8" standalone="no"?>
<!-- Created with Inkscape (http://www.inkscape.org/) -->

<svg
   width="98.814285mm"
   height="52.272839mm"
   viewBox="0 0 98.814292 52.27284"
   version="1.1"
   id="svg5"
   inkscape:version="1.1.2 (b8e25be833, 2022-02-05)"
   sodipodi:docname="BFSFindPathBack.svg"
   xmlns:inkscape="http://www.inkscape.org/namespaces/inkscape"
   xmlns:sodipodi="http://sodipodi.sourceforge.net/DTD/sodipodi-0.dtd"
   xmlns="http://www.w3.org/2000/svg"
   xmlns:svg="http://www.w3.org/2000/svg">
  <sodipodi:namedview
     id="namedview7"
     pagecolor="#ffffff"
     bordercolor="#111111"
     borderopacity="1"
     inkscape:pageshadow="0"
     inkscape:pageopacity="0"
     inkscape:pagecheckerboard="1"
     inkscape:document-units="mm"
     showgrid="false"
     inkscape:snap-perpendicular="false"
     inkscape:snap-tangential="false"
     inkscape:snap-bbox="true"
     inkscape:bbox-paths="true"
     inkscape:bbox-nodes="true"
     inkscape:snap-bbox-edge-midpoints="true"
     inkscape:snap-bbox-midpoints="true"
     inkscape:object-paths="true"
     inkscape:snap-intersection-paths="true"
     inkscape:snap-object-midpoints="true"
     inkscape:snap-center="true"
     showguides="true"
     inkscape:guide-bbox="true"
     inkscape:snap-global="false"
     inkscape:zoom="4"
     inkscape:cx="131.875"
     inkscape:cy="129.75"
     inkscape:window-width="3374"
     inkscape:window-height="1417"
     inkscape:window-x="58"
     inkscape:window-y="-8"
     inkscape:window-maximized="1"
     inkscape:current-layer="layer1" />
  <defs
     id="defs2">
    <inkscape:path-effect
       effect="spiro"
       id="path-effect66584"
       is_visible="true"
       lpeversion="1" />
    <inkscape:path-effect
       effect="spiro"
       id="path-effect66387"
       is_visible="true"
       lpeversion="1" />
    <inkscape:path-effect
       effect="spiro"
       id="path-effect66383"
       is_visible="true"
       lpeversion="1" />
    <inkscape:path-effect
       effect="spiro"
       id="path-effect66379"
       is_visible="true"
       lpeversion="1" />
    <inkscape:path-effect
       effect="spiro"
       id="path-effect66375"
       is_visible="true"
       lpeversion="1" />
    <marker
       style="overflow:visible"
       id="Arrow2Lend"
       refX="0"
       refY="0"
       orient="auto"
       inkscape:stockid="Arrow2Lend"
       inkscape:isstock="true">
      <path
         transform="matrix(-1.1,0,0,-1.1,-1.1,0)"
         d="M 8.7185878,4.0337352 -2.2072895,0.01601326 8.7185884,-4.0017078 c -1.7454984,2.3720609 -1.7354408,5.6174519 -6e-7,8.035443 z"
         style="fill:context-stroke;fill-rule:evenodd;stroke:context-stroke;stroke-width:0.625;stroke-linejoin:round"
         id="path880" />
    </marker>
    <marker
       style="overflow:visible"
       id="Arrow2Lstart"
       refX="0"
       refY="0"
       orient="auto"
       inkscape:stockid="Arrow2Lstart"
       inkscape:isstock="true">
      <path
         transform="matrix(1.1,0,0,1.1,1.1,0)"
         d="M 8.7185878,4.0337352 -2.2072895,0.01601326 8.7185884,-4.0017078 c -1.7454984,2.3720609 -1.7354408,5.6174519 -6e-7,8.035443 z"
         style="fill:context-stroke;fill-rule:evenodd;stroke:context-stroke;stroke-width:0.625;stroke-linejoin:round"
         id="path877" />
    </marker>
  </defs>
  <g
     inkscape:label="Layer 1"
     inkscape:groupmode="layer"
     id="layer1"
     transform="translate(-60.058357,-22.647547)">
    <g
       id="path43873">
      <path
         style="color:#000000;fill:#ff0000;fill-rule:evenodd;-inkscape-stroke:none"
         d="m 67.630859,27.949219 -0.08789,0.25 21.738281,7.654297 0.08789,-0.25 z"
         id="path1110" />
      <g
         id="g1100">
        <g
           id="path1102">
          <path
             style="color:#000000;fill:#ff0000;fill-rule:evenodd;stroke-width:0.181901;stroke-linejoin:round;-inkscape-stroke:none"
             d="m 87.047591,33.681948 2.611059,2.159012 -3.387737,0.0469 c 0.708453,-0.48247 1.01938,-1.374374 0.776678,-2.205909 z"
             id="path1106" />
          <path
             style="color:#000000;fill:#ff0000;fill-rule:evenodd;stroke-linejoin:round;-inkscape-stroke:none"
             d="m 86.998047,33.605469 a 0.09095959,0.09095959 0 0 0 -0.03711,0.101562 c 0.231948,0.794688 -0.0666,1.645384 -0.742187,2.105469 a 0.09095959,0.09095959 0 0 0 0.05273,0.166016 l 3.388672,-0.04687 a 0.09095959,0.09095959 0 0 0 0.05664,-0.160157 l -2.611328,-2.160156 a 0.09095959,0.09095959 0 0 0 -0.107422,-0.0059 z m 0.130859,0.261718 2.283203,1.886719 -2.960937,0.04102 c 0.561033,-0.478177 0.811337,-1.196012 0.677734,-1.927735 z"
             id="path1108" />
        </g>
      </g>
    </g>
    <g
       id="path44550">
      <path
         style="color:#000000;fill:#ff0000;-inkscape-stroke:none"
         d="m 123.98633,50.945312 -0.24219,0.105469 c 0,0 0.45895,1.045057 0.91992,2.38086 0.46097,1.335802 0.9208,2.96631 0.9336,4.097656 0.0128,1.129526 -0.43486,2.86168 -0.88868,4.296875 -0.45381,1.435194 -0.91015,2.580078 -0.91015,2.580078 l 0.24609,0.09766 c 0,0 0.46095,-1.154286 0.91797,-2.599609 0.45702,-1.445323 0.914,-3.176032 0.90039,-4.376953 -0.0136,-1.199101 -0.48452,-2.835037 -0.94922,-4.181641 -0.4647,-1.346604 -0.92773,-2.40039 -0.92773,-2.400391 z"
         id="path1054" />
      <g
         id="g1044">
        <g
           id="path1046">
          <path
             style="color:#000000;fill:#ff0000;fill-rule:evenodd;stroke-width:0.181901;stroke-linejoin:round;-inkscape-stroke:none"
             d="m 126.06093,62.262909 -2.26503,2.519644 0.0931,-3.386783 c 0.45279,0.727779 1.33109,1.075285 2.17194,0.867139 z"
             id="path1050" />
          <path
             style="color:#000000;fill:#ff0000;fill-rule:evenodd;stroke-linejoin:round;-inkscape-stroke:none"
             d="m 123.86523,61.308594 a 0.09095959,0.09095959 0 0 0 -0.0664,0.08398 l -0.0937,3.386719 a 0.09095959,0.09095959 0 0 0 0.1582,0.06445 l 2.26563,-2.519531 -0.0312,0.01367 a 0.09095959,0.09095959 0 0 0 -0.0371,-0.166016 0.09095959,0.09095959 0 0 0 -0.0215,0.0098 v -0.0078 c -0.80359,0.198923 -1.64048,-0.13216 -2.07226,-0.826172 a 0.09095959,0.09095959 0 0 0 -0.10157,-0.03906 z m 0.10938,0.271484 c 0.45457,0.579895 1.16017,0.860937 1.89648,0.757813 l -1.97851,2.201171 z m 2.08594,0.769531 c 0.003,-6.27e-4 0.005,6.38e-4 0.008,0 l -0.008,0.0039 z"
             id="path1052" />
        </g>
      </g>
    </g>
    <g
       id="path44756">
      <path
         style="color:#000000;fill:#ff0000;fill-rule:evenodd;-inkscape-stroke:none"
         d="m 122.23242,31.433594 0.006,12.470703 h 0.26563 l -0.008,-12.470703 z"
         id="path1040" />
      <g
         id="g1030">
        <g
           id="path1032">
          <path
             style="color:#000000;fill:#ff0000;fill-rule:evenodd;stroke-width:0.181901;stroke-linejoin:round;-inkscape-stroke:none"
             d="m 121.19192,34.262967 1.16754,-3.180537 1.17111,3.179224 c -0.69065,-0.507624 -1.63519,-0.504167 -2.33865,0.0013 z"
             id="path1036" />
          <path
             style="color:#000000;fill:#ff0000;fill-rule:evenodd;stroke-linejoin:round;-inkscape-stroke:none"
             d="m 122.35938,30.992187 a 0.09095959,0.09095959 0 0 0 -0.0859,0.05859 l -1.16602,3.181641 0.01,0.002 a 0.09095959,0.09095959 0 0 0 -0.0156,0.0293 0.09095959,0.09095959 0 0 0 0.16016,0.04102 l -0.0176,0.03125 c 0.67229,-0.483068 1.57382,-0.486024 2.23242,-0.002 a 0.09095959,0.09095959 0 0 0 0.13867,-0.103515 l -1.16992,-3.179688 a 0.09095959,0.09095959 0 0 0 -0.0859,-0.05859 z m 0,0.355469 1.02343,2.773438 c -0.63748,-0.369926 -1.39742,-0.365352 -2.04297,0.0039 z"
             id="path1038" />
        </g>
      </g>
    </g>
    <g
       id="path44762">
      <path
         style="color:#000000;fill:#ff0000;fill-rule:evenodd;-inkscape-stroke:none"
         d="m 96.681641,38.138672 -0.08594,0.25 21.882819,7.527344 0.0859,-0.25 z"
         id="path1012" />
      <g
         id="g1002">
        <g
           id="path1004">
          <path
             style="color:#000000;fill:#ff0000;fill-rule:evenodd;stroke-width:0.181901;stroke-linejoin:round;-inkscape-stroke:none"
             d="m 116.22939,43.76156 2.6266,2.140081 -3.38731,0.07138 c 0.70495,-0.487578 1.00942,-1.381707 0.76071,-2.211466 z"
             id="path1008" />
          <path
             style="color:#000000;fill:#ff0000;fill-rule:evenodd;stroke-linejoin:round;-inkscape-stroke:none"
             d="m 116.17969,43.685547 a 0.09095959,0.09095959 0 0 0 -0.0371,0.101562 c 0.23769,0.792991 -0.0543,1.646373 -0.72656,2.111328 a 0.09095959,0.09095959 0 0 0 0.0547,0.166016 l 3.38672,-0.07227 a 0.09095959,0.09095959 0 0 0 0.0566,-0.160156 l -2.62695,-2.140625 a 0.09095959,0.09095959 0 0 0 -0.10742,-0.0059 z m 0.13281,0.261719 2.29297,1.86914 -2.95899,0.0625 c 0.55817,-0.482193 0.80499,-1.200521 0.66602,-1.93164 z"
             id="path1010" />
        </g>
      </g>
    </g>
    <g
       id="path44764">
      <path
         style="color:#000000;fill:#ff0000;fill-rule:evenodd;-inkscape-stroke:none"
         d="m 93.085937,41.183594 0.02734,12.68164 0.263672,-0.002 -0.02734,-12.679687 z"
         id="path1096" />
      <g
         id="g1086">
        <g
           id="path1088">
          <path
             style="color:#000000;fill:#ff0000;fill-rule:evenodd;stroke-width:0.181901;stroke-linejoin:round;-inkscape-stroke:none"
             d="m 94.412894,51.033079 -1.162333,3.182443 -1.176307,-3.177305 c 0.691482,0.506494 1.636016,0.501492 2.33864,-0.0051 z"
             id="path1092" />
          <path
             style="color:#000000;fill:#ff0000;fill-rule:evenodd;stroke-linejoin:round;-inkscape-stroke:none"
             d="m 94.429687,50.943359 a 0.09095959,0.09095959 0 0 0 -0.08789,0.05078 l 0.01758,-0.03516 c -0.671489,0.484144 -1.57107,0.488854 -2.230469,0.0059 a 0.09095959,0.09095959 0 0 0 -0.140625,0.105468 l 1.177735,3.177735 a 0.09095959,0.09095959 0 0 0 0.169921,-0.002 l 1.16211,-3.181641 -0.0098,-0.002 a 0.09095959,0.09095959 0 0 0 0.01563,-0.0293 0.09095959,0.09095959 0 0 0 -0.07422,-0.08984 z M 94.265625,51.171875 93.25,53.953125 92.222656,51.175781 c 0.638171,0.369146 1.39788,0.366477 2.042969,-0.0039 z"
             id="path1094" />
        </g>
      </g>
    </g>
    <g
       id="path44766">
      <path
         style="color:#000000;fill:#ff0000;fill-rule:evenodd;-inkscape-stroke:none"
         d="m 89.324219,58.744141 -21.728516,7.537109 0.08789,0.25 21.726562,-7.537109 z"
         id="path1138" />
      <g
         id="g1128">
        <g
           id="path1130">
          <path
             style="color:#000000;fill:#ff0000;fill-rule:evenodd;stroke-width:0.1819;stroke-linejoin:round;-inkscape-stroke:none"
             d="m 70.696588,66.588984 -3.387473,-0.06247 2.620946,-2.146979 c -0.253669,0.818737 0.05869,1.71014 0.766527,2.209448 z"
             id="path1134" />
          <path
             style="color:#000000;fill:#ff0000;fill-rule:evenodd;stroke-linejoin:round;-inkscape-stroke:none"
             d="m 69.945312,64.289062 a 0.09095909,0.09095909 0 0 0 -0.07227,0.01953 l -2.621094,2.148437 a 0.09095909,0.09095909 0 0 0 0.05469,0.160156 l 3.388671,0.0625 a 0.09095909,0.09095909 0 0 0 0.05273,-0.164062 c -0.676463,-0.47718 -0.97236,-1.328624 -0.730461,-2.109373 a 0.09095909,0.09095909 0 0 0 -0.07227,-0.117188 z m -0.09766,0.275391 c -0.141143,0.723413 0.109917,1.440399 0.669922,1.929688 l -2.958984,-0.05469 z"
             id="path1136" />
        </g>
      </g>
    </g>
    <g
       id="path44874">
      <path
         style="color:#000000;fill:#ff0000;fill-rule:evenodd;-inkscape-stroke:none"
         d="m 64.054687,31.027344 -0.02734,12.447265 h 0.265625 l 0.02734,-12.447265 z"
         id="path1124" />
      <g
         id="g1114">
        <g
           id="path1116">
          <path
             style="color:#000000;fill:#ff0000;fill-rule:evenodd;stroke-width:0.181901;stroke-linejoin:round;-inkscape-stroke:none"
             d="m 65.340396,40.648716 -1.176239,3.177329 -1.162402,-3.182418 c 0.689261,0.509513 1.633808,0.508641 2.338641,0.0051 z"
             id="path1120" />
          <path
             style="color:#000000;fill:#ff0000;fill-rule:evenodd;stroke-linejoin:round;-inkscape-stroke:none"
             d="m 65.355469,40.558594 a 0.09095959,0.09095959 0 0 0 -0.08594,0.05078 l 0.01758,-0.03516 c -0.673599,0.481227 -1.573187,0.481966 -2.230468,-0.0039 a 0.09095959,0.09095959 0 0 0 -0.140625,0.105469 l 1.162109,3.181641 a 0.09095959,0.09095959 0 0 0 0.171875,0 l 1.175781,-3.177735 -0.0098,-0.002 a 0.09095959,0.09095959 0 0 0 0.01563,-0.0293 0.09095959,0.09095959 0 0 0 -0.07617,-0.08984 z m -2.205078,0.224609 c 0.636757,0.370985 1.396688,0.372064 2.042968,0.0039 l -1.029297,2.773438 z"
             id="path1122" />
        </g>
      </g>
    </g>
    <ellipse
       style="fill:#f2f2f2;stroke:#000000;stroke-width:0.264583;stroke-linecap:round;stroke-linejoin:round;stroke-miterlimit:4;stroke-dasharray:none"
       id="path893"
       cx="63.930592"
       cy="27.283978"
       rx="3.739943"
       ry="3.7388916" />
    <text
       xml:space="preserve"
       style="font-size:2.1107px;line-height:1.25;font-family:sans-serif;text-align:center;text-anchor:middle;fill:#000000;stroke-width:0.264583"
       x="63.908207"
       y="28.392654"
       id="text2906"
       transform="scale(1.0001406,0.99985941)"><tspan
         sodipodi:role="line"
         style="text-align:center;text-anchor:middle;fill:#000000;stroke-width:0.264583"
         x="63.908207"
         y="28.392654"
         id="tspan65284">$s$</tspan></text>
    <text
       xml:space="preserve"
       style="font-size:2.1107px;line-height:1.25;font-family:sans-serif;text-align:center;text-anchor:middle;fill:#000000;stroke-width:0.264583"
       x="67.758926"
       y="24.216236"
       id="text2906-4"
       transform="scale(1.0001406,0.99985941)"><tspan
         sodipodi:role="line"
         id="tspan2904-0"
         style="text-align:center;text-anchor:middle;fill:#000000;stroke-width:0.264583"
         x="67.758926"
         y="24.216236">0</tspan></text>
    <ellipse
       style="fill:#f2f2f2;stroke:#000000;stroke-width:0.264583;stroke-linecap:round;stroke-linejoin:round;stroke-miterlimit:4;stroke-dasharray:none"
       id="path893-0"
       cx="63.930592"
       cy="47.645382"
       rx="3.739943"
       ry="3.7388916" />
    <text
       xml:space="preserve"
       style="font-size:2.1107px;line-height:1.25;font-family:sans-serif;text-align:center;text-anchor:middle;fill:#000000;stroke-width:0.264583"
       x="63.908207"
       y="48.756924"
       id="text2906-5"
       transform="scale(1.0001406,0.99985941)"><tspan
         sodipodi:role="line"
         id="tspan2904-3"
         style="text-align:center;text-anchor:middle;fill:#000000;stroke-width:0.264583"
         x="63.908207"
         y="48.756924">$a$</tspan></text>
    <text
       xml:space="preserve"
       style="font-size:2.1107px;line-height:1.25;font-family:sans-serif;text-align:center;text-anchor:middle;fill:#000000;stroke-width:0.264583"
       x="67.758926"
       y="44.580505"
       id="text2906-4-7"
       transform="scale(1.0001406,0.99985941)"><tspan
         sodipodi:role="line"
         id="tspan2904-0-5"
         style="text-align:center;text-anchor:middle;fill:#000000;stroke-width:0.264583"
         x="67.758926"
         y="44.580505">1</tspan></text>
    <ellipse
       style="fill:#f2f2f2;stroke:#000000;stroke-width:0.264583;stroke-linecap:round;stroke-linejoin:round;stroke-miterlimit:4;stroke-dasharray:none"
       id="path893-05"
       cx="63.930592"
       cy="68.03196"
       rx="3.739943"
       ry="3.7388916" />
    <text
       xml:space="preserve"
       style="font-size:2.1107px;line-height:1.25;font-family:sans-serif;text-align:center;text-anchor:middle;fill:#000000;stroke-width:0.264583"
       x="63.908207"
       y="69.14637"
       id="text2906-8"
       transform="scale(1.0001406,0.99985941)"><tspan
         sodipodi:role="line"
         id="tspan2904-33"
         style="text-align:center;text-anchor:middle;fill:#000000;stroke-width:0.264583"
         x="63.908207"
         y="69.14637">$b$</tspan></text>
    <text
       xml:space="preserve"
       style="font-size:2.1107px;line-height:1.25;font-family:sans-serif;text-align:center;text-anchor:middle;fill:#000000;stroke-width:0.264583"
       x="67.758926"
       y="64.969948"
       id="text2906-4-0"
       transform="scale(1.0001406,0.99985941)"><tspan
         sodipodi:role="line"
         id="tspan2904-0-8"
         style="text-align:center;text-anchor:middle;fill:#000000;stroke-width:0.264583"
         x="67.758926"
         y="64.969948">3</tspan></text>
    <ellipse
       style="fill:#f2f2f2;stroke:#000000;stroke-width:0.264583;stroke-linecap:round;stroke-linejoin:round;stroke-miterlimit:4;stroke-dasharray:none"
       id="path893-7"
       cx="92.985802"
       cy="57.915897"
       rx="3.739943"
       ry="3.7388916" />
    <text
       xml:space="preserve"
       style="font-size:2.1107px;line-height:1.25;font-family:sans-serif;text-align:center;text-anchor:middle;fill:#000000;stroke-width:0.264583"
       x="92.959328"
       y="59.028881"
       id="text2906-7"
       transform="scale(1.0001406,0.99985941)"><tspan
         sodipodi:role="line"
         id="tspan2904-6"
         style="text-align:center;text-anchor:middle;fill:#000000;stroke-width:0.264583"
         x="92.959328"
         y="59.028881">$d$</tspan></text>
    <text
       xml:space="preserve"
       style="font-size:2.1107px;line-height:1.25;font-family:sans-serif;text-align:center;text-anchor:middle;fill:#000000;stroke-width:0.264583"
       x="96.810051"
       y="54.852463"
       id="text2906-4-5"
       transform="scale(1.0001406,0.99985941)"><tspan
         sodipodi:role="line"
         id="tspan2904-0-0"
         style="text-align:center;text-anchor:middle;fill:#000000;stroke-width:0.264583"
         x="96.810051"
         y="54.852463">2</tspan></text>
    <ellipse
       style="fill:#f2f2f2;stroke:#000000;stroke-width:0.264583;stroke-linecap:round;stroke-linejoin:round;stroke-miterlimit:4;stroke-dasharray:none"
       id="path893-6"
       cx="92.985802"
       cy="37.452095"
       rx="3.739943"
       ry="3.7388916" />
    <text
       xml:space="preserve"
       style="font-size:2.1107px;line-height:1.25;font-family:sans-serif;text-align:center;text-anchor:middle;fill:#000000;stroke-width:0.264583"
       x="92.959328"
       y="38.562199"
       id="text2906-6"
       transform="scale(1.0001406,0.99985941)"><tspan
         sodipodi:role="line"
         id="tspan2904-2"
         style="text-align:center;text-anchor:middle;fill:#000000;stroke-width:0.264583"
         x="92.959328"
         y="38.562199">$c$</tspan></text>
    <text
       xml:space="preserve"
       style="font-size:2.1107px;line-height:1.25;font-family:sans-serif;text-align:center;text-anchor:middle;fill:#000000;stroke-width:0.264583"
       x="96.810051"
       y="34.38578"
       id="text2906-4-6"
       transform="scale(1.0001406,0.99985941)"><tspan
         sodipodi:role="line"
         id="tspan2904-0-59"
         style="text-align:center;text-anchor:middle;fill:#000000;stroke-width:0.264583"
         x="96.810051"
         y="34.38578">1</tspan></text>
    <ellipse
       style="fill:#f2f2f2;stroke:#000000;stroke-width:0.264583;stroke-linecap:round;stroke-linejoin:round;stroke-miterlimit:4;stroke-dasharray:none"
       id="path893-65"
       cx="122.10664"
       cy="27.336029"
       rx="3.739943"
       ry="3.7388916" />
    <text
       xml:space="preserve"
       style="font-size:2.1107px;line-height:1.25;font-family:sans-serif;text-align:center;text-anchor:middle;fill:#000000;stroke-width:0.264583"
       x="122.07608"
       y="28.444712"
       id="text2906-2"
       transform="scale(1.0001406,0.99985941)"><tspan
         sodipodi:role="line"
         id="tspan2904-4"
         style="text-align:center;text-anchor:middle;fill:#000000;stroke-width:0.264583"
         x="122.07608"
         y="28.444712">$e$</tspan></text>
    <text
       xml:space="preserve"
       style="font-size:2.1107px;line-height:1.25;font-family:sans-serif;text-align:center;text-anchor:middle;fill:#000000;stroke-width:0.264583"
       x="125.9268"
       y="24.268293"
       id="text2906-4-69"
       transform="scale(1.0001406,0.99985941)"><tspan
         sodipodi:role="line"
         id="tspan2904-0-00"
         style="text-align:center;text-anchor:middle;fill:#000000;stroke-width:0.264583"
         x="125.9268"
         y="24.268293">3</tspan></text>
    <ellipse
       style="fill:#f2f2f2;stroke:#000000;stroke-width:0.264583;stroke-linecap:round;stroke-linejoin:round;stroke-miterlimit:4;stroke-dasharray:none"
       id="path893-2"
       cx="122.10664"
       cy="47.645386"
       rx="3.739943"
       ry="3.7388916" />
    <text
       xml:space="preserve"
       style="font-size:2.1107px;line-height:1.25;font-family:sans-serif;text-align:center;text-anchor:middle;fill:#000000;stroke-width:0.264583"
       x="122.07608"
       y="48.756924"
       id="text2906-28"
       transform="scale(1.0001406,0.99985941)"><tspan
         sodipodi:role="line"
         id="tspan2904-7"
         style="text-align:center;text-anchor:middle;fill:#000000;stroke-width:0.264583"
         x="122.07608"
         y="48.756924">$f$</tspan></text>
    <text
       xml:space="preserve"
       style="font-size:2.1107px;line-height:1.25;font-family:sans-serif;text-align:center;text-anchor:middle;fill:#000000;stroke-width:0.264583"
       x="125.9268"
       y="44.580505"
       id="text2906-4-68"
       transform="scale(1.0001406,0.99985941)"><tspan
         sodipodi:role="line"
         id="tspan2904-0-3"
         style="text-align:center;text-anchor:middle;fill:#000000;stroke-width:0.264583"
         x="125.9268"
         y="44.580505">2</tspan></text>
    <ellipse
       style="fill:#f2f2f2;stroke:#000000;stroke-width:0.264583;stroke-linecap:round;stroke-linejoin:round;stroke-miterlimit:4;stroke-dasharray:none"
       id="path893-9"
       cx="122.10664"
       cy="68.031967"
       rx="3.739943"
       ry="3.7388916" />
    <text
       xml:space="preserve"
       style="font-size:2.1107px;line-height:1.25;font-family:sans-serif;text-align:center;text-anchor:middle;fill:#000000;stroke-width:0.264583"
       x="122.07608"
       y="69.14637"
       id="text2906-68"
       transform="scale(1.0001406,0.99985941)"><tspan
         sodipodi:role="line"
         id="tspan2904-8"
         style="text-align:center;text-anchor:middle;fill:#000000;stroke-width:0.264583"
         x="122.07608"
         y="69.14637">$g$</tspan></text>
    <text
       xml:space="preserve"
       style="font-size:2.1107px;line-height:1.25;font-family:sans-serif;text-align:center;text-anchor:middle;fill:#000000;stroke-width:0.264583"
       x="125.97356"
       y="74.898972"
       id="text2906-4-64"
       transform="scale(1.0001406,0.99985941)"><tspan
         sodipodi:role="line"
         id="tspan2904-0-6"
         style="text-align:center;text-anchor:middle;fill:#000000;stroke-width:0.264583"
         x="125.97356"
         y="74.898972">3</tspan></text>
    <ellipse
       style="fill:#f2f2f2;stroke:#000000;stroke-width:0.264583;stroke-linecap:round;stroke-linejoin:round;stroke-miterlimit:4;stroke-dasharray:none"
       id="path893-03"
       cx="150.99576"
       cy="57.761456"
       rx="3.739943"
       ry="3.7388916" />
    <text
       xml:space="preserve"
       style="font-size:2.1107px;line-height:1.25;font-family:sans-serif;text-align:center;text-anchor:middle;fill:#000000;stroke-width:0.264583"
       x="150.96114"
       y="58.874416"
       id="text2906-40"
       transform="scale(1.0001406,0.99985941)"><tspan
         sodipodi:role="line"
         id="tspan2904-1"
         style="text-align:center;text-anchor:middle;fill:#000000;stroke-width:0.264583"
         x="150.96114"
         y="58.874416">$h$</tspan></text>
    <text
       xml:space="preserve"
       style="font-size:2.1107px;line-height:1.25;font-family:sans-serif;text-align:center;text-anchor:middle;fill:#000000;stroke-width:0.264583"
       x="154.81184"
       y="54.168758"
       id="text2906-4-62"
       transform="scale(1.0001406,0.99985941)"><tspan
         sodipodi:role="line"
         id="tspan2904-0-04"
         style="text-align:center;text-anchor:middle;fill:#000000;stroke-width:0.264583"
         x="154.81184"
         y="54.168758">$\infty$</tspan></text>
    <g
       id="path44546">
      <path
         style="color:#000000;fill:#000000;-inkscape-stroke:none"
         d="m 120.05273,51.152344 c 0,0 -0.50505,1.075352 -1.00976,2.445312 -0.50471,1.36996 -1.01404,3.029899 -1.01367,4.246094 3.7e-4,1.217948 0.53365,2.953816 1.0625,4.400391 0.52884,1.446575 1.05859,2.597656 1.05859,2.597656 l 0.24024,-0.109375 c 0,0 -0.52593,-1.142464 -1.05079,-2.578125 -0.52485,-1.435662 -1.04457,-3.171384 -1.04492,-4.310547 -3.5e-4,-1.140915 0.49566,-2.797896 0.9961,-4.15625 0.50043,-1.358354 1,-2.421875 1,-2.421875 z"
         id="path1068" />
      <g
         id="g1058">
        <g
           id="path1060">
          <path
             style="color:#000000;fill:#000000;fill-rule:evenodd;stroke-width:0.181901;stroke-linejoin:round;-inkscape-stroke:none"
             d="m 117.90625,53.26937 2.41085,-2.380501 -0.29431,3.375255 c -0.40872,-0.753416 -1.2648,-1.152532 -2.11654,-0.994754 z"
             id="path1064" />
          <path
             style="color:#000000;fill:#000000;fill-rule:evenodd;stroke-linejoin:round;-inkscape-stroke:none"
             d="m 120.32031,50.798828 a 0.09095959,0.09095959 0 0 0 -0.0664,0.02539 l -2.41211,2.380859 a 0.09095959,0.09095959 0 0 0 0.0801,0.154297 c 0.81399,-0.150786 1.63172,0.228806 2.02148,0.947266 a 0.09095959,0.09095959 0 0 0 0.16992,-0.03516 l 0.29492,-3.375 a 0.09095959,0.09095959 0 0 0 -0.0879,-0.09766 z m -0.11523,0.328125 -0.25781,2.947266 c -0.41956,-0.605012 -1.10699,-0.926512 -1.84766,-0.867188 z"
             id="path1066" />
        </g>
      </g>
    </g>
    <g
       id="path44754">
      <path
         style="color:#000000;fill:#000000;fill-rule:evenodd;-inkscape-stroke:none"
         d="m 147.33984,58.613281 -21.60937,7.623047 0.0879,0.25 21.60937,-7.625 z"
         id="path1082" />
      <g
         id="g1072">
        <g
           id="path1074">
          <path
             style="color:#000000;fill:#000000;fill-rule:evenodd;stroke-width:0.181901;stroke-linejoin:round;-inkscape-stroke:none"
             d="m 128.83188,66.526839 -3.38777,-0.04484 2.60975,-2.1606 c -0.24941,0.820049 0.0676,1.709817 0.77802,2.205436 z"
             id="path1078" />
          <path
             style="color:#000000;fill:#000000;fill-rule:evenodd;stroke-linejoin:round;-inkscape-stroke:none"
             d="m 128.06836,64.232422 a 0.09095959,0.09095959 0 0 0 -0.0723,0.01953 l -2.60937,2.160156 a 0.09095959,0.09095959 0 0 0 0.0566,0.160157 l 3.38672,0.04492 a 0.09095959,0.09095959 0 0 0 0.0547,-0.164062 c -0.67894,-0.473657 -0.98198,-1.323469 -0.74415,-2.105469 a 0.09095959,0.09095959 0 0 0 -0.0723,-0.115234 z m -0.0957,0.273437 c -0.13752,0.724238 0.11511,1.441297 0.67773,1.927735 l -2.95703,-0.03906 z"
             id="path1080" />
        </g>
      </g>
    </g>
    <g
       id="path44760">
      <path
         style="color:#000000;fill:#000000;fill-rule:evenodd;-inkscape-stroke:none"
         d="m 118.44336,28.158203 -21.810548,7.558594 0.08594,0.25 21.810548,-7.558594 z"
         id="path1026" />
      <g
         id="g1016">
        <g
           id="path1018">
          <path
             style="color:#000000;fill:#000000;fill-rule:evenodd;stroke-width:0.181901;stroke-linejoin:round;-inkscape-stroke:none"
             d="m 99.732825,36.02506 -3.387465,-0.06359 2.621666,-2.146121 c -0.25394,0.818657 0.05812,1.710165 0.765799,2.209711 z"
             id="path1022" />
          <path
             style="color:#000000;fill:#000000;fill-rule:evenodd;stroke-linejoin:round;-inkscape-stroke:none"
             d="m 98.982422,33.726562 a 0.09095959,0.09095959 0 0 0 -0.07227,0.01758 l -2.623047,2.146484 a 0.09095959,0.09095959 0 0 0 0.05664,0.162109 l 3.386719,0.0625 a 0.09095959,0.09095959 0 0 0 0.05469,-0.164062 c -0.67632,-0.47741 -0.972626,-1.328702 -0.730469,-2.109375 a 0.09095959,0.09095959 0 0 0 -0.07227,-0.115235 z M 98.884766,34 c -0.141497,0.72332 0.108277,1.440131 0.667968,1.929687 L 96.591797,35.875 Z"
             id="path1024" />
        </g>
      </g>
    </g>
    <g
       id="path44768">
      <path
         style="color:#000000;fill:#000000;fill-rule:evenodd;-inkscape-stroke:none"
         d="m 64.027344,51.816406 0.02148,12.470703 H 64.3125 L 64.29297,51.816406 Z"
         id="path1152" />
      <g
         id="g1142">
        <g
           id="path1144">
          <path
             style="color:#000000;fill:#000000;fill-rule:evenodd;stroke-width:0.181901;stroke-linejoin:round;-inkscape-stroke:none"
             d="m 62.990665,54.646585 1.163986,-3.181839 1.174656,3.177915 c -0.691219,-0.506853 -1.635755,-0.502341 -2.338642,0.0039 z"
             id="path1148" />
          <path
             style="color:#000000;fill:#000000;fill-rule:evenodd;stroke-linejoin:round;-inkscape-stroke:none"
             d="m 64.154297,51.373047 a 0.09095959,0.09095959 0 0 0 -0.08594,0.06055 l -1.164062,3.18164 0.01172,0.002 a 0.09095959,0.09095959 0 0 0 -0.01563,0.0293 0.09095959,0.09095959 0 0 0 0.160156,0.03906 l -0.01758,0.03516 c 0.67174,-0.483808 1.573273,-0.487243 2.232422,-0.0039 a 0.09095959,0.09095959 0 0 0 0.138671,-0.105469 l -1.173828,-3.177734 a 0.09095959,0.09095959 0 0 0 -0.08594,-0.06055 z m 0.002,0.353515 1.025391,2.777344 C 64.543709,54.13443 63.784,54.137755 63.138719,54.507806 Z"
             id="path1150" />
        </g>
      </g>
    </g>
  </g>
  <inkscape:templateinfo>
    <inkscape:name>Default Template</inkscape:name>
    <inkscape:author>Joachim Favre</inkscape:author>
    <inkscape:shortdesc>Arrow definitions, snapping (including perpendicular and tangential)</inkscape:shortdesc>
    <inkscape:date>2022-02-19</inkscape:date>
  </inkscape:templateinfo>
</svg>
