<?xml version="1.0" encoding="UTF-8" standalone="no"?>
<!-- Created with Inkscape (http://www.inkscape.org/) -->

<svg
   width="86.774132mm"
   height="25.614946mm"
   viewBox="0 0 86.774132 25.614946"
   version="1.1"
   id="svg5"
   inkscape:version="1.2.2 (732a01da63, 2022-12-09)"
   sodipodi:docname="NonMonogamyOfEntanglement.svg"
   xmlns:inkscape="http://www.inkscape.org/namespaces/inkscape"
   xmlns:sodipodi="http://sodipodi.sourceforge.net/DTD/sodipodi-0.dtd"
   xmlns="http://www.w3.org/2000/svg"
   xmlns:svg="http://www.w3.org/2000/svg">
  <sodipodi:namedview
     id="namedview7"
     pagecolor="#ffffff"
     bordercolor="#111111"
     borderopacity="1"
     inkscape:pageshadow="0"
     inkscape:pageopacity="0"
     inkscape:pagecheckerboard="1"
     inkscape:document-units="mm"
     showgrid="false"
     inkscape:snap-perpendicular="true"
     inkscape:snap-tangential="true"
     inkscape:snap-bbox="true"
     inkscape:bbox-paths="true"
     inkscape:bbox-nodes="true"
     inkscape:snap-bbox-edge-midpoints="true"
     inkscape:snap-bbox-midpoints="true"
     inkscape:object-paths="true"
     inkscape:snap-intersection-paths="true"
     inkscape:snap-object-midpoints="true"
     inkscape:snap-center="true"
     inkscape:showpageshadow="0"
     inkscape:deskcolor="#d1d1d1"
     showguides="true"
     inkscape:zoom="2.6532575"
     inkscape:cx="207.29236"
     inkscape:cy="95.354484"
     inkscape:window-width="3440"
     inkscape:window-height="1369"
     inkscape:window-x="-8"
     inkscape:window-y="330"
     inkscape:window-maximized="1"
     inkscape:current-layer="layer1">
    <sodipodi:guide
       position="7.6172446,24.542833"
       orientation="1,0"
       id="guide527"
       inkscape:locked="false" />
    <sodipodi:guide
       position="43.917358,24.542833"
       orientation="1,0"
       id="guide531"
       inkscape:locked="false" />
    <sodipodi:guide
       position="81.436343,24.542833"
       orientation="1,0"
       id="guide533"
       inkscape:locked="false" />
    <sodipodi:guide
       position="7.6172446,15.516552"
       orientation="0,-1"
       id="guide535"
       inkscape:locked="false" />
  </sodipodi:namedview>
  <defs
     id="defs2">
    <inkscape:path-effect
       effect="spiro"
       id="path-effect717"
       is_visible="true"
       lpeversion="1" />
    <inkscape:path-effect
       effect="spiro"
       id="path-effect605"
       is_visible="true"
       lpeversion="1" />
    <marker
       style="overflow:visible"
       id="Arrow2Lend"
       refX="0"
       refY="0"
       orient="auto"
       inkscape:stockid="Arrow2Lend"
       inkscape:isstock="true">
      <path
         transform="matrix(-1.1,0,0,-1.1,-1.1,0)"
         d="M 8.7185878,4.0337352 -2.2072895,0.01601326 8.7185884,-4.0017078 c -1.7454984,2.3720609 -1.7354408,5.6174519 -6e-7,8.035443 z"
         style="fill:context-stroke;fill-rule:evenodd;stroke:context-stroke;stroke-width:0.625;stroke-linejoin:round"
         id="path880" />
    </marker>
    <marker
       style="overflow:visible"
       id="Arrow2Lstart"
       refX="0"
       refY="0"
       orient="auto"
       inkscape:stockid="Arrow2Lstart"
       inkscape:isstock="true">
      <path
         transform="matrix(1.1,0,0,1.1,1.1,0)"
         d="M 8.7185878,4.0337352 -2.2072895,0.01601326 8.7185884,-4.0017078 c -1.7454984,2.3720609 -1.7354408,5.6174519 -6e-7,8.035443 z"
         style="fill:context-stroke;fill-rule:evenodd;stroke:context-stroke;stroke-width:0.625;stroke-linejoin:round"
         id="path877" />
    </marker>
  </defs>
  <g
     inkscape:label="Layer 1"
     inkscape:groupmode="layer"
     id="layer1"
     transform="translate(-42.697208,-16.851276)">
    <text
       xml:space="preserve"
       style="font-size:2.82223px;font-family:Roboto;-inkscape-font-specification:Roboto;text-align:center;text-anchor:middle;fill:#000000;stroke-width:0.264583;stroke-linecap:round;stroke-linejoin:round;stroke-miterlimit:4.1;stroke-dashoffset:0.799999"
       x="50.346149"
       y="18.967949"
       id="text199"><tspan
         sodipodi:role="line"
         id="tspan197"
         style="fill:#000000;stroke-width:0.264583"
         x="50.346149"
         y="18.967949">Alice</tspan></text>
    <text
       xml:space="preserve"
       style="font-size:2.82223px;font-family:Roboto;-inkscape-font-specification:Roboto;text-align:center;text-anchor:middle;fill:#000000;stroke-width:0.264583;stroke-linecap:round;stroke-linejoin:round;stroke-miterlimit:4.1;stroke-dashoffset:0.799999"
       x="86.562202"
       y="18.967949"
       id="text413"><tspan
         sodipodi:role="line"
         id="tspan411"
         style="font-weight:normal;fill:#000000;stroke-width:0.264583"
         x="86.562202"
         y="18.967949">Bob</tspan></text>
    <text
       xml:space="preserve"
       style="font-size:2.82223px;font-family:Roboto;-inkscape-font-specification:Roboto;text-align:center;text-anchor:middle;fill:#000000;stroke-width:0.264583;stroke-linecap:round;stroke-linejoin:round;stroke-miterlimit:4.1;stroke-dashoffset:0.799999"
       x="124.10255"
       y="18.967949"
       id="text417"><tspan
         sodipodi:role="line"
         id="tspan415"
         style="fill:#000000;stroke-width:0.264583"
         x="124.10255"
         y="18.967949">Charlie</tspan></text>
    <text
       xml:space="preserve"
       style="font-size:2.82223px;font-family:Roboto;-inkscape-font-specification:Roboto;text-align:center;text-anchor:middle;fill:#000000;stroke-width:0.264583;stroke-linecap:round;stroke-linejoin:round;stroke-miterlimit:4.1;stroke-dashoffset:0.799999"
       x="107.95512"
       y="18.967949"
       id="text421"><tspan
         sodipodi:role="line"
         id="tspan419"
         style="stroke-width:0.264583"
         x="107.95512"
         y="18.967949"></tspan></text>
    <circle
       style="fill:#000000;stroke-width:0.264583;stroke-linecap:round;stroke-linejoin:round;stroke-miterlimit:4.1;stroke-dashoffset:0.799999"
       id="path525"
       cx="50.314453"
       cy="26.949671"
       r="0.98717952" />
    <circle
       style="fill:#000000;stroke-width:0.264583;stroke-linecap:round;stroke-linejoin:round;stroke-miterlimit:4.1;stroke-dashoffset:0.799999"
       id="circle541"
       cx="86.614563"
       cy="26.949671"
       r="0.98717952" />
    <circle
       style="fill:#000000;stroke-width:0.264583;stroke-linecap:round;stroke-linejoin:round;stroke-miterlimit:4.1;stroke-dashoffset:0.799999"
       id="circle543"
       cx="86.614563"
       cy="37.865379"
       r="0.98717952" />
    <circle
       style="fill:#000000;stroke-width:0.264583;stroke-linecap:round;stroke-linejoin:round;stroke-miterlimit:4.1;stroke-dashoffset:0.799999"
       id="circle547"
       cx="124.13355"
       cy="37.865379"
       r="0.98717952" />
    <path
       style="fill:none;stroke:#000000;stroke-width:0.264583;stroke-linecap:round;stroke-linejoin:round;stroke-miterlimit:4.1;stroke-dashoffset:0.799999"
       d="m 44.28205,24.044872 c -0.817074,0.721596 -1.379259,1.75168 -1.44579,2.839744 -0.03327,0.544032 0.05631,1.096689 0.271807,1.59733 0.215491,0.50064 0.557691,0.947894 0.992512,1.27654 0.632292,0.477898 1.437771,0.690168 2.230256,0.702259 0.792485,0.01209 1.576938,-0.164517 2.333035,-0.402209 1.512193,-0.475382 2.988203,-1.206263 4.573309,-1.218792 1.305704,-0.01032 2.560778,0.471196 3.762975,0.980794 1.202198,0.509598 2.413567,1.061441 3.711385,1.205102 1.126084,0.124651 2.270029,-0.06682 3.347072,-0.418365 1.077042,-0.351542 2.095439,-0.860011 3.099679,-1.384515 2.008481,-1.049007 4.076218,-2.197805 6.340891,-2.273089 1.943721,-0.06461 3.825142,0.677183 5.547725,1.579919 1.722583,0.902737 3.361419,1.981972 5.175274,2.683512 0.906927,0.35077 1.856762,0.604894 2.826344,0.678837 0.969582,0.07394 1.960787,-0.03641 2.865889,-0.391861 0.905102,-0.355454 1.720516,-0.963589 2.260587,-1.772217 0.540071,-0.808629 0.790408,-1.820864 0.619872,-2.778191 -0.198912,-1.116621 -0.954172,-2.087864 -1.90863,-2.700578 -0.954458,-0.612714 -2.092146,-0.893548 -3.223744,-0.970326 -2.263196,-0.153555 -4.516571,0.468959 -6.784293,0.413541 -2.00083,-0.0489 -3.946302,-0.622509 -5.874495,-1.158966 -1.928192,-0.536457 -3.901642,-1.044148 -5.901146,-0.956418 -2.894136,0.126983 -5.59485,1.486412 -8.461538,1.903846 -2.855433,0.415795 -5.752007,-0.116105 -8.602565,-0.564103 -1.335505,-0.20989 -2.687227,-0.402165 -4.035064,-0.297466 -1.347837,0.104699 -2.708043,0.530775 -3.721347,1.425672 z"
       id="path603"
       inkscape:path-effect="#path-effect605"
       inkscape:original-d="m 44.28205,24.044872 c -2.585733,0.375803 0.876487,3.410461 -0.181471,5.713614 -1.057957,2.303155 6.414902,-4.004636 9.1366,-0.918742 3.337344,3.783922 1.575052,1.880606 7.47436,2.185896 5.899306,0.305292 7.146881,-4.21673 12.787642,-4.075969 5.64076,0.14076 17.721169,1.899519 19.295691,-10e-7 1.574519,-1.899519 -7.944181,-2.171311 -11.916667,-3.257363 -3.972488,-1.086052 17.985585,-33.784457 -11.775641,-2.115384 -3.155179,3.357442 -6.040333,2.468214 -8.461538,1.903846 -2.421205,-0.564367 -6.016829,-0.822385 -8.602565,-0.564103 -2.585736,0.258283 -5.170675,0.752402 -7.756411,1.128206 z"
       sodipodi:nodetypes="sssssssssss" />
    <path
       style="fill:none;stroke:#000000;stroke-width:0.264583;stroke-linecap:round;stroke-linejoin:round;stroke-miterlimit:4.1;stroke-dashoffset:0.799999"
       d="m 79.820512,35.326923 c -0.506435,1.418537 -0.361832,3.055295 0.385467,4.363067 0.747299,1.307771 2.084015,2.263322 3.563252,2.547188 1.193089,0.228954 2.441363,0.03396 3.574328,-0.404527 1.132966,-0.438488 2.161159,-1.111566 3.12439,-1.851882 0.911491,-0.70055 1.776262,-1.467631 2.752403,-2.074867 0.97614,-0.607236 2.091891,-1.054099 3.24119,-1.027698 1.110591,0.02551 2.165842,0.488377 3.126145,1.046841 0.960303,0.558464 1.861573,1.220889 2.860073,1.707772 2.14422,1.045551 4.60682,1.220629 6.99142,1.153355 2.38461,-0.06728 4.77131,-0.358028 7.1495,-0.170788 2.13926,0.168428 4.24751,0.722384 6.39332,0.70481 1.0729,-0.0088 2.15485,-0.164545 3.14834,-0.569731 0.99349,-0.405187 1.89642,-1.071353 2.48505,-1.968412 0.71369,-1.087639 0.92143,-2.499717 0.52326,-3.738168 -0.39818,-1.23845 -1.4028,-2.272325 -2.63865,-2.678497 -0.75583,-0.248409 -1.57346,-0.267825 -2.36045,-0.151069 -0.787,0.116755 -1.54836,0.365536 -2.2934,0.644657 -2.71966,1.018894 -5.35302,2.474 -8.25,2.679486 -1.76182,0.124968 -3.52304,-0.224564 -5.231,-0.674574 -1.70795,-0.45001 -3.39321,-1.003241 -5.13438,-1.299784 -3.854111,-0.656401 -7.822928,-0.03149 -11.705131,-0.493591 -1.593344,-0.189657 -3.163326,-0.561627 -4.762731,-0.690548 -1.599404,-0.12892 -3.271715,0.0031 -4.685987,0.761058 -0.934942,0.50109 -1.725899,1.26733 -2.256409,2.185898 z"
       id="path715"
       inkscape:path-effect="#path-effect717"
       inkscape:original-d="m 79.820512,35.326923 c -0.752401,0.728369 2.632742,4.607102 3.948719,6.910255 1.315974,2.303155 4.466076,-1.504008 6.698718,-2.256409 2.232641,-0.752401 0.681883,-2.984778 5.993593,-3.102565 5.311698,-0.117785 4.223658,1.603167 5.986218,2.754613 1.76255,1.151443 9.9941,0.771294 14.14092,0.982567 4.14681,0.211275 7.17192,-1.033923 12.02671,-1.833333 4.85479,-0.799409 -0.14077,-3.807427 -2.11539,-6.416665 -1.97462,-2.609239 -1.01042,0.70539 -4.65385,0.493588 -3.64343,-0.211804 -5.49973,1.786589 -8.25,2.679486 -2.75026,0.8929 -6.90999,-1.315974 -10.36538,-1.974358 -3.455393,-0.658384 -7.803156,-0.328795 -11.705131,-0.493591 -3.901974,-0.164793 -6.29888,0.04727 -9.448718,0.07051 -3.149835,0.02323 -1.504008,1.457529 -2.256409,2.185898 z"
       sodipodi:nodetypes="sssssssssssssss" />
  </g>
  <inkscape:templateinfo>
    <inkscape:name>Default Template</inkscape:name>
    <inkscape:author>Joachim Favre</inkscape:author>
    <inkscape:shortdesc>Arrow definitions, snapping (including perpendicular and tangential)</inkscape:shortdesc>
    <inkscape:date>2022-02-19</inkscape:date>
  </inkscape:templateinfo>
</svg>
