<?xml version="1.0" encoding="UTF-8" standalone="no"?>
<!-- Created with Inkscape (http://www.inkscape.org/) -->

<svg
   width="37.912239mm"
   height="21.648098mm"
   viewBox="0 0 37.912239 21.648098"
   version="1.1"
   id="svg5"
   inkscape:version="1.1.2 (b8e25be833, 2022-02-05)"
   sodipodi:docname="CaracterisationCourbeFermees.svg"
   xmlns:inkscape="http://www.inkscape.org/namespaces/inkscape"
   xmlns:sodipodi="http://sodipodi.sourceforge.net/DTD/sodipodi-0.dtd"
   xmlns="http://www.w3.org/2000/svg"
   xmlns:svg="http://www.w3.org/2000/svg">
  <sodipodi:namedview
     id="namedview7"
     pagecolor="#ffffff"
     bordercolor="#111111"
     borderopacity="1"
     inkscape:pageshadow="0"
     inkscape:pageopacity="0"
     inkscape:pagecheckerboard="1"
     inkscape:document-units="mm"
     showgrid="false"
     inkscape:snap-perpendicular="true"
     inkscape:snap-tangential="true"
     inkscape:snap-bbox="true"
     inkscape:bbox-paths="true"
     inkscape:bbox-nodes="true"
     inkscape:snap-bbox-edge-midpoints="true"
     inkscape:snap-bbox-midpoints="true"
     inkscape:object-paths="true"
     inkscape:snap-intersection-paths="true"
     inkscape:snap-object-midpoints="true"
     inkscape:snap-center="true"
     inkscape:zoom="2.5620932"
     inkscape:cx="249.01514"
     inkscape:cy="42.933645"
     inkscape:window-width="3357"
     inkscape:window-height="1417"
     inkscape:window-x="75"
     inkscape:window-y="-8"
     inkscape:window-maximized="1"
     inkscape:current-layer="layer1" />
  <defs
     id="defs2">
    <marker
       style="overflow:visible"
       id="Arrow2Lend"
       refX="0"
       refY="0"
       orient="auto"
       inkscape:stockid="Arrow2Lend"
       inkscape:isstock="true">
      <path
         transform="matrix(-1.1,0,0,-1.1,-1.1,0)"
         d="M 8.7185878,4.0337352 -2.2072895,0.01601326 8.7185884,-4.0017078 c -1.7454984,2.3720609 -1.7354408,5.6174519 -6e-7,8.035443 z"
         style="fill:context-stroke;fill-rule:evenodd;stroke:context-stroke;stroke-width:0.625;stroke-linejoin:round"
         id="path880" />
    </marker>
    <marker
       style="overflow:visible"
       id="Arrow2Lstart"
       refX="0"
       refY="0"
       orient="auto"
       inkscape:stockid="Arrow2Lstart"
       inkscape:isstock="true">
      <path
         transform="matrix(1.1,0,0,1.1,1.1,0)"
         d="M 8.7185878,4.0337352 -2.2072895,0.01601326 8.7185884,-4.0017078 c -1.7454984,2.3720609 -1.7354408,5.6174519 -6e-7,8.035443 z"
         style="fill:context-stroke;fill-rule:evenodd;stroke:context-stroke;stroke-width:0.625;stroke-linejoin:round"
         id="path877" />
    </marker>
  </defs>
  <g
     inkscape:label="Layer 1"
     inkscape:groupmode="layer"
     id="layer1"
     transform="translate(-66.680901,-31.026646)">
    <g
       id="path1245">
      <path
         style="color:#000000;fill:#ff2a2a;stroke-linecap:round;-inkscape-stroke:none"
         d="m 79.490234,32.544922 c -2.694092,0.04908 -5.180746,1.370399 -7.242187,3.4375 -2.748588,2.756134 -4.758819,6.837402 -5.564453,11.046875 a 0.132291,0.132291 0 0 0 0.103515,0.15625 0.132291,0.132291 0 0 0 0.15625,-0.105469 c 0.796271,-4.160546 2.790385,-8.200936 5.492188,-10.910156 2.701803,-2.70922 6.091575,-4.08835 9.732422,-2.976563 3.259129,0.995225 8.094067,4.439351 11.466797,8.042969 a 0.132291,0.132291 0 0 0 0.185546,0.0078 0.132291,0.132291 0 0 0 0.0078,-0.1875 C 90.426959,37.422641 85.597485,33.962842 82.246081,32.93944 81.310193,32.653653 80.388252,32.528548 79.490221,32.544909 Z"
         id="path3925" />
      <g
         id="g3899">
        <g
           id="path3917">
          <path
             style="color:#000000;fill:#ff2a2a;fill-rule:evenodd;stroke-width:0.1819;stroke-linejoin:round;-inkscape-stroke:none"
             d="m 79.844493,31.117935 2.699733,2.047026 -3.382737,0.189652 c 0.687485,-0.511902 0.96054,-1.416116 0.683004,-2.236678 z"
             id="path3921" />
          <path
             style="color:#000000;fill:#ff2a2a;fill-rule:evenodd;stroke-linejoin:round;-inkscape-stroke:none"
             d="m 79.791016,31.044922 a 0.09095909,0.09095909 0 0 0 -0.0332,0.101562 c 0.265238,0.784201 0.0052,1.646615 -0.65039,2.134766 a 0.09095909,0.09095909 0 0 0 0.05859,0.164062 l 3.382812,-0.189453 a 0.09095909,0.09095909 0 0 0 0.05078,-0.164062 L 79.90039,31.044922 a 0.09095909,0.09095909 0 0 0 -0.109374,0 z m 0.142578,0.253906 2.359375,1.789063 -2.955078,0.166015 c 0.539767,-0.501482 0.760074,-1.229973 0.595703,-1.955078 z"
             id="path3923" />
        </g>
        <g
           id="path3909" />
        <g
           id="path3901" />
      </g>
    </g>
    <g
       id="path1798">
      <path
         style="color:#000000;fill:#0055d4;stroke-linecap:round;-inkscape-stroke:none"
         d="m 93.734375,41.013672 a 0.132291,0.132291 0 0 0 -0.09375,0.03711 0.132291,0.132291 0 0 0 -0.0059,0.185547 c 2.081193,2.223666 3.603794,4.516273 3.886718,6.287109 0.141463,0.885419 -0.01733,1.629282 -0.552734,2.207032 -0.535401,0.577749 -1.467383,0.996004 -2.900391,1.167968 h -0.002 -0.0039 C 89.26308,51.698164 77.136995,52.122794 66.873047,46.9375 a 0.132291,0.132291 0 0 0 -0.177735,0.05859 0.132291,0.132291 0 0 0 0.05859,0.177734 c 10.343794,5.225632 22.496151,4.795384 27.351563,3.986328 1.465984,-0.176926 2.463862,-0.608228 3.058593,-1.25 0.59569,-0.642806 0.769322,-1.489702 0.619141,-2.429687 -0.300361,-1.879971 -1.856345,-4.181423 -3.955078,-6.423828 a 0.132291,0.132291 0 0 0 -0.09375,-0.04297 z"
         id="path3895" />
      <g
         id="g3885">
        <g
           id="path3887">
          <path
             style="color:#000000;fill:#0055d4;fill-rule:evenodd;stroke-width:0.1819;stroke-linejoin:round;-inkscape-stroke:none"
             d="m 91.117992,50.268815 3.313542,0.706622 -2.981941,1.608386 c 0.404989,-0.755422 0.268162,-1.690003 -0.331601,-2.315008 z"
             id="path3891" />
          <path
             style="color:#000000;fill:#0055d4;fill-rule:evenodd;stroke-linejoin:round;-inkscape-stroke:none"
             d="m 91.136719,50.179687 a 0.09095909,0.09095909 0 0 0 -0.08398,0.152344 c 0.573186,0.597309 0.702605,1.488612 0.316407,2.208985 a 0.09095909,0.09095909 0 0 0 0.123046,0.123046 l 2.982422,-1.609375 a 0.09095909,0.09095909 0 0 0 -0.02344,-0.167968 z m 0.140625,0.214844 2.892578,0.619141 -2.603516,1.404297 c 0.27593,-0.683254 0.167612,-1.43666 -0.289062,-2.023438 z"
             id="path3893" />
        </g>
      </g>
    </g>
    <text
       xml:space="preserve"
       style="font-style:normal;font-weight:normal;font-size:0.705556px;line-height:1.25;font-family:sans-serif;fill:#ff2a2a;fill-opacity:1;stroke:none;stroke-width:0.264583"
       x="88.100807"
       y="34.715279"
       id="text5722"><tspan
         sodipodi:role="line"
         id="tspan5720"
         style="font-size:0.705556px;fill:#ff2a2a;fill-opacity:1;stroke-width:0.264583"
         x="88.100807"
         y="34.715279">$\Gamma_2$</tspan></text>
    <text
       xml:space="preserve"
       style="font-style:normal;font-weight:normal;font-size:0.705556px;line-height:1.25;font-family:sans-serif;fill:#0055d4;fill-opacity:1;stroke:none;stroke-width:0.264583"
       x="99.760361"
       y="49.068058"
       id="text5722-7"><tspan
         sodipodi:role="line"
         id="tspan5720-8"
         style="font-size:0.705556px;fill:#0055d4;fill-opacity:1;stroke-width:0.264583"
         x="99.760361"
         y="49.068058">$\Gamma_1$</tspan></text>
  </g>
  <inkscape:templateinfo>
    <inkscape:name>Default Template</inkscape:name>
    <inkscape:author>Joachim Favre</inkscape:author>
    <inkscape:shortdesc>Arrow definitions, snapping (including perpendicular and tangential)</inkscape:shortdesc>
    <inkscape:date>2022-02-19</inkscape:date>
  </inkscape:templateinfo>
</svg>
