<?xml version="1.0" encoding="UTF-8" standalone="no"?>
<!-- Created with Inkscape (http://www.inkscape.org/) -->

<svg
   width="210mm"
   height="297mm"
   viewBox="0 0 210 297"
   version="1.1"
   id="svg5"
   inkscape:version="1.2.2 (732a01da63, 2022-12-09)"
   sodipodi:docname="BinaryEntropyGraph.svg"
   xmlns:inkscape="http://www.inkscape.org/namespaces/inkscape"
   xmlns:sodipodi="http://sodipodi.sourceforge.net/DTD/sodipodi-0.dtd"
   xmlns="http://www.w3.org/2000/svg"
   xmlns:svg="http://www.w3.org/2000/svg">
  <sodipodi:namedview
     id="namedview7"
     pagecolor="#ffffff"
     bordercolor="#111111"
     borderopacity="1"
     inkscape:pageshadow="0"
     inkscape:pageopacity="0"
     inkscape:pagecheckerboard="1"
     inkscape:document-units="mm"
     showgrid="false"
     inkscape:snap-perpendicular="true"
     inkscape:snap-tangential="true"
     inkscape:snap-bbox="true"
     inkscape:bbox-paths="true"
     inkscape:bbox-nodes="true"
     inkscape:snap-bbox-edge-midpoints="true"
     inkscape:snap-bbox-midpoints="true"
     inkscape:object-paths="true"
     inkscape:snap-intersection-paths="true"
     inkscape:snap-object-midpoints="true"
     inkscape:snap-center="true"
     inkscape:showpageshadow="0"
     inkscape:deskcolor="#d1d1d1"
     inkscape:zoom="2.6532575"
     inkscape:cx="242.7205"
     inkscape:cy="206.91546"
     inkscape:window-width="3440"
     inkscape:window-height="1369"
     inkscape:window-x="-8"
     inkscape:window-y="330"
     inkscape:window-maximized="1"
     inkscape:current-layer="layer1"
     showguides="true">
    <sodipodi:guide
       position="111.5513,275.55511"
       orientation="0,-1"
       id="guide1016"
       inkscape:locked="false" />
    <sodipodi:guide
       position="111.5513,275.55512"
       orientation="1,0"
       id="guide1018"
       inkscape:locked="false" />
  </sodipodi:namedview>
  <defs
     id="defs2">
    <inkscape:path-effect
       effect="spiro"
       id="path-effect972"
       is_visible="true"
       lpeversion="1" />
    <inkscape:path-effect
       effect="spiro"
       id="path-effect360"
       is_visible="true"
       lpeversion="1" />
    <marker
       style="overflow:visible"
       id="Arrow2Lend"
       refX="0"
       refY="0"
       orient="auto"
       inkscape:stockid="Arrow2Lend"
       inkscape:isstock="true"
       viewBox="0 0 12.705841 9.5264135"
       markerWidth="12.705841"
       markerHeight="9.5264139"
       preserveAspectRatio="xMidYMid">
      <path
         transform="matrix(-1.1,0,0,-1.1,-1.1,0)"
         d="M 8.7185878,4.0337352 -2.2072895,0.01601326 8.7185884,-4.0017078 c -1.7454984,2.3720609 -1.7354408,5.6174519 -6e-7,8.035443 z"
         style="fill:context-stroke;fill-rule:evenodd;stroke:context-stroke;stroke-width:0.625;stroke-linejoin:round"
         id="path880" />
    </marker>
    <marker
       style="overflow:visible"
       id="Arrow2Lstart"
       refX="0.0"
       refY="0.0"
       orient="auto"
       inkscape:stockid="Arrow2Lstart"
       inkscape:isstock="true">
      <path
         transform="scale(1.1) translate(1,0)"
         d="M 8.7185878,4.0337352 L -2.2072895,0.016013256 L 8.7185884,-4.0017078 C 6.9730900,-1.6296469 6.9831476,1.6157441 8.7185878,4.0337352 z "
         style="stroke:context-stroke;fill-rule:evenodd;fill:context-stroke;stroke-width:0.62500000;stroke-linejoin:round"
         id="path877" />
    </marker>
  </defs>
  <g
     inkscape:label="Layer 1"
     inkscape:groupmode="layer"
     id="layer1">
    <path
       style="fill:none;stroke:#000000;stroke-width:0.264583;stroke-linecap:round;stroke-linejoin:round;stroke-miterlimit:4.1;stroke-dashoffset:0;stroke-dasharray:0.26458299,0.79374898"
       d="M 78.410233,21.44489 H 111.5513 v 66.413786"
       id="path1132" />
    <path
       style="fill:none;stroke:#216778;stroke-width:0.264583;stroke-linecap:round;stroke-linejoin:round;stroke-miterlimit:4.1;stroke-dashoffset:0.799999"
       d="m 78.410235,87.858679 h 66.282145 m -66.282145,-10e-4 c 0.02214,-0.42845 0.04428,-0.5352 0.06634,-0.75587 0.02214,-0.21996 0.04428,-0.42558 0.06634,-0.62404 0.02214,-0.19775 0.04428,-0.38833 0.06635,-0.57317 0.02214,-0.18557 0.04428,-0.3654 0.06634,-0.54165 0.02214,-0.17553 0.04428,-0.3482 0.06634,-0.51657 0.02214,-0.16909 0.04428,-0.33459 0.06642,-0.49794 0.02207,-0.16264 0.04421,-0.32313 0.06635,-0.48147 0.02207,-0.15762 0.04421,-0.31381 0.06634,-0.46713 0.02207,-0.15404 0.04421,-0.30593 0.06635,-0.45567 0.02207,-0.14975 0.04421,-0.29805 0.06634,-0.44493 0.02207,-0.14616 0.04421,-0.2916 0.06634,-0.43489 0.02207,-0.1433 0.04421,-0.28587 0.06634,-0.4263 0.02214,-0.14043 0.04421,-0.28014 0.06634,-0.41841 0.02214,-0.13757 0.04421,-0.27441 0.06634,-0.41054 0.02214,-0.13541 0.04421,-0.27011 0.06634,-0.40337 0.02214,-0.13398 0.04421,-0.26581 0.06634,-0.39764 0.02214,-0.13111 0.04421,-0.26151 0.06634,-0.39119 0.02214,-0.12896 0.04428,-0.25792 0.06635,-0.38545 0.02214,-0.12753 0.04428,-0.25435 0.06634,-0.37973 0.02214,-0.1261 0.04428,-0.25076 0.06634,-0.37543 0.02214,-0.12395 0.04428,-0.24718 0.06634,-0.36969 0.02214,-0.12252 0.04428,-0.24432 0.06634,-0.3654 0.02214,-0.121083 0.04428,-0.241449 0.06634,-0.361099 0.02214,-0.119649 0.04428,-0.238582 0.06642,-0.356799 0.02207,-0.1175 0.04421,-0.235 0.06634,-0.352501 0.02207,-0.116783 0.04421,-0.232851 0.06634,-0.348201 0.02207,-0.116068 0.04421,-0.230702 0.06634,-0.345336 0.02207,-0.113918 0.04421,-0.227836 0.06634,-0.341037 0.02207,-0.113202 0.04421,-0.225687 0.06634,-0.337455 0.02207,-0.111769 0.04421,-0.223537 0.06634,-0.334589 0.02214,-0.110336 0.04421,-0.220671 0.06634,-0.331007 0.02214,-0.109619 0.04421,-0.218522 0.06634,-0.327424 0.02214,-0.108903 0.04421,-0.217089 0.06635,-0.324559 0.02214,-0.108186 0.0442,-0.215655 0.06634,-0.322409 0.02214,-0.106753 0.04421,-0.21279 0.06634,-0.318826 0.02214,-0.105321 0.04421,-0.210641 0.06634,-0.315961 0.02214,-0.104604 0.04428,-0.209208 0.06634,-0.313095 0.02214,-0.103888 0.04428,-0.207059 0.06634,-0.31023 0.02214,-0.10317 0.04428,-0.205625 0.06634,-0.308079 0.02214,-0.102455 0.04428,-0.204193 0.06634,-0.305214 0.02214,-0.101738 0.04428,-0.202043 0.06634,-0.303065 0.02214,-0.100305 0.04428,-0.20061 0.06634,-0.30027 0.02214,-0.0998 0.04428,-0.199106 0.06642,-0.298121 0.02207,-0.09894 0.04421,-0.197529 0.06634,-0.295685 0.02207,-0.09823 0.04421,-0.196025 0.06634,-0.293464 0.02207,-0.09744 0.04421,-0.19452 0.06634,-0.291243 0.02207,-0.09665 0.04421,-0.193015 0.06634,-0.289021 0.02207,-0.09601 0.04421,-0.191583 0.06634,-0.286873 0.02207,-0.09529 0.04421,-0.190221 0.06634,-0.284794 0.02214,-0.09464 0.04421,-0.188861 0.06634,-0.282789 0.02214,-0.09393 0.04421,-0.187499 0.06634,-0.280711 0.02214,-0.09328 0.04421,-0.186209 0.06634,-0.278776 0.02214,-0.09264 0.04421,-0.184848 0.06635,-0.276842 0.02214,-0.09192 0.04421,-0.183558 0.06634,-0.274908 0.02214,-0.09135 0.04428,-0.18234 0.06634,-0.273044 0.02214,-0.0907 0.04428,-0.181123 0.06634,-0.271182 0.02214,-0.09013 0.04428,-0.179904 0.06634,-0.269391 0.02214,-0.08949 0.04428,-0.178686 0.06634,-0.267599 0.02214,-0.08891 0.04428,-0.17754 0.06634,-0.26588 0.02214,-0.08834 0.04428,-0.176322 0.06634,-0.264089 0.02214,-0.08777 0.04428,-0.175247 0.06642,-0.262441 0.02207,-0.08719 0.04421,-0.174101 0.06634,-0.260793 0.02207,-0.08662 0.04421,-0.172955 0.06634,-0.259074 0.02207,-0.08612 0.0442,-0.171951 0.06634,-0.257497 0.02207,-0.08555 0.04421,-0.170877 0.06634,-0.255921 0.02207,-0.08504 0.04421,-0.169802 0.06634,-0.254274 0.02207,-0.08454 0.04421,-0.168799 0.06634,-0.252768 0.02214,-0.08404 0.04421,-0.167796 0.06634,-0.251264 0.02214,-0.08347 0.04421,-0.166722 0.06634,-0.249688 0.02214,-0.08304 0.04421,-0.16579 0.06634,-0.248255 0.02214,-0.08254 0.04421,-0.164787 0.06634,-0.246751 0.02214,-0.08203 0.04421,-0.163784 0.06634,-0.245317 0.02214,-0.08153 0.04421,-0.162853 0.06634,-0.243885 0.02214,-0.08103 0.04428,-0.161849 0.06634,-0.242451 0.02214,-0.0806 0.04428,-0.16099 0.06634,-0.241091 0.02214,-0.0801 0.04428,-0.159986 0.06634,-0.239657 0.02214,-0.07967 0.04428,-0.159127 0.06634,-0.238368 0.02214,-0.07917 0.04428,-0.158195 0.06635,-0.236935 0.02214,-0.07881 0.04428,-0.157335 0.06634,-0.235645 0.02214,-0.07838 0.04428,-0.156476 0.06642,-0.234355 0.02207,-0.07788 0.04421,-0.155545 0.06634,-0.232995 0.02207,-0.07752 0.04421,-0.154756 0.06634,-0.231776 0.02207,-0.07702 0.04421,-0.153825 0.06635,-0.230487 0.02207,-0.07659 0.0442,-0.153037 0.06634,-0.229197 0.02207,-0.07623 0.04421,-0.152177 0.06634,-0.227979 0.02214,-0.0758 0.04421,-0.151389 0.06634,-0.226761 0.02214,-0.07537 0.04421,-0.150529 0.06634,-0.225471 0.02214,-0.07501 0.04421,-0.149741 0.06634,-0.224325 0.02214,-0.07458 0.04421,-0.148953 0.06634,-0.223107 0.02214,-0.07423 0.04421,-0.148165 0.06634,-0.221961 0.02214,-0.0738 0.04421,-0.147377 0.06634,-0.220814 0.02214,-0.07337 0.04428,-0.146589 0.06634,-0.219597 0.02214,-0.07301 0.04428,-0.1458 0.06634,-0.21845 0.02214,-0.07265 0.04428,-0.145084 0.06634,-0.217375 0.02214,-0.07222 0.04428,-0.144296 0.06634,-0.216158 0.02214,-0.07193 0.04428,-0.143579 0.06634,-0.215154 0.02214,-0.0715 0.04428,-0.142791 0.06634,-0.213936 0.02214,-0.07115 0.04428,-0.142147 0.06642,-0.212934 0.02207,-0.07079 0.04421,-0.141358 0.06634,-0.211786 0.02207,-0.07043 0.04421,-0.140714 0.06634,-0.210784 0.02207,-0.07007 0.04421,-0.139926 0.06634,-0.209638 0.02207,-0.06971 0.04421,-0.139281 0.06634,-0.208634 0.02207,-0.06943 0.04421,-0.138565 0.06634,-0.207632 0.02207,-0.069 0.04421,-0.137848 0.06634,-0.206485 0.02214,-0.06871 0.04421,-0.137203 0.06634,-0.205554 0.02214,-0.06835 0.04421,-0.136486 0.06634,-0.204479 0.02214,-0.06799 0.04421,-0.135841 0.06634,-0.203476 0.02214,-0.06771 0.04421,-0.135196 0.06635,-0.202544 0.02214,-0.06728 0.04421,-0.13448 0.06634,-0.20147 0.02214,-0.06699 0.04421,-0.133835 0.06635,-0.200538 0.02214,-0.06663 0.04428,-0.133191 0.06634,-0.199536 0.02214,-0.06634 0.04428,-0.132474 0.06634,-0.198532 0.02214,-0.06606 0.04428,-0.131901 0.06634,-0.197601 0.02214,-0.0657 0.04428,-0.131256 0.06634,-0.196669 0.02214,-0.06534 0.04428,-0.130612 0.06634,-0.195667 0.02214,-0.06506 0.04428,-0.129967 0.06642,-0.194735 0.02207,-0.06477 0.04421,-0.129394 0.06634,-0.193804 0.02207,-0.06448 0.04421,-0.128748 0.06634,-0.192944 0.02207,-0.06412 0.0442,-0.128103 0.06634,-0.19194 0.02207,-0.06384 0.04421,-0.127531 0.06634,-0.191082 0.02207,-0.06355 0.04421,-0.126885 0.06634,-0.190149 0.02207,-0.06326 0.04421,-0.126313 0.06634,-0.18929 0.02214,-0.06291 0.04421,-0.125668 0.06634,-0.188359 0.02214,-0.06262 0.04421,-0.125094 0.06634,-0.187427 0.02214,-0.06233 0.04421,-0.124521 0.06634,-0.186639 0.02214,-0.06205 0.04421,-0.123948 0.06634,-0.185708 0.02214,-0.06176 0.04421,-0.123375 0.06634,-0.184847 0.02214,-0.06147 0.04421,-0.122802 0.06634,-0.183989 0.02214,-0.06119 0.04428,-0.122228 0.06634,-0.183128 0.02214,-0.0609 0.04428,-0.121656 0.06634,-0.182268 0.02214,-0.06061 0.04428,-0.121083 0.06634,-0.181409 0.02214,-0.06033 0.04428,-0.12051 0.06634,-0.180549 0.02214,-0.06011 0.04428,-0.120008 0.06635,-0.179761 0.02214,-0.05983 0.04428,-0.119435 0.06634,-0.178973 0.02214,-0.05947 0.04428,-0.118862 0.06642,-0.178042 0.02207,-0.05925 0.04421,-0.11836 0.06634,-0.177325 0.02207,-0.05897 0.04421,-0.117715 0.06634,-0.176465 0.02207,-0.05868 0.04421,-0.117213 0.06635,-0.175605 0.02207,-0.05846 0.0442,-0.116712 0.06634,-0.174889 0.02207,-0.05811 0.04421,-0.116139 0.06635,-0.17403 0.02207,-0.05789 0.04421,-0.115637 0.06634,-0.173241 0.02214,-0.0576 0.04421,-0.115136 0.06634,-0.172453 0.02214,-0.05739 0.04421,-0.114562 0.06634,-0.171665 0.02214,-0.0571 0.04421,-0.114061 0.06634,-0.170948 0.02214,-0.05682 0.04421,-0.113488 0.06634,-0.170089 0.02214,-0.0566 0.04421,-0.112986 0.06634,-0.169372 0.02214,-0.05631 0.04421,-0.112485 0.06634,-0.168512 0.02214,-0.0561 0.04428,-0.112056 0.06634,-0.167868 0.02214,-0.05581 0.04428,-0.111482 0.06634,-0.167008 0.02214,-0.0556 0.04428,-0.111052 0.06634,-0.166363 0.02214,-0.05524 0.04428,-0.110479 0.06634,-0.165503 0.02214,-0.0551 0.04428,-0.109978 0.06634,-0.164787 0.02214,-0.05481 0.04428,-0.109548 0.06642,-0.164071 0.02207,-0.05459 0.04421,-0.109046 0.06634,-0.163354 0.02207,-0.05431 0.04421,-0.108472 0.06634,-0.162565 0.02207,-0.05409 0.04421,-0.108043 0.06634,-0.16185 0.02207,-0.05381 0.04421,-0.107541 0.06634,-0.161133 0.02207,-0.05359 0.04421,-0.107039 0.06634,-0.160416 0.02207,-0.05331 0.04421,-0.106538 0.06634,-0.1597 0.02214,-0.05309 0.04421,-0.106037 0.06634,-0.158912 0.02214,-0.05288 0.04421,-0.105678 0.06634,-0.158267 0.02214,-0.05266 0.04421,-0.105177 0.06634,-0.15755 0.02214,-0.05245 0.04421,-0.104676 0.06635,-0.156835 0.02214,-0.05216 0.04421,-0.104245 0.06634,-0.156189 0.02214,-0.05187 0.04421,-0.103744 0.06635,-0.155401 0.02214,-0.05173 0.04428,-0.103314 0.06634,-0.154756 0.02214,-0.05144 0.04428,-0.102813 0.06634,-0.15404 0.02214,-0.05123 0.04428,-0.102383 0.06634,-0.153395 0.02214,-0.05101 0.04428,-0.101882 0.06634,-0.152679 0.02214,-0.0508 0.04428,-0.101451 0.06634,-0.152034 0.02214,-0.05051 0.04428,-0.100949 0.06634,-0.151317 0.02214,-0.0503 0.04428,-0.10052 0.06642,-0.150601 0.02207,-0.05015 0.04421,-0.10009 0.06634,-0.150027 0.02207,-0.04987 0.0442,-0.09959 0.06634,-0.14924 0.02207,-0.04972 0.04421,-0.09923 0.06634,-0.148666 0.02207,-0.04944 0.04421,-0.0988 0.06634,-0.14795 0.02207,-0.04922 0.04421,-0.09837 0.06634,-0.147377 0.02207,-0.04894 0.04421,-0.09787 0.06634,-0.14666 0.02214,-0.04872 0.04421,-0.09744 0.06634,-0.145944 0.02214,-0.04858 0.04421,-0.09701 0.06634,-0.145371 0.02214,-0.04836 0.04421,-0.09658 0.06634,-0.144726 0.02214,-0.04815 0.04421,-0.09615 0.06634,-0.144081 0.02214,-0.04786 0.04421,-0.09572 0.06634,-0.143364 0.02214,-0.04772 0.04428,-0.09529 0.06634,-0.142792 0.02214,-0.0475 0.04428,-0.09486 0.06634,-0.142146 0.02214,-0.04729 0.04428,-0.09443 0.06634,-0.141502 0.02214,-0.04707 0.04428,-0.094 0.06634,-0.140857 0.02214,-0.04686 0.04428,-0.09357 0.06634,-0.140284 0.02214,-0.04664 0.04428,-0.09314 0.06635,-0.139567 0.02214,-0.04643 0.04428,-0.09278 0.06642,-0.138994 0.02207,-0.04621 0.04421,-0.09235 0.06634,-0.13835 0.02207,-0.04607 0.04421,-0.09192 0.06634,-0.137776 0.02207,-0.04578 0.04421,-0.09149 0.06635,-0.137131 0.02207,-0.04557 0.04421,-0.09113 0.06634,-0.136487 0.02207,-0.04542 0.04421,-0.0907 0.06635,-0.135913 0.02207,-0.04521 0.04421,-0.09027 0.06634,-0.135268 0.02214,-0.04499 0.0442,-0.08992 0.06634,-0.134696 0.02214,-0.04485 0.04421,-0.08949 0.06634,-0.134122 0.02214,-0.04456 0.04421,-0.08906 0.06634,-0.133477 0.02214,-0.04435 0.04421,-0.0887 0.06634,-0.132833 0.02214,-0.04421 0.04421,-0.08834 0.06634,-0.132331 0.02214,-0.04399 0.04421,-0.08784 0.06634,-0.131686 0.02214,-0.04378 0.04428,-0.08748 0.06634,-0.131041 0.02214,-0.04363 0.04428,-0.08712 0.06634,-0.13054 0.02214,-0.04335 0.04428,-0.08669 0.06634,-0.129895 0.02214,-0.0432 0.04428,-0.08626 0.06634,-0.129322 0.02214,-0.04299 0.04428,-0.0859 0.06634,-0.128677 0.02214,-0.04284 0.04428,-0.08555 0.06634,-0.128176 0.02214,-0.04263 0.04428,-0.08512 0.06642,-0.127602 0.02207,-0.04241 0.04421,-0.08476 0.06634,-0.126957 0.02207,-0.04227 0.04421,-0.0844 0.06634,-0.126385 0.02207,-0.04206 0.04421,-0.08404 0.06634,-0.125883 0.02207,-0.04184 0.04421,-0.08361 0.06634,-0.125238 0.02207,-0.0417 0.04421,-0.08325 0.06634,-0.124736 0.02207,-0.04141 0.04421,-0.08282 0.06634,-0.124092 0.02214,-0.04127 0.04421,-0.08246 0.06634,-0.12359 0.02214,-0.04105 0.04421,-0.08203 0.06634,-0.122945 0.02214,-0.04091 0.04421,-0.08175 0.06634,-0.122444 0.02214,-0.04069 0.04421,-0.08132 0.06634,-0.121871 0.02214,-0.04055 0.04421,-0.08096 0.06635,-0.121297 0.02214,-0.04034 0.04428,-0.0806 0.06634,-0.120724 0.02214,-0.04019 0.04428,-0.08024 0.06634,-0.120223 0.02214,-0.03998 0.04428,-0.07981 0.06634,-0.11965 0.02214,-0.03976 0.04428,-0.07946 0.06634,-0.119076 0.02214,-0.03962 0.04428,-0.0791 0.06634,-0.118503 0.02214,-0.03948 0.04428,-0.07881 0.06634,-0.118002 0.02214,-0.03926 0.04428,-0.07838 0.06642,-0.117429 0.02207,-0.03905 0.04421,-0.07802 0.06634,-0.116927 0.02207,-0.03883 0.04421,-0.07766 0.06634,-0.116354 0.02207,-0.03869 0.04421,-0.07731 0.06634,-0.11578 0.02207,-0.03855 0.04421,-0.07695 0.06634,-0.115279 0.02207,-0.03833 0.04421,-0.07659 0.06634,-0.114706 0.02207,-0.03819 0.04421,-0.07623 0.06634,-0.114205 0.02214,-0.03797 0.04421,-0.07587 0.06634,-0.113631 0.02214,-0.03783 0.04421,-0.07551 0.06634,-0.11313 0.02214,-0.03761 0.04421,-0.07516 0.06634,-0.112628 0.02214,-0.0374 0.04421,-0.07473 0.06634,-0.112055 0.02214,-0.03726 0.04421,-0.07444 0.06634,-0.111482 0.02214,-0.03711 0.04421,-0.07408 0.06634,-0.11098 0.02214,-0.03697 0.04428,-0.0738 0.06634,-0.110479 0.02214,-0.03675 0.04428,-0.07344 0.06634,-0.109978 0.02214,-0.03654 0.04428,-0.07301 0.06634,-0.109404 0.02214,-0.0364 0.04428,-0.07272 0.06634,-0.108902 0.02214,-0.03625 0.04428,-0.07236 0.06635,-0.108401 0.02214,-0.03604 0.04428,-0.072 0.06634,-0.107828 0.02214,-0.0359 0.04428,-0.07165 0.06642,-0.107398 0.02207,-0.03568 0.04421,-0.07129 0.06634,-0.106825 0.02207,-0.03546 0.04421,-0.07093 0.06634,-0.106252 0.02207,-0.03539 0.04421,-0.07064 0.06634,-0.105822 0.02207,-0.03518 0.04421,-0.07029 0.06635,-0.10532 0.02207,-0.03496 0.04421,-0.06993 0.06634,-0.104747 0.02214,-0.03482 0.0442,-0.06957 0.06634,-0.104246 0.02214,-0.03468 0.04421,-0.06928 0.06634,-0.103815 0.02214,-0.03446 0.04421,-0.06885 0.06634,-0.103243 0.02214,-0.03432 0.04421,-0.06857 0.06634,-0.102741 0.02214,-0.03417 0.04421,-0.06821 0.06634,-0.10224 0.02214,-0.03396 0.04421,-0.06792 0.06634,-0.101738 0.02214,-0.03382 0.04428,-0.06756 0.06634,-0.101236 0.02214,-0.03367 0.04428,-0.0672 0.06634,-0.100735 0.02214,-0.03346 0.04428,-0.06692 0.06634,-0.100233 0.02214,-0.03332 0.04428,-0.06656 0.06634,-0.09973 0.02214,-0.03317 0.04428,-0.06627 0.06634,-0.09923 0.02214,-0.03303 0.04428,-0.06592 0.06634,-0.0988 0.02214,-0.03281 0.04428,-0.06556 0.06642,-0.09823 0.02207,-0.03267 0.04421,-0.06527 0.06634,-0.0978 0.02207,-0.03246 0.04421,-0.06491 0.06634,-0.09722 0.02207,-0.03238 0.04421,-0.06462 0.06634,-0.09679 0.02207,-0.03217 0.04421,-0.06427 0.06634,-0.09629 0.02207,-0.03203 0.04421,-0.06398 0.06634,-0.09579 0.02207,-0.03188 0.04421,-0.06362 0.06634,-0.09536 0.02214,-0.03167 0.04421,-0.06326 0.06634,-0.09479 0.02214,-0.03152 0.04421,-0.06298 0.06634,-0.09436 0.02214,-0.03138 0.04421,-0.06269 0.06634,-0.09386 0.02214,-0.03124 0.04421,-0.06233 0.06634,-0.09343 0.02214,-0.03102 0.04421,-0.06197 0.06634,-0.09285 0.02214,-0.03088 0.04421,-0.06169 0.06635,-0.09242 0.02214,-0.03074 0.04428,-0.0614 0.06634,-0.09192 0.02214,-0.03059 0.04428,-0.06112 0.06634,-0.09149 0.02214,-0.03038 0.04428,-0.06076 0.06634,-0.09099 0.02214,-0.03023 0.04428,-0.0604 0.06634,-0.09049 0.02214,-0.03009 0.04428,-0.06011 0.06634,-0.09006 0.02214,-0.02995 0.04428,-0.05975 0.06642,-0.08956 0.02207,-0.02973 0.04421,-0.05947 0.06634,-0.08906 0.02207,-0.02966 0.04421,-0.05918 0.06634,-0.08863 0.02207,-0.02945 0.04421,-0.05882 0.06634,-0.08813 0.02207,-0.0293 0.04421,-0.05853 0.06634,-0.08769 0.02207,-0.02916 0.04421,-0.05825 0.06634,-0.08719 0.02207,-0.02902 0.04421,-0.05789 0.06634,-0.08676 0.02214,-0.0288 0.04421,-0.0576 0.06634,-0.08626 0.02214,-0.02866 0.04421,-0.05725 0.06634,-0.08583 0.02214,-0.02851 0.04421,-0.05696 0.06634,-0.08533 0.02214,-0.02837 0.04421,-0.05667 0.06634,-0.08483 0.02214,-0.02823 0.04421,-0.05638 0.06634,-0.0844 0.02214,-0.02809 0.04421,-0.0561 0.06634,-0.08397 0.02214,-0.02794 0.04428,-0.05574 0.06634,-0.08347 0.02214,-0.0278 0.04428,-0.05545 0.06634,-0.08304 0.02214,-0.02766 0.04428,-0.05517 0.06634,-0.08261 0.02214,-0.02744 0.04428,-0.05481 0.06634,-0.08211 0.02214,-0.0273 0.04428,-0.05452 0.06635,-0.08161 0.02214,-0.02715 0.04428,-0.05424 0.06634,-0.08125 0.02214,-0.02694 0.04428,-0.05388 0.06642,-0.08075 0.02207,-0.0268 0.04421,-0.05359 0.06634,-0.08024 0.02207,-0.02672 0.04421,-0.05331 0.06634,-0.07981 0.02207,-0.02658 0.04421,-0.05302 0.06634,-0.07938 0.02207,-0.02644 0.04421,-0.05273 0.06634,-0.07895 0.02207,-0.02622 0.04421,-0.05237 0.06635,-0.07845 0.02207,-0.02608 0.0442,-0.05209 0.06634,-0.07802 0.02214,-0.02594 0.04421,-0.0518 0.06634,-0.07759 0.02214,-0.02579 0.04421,-0.05144 0.06634,-0.07709 0.02214,-0.02565 0.04421,-0.05123 0.06634,-0.07666 0.02214,-0.02551 0.04421,-0.05094 0.06634,-0.07623 0.02214,-0.02536 0.04421,-0.05058 0.06634,-0.0758 0.02214,-0.02515 0.04421,-0.0503 0.06634,-0.0753 0.02214,-0.02508 0.04428,-0.05001 0.06634,-0.07494 0.02214,-0.02486 0.04428,-0.04965 0.06634,-0.07444 0.02214,-0.02472 0.04428,-0.04937 0.06634,-0.07394 0.02214,-0.02465 0.04428,-0.04915 0.06634,-0.07358 0.02214,-0.02443 0.04428,-0.04879 0.06634,-0.07315 0.02214,-0.02429 0.04428,-0.0485 0.06642,-0.07265 0.02207,-0.02414 0.04421,-0.04822 0.06634,-0.07222 0.02207,-0.024 0.04421,-0.04793 0.06634,-0.07179 0.02207,-0.02386 0.04421,-0.04764 0.06634,-0.07136 0.02207,-0.02371 0.04421,-0.04736 0.06634,-0.07093 0.02207,-0.02357 0.04421,-0.047 0.06634,-0.07043 0.02207,-0.02343 0.04421,-0.04678 0.06634,-0.07007 0.02214,-0.02329 0.04421,-0.04643 0.06633,-0.06957 0.0221,-0.02314 0.0442,-0.04621 0.0663,-0.06921 0.0221,-0.02293 0.0442,-0.04585 0.0663,-0.06871 0.0221,-0.02285 0.0442,-0.04557 0.0663,-0.06828 0.0221,-0.02271 0.0442,-0.04535 0.0663,-0.06785 0.0221,-0.02257 0.0442,-0.04507 0.0663,-0.06742 0.0221,-0.02242 0.0443,-0.04478 0.0663,-0.06706 0.0221,-0.02221 0.0443,-0.04442 0.0663,-0.06656 0.0221,-0.02207 0.0443,-0.04413 0.0663,-0.06613 0.0221,-0.02192 0.0443,-0.04385 0.0663,-0.0657 0.0221,-0.02178 0.0443,-0.04356 0.0663,-0.06527 0.0221,-0.02164 0.0443,-0.04327 0.0663,-0.06484 0.0221,-0.02149 0.0443,-0.04299 0.0664,-0.06441 0.0221,-0.02135 0.0442,-0.0427 0.0663,-0.06398 0.0221,-0.02128 0.0442,-0.04241 0.0663,-0.06355 0.0221,-0.02113 0.0442,-0.04213 0.0663,-0.06312 0.0221,-0.02099 0.0442,-0.04191 0.0663,-0.06269 0.0221,-0.02085 0.0442,-0.04163 0.0663,-0.06233 0.0221,-0.02063 0.0442,-0.04127 0.0663,-0.06183 0.0221,-0.02056 0.0442,-0.04105 0.0663,-0.0614 0.0221,-0.02042 0.0442,-0.04077 0.0663,-0.06104 0.0221,-0.02028 0.0442,-0.04048 0.0663,-0.06061 0.0221,-0.02006 0.0442,-0.04012 0.0663,-0.06011 0.0221,-0.01999 0.0442,-0.03991 0.0663,-0.05975 0.0221,-0.01985 0.0443,-0.03962 0.0663,-0.05932 0.0221,-0.0197 0.0443,-0.03933 0.0663,-0.05889 0.0221,-0.01956 0.0443,-0.03905 0.0663,-0.05846 0.0221,-0.01942 0.0443,-0.03876 0.0663,-0.05811 0.0221,-0.01927 0.0443,-0.03847 0.0663,-0.0576 0.0221,-0.01913 0.0443,-0.03819 0.0663,-0.05725 0.0221,-0.01899 0.0443,-0.0379 0.0664,-0.05674 0.0221,-0.01891 0.0442,-0.03769 0.0663,-0.05639 0.0221,-0.01877 0.0442,-0.0374 0.0663,-0.05596 0.0221,-0.01863 0.0442,-0.03711 0.0663,-0.0556 0.0221,-0.01841 0.0442,-0.03683 0.0663,-0.0551 0.0221,-0.01834 0.0442,-0.03654 0.0663,-0.05474 0.0221,-0.0182 0.0442,-0.03625 0.0663,-0.05431 0.0221,-0.01806 0.0442,-0.03597 0.0663,-0.05388 0.0221,-0.01791 0.0442,-0.03575 0.0663,-0.05345 0.0221,-0.01777 0.0442,-0.03547 0.0663,-0.05309 0.0221,-0.01762 0.0442,-0.03518 0.0663,-0.05266 0.0221,-0.01748 0.0442,-0.03489 0.0663,-0.05223 0.0221,-0.01734 0.0442,-0.03461 0.0663,-0.0518 0.0221,-0.0172 0.0443,-0.03432 0.0663,-0.05144 0.0221,-0.01705 0.0443,-0.03403 0.0663,-0.05094 0.0221,-0.01698 0.0443,-0.03382 0.0663,-0.05058 0.0221,-0.01684 0.0443,-0.03353 0.0663,-0.05022 0.0221,-0.01662 0.0443,-0.03324 0.0663,-0.04972 0.0221,-0.01655 0.0443,-0.03303 0.0663,-0.04936 0.0221,-0.01641 0.0443,-0.03274 0.0664,-0.04894 0.0221,-0.01626 0.0442,-0.03245 0.0663,-0.04858 0.0221,-0.01612 0.0442,-0.03217 0.0663,-0.04815 0.0221,-0.01598 0.0442,-0.03188 0.0663,-0.04772 0.0221,-0.01583 0.0442,-0.0316 0.0663,-0.04729 0.0221,-0.01569 0.0442,-0.03138 0.0663,-0.04693 0.0221,-0.01555 0.0442,-0.0311 0.0663,-0.0465 0.0221,-0.0154 0.0442,-0.03081 0.0663,-0.04607 0.0221,-0.01533 0.0442,-0.03052 0.0663,-0.04571 0.0221,-0.01519 0.0442,-0.03023 0.0663,-0.04528 0.0221,-0.01505 0.0442,-0.03002 0.0663,-0.04485 0.0221,-0.0149 0.0442,-0.02973 0.0663,-0.04449 0.0221,-0.01476 0.0443,-0.02945 0.0663,-0.04406 0.0221,-0.01462 0.0443,-0.02923 0.0663,-0.0437 0.0221,-0.01447 0.0443,-0.02887 0.0663,-0.04328 0.0221,-0.01433 0.0443,-0.02859 0.0663,-0.04284 0.0221,-0.01419 0.0443,-0.02837 0.0663,-0.04249 0.0221,-0.01404 0.0443,-0.02808 0.0663,-0.04206 0.0221,-0.0139 0.0443,-0.0278 0.0664,-0.04163 0.0221,-0.01383 0.0442,-0.02758 0.0663,-0.04127 0.0221,-0.01369 0.0442,-0.0273 0.0663,-0.04084 0.0221,-0.01354 0.0442,-0.02701 0.0663,-0.04048 0.0221,-0.0134 0.0442,-0.02672 0.0663,-0.04005 0.0221,-0.01326 0.0442,-0.02644 0.0663,-0.03962 0.0221,-0.01311 0.0442,-0.02622 0.0663,-0.03926 0.0221,-0.01297 0.0442,-0.02594 0.0663,-0.03883 0.0221,-0.0129 0.0442,-0.02572 0.0663,-0.03847 0.0221,-0.01275 0.0442,-0.02544 0.0663,-0.03805 0.0221,-0.01261 0.0442,-0.02515 0.0663,-0.03761 0.0221,-0.01254 0.0442,-0.02493 0.0663,-0.03726 0.0221,-0.0124 0.0442,-0.02465 0.0663,-0.0369 0.0221,-0.01218 0.0443,-0.02436 0.0663,-0.03647 0.0221,-0.01204 0.0443,-0.02407 0.0663,-0.03604 0.0221,-0.01196 0.0443,-0.02386 0.0663,-0.03568 0.0221,-0.01182 0.0443,-0.02357 0.0663,-0.03525 0.0221,-0.01168 0.0443,-0.02336 0.0663,-0.03489 0.0221,-0.01154 0.0443,-0.02307 0.0663,-0.03446 0.0221,-0.01146 0.0443,-0.02278 0.0664,-0.0341 0.0221,-0.01132 0.0442,-0.0225 0.0663,-0.03367 0.0221,-0.01118 0.0442,-0.02228 0.0663,-0.03332 0.0221,-0.01103 0.0442,-0.022 0.0663,-0.03289 0.0221,-0.01089 0.0442,-0.02171 0.0663,-0.03253 0.0221,-0.01075 0.0442,-0.02142 0.0663,-0.0321 0.0221,-0.0106 0.0442,-0.02121 0.0663,-0.03167 0.0221,-0.01053 0.0442,-0.02099 0.0663,-0.03138 0.0221,-0.01032 0.0442,-0.02063 0.0663,-0.03088 0.0221,-0.01024 0.0442,-0.02042 0.0663,-0.03052 0.0221,-0.01017 0.0442,-0.0202 0.0663,-0.03016 0.0221,-0.01 0.0442,-0.01992 0.0663,-0.02973 0.0221,-0.0099 0.0443,-0.01963 0.0663,-0.02938 0.0221,-0.0097 0.0443,-0.01942 0.0663,-0.02895 0.0221,-0.0096 0.0443,-0.01913 0.0663,-0.02859 0.0221,-0.0095 0.0443,-0.01884 0.0663,-0.02816 0.0221,-0.0094 0.0443,-0.01863 0.0663,-0.0278 0.0221,-0.0092 0.0443,-0.01834 0.0663,-0.02744 0.0221,-0.009 0.0443,-0.01806 0.0664,-0.02701 0.0221,-0.0089 0.0442,-0.01777 0.0663,-0.02658 0.0221,-0.0088 0.0442,-0.01755 0.0663,-0.02622 0.0221,-0.0087 0.0442,-0.01727 0.0663,-0.02587 0.0221,-0.0085 0.0442,-0.01698 0.0663,-0.02543 0.0221,-0.0084 0.0442,-0.01676 0.0663,-0.02508 0.0221,-0.0082 0.0442,-0.01648 0.0663,-0.02465 0.0221,-0.0082 0.0442,-0.01626 0.0663,-0.02429 0.0221,-0.008 0.0442,-0.01598 0.0663,-0.02386 0.0221,-0.0079 0.0442,-0.01576 0.0663,-0.0235 0.0221,-0.0077 0.0442,-0.01548 0.0663,-0.02314 0.0221,-0.0076 0.0442,-0.01519 0.0663,-0.02271 0.0221,-0.0075 0.0442,-0.0149 0.0663,-0.02228 0.0221,-0.0074 0.0443,-0.01469 0.0663,-0.02199 0.0221,-0.0072 0.0443,-0.0144 0.0663,-0.02149 0.0221,-0.0072 0.0443,-0.01419 0.0663,-0.02121 0.0221,-0.0069 0.0443,-0.0139 0.0663,-0.02078 0.0221,-0.0069 0.0443,-0.01361 0.0663,-0.02035 0.0221,-0.0067 0.0443,-0.0134 0.0664,-0.02006 0.0221,-0.0066 0.0442,-0.01311 0.0663,-0.01956 0.0221,-0.0065 0.0442,-0.0129 0.0663,-0.01927 0.0221,-0.0063 0.0442,-0.01261 0.0663,-0.01884 0.0221,-0.0062 0.0442,-0.01232 0.0663,-0.01841 0.0221,-0.0061 0.0442,-0.01211 0.0663,-0.01805 0.0221,-0.006 0.0442,-0.01189 0.0663,-0.0177 0.0221,-0.0059 0.0442,-0.01161 0.0663,-0.01734 0.0221,-0.0057 0.0442,-0.01132 0.0663,-0.01691 0.0221,-0.0055 0.0442,-0.01103 0.0663,-0.01648 0.0221,-0.0054 0.0442,-0.01082 0.0663,-0.01612 0.0221,-0.0053 0.0442,-0.0106 0.0663,-0.01576 0.0221,-0.0052 0.0442,-0.01032 0.0663,-0.0154 0.0221,-0.005 0.0443,-0.01003 0.0663,-0.01497 0.0221,-0.0049 0.0443,-0.0097 0.0663,-0.01455 0.0221,-0.0048 0.0443,-0.0095 0.0663,-0.01426 0.0221,-0.0047 0.0443,-0.0092 0.0663,-0.01376 0.0221,-0.0046 0.0443,-0.009 0.0663,-0.01347 0.0221,-0.0044 0.0443,-0.0087 0.0663,-0.01304 0.0221,-0.0043 0.0443,-0.0085 0.0664,-0.01268 0.0221,-0.0042 0.0442,-0.0082 0.0663,-0.01225 0.0221,-0.0041 0.0442,-0.008 0.0663,-0.01189 0.0221,-0.0039 0.0442,-0.0077 0.0663,-0.01153 0.0221,-0.0038 0.0442,-0.0075 0.0663,-0.01111 0.0221,-0.0037 0.0442,-0.0072 0.0663,-0.01075 0.0221,-0.0035 0.0442,-0.007 0.0663,-0.01039 0.0221,-0.0034 0.0442,-0.0067 0.0663,-0.01 0.0221,-0.0033 0.0442,-0.0064 0.0663,-0.0096 0.0221,-0.0032 0.0442,-0.0062 0.0663,-0.0092 0.0221,-0.003 0.0442,-0.0059 0.0663,-0.0089 0.0221,-0.0029 0.0442,-0.0057 0.0663,-0.0084 0.0221,-0.0028 0.0442,-0.0054 0.0663,-0.0081 0.0221,-0.0026 0.0443,-0.0052 0.0663,-0.0077 0.0221,-0.0025 0.0443,-0.0049 0.0663,-0.0072 0.0221,-0.0024 0.0443,-0.0047 0.0663,-0.007 0.0221,-0.0022 0.0443,-0.0044 0.0663,-0.0065 0.0221,-0.0021 0.0443,-0.0042 0.0663,-0.0061 0.0221,-0.002 0.0443,-0.0039 0.0664,-0.0058 0.0221,-0.0019 0.0442,-0.0037 0.0663,-0.0054 0.0221,-0.0017 0.0442,-0.0034 0.0663,-0.0049 0.0221,-0.0016 0.0442,-0.0032 0.0663,-0.0046 0.0221,-0.0015 0.0442,-0.0029 0.0663,-0.0042 0.0221,-0.0014 0.0442,-0.0027 0.0663,-0.0039 0.0221,-0.0012 0.0442,-0.0024 0.0663,-0.0034 0.0221,-0.0011 0.0442,-0.0021 0.0663,-0.0031 0.0221,-9.31e-4 0.0442,-0.0019 0.0663,-0.0027 0.0221,-8.6e-4 0.0442,-0.0016 0.0663,-0.0023 0.0221,-7.17e-4 0.0442,-0.0014 0.0663,-0.0019 0.0221,-5.73e-4 0.0442,-0.0011 0.0663,-0.0015 0.0221,-5.02e-4 0.0442,-8.6e-4 0.0663,-0.0011 0.0221,-3.58e-4 0.0443,-5.73e-4 0.0663,-7.88e-4 0.0221,-2.15e-4 0.0443,-3.58e-4 0.0663,-3.58e-4 0.0221,-7.2e-5 0.0443,-7.2e-5 0.0663,0 0.0221,0 0.0443,1.43e-4 0.0663,3.58e-4 0.0221,2.15e-4 0.0443,4.3e-4 0.0663,7.88e-4 0.0221,2.87e-4 0.0443,6.45e-4 0.0663,0.0011 0.0221,4.3e-4 0.0443,9.31e-4 0.0664,0.0015 0.0221,5.74e-4 0.0442,0.0012 0.0663,0.0019 0.0221,7.16e-4 0.0442,0.0014 0.0663,0.0023 0.0221,7.88e-4 0.0442,0.0017 0.0663,0.0027 0.0221,0.001 0.0442,0.002 0.0663,0.0031 0.0221,0.0011 0.0442,0.0022 0.0663,0.0034 0.0221,0.0012 0.0442,0.0025 0.0663,0.0039 0.0221,0.0014 0.0442,0.0027 0.0663,0.0042 0.0221,0.0014 0.0442,0.003 0.0663,0.0046 0.0221,0.0016 0.0442,0.0032 0.0663,0.0049 0.0221,0.0017 0.0442,0.0035 0.0663,0.0054 0.0221,0.0019 0.0442,0.0038 0.0663,0.0058 0.0221,0.0019 0.0443,0.004 0.0663,0.0061 0.0221,0.0021 0.0443,0.0043 0.0663,0.0065 0.0221,0.0022 0.0443,0.0046 0.0663,0.007 0.0221,0.0024 0.0443,0.0047 0.0663,0.0072 0.0221,0.0025 0.0443,0.0051 0.0663,0.0077 0.0221,0.0027 0.0443,0.0053 0.0663,0.0081 0.0221,0.0027 0.0443,0.0055 0.0664,0.0084 0.0221,0.0029 0.0442,0.0059 0.0663,0.0089 0.0221,0.0029 0.0442,0.006 0.0663,0.0092 0.0221,0.0032 0.0442,0.0063 0.0663,0.0096 0.0221,0.0032 0.0442,0.0066 0.0663,0.01 0.0221,0.0034 0.0442,0.0069 0.0663,0.01039 0.0221,0.0035 0.0442,0.0071 0.0663,0.01075 0.0221,0.0036 0.0442,0.0073 0.0663,0.01111 0.0221,0.0038 0.0442,0.0076 0.0663,0.01153 0.0221,0.0039 0.0442,0.0078 0.0663,0.01189 0.0221,0.004 0.0442,0.0081 0.0663,0.01225 0.0221,0.0042 0.0442,0.0084 0.0663,0.01268 0.0221,0.0043 0.0442,0.0086 0.0663,0.01304 0.0221,0.0044 0.0443,0.0089 0.0663,0.01347 0.0221,0.0045 0.0443,0.0091 0.0663,0.01376 0.0221,0.0047 0.0443,0.0095 0.0663,0.01426 0.0221,0.0048 0.0443,0.0097 0.0663,0.01455 0.0221,0.0049 0.0443,0.01 0.0663,0.01497 0.0221,0.0051 0.0443,0.01017 0.0663,0.0154 0.0221,0.0052 0.0443,0.01046 0.0664,0.01576 0.0221,0.0053 0.0442,0.01068 0.0663,0.01612 0.0221,0.0054 0.0442,0.01096 0.0663,0.01648 0.0221,0.0056 0.0442,0.01125 0.0663,0.01691 0.0221,0.0057 0.0442,0.01146 0.0663,0.01734 0.0221,0.0058 0.0442,0.01168 0.0663,0.0177 0.0221,0.0059 0.0442,0.01196 0.0663,0.01805 0.0221,0.0061 0.0442,0.01225 0.0663,0.01841 0.0221,0.0062 0.0442,0.01254 0.0663,0.01884 0.0221,0.0064 0.0442,0.01275 0.0663,0.01927 0.0221,0.0064 0.0442,0.01297 0.0663,0.01956 0.0221,0.0067 0.0442,0.01333 0.0663,0.02006 0.0221,0.0067 0.0443,0.01347 0.0663,0.02035 0.0221,0.0069 0.0443,0.01383 0.0663,0.02078 0.0221,0.007 0.0443,0.01404 0.0663,0.02121 0.0221,0.0071 0.0443,0.01426 0.0661,0.02149 0.0222,0.0073 0.0444,0.01461 0.0666,0.02199 0.0222,0.0074 0.0444,0.01483 0.0666,0.02228 0.0222,0.0075 0.0437,0.01512 0.0659,0.02271 0.0222,0.0077 0.0444,0.0154 0.0666,0.02314 0.0222,0.0077 0.0444,0.01562 0.0659,0.0235 0.0222,0.0079 0.0444,0.01583 0.0666,0.02386 0.0222,0.008 0.0444,0.01612 0.0666,0.02429 0.0222,0.0082 0.0437,0.01641 0.0659,0.02465 0.0222,0.0083 0.0444,0.01669 0.0666,0.02508 0.0222,0.0085 0.0444,0.01691 0.0659,0.02543 0.0222,0.0086 0.0444,0.0172 0.0666,0.02587 0.0222,0.0087 0.0444,0.01741 0.0666,0.02622 0.0222,0.0088 0.0437,0.0177 0.0659,0.02658 0.0222,0.009 0.0444,0.01798 0.0666,0.02701 0.0222,0.0091 0.0444,0.0182 0.0666,0.02744 0.0215,0.0092 0.0437,0.01841 0.0659,0.0278 0.0222,0.0093 0.0444,0.0187 0.0666,0.02816 0.0222,0.0095 0.0437,0.01899 0.0659,0.02859 0.0222,0.0095 0.0444,0.0192 0.0666,0.02895 0.0222,0.0097 0.0444,0.01949 0.0666,0.02938 0.0215,0.0098 0.0437,0.01977 0.0659,0.02973 0.0222,0.01 0.0444,0.01999 0.0666,0.03016 0.0222,0.0101 0.0437,0.02028 0.0659,0.03052 0.0222,0.01025 0.0444,0.02056 0.0666,0.03088 0.0222,0.01039 0.0444,0.02085 0.0666,0.03138 0.0215,0.01046 0.0437,0.02106 0.0659,0.03167 0.0222,0.01067 0.0444,0.02135 0.0666,0.0321 0.0222,0.01082 0.0444,0.02164 0.0659,0.03253 0.0222,0.01089 0.0444,0.02185 0.0666,0.03289 0.0222,0.01103 0.0444,0.02214 0.0666,0.03332 0.0215,0.01118 0.0437,0.02235 0.0659,0.03367 0.0222,0.01132 0.0444,0.02264 0.0666,0.0341 0.0222,0.01139 0.0444,0.02293 0.0659,0.03446 0.0222,0.01154 0.0444,0.02321 0.0666,0.03489 0.0222,0.01168 0.0444,0.02343 0.0666,0.03525 0.0215,0.01182 0.0437,0.02372 0.0659,0.03568 0.0222,0.01197 0.0444,0.024 0.0666,0.03604 0.0222,0.01211 0.0444,0.02429 0.0659,0.03647 0.0222,0.01225 0.0444,0.0245 0.0666,0.0369 0.0222,0.01232 0.0444,0.02472 0.0666,0.03726 0.0222,0.01247 0.0437,0.02501 0.0659,0.03761 0.0222,0.01261 0.0444,0.02529 0.0666,0.03805 0.0222,0.01275 0.0444,0.02558 0.0659,0.03847 0.0222,0.0129 0.0444,0.02586 0.0666,0.03883 0.0222,0.01304 0.0444,0.02615 0.0666,0.03926 0.0222,0.01318 0.0437,0.02637 0.0659,0.03962 0.0222,0.01333 0.0444,0.02665 0.0666,0.04005 0.0222,0.01347 0.0444,0.02694 0.0659,0.04048 0.0222,0.01354 0.0444,0.02715 0.0666,0.04084 0.0222,0.01368 0.0444,0.02744 0.0666,0.04127 0.0222,0.01383 0.0437,0.02773 0.0659,0.04163 0.0222,0.01397 0.0444,0.02801 0.0666,0.04206 0.0222,0.01412 0.0444,0.0283 0.0666,0.04249 0.0215,0.01426 0.0437,0.02851 0.0659,0.04284 0.0222,0.0144 0.0444,0.0288 0.0666,0.04328 0.0222,0.01447 0.0437,0.02909 0.0659,0.0437 0.0222,0.01462 0.0444,0.0293 0.0666,0.04406 0.0222,0.01476 0.0444,0.02959 0.0666,0.04449 0.0215,0.01483 0.0437,0.0298 0.0659,0.04485 0.0222,0.01505 0.0444,0.03009 0.0666,0.04528 0.0222,0.01519 0.0437,0.03038 0.0659,0.04571 0.0222,0.01526 0.0444,0.03066 0.0666,0.04607 0.0222,0.0154 0.0444,0.03095 0.0666,0.0465 0.0215,0.01555 0.0437,0.03124 0.0659,0.04693 0.0222,0.01569 0.0444,0.03145 0.0666,0.04729 0.0222,0.01583 0.0444,0.03174 0.0659,0.04772 0.0222,0.01598 0.0444,0.03203 0.0666,0.04815 0.0222,0.01612 0.0444,0.03231 0.0666,0.04858 0.0215,0.01619 0.0437,0.03253 0.0659,0.04894 0.0222,0.01634 0.0444,0.03281 0.0666,0.04936 0.0222,0.01648 0.0444,0.0331 0.0659,0.04972 0.0222,0.01669 0.0444,0.03339 0.0666,0.05022 0.0222,0.01676 0.0444,0.0336 0.0666,0.05058 0.0222,0.01691 0.0437,0.03389 0.0659,0.05094 0.0222,0.01712 0.0444,0.03425 0.0666,0.05144 0.0222,0.01719 0.0444,0.03446 0.0659,0.0518 0.0222,0.01734 0.0444,0.03475 0.0666,0.05223 0.0222,0.01748 0.0444,0.03504 0.0666,0.05266 0.0222,0.01763 0.0437,0.03532 0.0659,0.05309 0.0222,0.0177 0.0444,0.03554 0.0666,0.05345 0.0222,0.01791 0.0444,0.03582 0.0659,0.05388 0.0222,0.01805 0.0444,0.03611 0.0666,0.05431 0.0222,0.0182 0.0444,0.0364 0.0666,0.05474 0.0222,0.01827 0.0437,0.03668 0.0659,0.0551 0.0222,0.01848 0.0444,0.03697 0.0666,0.0556 0.0222,0.01856 0.0444,0.03719 0.0666,0.05596 0.0215,0.0187 0.0437,0.03747 0.0659,0.05639 0.0222,0.01884 0.0444,0.03776 0.0666,0.05674 0.0222,0.01906 0.0437,0.03812 0.0659,0.05725 0.0222,0.01913 0.0444,0.03833 0.0666,0.0576 0.0222,0.01935 0.0444,0.03869 0.0666,0.05811 0.0215,0.01942 0.0437,0.0389 0.0659,0.05846 0.0222,0.01956 0.0444,0.03919 0.0666,0.05889 0.0222,0.0197 0.0437,0.03948 0.0659,0.05932 0.0222,0.01985 0.0444,0.03976 0.0666,0.05975 0.0222,0.01999 0.0444,0.04005 0.0666,0.06011 0.0215,0.02013 0.0437,0.04034 0.0659,0.06061 0.0222,0.02028 0.0444,0.04062 0.0666,0.06104 0.0222,0.02035 0.0444,0.04084 0.0659,0.0614 0.0222,0.02056 0.0444,0.0412 0.0666,0.06183 0.0222,0.02071 0.0444,0.04148 0.0666,0.06233 0.0215,0.02078 0.0437,0.0417 0.0659,0.06269 0.0222,0.02099 0.0444,0.04199 0.0666,0.06312 0.0222,0.02114 0.0444,0.04227 0.0659,0.06355 0.0222,0.02128 0.0444,0.04263 0.0666,0.06398 0.0222,0.02142 0.0444,0.04292 0.0666,0.06441 0.0215,0.02157 0.0437,0.0432 0.0659,0.06484 0.0222,0.02171 0.0444,0.04349 0.0666,0.06527 0.0222,0.02185 0.0444,0.04378 0.0659,0.0657 0.0222,0.022 0.0444,0.04406 0.0666,0.06613 0.0222,0.02214 0.0444,0.04435 0.0666,0.06656 0.0222,0.02228 0.0437,0.04464 0.0659,0.06706 0.0222,0.02235 0.0444,0.04485 0.0666,0.06742 0.0222,0.0225 0.0444,0.04514 0.0659,0.06785 0.0222,0.02271 0.0444,0.04542 0.0666,0.06828 0.0222,0.02285 0.0444,0.04578 0.0666,0.06871 0.0222,0.023 0.0437,0.04607 0.0659,0.06921 0.0222,0.02314 0.0444,0.04628 0.0666,0.06957 0.0222,0.02328 0.0444,0.04664 0.0659,0.07007 0.0222,0.02343 0.0444,0.04686 0.0666,0.07043 0.0222,0.02357 0.0444,0.04722 0.0666,0.07093 0.0222,0.02372 0.0437,0.0475 0.0659,0.07136 0.0222,0.02386 0.0444,0.04779 0.0666,0.07179 0.0222,0.024 0.0444,0.04808 0.0666,0.07222 0.0215,0.02414 0.0437,0.04836 0.0659,0.07265 0.0222,0.02436 0.0444,0.04872 0.0666,0.07315 0.0222,0.02443 0.0437,0.04893 0.0659,0.07358 0.0222,0.02457 0.0444,0.04922 0.0666,0.07394 0.0222,0.02479 0.0444,0.04958 0.0666,0.07444 0.0215,0.02493 0.0437,0.04987 0.0659,0.07494 0.0222,0.02501 0.0444,0.05015 0.0666,0.0753 0.0222,0.02522 0.0437,0.05044 0.0659,0.0758 0.0222,0.02529 0.0444,0.05072 0.0666,0.07623 0.0222,0.02543 0.0444,0.05101 0.0666,0.07666 0.0215,0.02565 0.0437,0.0513 0.0659,0.07709 0.0222,0.02579 0.0444,0.05166 0.0666,0.07759 0.0222,0.02594 0.0444,0.05194 0.0659,0.07802 0.0222,0.02608 0.0444,0.05223 0.0666,0.07845 0.0222,0.02622 0.0444,0.05252 0.0666,0.07895 0.0215,0.02637 0.0437,0.0528 0.0659,0.07938 0.0222,0.02651 0.0444,0.05309 0.0666,0.07981 0.0222,0.02665 0.0444,0.05345 0.0659,0.08024 0.0222,0.02687 0.0444,0.05381 0.0666,0.08075 0.0222,0.02701 0.0444,0.05409 0.0666,0.08125 0.0215,0.02708 0.0437,0.05431 0.0659,0.08161 0.0222,0.0273 0.0444,0.05467 0.0666,0.08211 0.0222,0.02744 0.0444,0.05495 0.0659,0.08261 0.0222,0.02758 0.0444,0.05524 0.0666,0.08304 0.0222,0.02773 0.0444,0.05553 0.0666,0.08347 0.0222,0.02787 0.0437,0.05588 0.0659,0.08397 0.0222,0.02801 0.0444,0.05617 0.0666,0.0844 0.0222,0.02816 0.0444,0.05646 0.0659,0.08483 0.0222,0.02837 0.0444,0.05682 0.0666,0.08533 0.0222,0.02859 0.0444,0.05717 0.0666,0.08583 0.0222,0.02866 0.0437,0.05746 0.0659,0.08626 0.0222,0.02887 0.0444,0.05775 0.0666,0.08676 0.0222,0.02895 0.0444,0.05803 0.0659,0.08719 0.0222,0.02916 0.0444,0.05839 0.0666,0.08769 0.0222,0.0293 0.0444,0.05868 0.0666,0.08813 0.0222,0.02945 0.0437,0.05897 0.0659,0.08863 0.0222,0.02959 0.0444,0.05932 0.0666,0.08906 0.0222,0.0298 0.0444,0.05961 0.0666,0.08956 0.0215,0.02995 0.0437,0.05997 0.0659,0.09006 0.0222,0.03009 0.0444,0.06025 0.0666,0.09049 0.0222,0.03024 0.0437,0.06061 0.0659,0.09099 0.0222,0.03038 0.0444,0.0609 0.0666,0.09149 0.0222,0.03052 0.0444,0.06119 0.0666,0.09192 0.0215,0.03074 0.0437,0.06154 0.0659,0.09242 0.0222,0.03088 0.0444,0.06183 0.0666,0.09285 0.0222,0.03109 0.0437,0.06219 0.0659,0.09343 0.0222,0.03117 0.0444,0.06247 0.0666,0.09386 0.0222,0.03138 0.0444,0.06283 0.0666,0.09436 0.0215,0.03152 0.0437,0.06312 0.0659,0.09479 0.0222,0.03174 0.0444,0.06348 0.0666,0.09536 0.0222,0.03181 0.0444,0.06376 0.0659,0.09579 0.0222,0.03203 0.0444,0.06412 0.0666,0.09629 0.0222,0.03217 0.0444,0.06441 0.0666,0.09679 0.0215,0.03231 0.0437,0.06477 0.0659,0.09722 0.0222,0.03253 0.0444,0.06513 0.0666,0.0978 0.0222,0.03267 0.0444,0.06541 0.0659,0.09823 0.0222,0.03289 0.0444,0.06577 0.0666,0.0988 0.0222,0.03296 0.0444,0.06606 0.0666,0.09923 0.0215,0.03317 0.0437,0.06642 0.0659,0.09973 0.0222,0.03331 0.0444,0.06677 0.0666,0.100233 0.0222,0.03353 0.0444,0.06706 0.0659,0.100735 0.0222,0.03367 0.0444,0.06742 0.0666,0.101236 0.0222,0.03382 0.0444,0.06778 0.0666,0.101738 0.0222,0.03403 0.0437,0.06807 0.0659,0.10224 0.0222,0.03417 0.0444,0.06842 0.0666,0.102741 0.0222,0.03432 0.0444,0.06878 0.0659,0.103243 0.0222,0.03453 0.0444,0.06914 0.0666,0.103815 0.0222,0.03468 0.0444,0.06943 0.0666,0.104246 0.0222,0.03482 0.0437,0.06978 0.0659,0.104747 0.0222,0.03504 0.0444,0.07014 0.0666,0.10532 0.0222,0.03518 0.0444,0.07043 0.0659,0.105822 0.0222,0.03532 0.0444,0.07079 0.0666,0.106252 0.0222,0.03554 0.0444,0.07115 0.0666,0.106825 0.0222,0.03575 0.0437,0.0715 0.0659,0.107398 0.0222,0.03582 0.0444,0.07179 0.0666,0.107828 0.0222,0.03604 0.0444,0.07215 0.0666,0.108401 0.0215,0.03618 0.0437,0.07251 0.0659,0.108902 0.0222,0.0364 0.0444,0.07287 0.0666,0.109404 0.0222,0.03654 0.0437,0.07322 0.0659,0.109978 0.0222,0.03668 0.0444,0.07351 0.0666,0.110479 0.0222,0.0369 0.0444,0.07387 0.0666,0.11098 0.0215,0.03704 0.0437,0.07423 0.0659,0.111482 0.0222,0.03733 0.0444,0.07465 0.0666,0.112055 0.0222,0.03747 0.0437,0.07501 0.0659,0.112628 0.0222,0.03762 0.0444,0.0753 0.0666,0.11313 0.0222,0.03776 0.0444,0.07566 0.0666,0.113631 0.0215,0.03797 0.0437,0.07602 0.0659,0.114205 0.0222,0.03812 0.0444,0.07637 0.0666,0.114706 0.0222,0.03833 0.0444,0.07673 0.0659,0.115279 0.0222,0.03847 0.0444,0.07709 0.0666,0.11578 0.0222,0.03869 0.0444,0.07752 0.0666,0.116354 0.0215,0.0389 0.0437,0.07788 0.0659,0.116927 0.0222,0.03905 0.0444,0.07817 0.0666,0.117429 0.0222,0.03919 0.0444,0.07852 0.0659,0.118002 0.0222,0.03941 0.0444,0.07888 0.0666,0.118503 0.0222,0.03962 0.0444,0.07931 0.0666,0.119076 0.0215,0.03984 0.0437,0.07967 0.0659,0.11965 0.0222,0.03998 0.0444,0.08003 0.0666,0.120223 0.0222,0.04012 0.0444,0.08039 0.0659,0.120724 0.0222,0.04034 0.0444,0.08075 0.0666,0.121297 0.0222,0.04055 0.0444,0.08118 0.0666,0.121871 0.0222,0.04069 0.0437,0.08153 0.0659,0.122444 0.0222,0.04091 0.0444,0.08189 0.0666,0.122945 0.0222,0.04113 0.0444,0.08232 0.0659,0.12359 0.0222,0.04127 0.0444,0.08268 0.0666,0.124092 0.0222,0.04148 0.0444,0.08304 0.0666,0.124736 0.0222,0.04163 0.0437,0.0834 0.0659,0.125238 0.0222,0.04184 0.0444,0.08383 0.0666,0.125883 0.0222,0.04198 0.0444,0.08411 0.0659,0.126385 0.0222,0.0422 0.0444,0.08454 0.0666,0.126957 0.0222,0.04249 0.0444,0.08497 0.0666,0.127602 0.0222,0.04263 0.0437,0.08533 0.0659,0.128176 0.0222,0.04277 0.0444,0.08569 0.0666,0.128677 0.0222,0.04306 0.0444,0.08612 0.0666,0.129322 0.0215,0.0432 0.0437,0.08655 0.0659,0.129895 0.0222,0.04342 0.0444,0.08691 0.0666,0.13054 0.0222,0.04356 0.0437,0.08727 0.0659,0.131041 0.0222,0.04385 0.0444,0.0877 0.0666,0.131686 0.0222,0.04399 0.0444,0.08812 0.0666,0.132331 0.0215,0.04413 0.0437,0.08848 0.0659,0.132833 0.0222,0.04442 0.0444,0.08891 0.0666,0.133477 0.0222,0.04464 0.0444,0.08927 0.0659,0.134122 0.0222,0.04478 0.0444,0.0897 0.0666,0.134696 0.0222,0.04499 0.0444,0.09006 0.0666,0.135268 0.0215,0.04521 0.0437,0.09049 0.0659,0.135913 0.0222,0.04535 0.0444,0.09092 0.0666,0.136487 0.0222,0.04564 0.0444,0.09135 0.0659,0.137131 0.0222,0.04585 0.0444,0.09171 0.0666,0.137776 0.0222,0.046 0.0444,0.09214 0.0666,0.13835 0.0215,0.04621 0.0437,0.09257 0.0659,0.138994 0.0222,0.04643 0.0444,0.09293 0.0666,0.139567 0.0222,0.04664 0.0444,0.09343 0.0659,0.140284 0.0222,0.04686 0.0444,0.09378 0.0666,0.140857 0.0222,0.04707 0.0444,0.09422 0.0666,0.141502 0.0222,0.04729 0.0437,0.09464 0.0659,0.142146 0.0222,0.0475 0.0444,0.09507 0.0666,0.142792 0.0222,0.04764 0.0444,0.0955 0.0659,0.143364 0.0222,0.04793 0.0444,0.09593 0.0666,0.144081 0.0222,0.04815 0.0444,0.09636 0.0666,0.144726 0.0222,0.04836 0.0437,0.09679 0.0659,0.145371 0.0222,0.0485 0.0444,0.09722 0.0666,0.145944 0.0222,0.04879 0.0444,0.09773 0.0659,0.14666 0.0222,0.04901 0.0444,0.09815 0.0666,0.147377 0.0222,0.04915 0.0444,0.09851 0.0666,0.14795 0.0222,0.04944 0.0437,0.09894 0.0659,0.148666 0.0222,0.04965 0.0444,0.09937 0.0666,0.14924 0.0222,0.04994 0.0444,0.09987 0.0666,0.150027 0.0215,0.05008 0.0437,0.100305 0.0659,0.150601 0.0222,0.05037 0.0444,0.100807 0.0666,0.151317 0.0222,0.05058 0.0437,0.101237 0.0659,0.152034 0.0222,0.0508 0.0444,0.101666 0.0666,0.152679 0.0222,0.05101 0.0444,0.102168 0.0666,0.153395 0.0215,0.05123 0.0437,0.102598 0.0659,0.15404 0.0222,0.05144 0.0444,0.103027 0.0666,0.154756 0.0222,0.05166 0.0437,0.103529 0.0659,0.155401 0.0222,0.05194 0.0444,0.104031 0.0666,0.156189 0.0222,0.05216 0.0444,0.104389 0.0666,0.156835 0.0215,0.05237 0.0437,0.10489 0.0659,0.15755 0.0222,0.05259 0.0444,0.105392 0.0666,0.158267 0.0222,0.05288 0.0444,0.105822 0.0659,0.158912 0.0222,0.05316 0.0444,0.106395 0.0666,0.1597 0.0222,0.05338 0.0444,0.106825 0.0666,0.160416 0.0215,0.05359 0.0437,0.107327 0.0659,0.161133 0.0222,0.05381 0.0444,0.107757 0.0666,0.16185 0.0222,0.05409 0.0444,0.108257 0.0659,0.162565 0.0222,0.05431 0.0444,0.10876 0.0666,0.163354 0.0222,0.05452 0.0444,0.109261 0.0666,0.164071 0.0215,0.05481 0.0437,0.10969 0.0659,0.164787 0.0222,0.05502 0.0444,0.110264 0.0666,0.165503 0.0222,0.05531 0.0444,0.110765 0.0659,0.166363 0.0222,0.05553 0.0444,0.111195 0.0666,0.167008 0.0222,0.05581 0.0444,0.111768 0.0666,0.167868 0.0222,0.05603 0.0437,0.112198 0.0659,0.168512 0.0222,0.05639 0.0444,0.112772 0.0666,0.169372 0.0222,0.0566 0.0444,0.113273 0.0659,0.170089 0.0222,0.05689 0.0444,0.113846 0.0666,0.170948 0.0222,0.0571 0.0444,0.114276 0.0666,0.171665 0.0222,0.05732 0.0437,0.11485 0.0659,0.172453 0.0222,0.0576 0.0444,0.115351 0.0666,0.173241 0.0222,0.05789 0.0444,0.115924 0.0659,0.17403 0.0222,0.05818 0.0444,0.116425 0.0666,0.174889 0.0222,0.05839 0.0444,0.116927 0.0666,0.175605 0.0222,0.05875 0.0437,0.1175 0.0659,0.176465 0.0222,0.05897 0.0444,0.118074 0.0666,0.177325 0.0222,0.05918 0.0444,0.118575 0.0666,0.178042 0.0215,0.05954 0.0437,0.119148 0.0659,0.178973 0.0222,0.05975 0.0444,0.119649 0.0666,0.179761 0.0222,0.06004 0.0437,0.120222 0.0659,0.180549 0.0222,0.06033 0.0444,0.120796 0.0666,0.181409 0.0222,0.06061 0.0444,0.121369 0.0666,0.182268 0.0215,0.0609 0.0437,0.121942 0.0659,0.183128 0.0222,0.06119 0.0444,0.122516 0.0666,0.183989 0.0222,0.06147 0.0437,0.123088 0.0659,0.184847 0.0222,0.06176 0.0444,0.123662 0.0666,0.185708 0.0222,0.06212 0.0444,0.124307 0.0666,0.186639 0.0215,0.06233 0.0437,0.124808 0.0659,0.187427 0.0222,0.06269 0.0444,0.125453 0.0666,0.188359 0.0222,0.06298 0.0444,0.126026 0.0659,0.18929 0.0222,0.06326 0.0444,0.126599 0.0666,0.190149 0.0222,0.06355 0.0444,0.127245 0.0666,0.191082 0.0215,0.06384 0.0437,0.127817 0.0659,0.19194 0.0222,0.0642 0.0444,0.128462 0.0666,0.192944 0.0222,0.06441 0.0444,0.129036 0.0659,0.193804 0.0222,0.06477 0.0444,0.12968 0.0666,0.194735 0.0222,0.06505 0.0444,0.130325 0.0666,0.195667 0.0215,0.06541 0.0437,0.130969 0.0659,0.196669 0.0222,0.0657 0.0444,0.131543 0.0666,0.197601 0.0222,0.06606 0.0444,0.132188 0.0659,0.198532 0.0222,0.06634 0.0444,0.132904 0.0666,0.199536 0.0222,0.0667 0.0444,0.133549 0.0666,0.200538 0.0222,0.06699 0.0437,0.134194 0.0659,0.20147 0.0222,0.06735 0.0444,0.134839 0.0666,0.202544 0.0222,0.06763 0.0444,0.135484 0.0659,0.203476 0.0222,0.06799 0.0444,0.136129 0.0666,0.204479 0.0222,0.06835 0.0444,0.136845 0.0666,0.205554 0.0222,0.06864 0.0437,0.13749 0.0659,0.206485 0.0222,0.06907 0.0444,0.138206 0.0666,0.207632 0.0222,0.06935 0.0444,0.138922 0.0659,0.208634 0.0222,0.06971 0.0444,0.139567 0.0666,0.209638 0.0222,0.07007 0.0444,0.140355 0.0666,0.210784 0.0222,0.07043 0.0437,0.141 0.0659,0.211786 0.0222,0.07079 0.0444,0.141789 0.0666,0.212934 0.0222,0.07115 0.0444,0.142433 0.0666,0.213936 0.0215,0.07157 0.0437,0.143221 0.0659,0.215154 0.0222,0.07186 0.0444,0.143938 0.0666,0.216158 0.0222,0.07229 0.0437,0.144726 0.0659,0.217375 0.0222,0.07265 0.0444,0.145442 0.0666,0.21845 0.0222,0.07301 0.0444,0.146231 0.0666,0.219597 0.0215,0.07344 0.0437,0.147018 0.0659,0.220814 0.0222,0.0738 0.0444,0.147735 0.0666,0.221961 0.0222,0.07415 0.0437,0.148523 0.0659,0.223107 0.0222,0.07458 0.0444,0.149311 0.0666,0.224325 0.0222,0.07494 0.0444,0.150099 0.0666,0.225471 0.0215,0.07537 0.0437,0.150959 0.0659,0.226761 0.0222,0.0758 0.0444,0.151747 0.0666,0.227979 0.0222,0.07616 0.0444,0.152607 0.0659,0.229197 0.0222,0.07666 0.0444,0.153467 0.0666,0.230487 0.0222,0.07702 0.0444,0.154255 0.0666,0.231776 0.0215,0.07745 0.0437,0.155115 0.0659,0.232995 0.0222,0.07788 0.0444,0.155974 0.0666,0.234355 0.0222,0.07831 0.0444,0.156834 0.0659,0.235645 0.0222,0.07874 0.0444,0.157766 0.0666,0.236935 0.0222,0.07924 0.0444,0.158697 0.0666,0.238368 0.0215,0.07967 0.0437,0.159557 0.0659,0.239657 0.0222,0.0801 0.0444,0.160488 0.0666,0.241091 0.0222,0.0806 0.0444,0.161419 0.0659,0.242451 0.0222,0.08103 0.0444,0.162351 0.0666,0.243885 0.0222,0.08153 0.0444,0.163282 0.0666,0.245317 0.0222,0.08196 0.0437,0.164214 0.0659,0.246751 0.0222,0.08246 0.0444,0.165216 0.0666,0.248255 0.0222,0.08297 0.0444,0.166219 0.0659,0.249688 0.0222,0.08347 0.0444,0.167222 0.0666,0.251264 0.0222,0.08397 0.0444,0.168226 0.0666,0.252768 0.0222,0.08447 0.0437,0.169229 0.0659,0.254274 0.0222,0.08504 0.0444,0.170375 0.0666,0.255921 0.0222,0.08555 0.0444,0.171378 0.0659,0.257497 0.0222,0.08612 0.0444,0.172453 0.0666,0.259074 0.0222,0.08669 0.0444,0.173599 0.0666,0.260793 0.0222,0.08719 0.0437,0.174674 0.0659,0.262441 0.0222,0.08777 0.0444,0.175749 0.0666,0.264089 0.0222,0.08834 0.0444,0.176966 0.0666,0.26588 0.0215,0.08891 0.0437,0.178113 0.0659,0.267599 0.0222,0.08949 0.0444,0.17926 0.0666,0.269391 0.0222,0.09006 0.0437,0.180477 0.0659,0.271182 0.0222,0.0907 0.0444,0.181695 0.0666,0.273044 0.0222,0.09135 0.0444,0.182985 0.0666,0.274908 0.0215,0.09199 0.0437,0.184203 0.0659,0.276842 0.0222,0.09257 0.0444,0.185492 0.0666,0.278776 0.0222,0.09321 0.0437,0.186782 0.0659,0.280711 0.0222,0.09393 0.0444,0.188144 0.0666,0.282789 0.0222,0.09457 0.0444,0.189504 0.0666,0.284794 0.0215,0.09529 0.0437,0.190866 0.0659,0.286873 0.0222,0.09601 0.0444,0.19237 0.0666,0.289021 0.0222,0.09672 0.0444,0.193804 0.0659,0.291243 0.0222,0.09744 0.0444,0.195237 0.0666,0.293464 0.0222,0.09816 0.0444,0.196741 0.0666,0.295685 0.0215,0.09902 0.0437,0.198317 0.0659,0.298121 0.0222,0.09966 0.0444,0.199965 0.0666,0.30027 0.0222,0.101022 0.0444,0.201327 0.0659,0.303065 0.0222,0.101021 0.0444,0.202759 0.0666,0.305214 0.0222,0.102454 0.0444,0.204909 0.0666,0.308079 0.0222,0.103171 0.0437,0.206342 0.0659,0.31023 0.0222,0.103887 0.0444,0.208491 0.0666,0.313095 0.0222,0.10532 0.0444,0.21064 0.0659,0.315961 0.0222,0.106036 0.0444,0.212073 0.0666,0.318826 0.0222,0.106754 0.0444,0.214223 0.0666,0.322409 0.0222,0.10747 0.0437,0.215656 0.0659,0.324559 0.0222,0.108902 0.0444,0.217805 0.0666,0.327424 0.0222,0.110336 0.0444,0.220671 0.0659,0.331007 0.0222,0.111052 0.0444,0.22282 0.0666,0.334589 0.0222,0.111768 0.0444,0.224253 0.0666,0.337455 0.0222,0.113201 0.0437,0.227119 0.0659,0.341037 0.0222,0.114634 0.0444,0.229268 0.0666,0.345336 0.0222,0.11535 0.0444,0.231418 0.0666,0.348201 0.0215,0.117501 0.0437,0.235001 0.0659,0.352501 0.0222,0.118217 0.0444,0.23715 0.0666,0.356799 0.0222,0.11965 0.0437,0.240016 0.0659,0.361099 0.0222,0.12108 0.0444,0.24288 0.0666,0.3654 0.0222,0.12251 0.0444,0.24574 0.0666,0.36969 0.0215,0.12467 0.0437,0.24933 0.0659,0.37543 0.0222,0.12538 0.0444,0.2522 0.0666,0.37973 0.0222,0.12753 0.0437,0.25649 0.0659,0.38545 0.0222,0.12968 0.0444,0.26008 0.0666,0.39119 0.0222,0.13183 0.0444,0.26366 0.0666,0.39764 0.0215,0.13326 0.0437,0.26796 0.0659,0.40337 0.0222,0.13613 0.0444,0.27297 0.0666,0.41054 0.0222,0.13827 0.0444,0.27798 0.0659,0.41841 0.0222,0.14043 0.0444,0.283 0.0666,0.4263 0.0222,0.14329 0.0444,0.28873 0.0666,0.43489 0.0215,0.14688 0.0437,0.29518 0.0659,0.44493 0.0222,0.14974 0.0444,0.30163 0.0666,0.45567 0.0222,0.15332 0.0444,0.30951 0.0659,0.46713 0.0222,0.15834 0.0444,0.31883 0.0666,0.48147 0.0222,0.16335 0.0444,0.32885 0.0666,0.49794 0.0215,0.16837 0.0437,0.34104 0.0659,0.51657 0.0222,0.17625 0.0444,0.35608 0.0666,0.54165 0.0222,0.18484 0.0444,0.37542 0.0659,0.57317 0.0222,0.19846 0.0444,0.40408 0.0666,0.62404 0.0222,0.22067 0.0444,0.32742 0.0666,0.75587"
       title="-x*log(x)/log(2) - (1-x)*log(1-x)/log(2)"
       id="path372" />
    <path
       style="fill:none;stroke:#000000;stroke-width:0.264583;stroke-linecap:round;stroke-linejoin:round;stroke-miterlimit:4.1;stroke-dashoffset:0.799999;marker-end:url(#Arrow2Lend)"
       d="M 78.410233,87.857678 V 15.371794"
       id="path970"
       inkscape:path-effect="#path-effect972"
       inkscape:original-d="m 78.410233,87.857678 c 2.65e-4,-24.161697 2.65e-4,-48.323658 0,-72.485884" />
    <text
       xml:space="preserve"
       style="font-size:2.82223px;font-family:Roboto;-inkscape-font-specification:Roboto;text-align:center;text-anchor:middle;fill:#000000;stroke:none;stroke-width:0.264583;stroke-linecap:round;stroke-linejoin:round;stroke-miterlimit:4.1;stroke-dashoffset:0.799999"
       x="144.59427"
       y="93.305145"
       id="text1074"><tspan
         sodipodi:role="line"
         id="tspan1072"
         style="fill:#000000;stroke:none;stroke-width:0.264583"
         x="144.59427"
         y="93.305145">1</tspan></text>
    <text
       xml:space="preserve"
       style="font-size:2.82223px;font-family:Roboto;-inkscape-font-specification:Roboto;text-align:center;text-anchor:middle;fill:#000000;stroke:none;stroke-width:0.264583;stroke-linecap:round;stroke-linejoin:round;stroke-miterlimit:4.1;stroke-dashoffset:0.799999"
       x="111.72424"
       y="93.305145"
       id="text1078"><tspan
         sodipodi:role="line"
         id="tspan1076"
         style="fill:#000000;stroke:none;stroke-width:0.264583"
         x="111.72424"
         y="93.305145">1/2</tspan></text>
    <path
       style="fill:none;stroke:#000000;stroke-width:0.264583;stroke-linecap:round;stroke-linejoin:round;stroke-miterlimit:4.1;stroke-dashoffset:0.799999;marker-end:url(#Arrow2Lend)"
       d="M 78.410233,87.858678 H 155.1282"
       id="path358"
       inkscape:path-effect="#path-effect360"
       inkscape:original-d="m 78.410233,87.858678 c 25.572917,2.65e-4 51.145577,2.65e-4 76.717967,0" />
    <text
       xml:space="preserve"
       style="font-size:2.82223px;font-family:Roboto;-inkscape-font-specification:Roboto;text-align:end;text-anchor:end;fill:#000000;stroke:none;stroke-width:0.264583;stroke-linecap:round;stroke-linejoin:round;stroke-miterlimit:4.1;stroke-dashoffset:0.799999"
       x="75.929756"
       y="22.452929"
       id="text1244"><tspan
         sodipodi:role="line"
         id="tspan1242"
         style="text-align:end;text-anchor:end;fill:#000000;stroke:none;stroke-width:0.264583"
         x="75.929756"
         y="22.452929">1</tspan></text>
  </g>
  <inkscape:templateinfo>
    <inkscape:name>Default Template</inkscape:name>
    <inkscape:author>Joachim Favre</inkscape:author>
    <inkscape:shortdesc>Arrow definitions, snapping (including perpendicular and tangential)</inkscape:shortdesc>
    <inkscape:date>2022-02-19</inkscape:date>
  </inkscape:templateinfo>
</svg>
