<?xml version="1.0" encoding="UTF-8" standalone="no"?>
<!-- Created with Inkscape (http://www.inkscape.org/) -->

<svg
   width="82.673851mm"
   height="82.673851mm"
   viewBox="0 0 82.673851 82.673851"
   version="1.1"
   id="svg5"
   inkscape:version="1.2.2 (732a01da63, 2022-12-09)"
   sodipodi:docname="ApproximateNearestNeighbourSearchExample.svg"
   xmlns:inkscape="http://www.inkscape.org/namespaces/inkscape"
   xmlns:sodipodi="http://sodipodi.sourceforge.net/DTD/sodipodi-0.dtd"
   xmlns="http://www.w3.org/2000/svg"
   xmlns:svg="http://www.w3.org/2000/svg">
  <sodipodi:namedview
     id="namedview7"
     pagecolor="#ffffff"
     bordercolor="#111111"
     borderopacity="1"
     inkscape:pageshadow="0"
     inkscape:pageopacity="0"
     inkscape:pagecheckerboard="1"
     inkscape:document-units="mm"
     showgrid="false"
     inkscape:snap-perpendicular="true"
     inkscape:snap-tangential="true"
     inkscape:snap-bbox="true"
     inkscape:bbox-paths="true"
     inkscape:bbox-nodes="true"
     inkscape:snap-bbox-edge-midpoints="true"
     inkscape:snap-bbox-midpoints="true"
     inkscape:object-paths="true"
     inkscape:snap-intersection-paths="true"
     inkscape:snap-object-midpoints="true"
     inkscape:snap-center="true"
     inkscape:showpageshadow="0"
     inkscape:deskcolor="#d1d1d1"
     showguides="true"
     inkscape:zoom="3.6596241"
     inkscape:cx="108.07121"
     inkscape:cy="133.48366"
     inkscape:window-width="2291"
     inkscape:window-height="1360"
     inkscape:window-x="0"
     inkscape:window-y="338"
     inkscape:window-maximized="0"
     inkscape:current-layer="layer1">
    <sodipodi:guide
       position="41.336915,41.336924"
       orientation="1,0"
       id="guide411"
       inkscape:locked="false" />
    <sodipodi:guide
       position="43.381805,41.336924"
       orientation="0,-1"
       id="guide413"
       inkscape:locked="false" />
  </sodipodi:namedview>
  <defs
     id="defs2">
    <marker
       style="overflow:visible"
       id="Arrow2Lend"
       refX="0"
       refY="0"
       orient="auto"
       inkscape:stockid="Arrow2Lend"
       inkscape:isstock="true"
       viewBox="0 0 12.705841 9.5264135"
       markerWidth="12.705841"
       markerHeight="9.5264139"
       preserveAspectRatio="xMidYMid">
      <path
         transform="matrix(-1.1,0,0,-1.1,-1.1,0)"
         d="M 8.7185878,4.0337352 -2.2072895,0.01601326 8.7185884,-4.0017078 c -1.7454984,2.3720609 -1.7354408,5.6174519 -6e-7,8.035443 z"
         style="fill:context-stroke;fill-rule:evenodd;stroke:context-stroke;stroke-width:0.625;stroke-linejoin:round"
         id="path880" />
    </marker>
    <marker
       style="overflow:visible"
       id="Arrow2Lstart"
       refX="0"
       refY="0"
       orient="auto"
       inkscape:stockid="Arrow2Lstart"
       inkscape:isstock="true"
       viewBox="0 0 12.705841 9.5264135"
       markerWidth="12.705841"
       markerHeight="9.5264139"
       preserveAspectRatio="xMidYMid">
      <path
         transform="matrix(1.1,0,0,1.1,1.1,0)"
         d="M 8.7185878,4.0337352 -2.2072895,0.01601326 8.7185884,-4.0017078 c -1.7454984,2.3720609 -1.7354408,5.6174519 -6e-7,8.035443 z"
         style="fill:context-stroke;fill-rule:evenodd;stroke:context-stroke;stroke-width:0.625;stroke-linejoin:round"
         id="path877" />
    </marker>
  </defs>
  <g
     inkscape:label="Layer 1"
     inkscape:groupmode="layer"
     id="layer1"
     transform="translate(-72.563723,-2.0148452)">
    <circle
       style="fill:#000000;stroke:#000000;stroke-width:0.264584;stroke-linecap:round;stroke-linejoin:round;stroke-miterlimit:4.1"
       id="circle417"
       cx="-107.6107"
       cy="-30.338148"
       r="0.80357867"
       transform="scale(-1)" />
    <circle
       style="fill:#000000;stroke:#000000;stroke-width:0.264584;stroke-linecap:round;stroke-linejoin:round;stroke-miterlimit:4.1"
       id="circle419"
       cx="-81.728035"
       cy="-61.860058"
       r="0.80357867"
       transform="scale(-1)" />
    <text
       xml:space="preserve"
       style="font-size:2.82223px;text-align:end;text-anchor:end;fill:#000000;stroke:none;stroke-width:0.264583;stroke-linecap:round;stroke-linejoin:round;stroke-miterlimit:4.1"
       x="112.42332"
       y="46.487583"
       id="text423"><tspan
         sodipodi:role="line"
         id="tspan421"
         style="text-align:end;text-anchor:end;fill:#000000;stroke:none;stroke-width:0.264583"
         x="112.42332"
         y="46.487583">$q$</tspan></text>
    <text
       xml:space="preserve"
       style="font-size:2.82223px;text-align:end;text-anchor:end;fill:#000000;stroke:none;stroke-width:0.264583;stroke-linecap:round;stroke-linejoin:round;stroke-miterlimit:4.1"
       x="106.35029"
       y="32.967865"
       id="text477"><tspan
         sodipodi:role="line"
         id="tspan475"
         style="stroke-width:0.264583"
         x="106.35029"
         y="32.967865">$p_i$</tspan></text>
    <text
       xml:space="preserve"
       style="font-size:2.82223px;text-align:start;text-anchor:start;fill:#000000;stroke:none;stroke-width:0.264583;stroke-linecap:round;stroke-linejoin:round;stroke-miterlimit:4.1"
       x="83.606453"
       y="59.889023"
       id="text481"><tspan
         sodipodi:role="line"
         id="tspan479"
         style="text-align:start;text-anchor:start;stroke-width:0.264583"
         x="83.606453"
         y="59.889023">$p_j$</tspan></text>
    <g
       id="path537">
      <path
         style="color:#000000;fill:#2c89a0;stroke-linecap:round;stroke-linejoin:round;stroke-miterlimit:4.1;-inkscape-stroke:none"
         d="m 115.04297,44.078125 a 0.13249999,0.13249999 0 0 0 -0.17969,0.05469 0.13249999,0.13249999 0 0 0 0.0566,0.179688 l 34.81641,18.490234 a 0.13249999,0.13249999 0 0 0 0.17773,-0.05469 0.13249999,0.13249999 0 0 0 -0.0547,-0.177735 z"
         id="path498" />
      <g
         id="g480">
        <g
           id="path490">
          <path
             style="color:#000000;fill:#2c89a0;fill-rule:evenodd;stroke-width:0.182187;stroke-linejoin:round;-inkscape-stroke:none"
             d="m 147.84757,60.319291 2.26342,2.528262 -3.36214,-0.459605 c 0.77371,-0.371999 1.21487,-1.208873 1.09872,-2.068657 z"
             id="path494" />
          <path
             style="color:#000000;fill:#2c89a0;fill-rule:evenodd;stroke-linejoin:round;-inkscape-stroke:none"
             d="m 147.80859,60.236328 a 0.09110261,0.09110261 0 0 0 -0.0508,0.0957 c 0.11101,0.821685 -0.31101,1.61987 -1.04883,1.97461 a 0.09110261,0.09110261 0 0 0 0.0274,0.171875 l 3.36328,0.458984 a 0.09110261,0.09110261 0 0 0 0.0801,-0.150391 l -2.26367,-2.529297 a 0.09110261,0.09110261 0 0 0 -0.10743,-0.02148 z m 0.0918,0.279297 1.97852,2.208984 -2.93555,-0.402343 c 0.62575,-0.389885 0.97978,-1.06299 0.95703,-1.806641 z"
             id="path496" />
        </g>
        <g
           id="path482">
          <path
             style="color:#000000;fill:#2c89a0;fill-rule:evenodd;stroke-width:0.182187;stroke-linejoin:round;-inkscape-stroke:none"
             d="m 116.93153,46.561815 -2.26342,-2.528262 3.36214,0.459605 c -0.77371,0.371999 -1.21487,1.208873 -1.09872,2.068657 z"
             id="path486" />
          <path
             style="color:#000000;fill:#2c89a0;fill-rule:evenodd;stroke-linejoin:round;-inkscape-stroke:none"
             d="m 114.67969,43.943359 a 0.09110261,0.09110261 0 0 0 -0.0801,0.150391 l 2.26367,2.529297 a 0.09110261,0.09110261 0 0 0 0.1582,-0.07422 c -0.111,-0.821685 0.31102,-1.617917 1.04883,-1.972656 a 0.09110261,0.09110261 0 0 0 -0.0273,-0.173828 z m 0.2207,0.212891 2.93555,0.402344 c -0.62634,0.390151 -0.98039,1.064247 -0.95703,1.808593 z"
             id="path488" />
        </g>
      </g>
    </g>
    <g
       id="path1183">
      <path
         style="color:#000000;fill:#d35f5f;stroke-linecap:round;stroke-linejoin:round;stroke-miterlimit:4.1;-inkscape-stroke:none"
         d="m 132.22656,32.263672 -17.31445,10.171875 a 0.13249999,0.13249999 0 0 0 -0.0469,0.18164 0.13249999,0.13249999 0 0 0 0.18165,0.04687 l 17.31249,-10.171875 a 0.13249999,0.13249999 0 0 0 0.0469,-0.18164 0.13249999,0.13249999 0 0 0 -0.17969,-0.04687 z"
         id="path476" />
      <g
         id="g458">
        <g
           id="path468">
          <path
             style="color:#000000;fill:#d35f5f;fill-rule:evenodd;stroke-width:0.182187;stroke-linejoin:round;-inkscape-stroke:none"
             d="m 129.25466,32.798351 3.33928,-0.603655 -2.15268,2.623189 c 0.0884,-0.853923 -0.39337,-1.668096 -1.1866,-2.019534 z"
             id="path472" />
          <path
             style="color:#000000;fill:#d35f5f;fill-rule:evenodd;stroke-linejoin:round;-inkscape-stroke:none"
             d="m 132.57812,32.105469 -3.33984,0.603515 a 0.09110261,0.09110261 0 0 0 -0.0215,0.171875 c 0.75808,0.335865 1.21906,1.11343 1.13476,1.927735 a 0.09110261,0.09110261 0 0 0 0.16016,0.06641 l 2.15234,-2.623047 a 0.09110261,0.09110261 0 0 0 -0.0859,-0.146484 z m -0.21289,0.224609 -1.8789,2.289063 c -0.004,-0.737131 -0.39009,-1.393346 -1.03516,-1.763672 z"
             id="path474" />
        </g>
        <g
           id="path460">
          <path
             style="color:#000000;fill:#d35f5f;fill-rule:evenodd;stroke-width:0.182187;stroke-linejoin:round;-inkscape-stroke:none"
             d="m 118.01813,42.128018 -3.33928,0.603655 2.15268,-2.623189 c -0.0884,0.853923 0.39337,1.668096 1.1866,2.019534 z"
             id="path464" />
          <path
             style="color:#000000;fill:#d35f5f;fill-rule:evenodd;stroke-linejoin:round;-inkscape-stroke:none"
             d="m 116.82813,40.017578 a 0.09110261,0.09110261 0 0 0 -0.0664,0.0332 l -2.15234,2.623047 a 0.09110261,0.09110261 0 0 0 0.0859,0.148438 l 3.33985,-0.605469 a 0.09110261,0.09110261 0 0 0 0.0195,-0.171875 c -0.75808,-0.335865 -1.21711,-1.11343 -1.13281,-1.927735 a 0.09110261,0.09110261 0 0 0 -0.0937,-0.09961 z m -0.043,0.291016 c 0.004,0.738446 0.392,1.393779 1.03906,1.763672 l -2.91797,0.52539 z"
             id="path466" />
        </g>
      </g>
    </g>
    <circle
       style="fill:#000000;stroke:#000000;stroke-width:0.264584;stroke-linecap:round;stroke-linejoin:round;stroke-miterlimit:4.1"
       id="path249"
       cx="-113.90063"
       cy="-43.35178"
       r="0.80357867"
       transform="scale(-1)" />
    <text
       xml:space="preserve"
       style="font-size:2.82223px;text-align:start;text-anchor:start;fill:#d35f5f;fill-opacity:1;stroke:none;stroke-width:0.264999;stroke-linecap:round;stroke-linejoin:round;stroke-miterlimit:4.1;stroke-dasharray:none"
       x="125.70992"
       y="39.809093"
       id="text1299"><tspan
         sodipodi:role="line"
         id="tspan1297"
         style="fill:#d35f5f;fill-opacity:1;stroke:none;stroke-width:0.265"
         x="125.70992"
         y="39.809093">$r$</tspan></text>
    <text
       xml:space="preserve"
       style="font-size:2.82223px;text-align:start;text-anchor:start;fill:#2c89a0;fill-opacity:1;stroke:none;stroke-width:0.264999;stroke-linecap:round;stroke-linejoin:round;stroke-miterlimit:4.1;stroke-dasharray:none;stroke-opacity:1"
       x="136.44562"
       y="54.445332"
       id="text1846"><tspan
         sodipodi:role="line"
         id="tspan1844"
         style="fill:#2c89a0;fill-opacity:1;stroke:none;stroke-width:0.265;stroke-opacity:1"
         x="136.44562"
         y="54.445332">$c \cdot r$</tspan></text>
    <circle
       style="fill:none;stroke:#000000;stroke-width:0.264583;stroke-linecap:round;stroke-linejoin:round;stroke-miterlimit:4.1"
       id="path355"
       cx="113.90064"
       cy="43.351772"
       r="21.98262" />
    <circle
       style="fill:none;stroke:#000000;stroke-width:0.264583;stroke-linecap:round;stroke-linejoin:round;stroke-miterlimit:4.1"
       id="circle415"
       cx="113.90065"
       cy="43.351772"
       r="41.204636" />
  </g>
  <inkscape:templateinfo>
    <inkscape:name>Default Template</inkscape:name>
    <inkscape:author>Joachim Favre</inkscape:author>
    <inkscape:shortdesc>Arrow definitions, snapping (including perpendicular and tangential)</inkscape:shortdesc>
    <inkscape:date>2022-02-19</inkscape:date>
  </inkscape:templateinfo>
</svg>
