<?xml version="1.0" encoding="UTF-8" standalone="no"?>
<!-- Created with Inkscape (http://www.inkscape.org/) -->

<svg
   width="132.07959mm"
   height="30.232788mm"
   viewBox="0 0 132.07959 30.232788"
   version="1.1"
   id="svg5"
   inkscape:version="1.1.2 (b8e25be833, 2022-02-05)"
   sodipodi:docname="SunnyRainSourceDiagram.svg"
   xmlns:inkscape="http://www.inkscape.org/namespaces/inkscape"
   xmlns:sodipodi="http://sodipodi.sourceforge.net/DTD/sodipodi-0.dtd"
   xmlns="http://www.w3.org/2000/svg"
   xmlns:svg="http://www.w3.org/2000/svg">
  <sodipodi:namedview
     id="namedview7"
     pagecolor="#ffffff"
     bordercolor="#111111"
     borderopacity="1"
     inkscape:pageshadow="0"
     inkscape:pageopacity="0"
     inkscape:pagecheckerboard="1"
     inkscape:document-units="mm"
     showgrid="false"
     inkscape:snap-perpendicular="true"
     inkscape:snap-tangential="true"
     inkscape:snap-bbox="true"
     inkscape:bbox-paths="true"
     inkscape:bbox-nodes="true"
     inkscape:snap-bbox-edge-midpoints="true"
     inkscape:snap-bbox-midpoints="true"
     inkscape:object-paths="true"
     inkscape:snap-intersection-paths="true"
     inkscape:snap-object-midpoints="true"
     inkscape:snap-center="true"
     showguides="true"
     inkscape:guide-bbox="true"
     inkscape:zoom="2"
     inkscape:cx="2"
     inkscape:cy="43.5"
     inkscape:window-width="2479"
     inkscape:window-height="1417"
     inkscape:window-x="73"
     inkscape:window-y="-8"
     inkscape:window-maximized="1"
     inkscape:current-layer="layer1">
    <sodipodi:guide
       position="4.2846046,5.067107"
       orientation="0,-1"
       id="guide11776" />
    <sodipodi:guide
       position="4.2846046,25.854107"
       orientation="0,-1"
       id="guide12746" />
    <sodipodi:guide
       position="0.73656269,25.854117"
       orientation="1,0"
       id="guide17500" />
    <sodipodi:guide
       position="10.141659,22.697667"
       orientation="1,0"
       id="guide28684" />
  </sodipodi:namedview>
  <defs
     id="defs2">
    <marker
       style="overflow:visible"
       id="Arrow1Lend"
       refX="0"
       refY="0"
       orient="auto"
       inkscape:stockid="Arrow1Lend"
       inkscape:isstock="true">
      <path
         transform="matrix(-0.8,0,0,-0.8,-10,0)"
         style="fill:context-stroke;fill-rule:evenodd;stroke:context-stroke;stroke-width:1pt"
         d="M 0,0 5,-5 -12.5,0 5,5 Z"
         id="path904" />
    </marker>
  </defs>
  <g
     inkscape:label="Layer 1"
     inkscape:groupmode="layer"
     id="layer1"
     transform="translate(-37.20634,-4.4703496)">
    <g
       id="path1420">
      <path
         style="color:#000000;fill:#c83737;stroke-linecap:round;-inkscape-stroke:none"
         d="m 62.458984,8.9824219 a 0.1322915,0.1322915 0 0 0 -0.09375,0.037109 L 41.398437,29.541016 a 0.1322915,0.1322915 0 0 0 -0.002,0.1875 0.1322915,0.1322915 0 0 0 0.1875,0.002 L 62.550781,9.2089844 a 0.1322915,0.1322915 0 0 0 0.002,-0.1875 0.1322915,0.1322915 0 0 0 -0.09375,-0.039063 z"
         id="path1967" />
      <g
         id="g1957">
        <g
           id="path1959">
          <path
             style="color:#000000;fill:#c83737;fill-rule:evenodd;stroke-width:0.211666pt;-inkscape-stroke:none"
             d="m 60.566577,10.964546 -0.01602,1.496621 1.90683,-3.347369 -3.387428,1.834724 z"
             id="path1963" />
          <path
             style="color:#000000;fill:#c83737;fill-rule:evenodd;-inkscape-stroke:none"
             d="m 62.824219,8.7539063 -4.300782,2.3300777 1.900391,0.01953 -0.01953,1.90039 z m -0.734375,0.7207031 -1.392578,2.4433596 0.01172,-1.09375 H 60.568359 L 59.615234,10.8125 Z"
             id="path1965" />
        </g>
      </g>
    </g>
    <g
       id="path1744">
      <path
         style="color:#000000;fill:#000000;stroke-linecap:round;-inkscape-stroke:none"
         d="m 41.398437,8.6464844 a 0.1322915,0.1322915 0 0 0 -0.132812,0.1308594 0.1322915,0.1322915 0 0 0 0.132812,0.1328125 H 62.353516 A 0.1322915,0.1322915 0 0 0 62.486328,8.7773438 0.1322915,0.1322915 0 0 0 62.353516,8.6464844 Z"
         id="path1953" />
      <g
         id="g1943">
        <g
           id="path1945">
          <path
             style="color:#000000;fill:#000000;fill-rule:evenodd;stroke-width:0.211666pt;-inkscape-stroke:none"
             d="m 59.70799,8.7778112 -1.058332,1.058332 3.704162,-1.058332 -3.704162,-1.058332 z"
             id="path1949" />
          <path
             style="color:#000000;fill:#000000;fill-rule:evenodd;-inkscape-stroke:none"
             d="m 58.164062,7.4335937 1.34375,1.3437501 -1.34375,1.3437502 4.703125,-1.3437502 z m 0.972657,0.5722657 2.703125,0.7714844 -2.707032,0.7753906 0.775391,-0.7753906 -0.09961,-0.099609 z"
             id="path1951" />
        </g>
      </g>
    </g>
    <g
       id="path2041">
      <path
         style="color:#000000;fill:#000000;stroke-linecap:round;-inkscape-stroke:none"
         d="m 41.583984,8.7539063 a 0.1322915,0.1322915 0 0 0 -0.1875,0.00195 0.1322915,0.1322915 0 0 0 0.002,0.1875 L 62.365234,29.466797 a 0.1322915,0.1322915 0 0 0 0.1875,-0.0039 0.1322915,0.1322915 0 0 0 -0.002,-0.185547 z"
         id="path1939" />
      <g
         id="g1929">
        <g
           id="path1931">
          <path
             style="color:#000000;fill:#000000;fill-rule:evenodd;stroke-width:0.211666pt;-inkscape-stroke:none"
             d="m 60.566577,27.520532 -1.496621,0.01602 3.387428,1.834724 -1.90683,-3.347369 z"
             id="path1935" />
          <path
             style="color:#000000;fill:#000000;fill-rule:evenodd;-inkscape-stroke:none"
             d="m 60.404297,25.480469 0.01953,1.90039 -1.900391,0.01953 4.300782,2.330078 z m 0.292969,1.085937 1.392578,2.445313 -2.472657,-1.339844 1.091797,-0.01172 -0.002,-0.140625 z"
             id="path1937" />
        </g>
      </g>
    </g>
    <g
       id="path2043">
      <path
         style="color:#000000;fill:#006680;stroke-width:0.264583px;stroke-linecap:round;-inkscape-stroke:none"
         d="M 41.398026,29.707266 H 62.35382"
         id="path1923" />
      <path
         style="color:#000000;fill:#00aad4;stroke-linecap:round;-inkscape-stroke:none"
         d="m 41.398437,29.574219 a 0.1322915,0.1322915 0 0 0 -0.132812,0.132812 0.1322915,0.1322915 0 0 0 0.132812,0.132813 h 20.955079 a 0.1322915,0.1322915 0 0 0 0.132812,-0.132813 0.1322915,0.1322915 0 0 0 -0.132812,-0.132812 z"
         id="path1925" />
      <g
         id="g1913">
        <g
           id="path1915">
          <path
             style="color:#000000;fill:#00aad4;fill-rule:evenodd;stroke-width:0.211666pt;-inkscape-stroke:none"
             d="m 59.70799,29.707266 -1.058332,1.058332 3.704162,-1.058332 -3.704162,-1.058332 z"
             id="path1919" />
          <path
             style="color:#000000;fill:#00aad4;fill-rule:evenodd;-inkscape-stroke:none"
             d="m 58.164062,28.363281 1.34375,1.34375 -1.34375,1.34375 4.703125,-1.34375 z m 0.972657,0.572266 2.703125,0.771484 -2.707032,0.775391 0.775391,-0.775391 -0.09961,-0.09961 z"
             id="path1921" />
        </g>
      </g>
    </g>
    <g
       id="path2071">
      <path
         style="color:#000000;fill:#00aad4;stroke-linecap:round;-inkscape-stroke:none"
         d="m 83.423828,8.8886719 a 0.1322915,0.1322915 0 0 0 -0.0957,0.037109 L 62.363281,29.449219 a 0.1322915,0.1322915 0 0 0 -0.002,0.1875 0.1322915,0.1322915 0 0 0 0.185547,0.002 L 83.513672,9.1152344 a 0.1322915,0.1322915 0 0 0 0.002,-0.1855469 0.1322915,0.1322915 0 0 0 -0.0918,-0.041016 z"
         id="path1909" />
      <g
         id="g1899">
        <g
           id="path1901">
          <path
             style="color:#000000;fill:#00aad4;fill-rule:evenodd;stroke-width:0.211666pt;-inkscape-stroke:none"
             d="m 81.530639,10.871999 -0.01602,1.496622 1.90683,-3.3473696 -3.387428,1.8347236 z"
             id="path1905" />
          <path
             style="color:#000000;fill:#00aad4;fill-rule:evenodd;-inkscape-stroke:none"
             d="m 83.789062,8.6621094 -4.300781,2.3300786 1.898438,0.01953 -0.01953,1.90039 z m -0.734375,0.7167969 -1.392578,2.4472657 0.01172,-1.09375 -0.142578,-0.002 -0.951172,-0.0098 z"
             id="path1907" />
        </g>
      </g>
    </g>
    <g
       id="path2073">
      <path
         style="color:#000000;fill:#ff2a2a;stroke-linecap:round;-inkscape-stroke:none"
         d="m 62.361328,8.5527344 a 0.1322915,0.1322915 0 0 0 -0.130859,0.1328125 0.1322915,0.1322915 0 0 0 0.130859,0.1328125 h 20.957031 a 0.1322915,0.1322915 0 0 0 0.13086,-0.1328125 0.1322915,0.1322915 0 0 0 -0.13086,-0.1328125 z"
         id="path1895" />
      <g
         id="g1885">
        <g
           id="path1887">
          <path
             style="color:#000000;fill:#ff2a2a;fill-rule:evenodd;stroke-width:0.211666pt;-inkscape-stroke:none"
             d="M 80.672052,8.6852646 79.61372,9.7435966 83.317882,8.6852646 79.61372,7.6269326 Z"
             id="path1891" />
          <path
             style="color:#000000;fill:#ff2a2a;fill-rule:evenodd;-inkscape-stroke:none"
             d="m 79.128906,7.3417969 1.34375,1.34375 -1.34375,1.3437501 4.703125,-1.3437501 z m 0.966797,0.5683593 2.708984,0.7734376 -2.705078,0.7734375 0.771485,-0.7714844 -0.09961,-0.099609 z"
             id="path1893" />
        </g>
      </g>
    </g>
    <g
       id="path2075">
      <path
         style="color:#000000;fill:#000000;stroke-linecap:round;-inkscape-stroke:none"
         d="m 62.453125,8.625 a 0.1322915,0.1322915 0 0 0 -0.0918,0.039063 0.1322915,0.1322915 0 0 0 0.002,0.1875 L 83.328125,29.373047 a 0.1322915,0.1322915 0 0 0 0.1875,-0.002 0.1322915,0.1322915 0 0 0 -0.002,-0.1875 L 62.546875,8.6621094 A 0.1322915,0.1322915 0 0 0 62.453125,8.625 Z"
         id="path1881" />
      <g
         id="g1871">
        <g
           id="path1873">
          <path
             style="color:#000000;fill:#000000;fill-rule:evenodd;stroke-width:0.211666pt;-inkscape-stroke:none"
             d="m 81.530639,27.427985 -1.496621,0.01602 3.387428,1.834724 -1.90683,-3.347369 z"
             id="path1877" />
          <path
             style="color:#000000;fill:#000000;fill-rule:evenodd;-inkscape-stroke:none"
             d="m 81.367187,25.388672 0.01953,1.90039 -1.898438,0.01953 4.300781,2.330078 z m 0.294922,1.085937 1.392578,2.445313 -2.472656,-1.339844 1.091797,-0.01172 -0.002,-0.142578 z"
             id="path1879" />
        </g>
      </g>
    </g>
    <g
       id="path2077">
      <path
         style="color:#000000;fill:#000000;stroke-linecap:round;-inkscape-stroke:none"
         d="m 62.361328,29.482422 a 0.1322915,0.1322915 0 0 0 -0.130859,0.132812 0.1322915,0.1322915 0 0 0 0.130859,0.13086 h 20.957031 a 0.1322915,0.1322915 0 0 0 0.13086,-0.13086 0.1322915,0.1322915 0 0 0 -0.13086,-0.132812 z"
         id="path1867" />
      <g
         id="g1857">
        <g
           id="path1859">
          <path
             style="color:#000000;fill:#000000;fill-rule:evenodd;stroke-width:0.211666pt;-inkscape-stroke:none"
             d="M 80.672052,29.614719 79.61372,30.673051 83.317882,29.614719 79.61372,28.556387 Z"
             id="path1863" />
          <path
             style="color:#000000;fill:#000000;fill-rule:evenodd;-inkscape-stroke:none"
             d="m 79.128906,28.271484 1.34375,1.34375 -1.34375,1.34375 4.703125,-1.34375 z m 0.966797,0.56836 2.708984,0.773437 -2.705078,0.773438 0.771485,-0.771485 -0.09961,-0.09961 z"
             id="path1865" />
        </g>
      </g>
    </g>
    <g
       id="path2206">
      <path
         style="color:#000000;fill:#000000;stroke-linecap:round;-inkscape-stroke:none"
         d="M 104.79492,9.0449219 83.828125,29.568359 a 0.1322915,0.1322915 0 0 0 -0.002,0.185547 0.1322915,0.1322915 0 0 0 0.1875,0.002 L 104.98047,9.234375 a 0.1322915,0.1322915 0 0 0 0.002,-0.1875 0.1322915,0.1322915 0 0 0 -0.1875,-0.00195 z"
         id="path1853" />
      <g
         id="g1843">
        <g
           id="path1845">
          <path
             style="color:#000000;fill:#000000;fill-rule:evenodd;stroke-width:0.211666pt;-inkscape-stroke:none"
             d="m 102.99644,10.990642 -0.016,1.496621 1.90683,-3.3473689 -3.38743,1.8347239 z"
             id="path1849" />
          <path
             style="color:#000000;fill:#000000;fill-rule:evenodd;-inkscape-stroke:none"
             d="m 105.25391,8.78125 -4.30078,2.328125 1.90039,0.01953 -0.0195,1.900391 z m -0.73243,0.7167969 -1.39453,2.4472661 0.0117,-1.09375 -0.14062,-0.002 -0.95117,-0.0098 z"
             id="path1851" />
        </g>
      </g>
    </g>
    <g
       id="path2208">
      <path
         style="color:#000000;fill:#000000;stroke-linecap:round;-inkscape-stroke:none"
         d="m 83.828125,8.671875 a 0.1322915,0.1322915 0 0 0 -0.132813,0.1328125 0.1322915,0.1322915 0 0 0 0.132813,0.1308594 H 104.7832 A 0.1322915,0.1322915 0 0 0 104.91602,8.8046875 0.1322915,0.1322915 0 0 0 104.7832,8.671875 Z"
         id="path1839" />
      <g
         id="g1829">
        <g
           id="path1831">
          <path
             style="color:#000000;fill:#000000;fill-rule:evenodd;stroke-width:0.211666pt;-inkscape-stroke:none"
             d="m 102.13786,8.8039073 -1.05833,1.058332 3.70416,-1.058332 -3.70416,-1.058332 z"
             id="path1835" />
          <path
             style="color:#000000;fill:#000000;fill-rule:evenodd;-inkscape-stroke:none"
             d="m 100.59375,7.4609375 1.34375,1.34375 -1.34375,1.3437505 4.70313,-1.3437505 z m 0.96875,0.5683594 2.70703,0.7753906 -2.70312,0.7714844 0.77148,-0.7714844 -0.0996,-0.099609 z"
             id="path1837" />
        </g>
      </g>
    </g>
    <g
       id="path2210">
      <path
         style="color:#000000;fill:#000000;stroke-linecap:round;-inkscape-stroke:none"
         d="m 84.013672,8.78125 a 0.1322915,0.1322915 0 0 0 -0.1875,0.00195 0.1322915,0.1322915 0 0 0 0.002,0.1855469 l 20.966795,20.523437 a 0.1322915,0.1322915 0 0 0 0.1875,-0.002 0.1322915,0.1322915 0 0 0 -0.002,-0.1875 z"
         id="path1825" />
      <g
         id="g1815">
        <g
           id="path1817">
          <path
             style="color:#000000;fill:#000000;fill-rule:evenodd;stroke-width:0.211666pt;-inkscape-stroke:none"
             d="m 102.99644,27.546628 -1.49662,0.01602 3.38743,1.834724 -1.90683,-3.347369 z"
             id="path1821" />
          <path
             style="color:#000000;fill:#000000;fill-rule:evenodd;-inkscape-stroke:none"
             d="m 102.83398,25.507812 0.0195,1.900391 -1.90039,0.01953 4.30078,2.328125 z m 0.29297,1.083985 1.39258,2.445312 -2.47656,-1.339843 1.0957,-0.01172 -0.002,-0.140625 z"
             id="path1823" />
        </g>
      </g>
    </g>
    <g
       id="path2212">
      <path
         style="color:#000000;fill:#000000;stroke-linecap:round;-inkscape-stroke:none"
         d="m 83.828125,29.601562 a 0.1322915,0.1322915 0 0 0 -0.132813,0.13086 0.1322915,0.1322915 0 0 0 0.132813,0.132812 H 104.7832 a 0.1322915,0.1322915 0 0 0 0.13282,-0.132812 0.1322915,0.1322915 0 0 0 -0.13282,-0.13086 z"
         id="path1811" />
      <g
         id="g1801">
        <g
           id="path1803">
          <path
             style="color:#000000;fill:#000000;fill-rule:evenodd;stroke-width:0.211666pt;-inkscape-stroke:none"
             d="m 102.13786,29.733362 -1.05833,1.058332 3.70416,-1.058332 -3.70416,-1.058332 z"
             id="path1807" />
          <path
             style="color:#000000;fill:#000000;fill-rule:evenodd;-inkscape-stroke:none"
             d="m 100.59375,28.390625 1.34375,1.34375 -1.34375,1.341797 4.70313,-1.34375 z m 0.9707,0.570312 2.70508,0.773438 -2.70703,0.773437 0.77539,-0.77539 -0.0996,-0.09961 z"
             id="path1809" />
        </g>
      </g>
    </g>
    <text
       xml:space="preserve"
       style="font-size:2.82223px;line-height:1.25;font-family:sans-serif;text-align:center;text-anchor:middle;stroke-width:0.264583"
       x="37.918098"
       y="9.877739"
       id="text16358"><tspan
         sodipodi:role="line"
         id="tspan16356"
         style="stroke-width:0.264583"
         x="37.918098"
         y="9.877739">1</tspan></text>
    <text
       xml:space="preserve"
       style="font-size:2.82223px;line-height:1.25;font-family:sans-serif;text-align:center;text-anchor:middle;stroke-width:0.264583"
       x="37.918098"
       y="30.66474"
       id="text16358-1"><tspan
         sodipodi:role="line"
         id="tspan16356-5"
         style="stroke-width:0.264583"
         x="37.918098"
         y="30.66474">0</tspan></text>
    <text
       xml:space="preserve"
       style="font-size:2.82223px;line-height:1.25;font-family:sans-serif;text-align:center;text-anchor:middle;stroke-width:0.264583"
       x="50.981899"
       y="6.614583"
       id="text26531"><tspan
         sodipodi:role="line"
         id="tspan26529"
         style="stroke-width:0.264583"
         x="50.981899"
         y="6.614583">$q$</tspan></text>
    <text
       xml:space="preserve"
       style="font-size:2.82223px;line-height:1.25;font-family:sans-serif;text-align:start;text-anchor:start;stroke-width:0.264583"
       x="47.113731"
       y="13.478593"
       id="text26531-2"><tspan
         sodipodi:role="line"
         id="tspan26529-9"
         style="text-align:start;text-anchor:start;stroke-width:0.264583"
         x="47.113731"
         y="13.478593">$1 - q$</tspan></text>
    <text
       xml:space="preserve"
       style="font-size:2.82223px;line-height:1.25;font-family:sans-serif;text-align:start;text-anchor:start;stroke-width:0.264583"
       x="47.113731"
       y="26.674686"
       id="text26531-2-1"><tspan
         sodipodi:role="line"
         id="tspan26529-9-6"
         style="text-align:start;text-anchor:start;stroke-width:0.264583"
         x="47.113731"
         y="26.674686">$1 - q$</tspan></text>
    <text
       xml:space="preserve"
       style="font-size:2.82223px;line-height:1.25;font-family:sans-serif;text-align:center;text-anchor:middle;stroke-width:0.264583"
       x="50.981899"
       y="34.116093"
       id="text26531-6"><tspan
         sodipodi:role="line"
         id="tspan26529-1"
         style="stroke-width:0.264583"
         x="50.981899"
         y="34.116093">$q$</tspan></text>
    <text
       xml:space="preserve"
       style="font-size:2.82223px;line-height:1.25;font-family:sans-serif;text-align:center;text-anchor:middle;stroke-width:0.264583"
       x="41.473438"
       y="19.645311"
       id="text33121"><tspan
         sodipodi:role="line"
         id="tspan33119"
         style="stroke-width:0.264583"
         x="41.473438"
         y="19.645311">$S_1$</tspan></text>
    <text
       xml:space="preserve"
       style="font-size:2.82223px;line-height:1.25;font-family:sans-serif;text-align:center;text-anchor:middle;stroke-width:0.264583"
       x="62.824459"
       y="19.962982"
       id="text33121-0"><tspan
         sodipodi:role="line"
         id="tspan33119-5"
         style="stroke-width:0.264583"
         x="62.824459"
         y="19.962982">$S_2$</tspan></text>
    <text
       xml:space="preserve"
       style="font-size:2.82223px;line-height:1.25;font-family:sans-serif;text-align:center;text-anchor:middle;stroke-width:0.264583"
       x="83.788521"
       y="19.908188"
       id="text33121-6"><tspan
         sodipodi:role="line"
         id="tspan33119-0"
         style="stroke-width:0.264583"
         x="83.788521"
         y="19.908188">$S_3$</tspan></text>
    <text
       xml:space="preserve"
       style="font-size:2.82223px;line-height:1.25;font-family:sans-serif;text-align:center;text-anchor:middle;stroke-width:0.264583"
       x="105.25433"
       y="20.026831"
       id="text33121-3"><tspan
         sodipodi:role="line"
         id="tspan33119-1"
         style="stroke-width:0.264583"
         x="105.25433"
         y="20.026831">$S_4$</tspan></text>
    <g
       id="path865">
      <path
         style="color:#000000;fill:#666666;stroke-width:0.264583px;stroke-linecap:round;-inkscape-stroke:none"
         d="M 105.47954,29.723195 126.44597,9.2009564"
         id="path1795" />
      <path
         style="color:#000000;fill:#999999;stroke-linecap:round;-inkscape-stroke:none"
         d="m 126.44727,9.0683594 a 0.1322915,0.1322915 0 0 0 -0.0937,0.037109 l -20.9668,20.5234372 a 0.1322915,0.1322915 0 0 0 -0.002,0.1875 0.1322915,0.1322915 0 0 0 0.1875,0.002 L 126.53906,9.2949219 a 0.1322915,0.1322915 0 0 0 0.002,-0.1855469 0.1322915,0.1322915 0 0 0 -0.0937,-0.041016 z"
         id="path1797" />
      <g
         id="g1785">
        <g
           id="path1787">
          <path
             style="color:#000000;fill:#999999;fill-rule:evenodd;stroke-width:0.211666pt;-inkscape-stroke:none"
             d="m 124.55516,11.051704 -0.016,1.496622 1.90683,-3.3473696 -3.38743,1.8347246 z"
             id="path1791" />
          <path
             style="color:#000000;fill:#999999;fill-rule:evenodd;-inkscape-stroke:none"
             d="m 126.8125,8.8417969 -4.30078,2.3300781 1.90039,0.01953 -0.0195,1.900391 z m -0.73242,0.7167969 -1.39453,2.4472652 0.0117,-1.09375 -0.14063,-0.002 -0.95117,-0.0098 z"
             id="path1793" />
        </g>
      </g>
    </g>
    <g
       id="path867">
      <path
         style="color:#000000;fill:#666666;stroke-width:0.264583px;stroke-linecap:round;-inkscape-stroke:none"
         d="m 105.38662,8.8649696 h 20.95579"
         id="path1779" />
      <path
         style="color:#000000;fill:#999999;stroke-linecap:round;-inkscape-stroke:none"
         d="m 105.38672,8.7324219 a 0.1322915,0.1322915 0 0 0 -0.13281,0.1328125 0.1322915,0.1322915 0 0 0 0.13281,0.1328125 h 20.95508 a 0.1322915,0.1322915 0 0 0 0.13281,-0.1328125 0.1322915,0.1322915 0 0 0 -0.13281,-0.1328125 z"
         id="path1781" />
      <g
         id="g1769">
        <g
           id="path1771">
          <path
             style="color:#000000;fill:#999999;fill-rule:evenodd;stroke-width:0.211666pt;-inkscape-stroke:none"
             d="m 123.69658,8.8649696 -1.05833,1.058332 3.70416,-1.058332 -3.70416,-1.058332 z"
             id="path1775" />
          <path
             style="color:#000000;fill:#999999;fill-rule:evenodd;-inkscape-stroke:none"
             d="m 122.1543,7.5214844 1.34375,1.34375 -1.34375,1.3437496 4.70117,-1.3437496 z m 0.96679,0.5683594 2.70704,0.7734375 -2.70313,0.7734375 0.77148,-0.7714844 -0.0996,-0.099609 z"
             id="path1777" />
        </g>
      </g>
    </g>
    <g
       id="path869">
      <path
         style="color:#000000;fill:#666666;stroke-width:0.264583px;stroke-linecap:round;-inkscape-stroke:none"
         d="m 105.47954,8.936199 20.96643,20.522239"
         id="path1763" />
      <path
         style="color:#000000;fill:#999999;stroke-linecap:round;-inkscape-stroke:none"
         d="m 105.47852,8.8046875 a 0.1322915,0.1322915 0 0 0 -0.0937,0.039063 0.1322915,0.1322915 0 0 0 0.002,0.1875 l 20.9668,20.521484 a 0.1322915,0.1322915 0 0 0 0.1875,-0.002 0.1322915,0.1322915 0 0 0 -0.002,-0.1875 L 105.57227,8.8417969 a 0.1322915,0.1322915 0 0 0 -0.0937,-0.037109 z"
         id="path1765" />
      <g
         id="g1753">
        <g
           id="path1755">
          <path
             style="color:#000000;fill:#999999;fill-rule:evenodd;stroke-width:0.211666pt;-inkscape-stroke:none"
             d="m 124.55516,27.60769 -1.49662,0.01602 3.38743,1.834725 -1.90683,-3.34737 z"
             id="path1759" />
          <path
             style="color:#000000;fill:#999999;fill-rule:evenodd;-inkscape-stroke:none"
             d="m 124.39258,25.568359 0.0195,1.900391 -1.90039,0.01953 4.30078,2.330078 z m 0.29297,1.085938 1.39453,2.445312 -2.47461,-1.339843 1.0918,-0.01172 -0.002,-0.142578 z"
             id="path1761" />
        </g>
      </g>
    </g>
    <g
       id="path871">
      <path
         style="color:#000000;fill:#666666;stroke-width:0.264583px;stroke-linecap:round;-inkscape-stroke:none"
         d="m 105.38662,29.794424 h 20.95579"
         id="path1747" />
      <path
         style="color:#000000;fill:#999999;stroke-linecap:round;-inkscape-stroke:none"
         d="m 105.38672,29.662109 a 0.1322915,0.1322915 0 0 0 -0.13281,0.132813 0.1322915,0.1322915 0 0 0 0.13281,0.130859 h 20.95508 a 0.1322915,0.1322915 0 0 0 0.13281,-0.130859 0.1322915,0.1322915 0 0 0 -0.13281,-0.132813 z"
         id="path1749" />
      <g
         id="g1737">
        <g
           id="path1739">
          <path
             style="color:#000000;fill:#999999;fill-rule:evenodd;stroke-width:0.211666pt;-inkscape-stroke:none"
             d="m 123.69658,29.794424 -1.05833,1.058332 3.70416,-1.058332 -3.70416,-1.058332 z"
             id="path1743" />
          <path
             style="color:#000000;fill:#999999;fill-rule:evenodd;-inkscape-stroke:none"
             d="m 122.1543,28.451172 1.34375,1.34375 -1.34375,1.34375 4.70117,-1.34375 z m 0.96679,0.568359 2.70704,0.773438 -2.70313,0.773437 0.77148,-0.771484 -0.0996,-0.09961 z"
             id="path1745" />
        </g>
      </g>
    </g>
    <g
       id="path873">
      <path
         style="color:#000000;fill:#cccccc;stroke-linecap:round;-inkscape-stroke:none"
         d="m 147.31836,9.0136719 -20.9668,20.5214841 a 0.1322915,0.1322915 0 0 0 -0.002,0.1875 0.1322915,0.1322915 0 0 0 0.1875,0.002 L 147.50195,9.203125 a 0.1322915,0.1322915 0 0 0 0.002,-0.1875 0.1322915,0.1322915 0 0 0 -0.18555,-0.00195 z"
         id="path1733" />
      <g
         id="g1723">
        <g
           id="path1725">
          <path
             style="color:#000000;fill:#cccccc;fill-rule:evenodd;stroke-width:0.211666pt;-inkscape-stroke:none"
             d="m 145.51923,10.959157 -0.016,1.496622 1.90683,-3.3473692 -3.38743,1.8347242 z"
             id="path1729" />
          <path
             style="color:#000000;fill:#cccccc;fill-rule:evenodd;-inkscape-stroke:none"
             d="m 147.77734,8.75 -4.30078,2.328125 1.90039,0.01953 -0.0215,1.900391 z m -0.73437,0.7167969 -1.39258,2.4472661 0.0117,-1.09375 -0.14063,-0.002 -0.95507,-0.0098 z"
             id="path1731" />
        </g>
      </g>
    </g>
    <g
       id="path875">
      <path
         style="color:#000000;fill:#cccccc;stroke-linecap:round;-inkscape-stroke:none"
         d="m 126.35156,8.640625 a 0.1322915,0.1322915 0 0 0 -0.13281,0.1308594 0.1322915,0.1322915 0 0 0 0.13281,0.1328125 h 20.95508 a 0.1322915,0.1322915 0 0 0 0.13281,-0.1328125 0.1322915,0.1322915 0 0 0 -0.13281,-0.1308594 z"
         id="path1719" />
      <g
         id="g1709">
        <g
           id="path1711">
          <path
             style="color:#000000;fill:#cccccc;fill-rule:evenodd;stroke-width:0.211666pt;-inkscape-stroke:none"
             d="m 144.66064,8.772423 -1.05833,1.058332 3.70416,-1.058332 -3.70416,-1.058332 z"
             id="path1715" />
          <path
             style="color:#000000;fill:#cccccc;fill-rule:evenodd;-inkscape-stroke:none"
             d="m 143.11719,7.4296875 1.34375,1.34375 -1.34375,1.3417965 4.70312,-1.3437496 z m 0.96875,0.5683594 2.70703,0.7753906 -2.70899,0.7734375 0.77539,-0.7753906 -0.0996,-0.099609 z"
             id="path1717" />
        </g>
      </g>
    </g>
    <g
       id="path877">
      <path
         style="color:#000000;fill:#cccccc;stroke-linecap:round;-inkscape-stroke:none"
         d="m 126.53711,8.75 a 0.1322915,0.1322915 0 0 0 -0.1875,0.00195 0.1322915,0.1322915 0 0 0 0.002,0.1855469 l 20.9668,20.523437 a 0.1322915,0.1322915 0 0 0 0.18555,-0.002 0.1322915,0.1322915 0 0 0 -0.002,-0.1875 z"
         id="path1705" />
      <g
         id="g1695">
        <g
           id="path1697">
          <path
             style="color:#000000;fill:#cccccc;fill-rule:evenodd;stroke-width:0.211666pt;-inkscape-stroke:none"
             d="m 145.51923,27.515144 -1.49662,0.01602 3.38743,1.834724 -1.90683,-3.347369 z"
             id="path1701" />
          <path
             style="color:#000000;fill:#cccccc;fill-rule:evenodd;-inkscape-stroke:none"
             d="m 145.35547,25.474609 0.0215,1.902344 -1.90039,0.01953 4.30078,2.328125 z m 0.29492,1.085938 1.39258,2.447265 -2.47461,-1.341796 1.09375,-0.01172 -0.002,-0.140625 z"
             id="path1703" />
        </g>
      </g>
    </g>
    <g
       id="path879">
      <path
         style="color:#000000;fill:#cccccc;stroke-linecap:round;-inkscape-stroke:none"
         d="m 126.35156,29.570312 a 0.1322915,0.1322915 0 0 0 -0.13281,0.13086 0.1322915,0.1322915 0 0 0 0.13281,0.132812 h 20.95508 a 0.1322915,0.1322915 0 0 0 0.13281,-0.132812 0.1322915,0.1322915 0 0 0 -0.13281,-0.13086 z"
         id="path1691" />
      <g
         id="g1681">
        <g
           id="path1683">
          <path
             style="color:#000000;fill:#cccccc;fill-rule:evenodd;stroke-width:0.211666pt;-inkscape-stroke:none"
             d="m 144.66064,29.701877 -1.05833,1.058332 3.70416,-1.058332 -3.70416,-1.058332 z"
             id="path1687" />
          <path
             style="color:#000000;fill:#cccccc;fill-rule:evenodd;-inkscape-stroke:none"
             d="m 143.11719,28.357422 1.34375,1.34375 -1.34375,1.34375 4.70312,-1.34375 z m 0.96875,0.570312 2.70703,0.775391 -2.70899,0.773437 0.77539,-0.77539 -0.0996,-0.09961 z"
             id="path1689" />
        </g>
      </g>
    </g>
    <g
       id="path881">
      <path
         style="color:#000000;fill:#e6e6e6;stroke-linecap:round;-inkscape-stroke:none"
         d="M 168.7832,9.1328125 147.81641,29.654297 a 0.1322915,0.1322915 0 0 0 -0.002,0.1875 0.1322915,0.1322915 0 0 0 0.1875,0.002 l 20.9668,-20.5214844 a 0.1322915,0.1322915 0 0 0 0.002,-0.1875 0.1322915,0.1322915 0 0 0 -0.1875,-0.00195 z"
         id="path1677" />
      <g
         id="g1667">
        <g
           id="path1669">
          <path
             style="color:#000000;fill:#e6e6e6;fill-rule:evenodd;stroke-width:0.211666pt;-inkscape-stroke:none"
             d="m 166.98503,11.0778 -0.016,1.496622 1.90683,-3.3473695 -3.38743,1.8347235 z"
             id="path1673" />
          <path
             style="color:#000000;fill:#e6e6e6;fill-rule:evenodd;-inkscape-stroke:none"
             d="m 169.24219,8.8671875 -4.29883,2.3300785 1.89844,0.01953 -0.0195,1.900391 z m -0.73438,0.7207031 -1.39258,2.4433594 0.0117,-1.09375 h -0.14062 l -0.95313,-0.01172 z"
             id="path1675" />
        </g>
      </g>
    </g>
    <g
       id="path883">
      <path
         style="color:#000000;fill:#e6e6e6;stroke-linecap:round;-inkscape-stroke:none"
         d="m 147.81641,8.7578125 a 0.1322915,0.1322915 0 0 0 -0.13282,0.1328125 0.1322915,0.1322915 0 0 0 0.13282,0.1328125 h 20.95507 A 0.1322915,0.1322915 0 0 0 168.9043,8.890625 0.1322915,0.1322915 0 0 0 168.77148,8.7578125 Z"
         id="path1663" />
      <g
         id="g1653">
        <g
           id="path1655">
          <path
             style="color:#000000;fill:#e6e6e6;fill-rule:evenodd;stroke-width:0.211666pt;-inkscape-stroke:none"
             d="m 166.12645,8.8910657 -1.05833,1.058332 3.70416,-1.058332 -3.70416,-1.058332 z"
             id="path1659" />
          <path
             style="color:#000000;fill:#e6e6e6;fill-rule:evenodd;-inkscape-stroke:none"
             d="m 164.58398,7.546875 1.34375,1.34375 -1.34375,1.34375 4.70118,-1.34375 z m 0.97071,0.5722656 2.70508,0.7714844 -2.70899,0.7753906 0.77539,-0.7753906 -0.0996,-0.099609 z"
             id="path1661" />
        </g>
      </g>
    </g>
    <g
       id="path885">
      <path
         style="color:#000000;fill:#e6e6e6;stroke-linecap:round;-inkscape-stroke:none"
         d="m 148.00195,8.8671875 a 0.1322915,0.1322915 0 0 0 -0.1875,0.00195 0.1322915,0.1322915 0 0 0 0.002,0.1875 L 168.7832,29.578125 a 0.1322915,0.1322915 0 0 0 0.1875,-0.002 0.1322915,0.1322915 0 0 0 -0.002,-0.185547 z"
         id="path1649" />
      <g
         id="g1639">
        <g
           id="path1641">
          <path
             style="color:#000000;fill:#e6e6e6;fill-rule:evenodd;stroke-width:0.211666pt;-inkscape-stroke:none"
             d="m 166.98503,27.633787 -1.49662,0.01602 3.38743,1.834724 -1.90683,-3.347369 z"
             id="path1645" />
          <path
             style="color:#000000;fill:#e6e6e6;fill-rule:evenodd;-inkscape-stroke:none"
             d="m 166.82227,25.59375 0.0195,1.900391 -1.90039,0.01953 4.30078,2.330078 z m 0.29296,1.087891 1.39454,2.445312 -2.47461,-1.341797 1.09179,-0.01172 v -0.140625 z"
             id="path1647" />
        </g>
      </g>
    </g>
    <g
       id="path887">
      <path
         style="color:#000000;fill:#e6e6e6;stroke-linecap:round;-inkscape-stroke:none"
         d="m 147.81641,29.6875 a 0.1322915,0.1322915 0 0 0 -0.13282,0.132812 0.1322915,0.1322915 0 0 0 0.13282,0.132813 h 20.95507 a 0.1322915,0.1322915 0 0 0 0.13282,-0.132813 0.1322915,0.1322915 0 0 0 -0.13282,-0.132812 z"
         id="path1635" />
      <g
         id="g1625">
        <g
           id="path1627">
          <path
             style="color:#000000;fill:#e6e6e6;fill-rule:evenodd;stroke-width:0.211666pt;-inkscape-stroke:none"
             d="m 166.12645,29.82052 -1.05833,1.058332 3.70416,-1.058332 -3.70416,-1.058332 z"
             id="path1631" />
          <path
             style="color:#000000;fill:#e6e6e6;fill-rule:evenodd;-inkscape-stroke:none"
             d="m 164.58398,28.476562 1.34375,1.34375 -1.34375,1.34375 4.70118,-1.34375 z m 0.97071,0.572266 2.70508,0.771484 -2.70899,0.775391 0.77539,-0.775391 -0.0996,-0.09961 z"
             id="path1633" />
        </g>
      </g>
    </g>
  </g>
  <inkscape:templateinfo>
    <inkscape:name>Default Template</inkscape:name>
    <inkscape:author>Joachim Favre</inkscape:author>
    <inkscape:shortdesc>Arrow definitions, snapping (including perpendicular and tangential)</inkscape:shortdesc>
    <inkscape:date>2022-02-19</inkscape:date>
  </inkscape:templateinfo>
</svg>
