<?xml version="1.0" encoding="UTF-8" standalone="no"?>
<!-- Created with Inkscape (http://www.inkscape.org/) -->

<svg
   width="91.268051mm"
   height="30.512381mm"
   viewBox="0 0 91.268048 30.512381"
   version="1.1"
   id="svg5"
   inkscape:version="1.2.2 (732a01da63, 2022-12-09)"
   sodipodi:docname="CutfunctionIsSubmodular.svg"
   xmlns:inkscape="http://www.inkscape.org/namespaces/inkscape"
   xmlns:sodipodi="http://sodipodi.sourceforge.net/DTD/sodipodi-0.dtd"
   xmlns="http://www.w3.org/2000/svg"
   xmlns:svg="http://www.w3.org/2000/svg">
  <sodipodi:namedview
     id="namedview7"
     pagecolor="#ffffff"
     bordercolor="#111111"
     borderopacity="1"
     inkscape:pageshadow="0"
     inkscape:pageopacity="0"
     inkscape:pagecheckerboard="1"
     inkscape:document-units="mm"
     showgrid="false"
     inkscape:snap-perpendicular="true"
     inkscape:snap-tangential="true"
     inkscape:snap-bbox="true"
     inkscape:bbox-paths="true"
     inkscape:bbox-nodes="true"
     inkscape:snap-bbox-edge-midpoints="true"
     inkscape:snap-bbox-midpoints="true"
     inkscape:object-paths="true"
     inkscape:snap-intersection-paths="true"
     inkscape:snap-object-midpoints="true"
     inkscape:snap-center="true"
     inkscape:showpageshadow="0"
     inkscape:deskcolor="#d1d1d1"
     inkscape:zoom="3.659624"
     inkscape:cx="10.656833"
     inkscape:cy="-27.051959"
     inkscape:window-width="3440"
     inkscape:window-height="1369"
     inkscape:window-x="-8"
     inkscape:window-y="330"
     inkscape:window-maximized="1"
     inkscape:current-layer="layer1" />
  <defs
     id="defs2">
    <inkscape:path-effect
       effect="spiro"
       id="path-effect841"
       is_visible="true"
       lpeversion="1" />
    <inkscape:path-effect
       effect="spiro"
       id="path-effect245"
       is_visible="true"
       lpeversion="1" />
    <inkscape:path-effect
       effect="spiro"
       id="path-effect229"
       is_visible="true"
       lpeversion="1" />
    <marker
       style="overflow:visible"
       id="Arrow2Lend"
       refX="0"
       refY="0"
       orient="auto"
       inkscape:stockid="Arrow2Lend"
       inkscape:isstock="true">
      <path
         transform="matrix(-1.1,0,0,-1.1,-1.1,0)"
         d="M 8.7185878,4.0337352 -2.2072895,0.01601326 8.7185884,-4.0017078 c -1.7454984,2.3720609 -1.7354408,5.6174519 -6e-7,8.035443 z"
         style="fill:context-stroke;fill-rule:evenodd;stroke:context-stroke;stroke-width:0.625;stroke-linejoin:round"
         id="path880" />
    </marker>
    <marker
       style="overflow:visible"
       id="Arrow2Lstart"
       refX="0"
       refY="0"
       orient="auto"
       inkscape:stockid="Arrow2Lstart"
       inkscape:isstock="true">
      <path
         transform="matrix(1.1,0,0,1.1,1.1,0)"
         d="M 8.7185878,4.0337352 -2.2072895,0.01601326 8.7185884,-4.0017078 c -1.7454984,2.3720609 -1.7354408,5.6174519 -6e-7,8.035443 z"
         style="fill:context-stroke;fill-rule:evenodd;stroke:context-stroke;stroke-width:0.625;stroke-linejoin:round"
         id="path877" />
    </marker>
  </defs>
  <g
     inkscape:label="Layer 1"
     inkscape:groupmode="layer"
     id="layer1"
     transform="translate(-54.350681,-22.173829)">
    <path
       style="fill:#b3b3b3;stroke:none;stroke-width:0.264999;stroke-linecap:round;stroke-linejoin:round;stroke-miterlimit:4.1"
       d="m 67.381693,24.436709 c 0.954826,-0.599847 1.962044,-1.127363 3.03501,-1.47414 1.072967,-0.346776 2.216066,-0.509062 3.335534,-0.373778 1.119468,0.135285 2.214232,0.579339 3.048708,1.337732 0.834477,0.758393 1.390292,1.841251 1.425442,2.968316 0.02788,0.894072 -0.263023,1.773016 -0.675048,2.566979 -0.412026,0.793964 -0.943957,1.518131 -1.441304,2.261629 -0.497347,0.743497 -0.966357,1.519086 -1.231943,2.373256 -0.265586,0.85417 -0.313894,1.80185 0.02259,2.630658 0.286392,0.70543 0.824616,1.273967 1.355907,1.819295 0.53129,0.545327 1.078713,1.101433 1.391415,1.795601 0.298967,0.663677 0.361414,1.426415 0.201908,2.13663 -0.159507,0.710215 -0.536265,1.366119 -1.049407,1.882387 -0.513143,0.516268 -1.159478,0.894173 -1.852749,1.116036 -0.69327,0.221864 -1.432361,0.289702 -2.157562,0.226994 -1.450401,-0.125414 -2.820049,-0.765672 -3.996365,-1.623385 -1.176316,-0.857713 -2.178705,-1.928829 -3.147285,-3.01568 -0.980775,-1.100535 -1.940323,-2.231793 -2.690546,-3.500754 -0.750223,-1.268962 -1.287497,-2.690381 -1.35814,-4.16283 -0.08939,-1.863155 0.581502,-3.714484 1.659772,-5.236546 1.078269,-1.522062 2.54459,-2.736132 4.124065,-3.7284 z"
       id="path227"
       inkscape:path-effect="#path-effect229"
       inkscape:original-d="m 67.381693,24.436709 c 1.92768,-2.98858 7.23006,1.639017 10.844694,2.45813 3.614631,0.819113 -2.216872,6.555279 -3.325707,9.832522 -1.108832,3.277243 1.831814,2.410196 2.747322,3.614896 0.915512,1.204704 -8.000709,0.482254 -12.00146,0.722982 -4.000751,0.240729 -2.698858,-5.108792 -4.048686,-7.663584 -1.349824,-2.554793 3.856157,-5.976366 5.783837,-8.964946 z" />
    <path
       style="fill:#b3b3b3;stroke:none;stroke-width:0.264999;stroke-linecap:round;stroke-linejoin:round;stroke-miterlimit:4.1"
       d="m 119.047,22.909335 c -1.00533,-0.36976 -2.11022,-0.443514 -3.16634,-0.264532 -1.05612,0.178981 -2.06363,0.605776 -2.95875,1.194151 -1.79023,1.17675 -3.10229,2.964447 -4.09561,4.8626 -0.59912,1.144876 -1.09872,2.349909 -1.37366,3.612484 -0.27494,1.262575 -0.31996,2.587054 -0.02,3.843915 0.29998,1.256862 0.95783,2.442811 1.94045,3.281944 0.98262,0.839133 2.29839,1.308453 3.58358,1.174418 0.80668,-0.08413 1.57613,-0.395768 2.27793,-0.802324 0.70181,-0.406556 1.34337,-0.907694 1.98552,-1.403141 0.64214,-0.495447 1.2905,-0.988957 2.0022,-1.377935 0.7117,-0.388978 1.49432,-0.672263 2.30419,-0.716181 0.83177,-0.04511 1.65939,0.163193 2.43683,0.462298 0.77745,0.299104 1.51639,0.688798 2.27747,1.027389 0.76107,0.33859 1.55537,0.628718 2.38422,0.711697 0.82885,0.08298 1.7014,-0.0564 2.39396,-0.519266 0.50808,-0.339568 0.90015,-0.842348 1.13313,-1.4073 0.23298,-0.564952 0.30964,-1.189628 0.24987,-1.797803 -0.11956,-1.21635 -0.7735,-2.332981 -1.62611,-3.208683 -1.70523,-1.751404 -4.12608,-2.603934 -6.04624,-4.11662 -0.96023,-0.756468 -1.78376,-1.669175 -2.67109,-2.509969 -0.88733,-0.840795 -1.8643,-1.625176 -3.01157,-2.047142 z"
       id="path243"
       inkscape:path-effect="#path-effect245"
       inkscape:original-d="m 119.047,22.909335 c -3.159,-2.400617 -5.7883,3.717987 -10.2207,5.792219 -4.4324,2.074232 3.01881,8.038588 4.13039,11.912761 1.11158,3.874172 3.47212,-2.96243 8.56984,-4.299581 5.09772,-1.33715 10.49764,-0.3483 9.49248,1.682118 -1.00514,2.030412 -8.09745,-7.012699 -6.28935,-10.530406 1.8081,-3.517706 -2.45521,-2.104472 -5.68266,-4.557111 z"
       sodipodi:nodetypes="sssscss" />
    <text
       xml:space="preserve"
       style="font-size:2.82223px;text-align:end;text-anchor:end;fill:#000000;stroke:none;stroke-width:0.264999;stroke-linecap:round;stroke-linejoin:round;stroke-miterlimit:4.1"
       x="59.499046"
       y="31.232716"
       id="text567"><tspan
         sodipodi:role="line"
         id="tspan565"
         style="text-align:end;text-anchor:end;fill:#000000;stroke:none;stroke-width:0.265"
         x="59.499046"
         y="31.232716">$S$</tspan></text>
    <text
       xml:space="preserve"
       style="font-size:2.82223px;text-align:start;text-anchor:start;fill:#000000;stroke:none;stroke-width:0.264999;stroke-linecap:round;stroke-linejoin:round;stroke-miterlimit:4.1"
       x="131.22079"
       y="28.846884"
       id="text675"><tspan
         sodipodi:role="line"
         id="tspan673"
         style="text-align:start;text-anchor:start;stroke-width:0.265"
         x="131.22079"
         y="28.846884">$V \setminus (S + v)$</tspan></text>
    <text
       xml:space="preserve"
       style="font-size:2.82223px;text-align:center;text-anchor:middle;fill:#000000;stroke:none;stroke-width:0.264999;stroke-linecap:round;stroke-linejoin:round;stroke-miterlimit:4.1"
       x="96.373169"
       y="52.27142"
       id="text783"><tspan
         sodipodi:role="line"
         id="tspan781"
         style="stroke-width:0.265"
         x="96.373169"
         y="52.27142">$v$</tspan></text>
    <path
       style="fill:#000000;stroke:#d35f5f;stroke-width:0.264999;stroke-linecap:round;stroke-linejoin:round;stroke-miterlimit:4.1"
       d="M 96.373168,47.065967 66.224927,31.44961"
       id="path909" />
    <path
       style="fill:#000000;stroke:#d35f5f;stroke-width:0.264999;stroke-linecap:round;stroke-linejoin:round;stroke-miterlimit:4.1"
       d="M 96.373168,47.065967 72.153358,41.860514"
       id="path911" />
    <path
       style="fill:#000000;stroke:#2c89a0;stroke-width:0.264999;stroke-linecap:round;stroke-linejoin:round;stroke-miterlimit:4.1"
       d="M 96.373166,47.065967 114.66455,27.834711"
       id="path913" />
    <path
       style="fill:#000000;stroke:#2c89a0;stroke-width:0.264999;stroke-linecap:round;stroke-linejoin:round;stroke-miterlimit:4.1"
       d="M 96.37317,47.065968 130.00383,35.775391"
       id="path1023" />
    <path
       style="fill:#000000;stroke:#2c89a0;stroke-width:0.264999;stroke-linecap:round;stroke-linejoin:round;stroke-miterlimit:4.1"
       d="M 96.373166,47.065967 125.29235,30.871226"
       id="path1025" />
    <circle
       style="fill:#000000;stroke:none;stroke-width:0.264999;stroke-linecap:round;stroke-linejoin:round;stroke-miterlimit:4.1"
       id="path779"
       cx="96.373169"
       cy="47.065968"
       r="0.50608569" />
    <circle
       style="fill:#000000;stroke:none;stroke-width:0.264999;stroke-linecap:round;stroke-linejoin:round;stroke-miterlimit:4.1"
       id="circle1027"
       cx="114.66455"
       cy="27.834711"
       r="0.50608569" />
    <circle
       style="fill:#000000;stroke:none;stroke-width:0.264999;stroke-linecap:round;stroke-linejoin:round;stroke-miterlimit:4.1"
       id="circle1029"
       cx="125.42485"
       cy="30.738726"
       r="0.50608569" />
    <circle
       style="fill:#000000;stroke:none;stroke-width:0.264999;stroke-linecap:round;stroke-linejoin:round;stroke-miterlimit:4.1"
       id="circle1031"
       cx="130.13632"
       cy="35.642891"
       r="0.50608569" />
    <circle
       style="fill:#000000;stroke:none;stroke-width:0.264999;stroke-linecap:round;stroke-linejoin:round;stroke-miterlimit:4.1"
       id="circle1033"
       cx="72.020859"
       cy="41.728016"
       r="0.50608569" />
    <circle
       style="fill:#000000;stroke:none;stroke-width:0.264999;stroke-linecap:round;stroke-linejoin:round;stroke-miterlimit:4.1"
       id="circle1035"
       cx="66.22493"
       cy="31.44961"
       r="0.50608569" />
    <text
       xml:space="preserve"
       style="font-size:2.82223px;text-align:start;text-anchor:start;fill:#2c89a0;fill-opacity:1;stroke:none;stroke-width:0.264999;stroke-linecap:round;stroke-linejoin:round;stroke-miterlimit:4.1"
       x="107.4194"
       y="47.272713"
       id="text1091"><tspan
         sodipodi:role="line"
         id="tspan1089"
         style="text-align:start;text-anchor:start;fill:#2c89a0;fill-opacity:1;stroke-width:0.265"
         x="107.4194"
         y="47.272713">$E(v, V \setminus (S + v))$</tspan></text>
    <text
       xml:space="preserve"
       style="font-size:2.82223px;text-align:start;text-anchor:start;fill:#d35f5f;fill-opacity:1;stroke:none;stroke-width:0.264999;stroke-linecap:round;stroke-linejoin:round;stroke-miterlimit:4.1"
       x="77.121475"
       y="35.372978"
       id="text1705"><tspan
         sodipodi:role="line"
         id="tspan1703"
         style="text-align:start;text-anchor:start;fill:#d35f5f;fill-opacity:1;stroke-width:0.265"
         x="77.121475"
         y="35.372978">$E(v, S)$</tspan></text>
  </g>
  <inkscape:templateinfo>
    <inkscape:name>Default Template</inkscape:name>
    <inkscape:author>Joachim Favre</inkscape:author>
    <inkscape:shortdesc>Arrow definitions, snapping (including perpendicular and tangential)</inkscape:shortdesc>
    <inkscape:date>2022-02-19</inkscape:date>
  </inkscape:templateinfo>
</svg>
