<?xml version="1.0" encoding="UTF-8" standalone="no"?>
<!-- Created with Inkscape (http://www.inkscape.org/) -->

<svg
   width="136.2505mm"
   height="57.165649mm"
   viewBox="0 0 136.2505 57.165649"
   version="1.1"
   id="svg5"
   inkscape:version="1.2.2 (732a01da63, 2022-12-09)"
   sodipodi:docname="RankIsSubmodular.svg"
   xmlns:inkscape="http://www.inkscape.org/namespaces/inkscape"
   xmlns:sodipodi="http://sodipodi.sourceforge.net/DTD/sodipodi-0.dtd"
   xmlns="http://www.w3.org/2000/svg"
   xmlns:svg="http://www.w3.org/2000/svg">
  <sodipodi:namedview
     id="namedview7"
     pagecolor="#ffffff"
     bordercolor="#111111"
     borderopacity="1"
     inkscape:pageshadow="0"
     inkscape:pageopacity="0"
     inkscape:pagecheckerboard="1"
     inkscape:document-units="mm"
     showgrid="false"
     inkscape:snap-perpendicular="true"
     inkscape:snap-tangential="true"
     inkscape:snap-bbox="true"
     inkscape:bbox-paths="true"
     inkscape:bbox-nodes="true"
     inkscape:snap-bbox-edge-midpoints="true"
     inkscape:snap-bbox-midpoints="true"
     inkscape:object-paths="true"
     inkscape:snap-intersection-paths="true"
     inkscape:snap-object-midpoints="true"
     inkscape:snap-center="true"
     inkscape:showpageshadow="0"
     inkscape:deskcolor="#d1d1d1"
     inkscape:zoom="1.829812"
     inkscape:cx="172.42208"
     inkscape:cy="106.29507"
     inkscape:window-width="2291"
     inkscape:window-height="1360"
     inkscape:window-x="0"
     inkscape:window-y="338"
     inkscape:window-maximized="0"
     inkscape:current-layer="svg5"
     showguides="true">
    <sodipodi:guide
       position="24.516257,31.58356"
       orientation="1,0"
       id="guide4828"
       inkscape:locked="false" />
    <sodipodi:guide
       position="111.47702,27.94307"
       orientation="1,0"
       id="guide4830"
       inkscape:locked="false" />
    <sodipodi:guide
       position="67.890762,27.097771"
       orientation="0,-1"
       id="guide294"
       inkscape:locked="false" />
  </sodipodi:namedview>
  <defs
     id="defs2">
    <inkscape:path-effect
       effect="spiro"
       id="path-effect1928"
       is_visible="true"
       lpeversion="1" />
    <inkscape:path-effect
       effect="spiro"
       id="path-effect1208"
       is_visible="true"
       lpeversion="1" />
    <marker
       style="overflow:visible"
       id="Arrow2Lend"
       refX="0"
       refY="0"
       orient="auto"
       inkscape:stockid="Arrow2Lend"
       inkscape:isstock="true">
      <path
         transform="matrix(-1.1,0,0,-1.1,-1.1,0)"
         d="M 8.7185878,4.0337352 -2.2072895,0.01601326 8.7185884,-4.0017078 c -1.7454984,2.3720609 -1.7354408,5.6174519 -6e-7,8.035443 z"
         style="fill:context-stroke;fill-rule:evenodd;stroke:context-stroke;stroke-width:0.625;stroke-linejoin:round"
         id="path880" />
    </marker>
    <marker
       style="overflow:visible"
       id="Arrow2Lstart"
       refX="0"
       refY="0"
       orient="auto"
       inkscape:stockid="Arrow2Lstart"
       inkscape:isstock="true">
      <path
         transform="matrix(1.1,0,0,1.1,1.1,0)"
         d="M 8.7185878,4.0337352 -2.2072895,0.01601326 8.7185884,-4.0017078 c -1.7454984,2.3720609 -1.7354408,5.6174519 -6e-7,8.035443 z"
         style="fill:context-stroke;fill-rule:evenodd;stroke:context-stroke;stroke-width:0.625;stroke-linejoin:round"
         id="path877" />
    </marker>
    <clipPath
       id="clipPath5441">
      <path
         clip-rule="nonzero"
         d="M 0,0 H 4.980469 V 9.964844 H 0 Z m 0,0"
         id="path3778" />
    </clipPath>
    <clipPath
       id="clipPath2296">
      <path
         clip-rule="nonzero"
         d="M 1,0 H 11 V 24.785156 H 1 Z m 0,0"
         id="path951" />
    </clipPath>
    <clipPath
       id="clipPath3292">
      <path
         clip-rule="nonzero"
         d="M 1,0 H 11 V 24.785156 H 1 Z m 0,0"
         id="path855" />
    </clipPath>
  </defs>
  <ellipse
     style="fill:#e6e6e6;fill-opacity:1;stroke:#666666;stroke-width:0.264999;stroke-linecap:round;stroke-linejoin:round;stroke-miterlimit:4.1;stroke-opacity:1"
     id="ellipse6226"
     cx="40.519173"
     cy="29.222582"
     rx="40.386673"
     ry="27.81057" />
  <ellipse
     style="fill:#e6e6e6;fill-opacity:1;stroke:#666666;stroke-width:0.264999;stroke-linecap:round;stroke-linejoin:round;stroke-miterlimit:4.1;stroke-opacity:1"
     id="ellipse6228"
     cx="95.731339"
     cy="29.222582"
     rx="40.386673"
     ry="27.81057" />
  <g
     inkscape:groupmode="layer"
     id="layer2"
     inkscape:label="Layer 2"
     transform="translate(-33.199295,-22.308771)" />
  <inkscape:templateinfo>
    <inkscape:name>Default Template</inkscape:name>
    <inkscape:author>Joachim Favre</inkscape:author>
    <inkscape:shortdesc>Arrow definitions, snapping (including perpendicular and tangential)</inkscape:shortdesc>
    <inkscape:date>2022-02-19</inkscape:date>
  </inkscape:templateinfo>
  <text
     xml:space="preserve"
     style="font-size:2.82223px;fill:#000000;fill-opacity:1;stroke:none;stroke-width:0.264999;stroke-linecap:round;stroke-linejoin:round;stroke-miterlimit:4.1"
     x="65.354362"
     y="2.1442335"
     id="text4934"><tspan
       sodipodi:role="line"
       id="tspan4932"
       style="fill:#000000;fill-opacity:1;stroke:none;stroke-width:0.265"
       x="65.354362"
       y="2.1442335">$D$</tspan></text>
  <text
     xml:space="preserve"
     style="font-size:2.82223px;fill:#000000;fill-opacity:1;stroke:none;stroke-width:0.264999;stroke-linecap:round;stroke-linejoin:round;stroke-miterlimit:4.1"
     x="2.0119364"
     y="28.815931"
     id="text981"><tspan
       sodipodi:role="line"
       id="tspan979"
       style="fill:#000000;fill-opacity:1;stroke:none;stroke-width:0.265"
       x="2.0119364"
       y="28.815931">$A$</tspan></text>
  <text
     xml:space="preserve"
     style="font-size:2.82223px;text-align:end;text-anchor:end;fill:#000000;fill-opacity:1;stroke:none;stroke-width:0.264999;stroke-linecap:round;stroke-linejoin:round;stroke-miterlimit:4.1"
     x="133.32353"
     y="28.815931"
     id="text1087"><tspan
       sodipodi:role="line"
       id="tspan1085"
       style="text-align:end;text-anchor:end;fill:#000000;fill-opacity:1;stroke-width:0.265"
       x="133.32353"
       y="28.815931">$B$</tspan></text>
  <ellipse
     style="fill:none;fill-opacity:0.8;stroke:#333333;stroke-width:0.264999;stroke-linecap:round;stroke-linejoin:round;stroke-miterlimit:4.1;stroke-opacity:1"
     id="path247"
     cx="40.519173"
     cy="29.222582"
     rx="40.386673"
     ry="27.81057" />
  <ellipse
     style="fill:none;fill-opacity:0.8;stroke:#333333;stroke-width:0.264999;stroke-linecap:round;stroke-linejoin:round;stroke-miterlimit:4.1;stroke-opacity:1"
     id="ellipse249"
     cx="95.731339"
     cy="29.222582"
     rx="40.386673"
     ry="27.81057" />
  <g
     inkscape:label=""
     transform="matrix(0,-1.6057166,9.9457422,0,24.556524,10.996533)"
     id="g4814"
     style="fill:#000000;stroke-width:0.250234">
    <g
       clip-path="url(#clipPath3292)"
       id="g4812"
       transform="matrix(0.352778,0,0,0.352778,-0.628385,-0.00418929)"
       style="fill:#000000;stroke-width:0.250234">
      <g
         fill="#000000"
         fill-opacity="1"
         id="g4810"
         style="fill:#000000;stroke-width:0.12261">
        <g
           id="g4808"
           transform="translate(0,18.59)"
           style="fill:#000000;stroke-width:0.250234">
          <path
             d="m 5.359375,2.90625 c 0,0.984375 -0.65625,2.578125 -3.359375,2.75 -0.109375,0.015625 -0.21875,0.125 -0.21875,0.265625 0,0.265625 0.28125,0.265625 0.5,0.265625 2.40625,0 4.703125,-1.203125 4.734375,-3.09375 v -5.640625 c 0,-0.96875 0,-1.765625 0.984375,-2.578125 0.875,-0.71875 1.8125,-0.765625 2.359375,-0.796875 0.125,-0.03125 0.21875,-0.125 0.21875,-0.265625 0,-0.25 -0.140625,-0.25 -0.390625,-0.28125 C 8.546875,-6.5625 7.359375,-7.453125 7.09375,-8.671875 7.015625,-8.953125 7.015625,-9 7.015625,-9.890625 v -4.90625 c 0,-1.03125 0,-1.828125 -1.1875,-2.765625 -1,-0.78125 -2.703125,-1.015625 -3.546875,-1.015625 -0.21875,0 -0.5,0 -0.5,0.265625 0,0.25 0.15625,0.25 0.40625,0.265625 1.546875,0.109375 2.765625,0.890625 3.09375,2.15625 0.078125,0.234375 0.078125,0.28125 0.078125,1.171875 v 5.203125 c 0,1.140625 0.1875,1.5625 0.984375,2.359375 0.515625,0.515625 1.234375,0.765625 1.9375,0.96875 C 6.25,-5.625 5.359375,-4.484375 5.359375,-3.046875 Z m 0,0"
             id="path4806"
             style="fill:#000000;stroke-width:0.250234" />
        </g>
      </g>
    </g>
  </g>
  <path
     style="fill:#2c89a0;fill-opacity:1;stroke:none;stroke-width:0.264999;stroke-linecap:round;stroke-linejoin:round;stroke-miterlimit:4.1"
     d="m 25.48919,19.509331 c 0.881435,-2.230594 2.341813,-4.228042 4.192617,-5.753494 1.850804,-1.525451 4.087494,-2.576675 6.440836,-3.039555 2.5817,-0.507795 5.267377,-0.311077 7.828184,0.29332 2.560807,0.604398 5.010564,1.60727 7.397341,2.714666 4.773555,2.21479 9.44313,4.896747 14.629942,5.785063 4.99853,0.85607 10.116991,-0.01973 15.092329,-1.001656 4.975338,-0.981925 10.016056,-2.077503 15.069876,-1.656708 3.548364,0.295446 7.087495,1.376198 9.949345,3.494694 2.86184,2.118497 4.98807,5.338737 5.38736,8.876921 0.2179,1.930886 -0.0761,3.909343 -0.78449,5.718757 -0.70839,1.809414 -1.82544,3.450106 -3.2027,4.820854 -2.75453,2.741498 -6.49461,4.35709 -10.327075,5.00159 -4.768868,0.801972 -9.659396,0.181425 -14.414499,-0.698499 C 77.993154,43.18536 73.261595,42.043905 68.431985,41.798685 63.07884,41.526883 57.740218,42.3625 52.395651,42.769493 47.051084,43.176486 41.526946,43.128614 36.531623,41.185217 32.33041,39.550763 28.618088,36.53276 26.468238,32.570466 24.318389,28.608171 23.832496,23.701824 25.48919,19.509331 Z"
     id="path1206"
     inkscape:path-effect="#path-effect1208"
     inkscape:original-d="m 25.48919,19.509331 c -3.681076,-7.225559 7.089233,-5.861767 10.633453,-8.793049 3.544221,-2.9312794 19.903908,5.862296 29.855467,8.793049 9.951555,2.930752 20.108395,-1.771978 30.162205,-2.658364 10.053795,-0.886386 10.224725,8.248007 15.336705,12.371615 5.11197,4.123608 -9.54258,10.361064 -14.314265,15.541201 -4.77168,5.180137 -19.15358,-1.976466 -28.73077,-2.965098 C 58.854794,40.810056 47.165341,41.389973 36.531623,41.185217 25.897905,40.980464 29.170267,26.73489 25.48919,19.509331 Z" />
  <path
     id="ellipse1162"
     style="fill:#164450;fill-opacity:0.607843;stroke:none;stroke-width:0.264999;stroke-linecap:round;stroke-linejoin:round;stroke-miterlimit:4.1"
     d="m 59.186557,17.405342 a 40.386673,27.81057 0 0 0 -3.842143,11.817367 40.386673,27.81057 0 0 0 4.592485,12.849861 c 2.829553,-0.249045 5.66043,-0.417813 8.495086,-0.273885 2.4802,0.125931 4.93393,0.489878 7.37888,0.931726 a 40.386673,27.81057 0 0 0 5.09478,-13.507702 40.386673,27.81057 0 0 0 -2.79621,-10.163204 c -4.03073,0.70375 -8.11933,1.137254 -12.131561,0.450101 -2.350846,-0.402616 -4.595137,-1.175232 -6.791317,-2.104264 z" />
  <text
     xml:space="preserve"
     style="font-size:2.82223px;text-align:center;text-anchor:middle;fill:#000000;fill-opacity:1;stroke:none;stroke-width:0.264999;stroke-linecap:round;stroke-linejoin:round;stroke-miterlimit:4.1"
     x="40.537247"
     y="28.815931"
     id="text5002"><tspan
       sodipodi:role="line"
       id="tspan5000"
       style="text-align:center;text-anchor:middle;stroke-width:0.265"
       x="40.537247"
       y="28.815931">$D \setminus B$</tspan></text>
  <text
     xml:space="preserve"
     style="font-size:2.82223px;text-align:center;text-anchor:middle;fill:#000000;fill-opacity:1;stroke:none;stroke-width:0.264999;stroke-linecap:round;stroke-linejoin:round;stroke-miterlimit:4.1"
     x="95.552414"
     y="28.815931"
     id="text5018"><tspan
       sodipodi:role="line"
       id="tspan5016"
       style="text-align:center;text-anchor:middle;stroke-width:0.265"
       x="95.552414"
       y="28.815931">$D \setminus A$</tspan></text>
  <text
     xml:space="preserve"
     style="font-size:2.82223px;text-align:center;text-anchor:middle;fill:#ffffff;fill-opacity:1;stroke:none;stroke-width:0.264999;stroke-linecap:round;stroke-linejoin:round;stroke-miterlimit:4.1"
     x="67.890762"
     y="28.815931"
     id="text5034"><tspan
       sodipodi:role="line"
       id="tspan5032"
       style="text-align:center;text-anchor:middle;fill:#ffffff;stroke-width:0.265"
       x="67.890762"
       y="28.815931">$C$</tspan></text>
</svg>
