<?xml version="1.0" encoding="UTF-8" standalone="no"?>
<!-- Created with Inkscape (http://www.inkscape.org/) -->

<svg
   width="210mm"
   height="297mm"
   viewBox="0 0 210 297"
   version="1.1"
   id="svg5"
   inkscape:version="1.1.2 (b8e25be833, 2022-02-05)"
   sodipodi:docname="TheoremGreenTriangulisation.svg"
   xmlns:inkscape="http://www.inkscape.org/namespaces/inkscape"
   xmlns:sodipodi="http://sodipodi.sourceforge.net/DTD/sodipodi-0.dtd"
   xmlns="http://www.w3.org/2000/svg"
   xmlns:svg="http://www.w3.org/2000/svg">
  <sodipodi:namedview
     id="namedview7"
     pagecolor="#ffffff"
     bordercolor="#111111"
     borderopacity="1"
     inkscape:pageshadow="0"
     inkscape:pageopacity="0"
     inkscape:pagecheckerboard="1"
     inkscape:document-units="mm"
     showgrid="false"
     inkscape:snap-perpendicular="true"
     inkscape:snap-tangential="true"
     inkscape:snap-bbox="true"
     inkscape:bbox-paths="true"
     inkscape:bbox-nodes="true"
     inkscape:snap-bbox-edge-midpoints="true"
     inkscape:snap-bbox-midpoints="true"
     inkscape:object-paths="true"
     inkscape:snap-intersection-paths="true"
     inkscape:snap-object-midpoints="true"
     inkscape:snap-center="true"
     inkscape:zoom="0.64052329"
     inkscape:cx="396.55076"
     inkscape:cy="561.25984"
     inkscape:window-width="1409"
     inkscape:window-height="978"
     inkscape:window-x="85"
     inkscape:window-y="-6"
     inkscape:window-maximized="1"
     inkscape:current-layer="layer1" />
  <defs
     id="defs2">
    <inkscape:path-effect
       effect="spiro"
       id="path-effect872"
       is_visible="true"
       lpeversion="1" />
    <marker
       style="overflow:visible;"
       id="Arrow2Lend"
       refX="0.0"
       refY="0.0"
       orient="auto"
       inkscape:stockid="Arrow2Lend"
       inkscape:isstock="true">
      <path
         transform="scale(1.1) rotate(180) translate(1,0)"
         d="M 8.7185878,4.0337352 L -2.2072895,0.016013256 L 8.7185884,-4.0017078 C 6.9730900,-1.6296469 6.9831476,1.6157441 8.7185878,4.0337352 z "
         style="stroke:context-stroke;fill-rule:evenodd;fill:context-stroke;stroke-width:0.62500000;stroke-linejoin:round;"
         id="path880" />
    </marker>
    <marker
       style="overflow:visible"
       id="Arrow2Lstart"
       refX="0.0"
       refY="0.0"
       orient="auto"
       inkscape:stockid="Arrow2Lstart"
       inkscape:isstock="true">
      <path
         transform="scale(1.1) translate(1,0)"
         d="M 8.7185878,4.0337352 L -2.2072895,0.016013256 L 8.7185884,-4.0017078 C 6.9730900,-1.6296469 6.9831476,1.6157441 8.7185878,4.0337352 z "
         style="stroke:context-stroke;fill-rule:evenodd;fill:context-stroke;stroke-width:0.62500000;stroke-linejoin:round"
         id="path877" />
    </marker>
  </defs>
  <g
     inkscape:label="Layer 1"
     inkscape:groupmode="layer"
     id="layer1">
    <path
       style="fill:none;stroke:#000000;stroke-width:0.264583px;stroke-linecap:butt;stroke-linejoin:miter;stroke-opacity:1"
       d="m 73.114047,44.198886 c -8.171618,5.54662 -16.057281,11.950703 -21.140681,20.418251 -2.5417,4.233774 -4.337601,8.951422 -4.933431,13.85347 -0.59583,4.902047 0.03946,9.990603 2.115835,14.470976 1.668016,3.599219 4.23759,6.755128 7.318498,9.254057 3.080909,2.49893 6.665002,4.34946 10.435992,5.58083 7.541981,2.46275 15.705236,2.44164 23.552881,1.27499 10.582319,-1.5732 20.793319,-5.16189 31.393599,-6.60918 6.52414,-0.89076 13.13482,-0.96144 19.67596,-1.71732 6.54114,-0.755876 13.14055,-2.253155 18.7399,-5.718007 5.72954,-3.545417 10.16177,-9.077234 12.58563,-15.363929 2.42386,-6.286695 2.86146,-13.289135 1.4631,-19.880208 C 172.92298,53.171744 169.7188,47.00226 165.30405,41.912308 160.8893,36.822356 155.28485,32.804274 149.13962,30.041333 136.84917,24.51545 122.65244,24.105048 109.53225,27.1793 96.412052,30.253553 84.26373,36.630855 73.114047,44.198886 Z"
       id="path870"
       inkscape:path-effect="#path-effect872"
       inkscape:original-d="M 73.114047,44.198886 C 44.06093,27.2626 57.142128,76.694283 49.15577,92.941583 c -7.986355,16.247307 27.538513,10.740177 41.307371,16.109877 13.768859,5.36969 20.929329,-4.40586 31.393599,-6.60918 10.46427,-2.20332 25.61084,-4.956621 38.41586,-7.435327 12.80502,-2.478707 -58.10544,-33.871778 -87.158553,-50.808067 z" />
    <path
       style="fill:none;stroke:#000000;stroke-width:0.264583px;stroke-linecap:butt;stroke-linejoin:miter;stroke-opacity:1"
       d="M 63.682834,51.278549 100.5671,29.822674 125.95643,101.97758 Z"
       id="path907" />
    <path
       style="fill:none;stroke:#000000;stroke-width:0.264583px;stroke-linecap:butt;stroke-linejoin:miter;stroke-opacity:1"
       d="M 63.682834,51.278549 83.493778,109.7489 47.198094,77.345507 Z"
       id="path909" />
    <path
       style="fill:none;stroke:#000000;stroke-width:0.264583px;stroke-linecap:butt;stroke-linejoin:miter;stroke-opacity:1"
       d="M 63.682834,51.278549 83.493778,109.7489 125.95643,101.97758 Z"
       id="path911" />
    <path
       style="fill:none;stroke:#000000;stroke-width:0.264583px;stroke-linecap:butt;stroke-linejoin:miter;stroke-opacity:1"
       d="m 47.198094,77.345507 5.690629,21.366009 30.60505,11.037384 v 0 z"
       id="path913" />
    <path
       style="fill:none;stroke:#000000;stroke-width:0.264583px;stroke-linecap:butt;stroke-linejoin:miter;stroke-opacity:1"
       d="m 158.35611,35.463252 -57.78902,-5.640575 25.38934,72.154903 33.39798,-65.744417 z"
       id="path915" />
    <path
       style="fill:none;stroke:#000000;stroke-width:0.264583px;stroke-linecap:butt;stroke-linejoin:miter;stroke-opacity:1"
       d="m 125.95643,101.97758 33.39798,-65.744417 14.03043,41.939485 z"
       id="path917" />
  </g>
  <inkscape:templateinfo>
    <inkscape:name>Default Template</inkscape:name>
    <inkscape:author>Joachim Favre</inkscape:author>
    <inkscape:shortdesc>Arrow definitions, snapping (including perpendicular and tangential)</inkscape:shortdesc>
    <inkscape:date>2022-02-19</inkscape:date>
  </inkscape:templateinfo>
</svg>
